M48
; DRILL file {KiCad (6.0.11)} date Sun Jan 29 15:15:56 2023
; FORMAT={-:-/ absolute / inch / decimal}
; #@! TF.CreationDate,2023-01-29T15:15:56+00:00
; #@! TF.GenerationSoftware,Kicad,Pcbnew,(6.0.11)
; #@! TF.FileFunction,Plated,1,2,PTH
FMAT,2
INCH
; #@! TA.AperFunction,Plated,PTH,ComponentDrill
T1C0.0197
; #@! TA.AperFunction,Plated,PTH,ComponentDrill
T2C0.0354
; #@! TA.AperFunction,Plated,PTH,ComponentDrill
T3C0.0394
%
G90
G05
T2
X2.1654Y-2.376
X2.1654Y-4.4941
X2.2154Y-2.276
X2.2154Y-4.3941
X2.2654Y-2.376
X2.2654Y-4.4941
X2.3154Y-2.276
X2.3154Y-4.3941
X2.3654Y-2.376
X2.3654Y-4.4941
X2.4154Y-2.276
X2.4154Y-4.3941
X2.4654Y-2.376
X2.4654Y-4.4941
X2.5154Y-2.276
X2.5154Y-4.3941
T3
X2.189Y-2.0443
X2.189Y-2.1443
X2.189Y-4.1624
X2.189Y-4.2624
X2.289Y-2.0443
X2.289Y-2.1443
X2.289Y-4.1624
X2.289Y-4.2624
X2.389Y-2.0443
X2.389Y-2.1443
X2.389Y-4.1624
X2.389Y-4.2624
X2.489Y-2.0443
X2.489Y-2.1443
X2.489Y-4.1624
X2.489Y-4.2624
T1
G00X2.1378Y-2.9953
M15
G01X2.1772Y-2.9953
M16
G05
G00X2.1378Y-3.322
M15
G01X2.1772Y-3.322
M16
G05
G00X2.1378Y-3.4441
M15
G01X2.1772Y-3.4441
M16
G05
G00X2.1378Y-3.5858
M15
G01X2.1772Y-3.5858
M16
G05
G00X2.1378Y-3.9126
M15
G01X2.1772Y-3.9126
M16
G05
G00X2.1378Y-4.0346
M15
G01X2.1772Y-4.0346
M16
G05
G00X2.1378Y-5.1094
M15
G01X2.1772Y-5.1094
M16
G05
G00X2.1378Y-5.4362
M15
G01X2.1772Y-5.4362
M16
G05
G00X2.1378Y-5.5583
M15
G01X2.1772Y-5.5583
M16
G05
G00X2.1378Y-5.7039
M15
G01X2.1772Y-5.7039
M16
G05
G00X2.1378Y-6.0307
M15
G01X2.1772Y-6.0307
M16
G05
G00X2.1378Y-6.1528
M15
G01X2.1772Y-6.1528
M16
G05
G00X2.5Y-2.9953
M15
G01X2.5394Y-2.9953
M16
G05
G00X2.5Y-3.322
M15
G01X2.5394Y-3.322
M16
G05
G00X2.5Y-3.4441
M15
G01X2.5394Y-3.4441
M16
G05
G00X2.5Y-3.5858
M15
G01X2.5394Y-3.5858
M16
G05
G00X2.5Y-3.9126
M15
G01X2.5394Y-3.9126
M16
G05
G00X2.5Y-4.0346
M15
G01X2.5394Y-4.0346
M16
G05
G00X2.5Y-5.1094
M15
G01X2.5394Y-5.1094
M16
G05
G00X2.5Y-5.4362
M15
G01X2.5394Y-5.4362
M16
G05
G00X2.5Y-5.5583
M15
G01X2.5394Y-5.5583
M16
G05
G00X2.5Y-5.7039
M15
G01X2.5394Y-5.7039
M16
G05
G00X2.5Y-6.0307
M15
G01X2.5394Y-6.0307
M16
G05
G00X2.5Y-6.1528
M15
G01X2.5394Y-6.1528
M16
G05
T0
M30
