%TF.GenerationSoftware,KiCad,Pcbnew,(6.0.8)*%
%TF.CreationDate,2022-10-24T12:17:12+01:00*%
%TF.ProjectId,VCO_Test,56434f5f-5465-4737-942e-6b696361645f,rev?*%
%TF.SameCoordinates,Original*%
%TF.FileFunction,Legend,Top*%
%TF.FilePolarity,Positive*%
%FSLAX46Y46*%
G04 Gerber Fmt 4.6, Leading zero omitted, Abs format (unit mm)*
G04 Created by KiCad (PCBNEW (6.0.8)) date 2022-10-24 12:17:12*
%MOMM*%
%LPD*%
G01*
G04 APERTURE LIST*
%ADD10C,0.300000*%
%ADD11C,0.200000*%
%ADD12C,0.500000*%
%ADD13C,0.150000*%
%ADD14C,0.120000*%
%ADD15R,2.500000X1.000000*%
G04 APERTURE END LIST*
D10*
X86971428Y-134507142D02*
X87185714Y-134578571D01*
X87542857Y-134578571D01*
X87685714Y-134507142D01*
X87757142Y-134435714D01*
X87828571Y-134292857D01*
X87828571Y-134150000D01*
X87757142Y-134007142D01*
X87685714Y-133935714D01*
X87542857Y-133864285D01*
X87257142Y-133792857D01*
X87114285Y-133721428D01*
X87042857Y-133650000D01*
X86971428Y-133507142D01*
X86971428Y-133364285D01*
X87042857Y-133221428D01*
X87114285Y-133150000D01*
X87257142Y-133078571D01*
X87614285Y-133078571D01*
X87828571Y-133150000D01*
X88400000Y-134507142D02*
X88614285Y-134578571D01*
X88971428Y-134578571D01*
X89114285Y-134507142D01*
X89185714Y-134435714D01*
X89257142Y-134292857D01*
X89257142Y-134150000D01*
X89185714Y-134007142D01*
X89114285Y-133935714D01*
X88971428Y-133864285D01*
X88685714Y-133792857D01*
X88542857Y-133721428D01*
X88471428Y-133650000D01*
X88400000Y-133507142D01*
X88400000Y-133364285D01*
X88471428Y-133221428D01*
X88542857Y-133150000D01*
X88685714Y-133078571D01*
X89042857Y-133078571D01*
X89257142Y-133150000D01*
X89900000Y-134578571D02*
X89900000Y-133078571D01*
X90542857Y-133221428D02*
X90614285Y-133150000D01*
X90757142Y-133078571D01*
X91114285Y-133078571D01*
X91257142Y-133150000D01*
X91328571Y-133221428D01*
X91400000Y-133364285D01*
X91400000Y-133507142D01*
X91328571Y-133721428D01*
X90471428Y-134578571D01*
X91400000Y-134578571D01*
X92828571Y-134578571D02*
X91971428Y-134578571D01*
X92400000Y-134578571D02*
X92400000Y-133078571D01*
X92257142Y-133292857D01*
X92114285Y-133435714D01*
X91971428Y-133507142D01*
X93328571Y-133078571D02*
X94257142Y-133078571D01*
X93757142Y-133650000D01*
X93971428Y-133650000D01*
X94114285Y-133721428D01*
X94185714Y-133792857D01*
X94257142Y-133935714D01*
X94257142Y-134292857D01*
X94185714Y-134435714D01*
X94114285Y-134507142D01*
X93971428Y-134578571D01*
X93542857Y-134578571D01*
X93400000Y-134507142D01*
X93328571Y-134435714D01*
X95685714Y-134578571D02*
X94828571Y-134578571D01*
X95257142Y-134578571D02*
X95257142Y-133078571D01*
X95114285Y-133292857D01*
X94971428Y-133435714D01*
X94828571Y-133507142D01*
X97257142Y-133078571D02*
X98114285Y-133078571D01*
X97685714Y-134578571D02*
X97685714Y-133078571D01*
X99185714Y-134507142D02*
X99042857Y-134578571D01*
X98757142Y-134578571D01*
X98614285Y-134507142D01*
X98542857Y-134364285D01*
X98542857Y-133792857D01*
X98614285Y-133650000D01*
X98757142Y-133578571D01*
X99042857Y-133578571D01*
X99185714Y-133650000D01*
X99257142Y-133792857D01*
X99257142Y-133935714D01*
X98542857Y-134078571D01*
X99828571Y-134507142D02*
X99971428Y-134578571D01*
X100257142Y-134578571D01*
X100400000Y-134507142D01*
X100471428Y-134364285D01*
X100471428Y-134292857D01*
X100400000Y-134150000D01*
X100257142Y-134078571D01*
X100042857Y-134078571D01*
X99900000Y-134007142D01*
X99828571Y-133864285D01*
X99828571Y-133792857D01*
X99900000Y-133650000D01*
X100042857Y-133578571D01*
X100257142Y-133578571D01*
X100400000Y-133650000D01*
X100900000Y-133578571D02*
X101471428Y-133578571D01*
X101114285Y-133078571D02*
X101114285Y-134364285D01*
X101185714Y-134507142D01*
X101328571Y-134578571D01*
X101471428Y-134578571D01*
X103614285Y-133792857D02*
X103828571Y-133864285D01*
X103900000Y-133935714D01*
X103971428Y-134078571D01*
X103971428Y-134292857D01*
X103900000Y-134435714D01*
X103828571Y-134507142D01*
X103685714Y-134578571D01*
X103114285Y-134578571D01*
X103114285Y-133078571D01*
X103614285Y-133078571D01*
X103757142Y-133150000D01*
X103828571Y-133221428D01*
X103900000Y-133364285D01*
X103900000Y-133507142D01*
X103828571Y-133650000D01*
X103757142Y-133721428D01*
X103614285Y-133792857D01*
X103114285Y-133792857D01*
X104828571Y-134578571D02*
X104685714Y-134507142D01*
X104614285Y-134435714D01*
X104542857Y-134292857D01*
X104542857Y-133864285D01*
X104614285Y-133721428D01*
X104685714Y-133650000D01*
X104828571Y-133578571D01*
X105042857Y-133578571D01*
X105185714Y-133650000D01*
X105257142Y-133721428D01*
X105328571Y-133864285D01*
X105328571Y-134292857D01*
X105257142Y-134435714D01*
X105185714Y-134507142D01*
X105042857Y-134578571D01*
X104828571Y-134578571D01*
X106614285Y-134578571D02*
X106614285Y-133792857D01*
X106542857Y-133650000D01*
X106400000Y-133578571D01*
X106114285Y-133578571D01*
X105971428Y-133650000D01*
X106614285Y-134507142D02*
X106471428Y-134578571D01*
X106114285Y-134578571D01*
X105971428Y-134507142D01*
X105900000Y-134364285D01*
X105900000Y-134221428D01*
X105971428Y-134078571D01*
X106114285Y-134007142D01*
X106471428Y-134007142D01*
X106614285Y-133935714D01*
X107328571Y-134578571D02*
X107328571Y-133578571D01*
X107328571Y-133864285D02*
X107400000Y-133721428D01*
X107471428Y-133650000D01*
X107614285Y-133578571D01*
X107757142Y-133578571D01*
X108900000Y-134578571D02*
X108900000Y-133078571D01*
X108900000Y-134507142D02*
X108757142Y-134578571D01*
X108471428Y-134578571D01*
X108328571Y-134507142D01*
X108257142Y-134435714D01*
X108185714Y-134292857D01*
X108185714Y-133864285D01*
X108257142Y-133721428D01*
X108328571Y-133650000D01*
X108471428Y-133578571D01*
X108757142Y-133578571D01*
X108900000Y-133650000D01*
X110614285Y-133578571D02*
X110971428Y-134578571D01*
X111328571Y-133578571D01*
X112685714Y-134578571D02*
X111828571Y-134578571D01*
X112257142Y-134578571D02*
X112257142Y-133078571D01*
X112114285Y-133292857D01*
X111971428Y-133435714D01*
X111828571Y-133507142D01*
X113328571Y-134435714D02*
X113400000Y-134507142D01*
X113328571Y-134578571D01*
X113257142Y-134507142D01*
X113328571Y-134435714D01*
X113328571Y-134578571D01*
X114328571Y-133078571D02*
X114471428Y-133078571D01*
X114614285Y-133150000D01*
X114685714Y-133221428D01*
X114757142Y-133364285D01*
X114828571Y-133650000D01*
X114828571Y-134007142D01*
X114757142Y-134292857D01*
X114685714Y-134435714D01*
X114614285Y-134507142D01*
X114471428Y-134578571D01*
X114328571Y-134578571D01*
X114185714Y-134507142D01*
X114114285Y-134435714D01*
X114042857Y-134292857D01*
X113971428Y-134007142D01*
X113971428Y-133650000D01*
X114042857Y-133364285D01*
X114114285Y-133221428D01*
X114185714Y-133150000D01*
X114328571Y-133078571D01*
D11*
X95180952Y-111852380D02*
X95752380Y-111852380D01*
X95466666Y-112852380D02*
X95466666Y-111852380D01*
X96561904Y-112852380D02*
X96085714Y-112852380D01*
X96085714Y-111852380D01*
X97085714Y-111852380D02*
X97180952Y-111852380D01*
X97276190Y-111900000D01*
X97323809Y-111947619D01*
X97371428Y-112042857D01*
X97419047Y-112233333D01*
X97419047Y-112471428D01*
X97371428Y-112661904D01*
X97323809Y-112757142D01*
X97276190Y-112804761D01*
X97180952Y-112852380D01*
X97085714Y-112852380D01*
X96990476Y-112804761D01*
X96942857Y-112757142D01*
X96895238Y-112661904D01*
X96847619Y-112471428D01*
X96847619Y-112233333D01*
X96895238Y-112042857D01*
X96942857Y-111947619D01*
X96990476Y-111900000D01*
X97085714Y-111852380D01*
X97752380Y-111852380D02*
X98419047Y-111852380D01*
X97990476Y-112852380D01*
X98752380Y-111947619D02*
X98800000Y-111900000D01*
X98895238Y-111852380D01*
X99133333Y-111852380D01*
X99228571Y-111900000D01*
X99276190Y-111947619D01*
X99323809Y-112042857D01*
X99323809Y-112138095D01*
X99276190Y-112280952D01*
X98704761Y-112852380D01*
X99323809Y-112852380D01*
D12*
X93450000Y-106200000D02*
G75*
G03*
X93450000Y-106200000I-250000J0D01*
G01*
X109350000Y-56700000D02*
G75*
G03*
X109350000Y-56700000I-250000J0D01*
G01*
X116450000Y-89500000D02*
G75*
G03*
X116450000Y-89500000I-250000J0D01*
G01*
X82050000Y-77900000D02*
G75*
G03*
X82050000Y-77900000I-250000J0D01*
G01*
X80750000Y-111100000D02*
G75*
G03*
X80750000Y-111100000I-250000J0D01*
G01*
D11*
X71180952Y-112452380D02*
X71847619Y-112452380D01*
X71419047Y-113452380D01*
X72657142Y-112785714D02*
X72657142Y-113452380D01*
X72419047Y-112404761D02*
X72180952Y-113119047D01*
X72800000Y-113119047D01*
X73657142Y-113452380D02*
X73180952Y-113452380D01*
X73180952Y-112452380D01*
X73847619Y-112452380D02*
X74180952Y-113452380D01*
X74514285Y-112452380D01*
X75276190Y-112785714D02*
X75276190Y-113452380D01*
X75038095Y-112404761D02*
X74800000Y-113119047D01*
X75419047Y-113119047D01*
X75990476Y-112452380D02*
X76085714Y-112452380D01*
X76180952Y-112500000D01*
X76228571Y-112547619D01*
X76276190Y-112642857D01*
X76323809Y-112833333D01*
X76323809Y-113071428D01*
X76276190Y-113261904D01*
X76228571Y-113357142D01*
X76180952Y-113404761D01*
X76085714Y-113452380D01*
X75990476Y-113452380D01*
X75895238Y-113404761D01*
X75847619Y-113357142D01*
X75800000Y-113261904D01*
X75752380Y-113071428D01*
X75752380Y-112833333D01*
X75800000Y-112642857D01*
X75847619Y-112547619D01*
X75895238Y-112500000D01*
X75990476Y-112452380D01*
X77180952Y-112452380D02*
X76990476Y-112452380D01*
X76895238Y-112500000D01*
X76847619Y-112547619D01*
X76752380Y-112690476D01*
X76704761Y-112880952D01*
X76704761Y-113261904D01*
X76752380Y-113357142D01*
X76800000Y-113404761D01*
X76895238Y-113452380D01*
X77085714Y-113452380D01*
X77180952Y-113404761D01*
X77228571Y-113357142D01*
X77276190Y-113261904D01*
X77276190Y-113023809D01*
X77228571Y-112928571D01*
X77180952Y-112880952D01*
X77085714Y-112833333D01*
X76895238Y-112833333D01*
X76800000Y-112880952D01*
X76752380Y-112928571D01*
X76704761Y-113023809D01*
X78133333Y-112452380D02*
X77942857Y-112452380D01*
X77847619Y-112500000D01*
X77800000Y-112547619D01*
X77704761Y-112690476D01*
X77657142Y-112880952D01*
X77657142Y-113261904D01*
X77704761Y-113357142D01*
X77752380Y-113404761D01*
X77847619Y-113452380D01*
X78038095Y-113452380D01*
X78133333Y-113404761D01*
X78180952Y-113357142D01*
X78228571Y-113261904D01*
X78228571Y-113023809D01*
X78180952Y-112928571D01*
X78133333Y-112880952D01*
X78038095Y-112833333D01*
X77847619Y-112833333D01*
X77752380Y-112880952D01*
X77704761Y-112928571D01*
X77657142Y-113023809D01*
X78657142Y-113452380D02*
X78657142Y-112452380D01*
X79038095Y-112452380D01*
X79133333Y-112500000D01*
X79180952Y-112547619D01*
X79228571Y-112642857D01*
X79228571Y-112785714D01*
X79180952Y-112880952D01*
X79133333Y-112928571D01*
X79038095Y-112976190D01*
X78657142Y-112976190D01*
X79561904Y-112452380D02*
X79800000Y-113452380D01*
X79990476Y-112738095D01*
X80180952Y-113452380D01*
X80419047Y-112452380D01*
X116561904Y-93852380D02*
X116561904Y-92852380D01*
X116895238Y-93566666D01*
X117228571Y-92852380D01*
X117228571Y-93852380D01*
X118276190Y-93757142D02*
X118228571Y-93804761D01*
X118085714Y-93852380D01*
X117990476Y-93852380D01*
X117847619Y-93804761D01*
X117752380Y-93709523D01*
X117704761Y-93614285D01*
X117657142Y-93423809D01*
X117657142Y-93280952D01*
X117704761Y-93090476D01*
X117752380Y-92995238D01*
X117847619Y-92900000D01*
X117990476Y-92852380D01*
X118085714Y-92852380D01*
X118228571Y-92900000D01*
X118276190Y-92947619D01*
X118704761Y-93852380D02*
X118704761Y-92852380D01*
X119085714Y-92852380D01*
X119180952Y-92900000D01*
X119228571Y-92947619D01*
X119276190Y-93042857D01*
X119276190Y-93185714D01*
X119228571Y-93280952D01*
X119180952Y-93328571D01*
X119085714Y-93376190D01*
X118704761Y-93376190D01*
X120133333Y-92852380D02*
X119942857Y-92852380D01*
X119847619Y-92900000D01*
X119800000Y-92947619D01*
X119704761Y-93090476D01*
X119657142Y-93280952D01*
X119657142Y-93661904D01*
X119704761Y-93757142D01*
X119752380Y-93804761D01*
X119847619Y-93852380D01*
X120038095Y-93852380D01*
X120133333Y-93804761D01*
X120180952Y-93757142D01*
X120228571Y-93661904D01*
X120228571Y-93423809D01*
X120180952Y-93328571D01*
X120133333Y-93280952D01*
X120038095Y-93233333D01*
X119847619Y-93233333D01*
X119752380Y-93280952D01*
X119704761Y-93328571D01*
X119657142Y-93423809D01*
X120847619Y-92852380D02*
X120942857Y-92852380D01*
X121038095Y-92900000D01*
X121085714Y-92947619D01*
X121133333Y-93042857D01*
X121180952Y-93233333D01*
X121180952Y-93471428D01*
X121133333Y-93661904D01*
X121085714Y-93757142D01*
X121038095Y-93804761D01*
X120942857Y-93852380D01*
X120847619Y-93852380D01*
X120752380Y-93804761D01*
X120704761Y-93757142D01*
X120657142Y-93661904D01*
X120609523Y-93471428D01*
X120609523Y-93233333D01*
X120657142Y-93042857D01*
X120704761Y-92947619D01*
X120752380Y-92900000D01*
X120847619Y-92852380D01*
X121800000Y-92852380D02*
X121895238Y-92852380D01*
X121990476Y-92900000D01*
X122038095Y-92947619D01*
X122085714Y-93042857D01*
X122133333Y-93233333D01*
X122133333Y-93471428D01*
X122085714Y-93661904D01*
X122038095Y-93757142D01*
X121990476Y-93804761D01*
X121895238Y-93852380D01*
X121800000Y-93852380D01*
X121704761Y-93804761D01*
X121657142Y-93757142D01*
X121609523Y-93661904D01*
X121561904Y-93471428D01*
X121561904Y-93233333D01*
X121609523Y-93042857D01*
X121657142Y-92947619D01*
X121704761Y-92900000D01*
X121800000Y-92852380D01*
X122514285Y-92947619D02*
X122561904Y-92900000D01*
X122657142Y-92852380D01*
X122895238Y-92852380D01*
X122990476Y-92900000D01*
X123038095Y-92947619D01*
X123085714Y-93042857D01*
X123085714Y-93138095D01*
X123038095Y-93280952D01*
X122466666Y-93852380D01*
X123085714Y-93852380D01*
X83095238Y-89604761D02*
X83238095Y-89652380D01*
X83476190Y-89652380D01*
X83571428Y-89604761D01*
X83619047Y-89557142D01*
X83666666Y-89461904D01*
X83666666Y-89366666D01*
X83619047Y-89271428D01*
X83571428Y-89223809D01*
X83476190Y-89176190D01*
X83285714Y-89128571D01*
X83190476Y-89080952D01*
X83142857Y-89033333D01*
X83095238Y-88938095D01*
X83095238Y-88842857D01*
X83142857Y-88747619D01*
X83190476Y-88700000D01*
X83285714Y-88652380D01*
X83523809Y-88652380D01*
X83666666Y-88700000D01*
X84047619Y-89604761D02*
X84190476Y-89652380D01*
X84428571Y-89652380D01*
X84523809Y-89604761D01*
X84571428Y-89557142D01*
X84619047Y-89461904D01*
X84619047Y-89366666D01*
X84571428Y-89271428D01*
X84523809Y-89223809D01*
X84428571Y-89176190D01*
X84238095Y-89128571D01*
X84142857Y-89080952D01*
X84095238Y-89033333D01*
X84047619Y-88938095D01*
X84047619Y-88842857D01*
X84095238Y-88747619D01*
X84142857Y-88700000D01*
X84238095Y-88652380D01*
X84476190Y-88652380D01*
X84619047Y-88700000D01*
X85047619Y-89652380D02*
X85047619Y-88652380D01*
X85476190Y-88747619D02*
X85523809Y-88700000D01*
X85619047Y-88652380D01*
X85857142Y-88652380D01*
X85952380Y-88700000D01*
X86000000Y-88747619D01*
X86047619Y-88842857D01*
X86047619Y-88938095D01*
X86000000Y-89080952D01*
X85428571Y-89652380D01*
X86047619Y-89652380D01*
X87000000Y-89652380D02*
X86428571Y-89652380D01*
X86714285Y-89652380D02*
X86714285Y-88652380D01*
X86619047Y-88795238D01*
X86523809Y-88890476D01*
X86428571Y-88938095D01*
X87333333Y-88652380D02*
X87952380Y-88652380D01*
X87619047Y-89033333D01*
X87761904Y-89033333D01*
X87857142Y-89080952D01*
X87904761Y-89128571D01*
X87952380Y-89223809D01*
X87952380Y-89461904D01*
X87904761Y-89557142D01*
X87857142Y-89604761D01*
X87761904Y-89652380D01*
X87476190Y-89652380D01*
X87380952Y-89604761D01*
X87333333Y-89557142D01*
X88904761Y-89652380D02*
X88333333Y-89652380D01*
X88619047Y-89652380D02*
X88619047Y-88652380D01*
X88523809Y-88795238D01*
X88428571Y-88890476D01*
X88333333Y-88938095D01*
X110209523Y-54147619D02*
X110257142Y-54100000D01*
X110352380Y-54052380D01*
X110590476Y-54052380D01*
X110685714Y-54100000D01*
X110733333Y-54147619D01*
X110780952Y-54242857D01*
X110780952Y-54338095D01*
X110733333Y-54480952D01*
X110161904Y-55052380D01*
X110780952Y-55052380D01*
X111209523Y-54957142D02*
X111257142Y-55004761D01*
X111209523Y-55052380D01*
X111161904Y-55004761D01*
X111209523Y-54957142D01*
X111209523Y-55052380D01*
X112161904Y-54052380D02*
X111685714Y-54052380D01*
X111638095Y-54528571D01*
X111685714Y-54480952D01*
X111780952Y-54433333D01*
X112019047Y-54433333D01*
X112114285Y-54480952D01*
X112161904Y-54528571D01*
X112209523Y-54623809D01*
X112209523Y-54861904D01*
X112161904Y-54957142D01*
X112114285Y-55004761D01*
X112019047Y-55052380D01*
X111780952Y-55052380D01*
X111685714Y-55004761D01*
X111638095Y-54957142D01*
X112495238Y-54052380D02*
X112828571Y-55052380D01*
X113161904Y-54052380D01*
X114828571Y-55052380D02*
X114495238Y-54576190D01*
X114257142Y-55052380D02*
X114257142Y-54052380D01*
X114638095Y-54052380D01*
X114733333Y-54100000D01*
X114780952Y-54147619D01*
X114828571Y-54242857D01*
X114828571Y-54385714D01*
X114780952Y-54480952D01*
X114733333Y-54528571D01*
X114638095Y-54576190D01*
X114257142Y-54576190D01*
X115638095Y-55004761D02*
X115542857Y-55052380D01*
X115352380Y-55052380D01*
X115257142Y-55004761D01*
X115209523Y-54909523D01*
X115209523Y-54528571D01*
X115257142Y-54433333D01*
X115352380Y-54385714D01*
X115542857Y-54385714D01*
X115638095Y-54433333D01*
X115685714Y-54528571D01*
X115685714Y-54623809D01*
X115209523Y-54719047D01*
X116542857Y-54385714D02*
X116542857Y-55195238D01*
X116495238Y-55290476D01*
X116447619Y-55338095D01*
X116352380Y-55385714D01*
X116209523Y-55385714D01*
X116114285Y-55338095D01*
X116542857Y-55004761D02*
X116447619Y-55052380D01*
X116257142Y-55052380D01*
X116161904Y-55004761D01*
X116114285Y-54957142D01*
X116066666Y-54861904D01*
X116066666Y-54576190D01*
X116114285Y-54480952D01*
X116161904Y-54433333D01*
X116257142Y-54385714D01*
X116447619Y-54385714D01*
X116542857Y-54433333D01*
X86347619Y-52952380D02*
X85871428Y-52952380D01*
X85823809Y-53428571D01*
X85871428Y-53380952D01*
X85966666Y-53333333D01*
X86204761Y-53333333D01*
X86300000Y-53380952D01*
X86347619Y-53428571D01*
X86395238Y-53523809D01*
X86395238Y-53761904D01*
X86347619Y-53857142D01*
X86300000Y-53904761D01*
X86204761Y-53952380D01*
X85966666Y-53952380D01*
X85871428Y-53904761D01*
X85823809Y-53857142D01*
X86680952Y-52952380D02*
X87014285Y-53952380D01*
X87347619Y-52952380D01*
X89014285Y-53952380D02*
X88680952Y-53476190D01*
X88442857Y-53952380D02*
X88442857Y-52952380D01*
X88823809Y-52952380D01*
X88919047Y-53000000D01*
X88966666Y-53047619D01*
X89014285Y-53142857D01*
X89014285Y-53285714D01*
X88966666Y-53380952D01*
X88919047Y-53428571D01*
X88823809Y-53476190D01*
X88442857Y-53476190D01*
X89823809Y-53904761D02*
X89728571Y-53952380D01*
X89538095Y-53952380D01*
X89442857Y-53904761D01*
X89395238Y-53809523D01*
X89395238Y-53428571D01*
X89442857Y-53333333D01*
X89538095Y-53285714D01*
X89728571Y-53285714D01*
X89823809Y-53333333D01*
X89871428Y-53428571D01*
X89871428Y-53523809D01*
X89395238Y-53619047D01*
X90728571Y-53285714D02*
X90728571Y-54095238D01*
X90680952Y-54190476D01*
X90633333Y-54238095D01*
X90538095Y-54285714D01*
X90395238Y-54285714D01*
X90300000Y-54238095D01*
X90728571Y-53904761D02*
X90633333Y-53952380D01*
X90442857Y-53952380D01*
X90347619Y-53904761D01*
X90300000Y-53857142D01*
X90252380Y-53761904D01*
X90252380Y-53476190D01*
X90300000Y-53380952D01*
X90347619Y-53333333D01*
X90442857Y-53285714D01*
X90633333Y-53285714D01*
X90728571Y-53333333D01*
X53933332Y-134366666D02*
X54409523Y-134366666D01*
X53838094Y-134652380D02*
X54171428Y-133652380D01*
X54504761Y-134652380D01*
X55266666Y-133985714D02*
X55266666Y-134652380D01*
X54838094Y-133985714D02*
X54838094Y-134509523D01*
X54885713Y-134604761D01*
X54980951Y-134652380D01*
X55123808Y-134652380D01*
X55219047Y-134604761D01*
X55266666Y-134557142D01*
X55647618Y-134652380D02*
X56171428Y-133985714D01*
X55647618Y-133985714D02*
X56171428Y-134652380D01*
X57504761Y-133652380D02*
X57695237Y-133652380D01*
X57790475Y-133700000D01*
X57885713Y-133795238D01*
X57933332Y-133985714D01*
X57933332Y-134319047D01*
X57885713Y-134509523D01*
X57790475Y-134604761D01*
X57695237Y-134652380D01*
X57504761Y-134652380D01*
X57409523Y-134604761D01*
X57314285Y-134509523D01*
X57266666Y-134319047D01*
X57266666Y-133985714D01*
X57314285Y-133795238D01*
X57409523Y-133700000D01*
X57504761Y-133652380D01*
X58790475Y-133985714D02*
X58790475Y-134652380D01*
X58361904Y-133985714D02*
X58361904Y-134509523D01*
X58409523Y-134604761D01*
X58504761Y-134652380D01*
X58647618Y-134652380D01*
X58742856Y-134604761D01*
X58790475Y-134557142D01*
X59123808Y-133985714D02*
X59504761Y-133985714D01*
X59266666Y-133652380D02*
X59266666Y-134509523D01*
X59314285Y-134604761D01*
X59409523Y-134652380D01*
X59504761Y-134652380D01*
X55076190Y-130366666D02*
X55552380Y-130366666D01*
X54980952Y-130652380D02*
X55314285Y-129652380D01*
X55647618Y-130652380D01*
X56409523Y-129985714D02*
X56409523Y-130652380D01*
X55980952Y-129985714D02*
X55980952Y-130509523D01*
X56028571Y-130604761D01*
X56123809Y-130652380D01*
X56266666Y-130652380D01*
X56361904Y-130604761D01*
X56409523Y-130557142D01*
X56790476Y-130652380D02*
X57314285Y-129985714D01*
X56790476Y-129985714D02*
X57314285Y-130652380D01*
X58457142Y-130652380D02*
X58457142Y-129652380D01*
X58933333Y-129985714D02*
X58933333Y-130652380D01*
X58933333Y-130080952D02*
X58980952Y-130033333D01*
X59076190Y-129985714D01*
X59219047Y-129985714D01*
X59314285Y-130033333D01*
X59361904Y-130128571D01*
X59361904Y-130652380D01*
X52552381Y-112652380D02*
X52552381Y-111652380D01*
X52933333Y-111652380D01*
X53028571Y-111700000D01*
X53076190Y-111747619D01*
X53123809Y-111842857D01*
X53123809Y-111985714D01*
X53076190Y-112080952D01*
X53028571Y-112128571D01*
X52933333Y-112176190D01*
X52552381Y-112176190D01*
X53980952Y-111985714D02*
X53980952Y-112652380D01*
X53552381Y-111985714D02*
X53552381Y-112509523D01*
X53600000Y-112604761D01*
X53695238Y-112652380D01*
X53838095Y-112652380D01*
X53933333Y-112604761D01*
X53980952Y-112557142D01*
X54600000Y-112652380D02*
X54504762Y-112604761D01*
X54457143Y-112509523D01*
X54457143Y-111652380D01*
X54933333Y-112604761D02*
X55028571Y-112652380D01*
X55219047Y-112652380D01*
X55314285Y-112604761D01*
X55361904Y-112509523D01*
X55361904Y-112461904D01*
X55314285Y-112366666D01*
X55219047Y-112319047D01*
X55076190Y-112319047D01*
X54980952Y-112271428D01*
X54933333Y-112176190D01*
X54933333Y-112128571D01*
X54980952Y-112033333D01*
X55076190Y-111985714D01*
X55219047Y-111985714D01*
X55314285Y-112033333D01*
X56171428Y-112604761D02*
X56076190Y-112652380D01*
X55885714Y-112652380D01*
X55790476Y-112604761D01*
X55742857Y-112509523D01*
X55742857Y-112128571D01*
X55790476Y-112033333D01*
X55885714Y-111985714D01*
X56076190Y-111985714D01*
X56171428Y-112033333D01*
X56219047Y-112128571D01*
X56219047Y-112223809D01*
X55742857Y-112319047D01*
X57409523Y-112652380D02*
X57409523Y-111652380D01*
X57742857Y-112366666D01*
X58076190Y-111652380D01*
X58076190Y-112652380D01*
X58552381Y-112652380D02*
X58552381Y-111985714D01*
X58552381Y-111652380D02*
X58504762Y-111700000D01*
X58552381Y-111747619D01*
X58600000Y-111700000D01*
X58552381Y-111652380D01*
X58552381Y-111747619D01*
X58933333Y-112652380D02*
X59457143Y-111985714D01*
X58933333Y-111985714D02*
X59457143Y-112652380D01*
X53695238Y-120604761D02*
X53838095Y-120652380D01*
X54076190Y-120652380D01*
X54171428Y-120604761D01*
X54219047Y-120557142D01*
X54266666Y-120461904D01*
X54266666Y-120366666D01*
X54219047Y-120271428D01*
X54171428Y-120223809D01*
X54076190Y-120176190D01*
X53885714Y-120128571D01*
X53790476Y-120080952D01*
X53742857Y-120033333D01*
X53695238Y-119938095D01*
X53695238Y-119842857D01*
X53742857Y-119747619D01*
X53790476Y-119700000D01*
X53885714Y-119652380D01*
X54123809Y-119652380D01*
X54266666Y-119700000D01*
X55123809Y-120652380D02*
X55123809Y-120128571D01*
X55076190Y-120033333D01*
X54980952Y-119985714D01*
X54790476Y-119985714D01*
X54695238Y-120033333D01*
X55123809Y-120604761D02*
X55028571Y-120652380D01*
X54790476Y-120652380D01*
X54695238Y-120604761D01*
X54647619Y-120509523D01*
X54647619Y-120414285D01*
X54695238Y-120319047D01*
X54790476Y-120271428D01*
X55028571Y-120271428D01*
X55123809Y-120223809D01*
X55504761Y-119985714D02*
X55695238Y-120652380D01*
X55885714Y-120176190D01*
X56076190Y-120652380D01*
X56266666Y-119985714D01*
X57409523Y-120652380D02*
X57409523Y-119652380D01*
X57742857Y-120366666D01*
X58076190Y-119652380D01*
X58076190Y-120652380D01*
X58552381Y-120652380D02*
X58552381Y-119985714D01*
X58552381Y-119652380D02*
X58504761Y-119700000D01*
X58552381Y-119747619D01*
X58600000Y-119700000D01*
X58552381Y-119652380D01*
X58552381Y-119747619D01*
X58933333Y-120652380D02*
X59457142Y-119985714D01*
X58933333Y-119985714D02*
X59457142Y-120652380D01*
X54552380Y-103652380D02*
X55123809Y-103652380D01*
X54838094Y-104652380D02*
X54838094Y-103652380D01*
X55457142Y-104652380D02*
X55457142Y-103985714D01*
X55457142Y-104176190D02*
X55504761Y-104080952D01*
X55552380Y-104033333D01*
X55647618Y-103985714D01*
X55742856Y-103985714D01*
X56076190Y-104652380D02*
X56076190Y-103985714D01*
X56076190Y-103652380D02*
X56028571Y-103700000D01*
X56076190Y-103747619D01*
X56123809Y-103700000D01*
X56076190Y-103652380D01*
X56076190Y-103747619D01*
X57504761Y-103652380D02*
X57695237Y-103652380D01*
X57790475Y-103700000D01*
X57885713Y-103795238D01*
X57933332Y-103985714D01*
X57933332Y-104319047D01*
X57885713Y-104509523D01*
X57790475Y-104604761D01*
X57695237Y-104652380D01*
X57504761Y-104652380D01*
X57409523Y-104604761D01*
X57314285Y-104509523D01*
X57266666Y-104319047D01*
X57266666Y-103985714D01*
X57314285Y-103795238D01*
X57409523Y-103700000D01*
X57504761Y-103652380D01*
X58790475Y-103985714D02*
X58790475Y-104652380D01*
X58361904Y-103985714D02*
X58361904Y-104509523D01*
X58409523Y-104604761D01*
X58504761Y-104652380D01*
X58647618Y-104652380D01*
X58742856Y-104604761D01*
X58790475Y-104557142D01*
X59123809Y-103985714D02*
X59504761Y-103985714D01*
X59266666Y-103652380D02*
X59266666Y-104509523D01*
X59314285Y-104604761D01*
X59409523Y-104652380D01*
X59504761Y-104652380D01*
X52457143Y-109052380D02*
X52457143Y-108052380D01*
X52838095Y-108052380D01*
X52933333Y-108100000D01*
X52980952Y-108147619D01*
X53028571Y-108242857D01*
X53028571Y-108385714D01*
X52980952Y-108480952D01*
X52933333Y-108528571D01*
X52838095Y-108576190D01*
X52457143Y-108576190D01*
X53885714Y-108385714D02*
X53885714Y-109052380D01*
X53457143Y-108385714D02*
X53457143Y-108909523D01*
X53504762Y-109004761D01*
X53600000Y-109052380D01*
X53742857Y-109052380D01*
X53838095Y-109004761D01*
X53885714Y-108957142D01*
X54504762Y-109052380D02*
X54409524Y-109004761D01*
X54361904Y-108909523D01*
X54361904Y-108052380D01*
X54838095Y-109004761D02*
X54933333Y-109052380D01*
X55123809Y-109052380D01*
X55219047Y-109004761D01*
X55266666Y-108909523D01*
X55266666Y-108861904D01*
X55219047Y-108766666D01*
X55123809Y-108719047D01*
X54980952Y-108719047D01*
X54885714Y-108671428D01*
X54838095Y-108576190D01*
X54838095Y-108528571D01*
X54885714Y-108433333D01*
X54980952Y-108385714D01*
X55123809Y-108385714D01*
X55219047Y-108433333D01*
X56076190Y-109004761D02*
X55980952Y-109052380D01*
X55790476Y-109052380D01*
X55695238Y-109004761D01*
X55647619Y-108909523D01*
X55647619Y-108528571D01*
X55695238Y-108433333D01*
X55790476Y-108385714D01*
X55980952Y-108385714D01*
X56076190Y-108433333D01*
X56123809Y-108528571D01*
X56123809Y-108623809D01*
X55647619Y-108719047D01*
X57504762Y-108052380D02*
X57695238Y-108052380D01*
X57790476Y-108100000D01*
X57885714Y-108195238D01*
X57933333Y-108385714D01*
X57933333Y-108719047D01*
X57885714Y-108909523D01*
X57790476Y-109004761D01*
X57695238Y-109052380D01*
X57504762Y-109052380D01*
X57409524Y-109004761D01*
X57314285Y-108909523D01*
X57266666Y-108719047D01*
X57266666Y-108385714D01*
X57314285Y-108195238D01*
X57409524Y-108100000D01*
X57504762Y-108052380D01*
X58790476Y-108385714D02*
X58790476Y-109052380D01*
X58361904Y-108385714D02*
X58361904Y-108909523D01*
X58409524Y-109004761D01*
X58504762Y-109052380D01*
X58647619Y-109052380D01*
X58742857Y-109004761D01*
X58790476Y-108957142D01*
X59123809Y-108385714D02*
X59504762Y-108385714D01*
X59266666Y-108052380D02*
X59266666Y-108909523D01*
X59314285Y-109004761D01*
X59409524Y-109052380D01*
X59504762Y-109052380D01*
X53600000Y-116604761D02*
X53742857Y-116652380D01*
X53980952Y-116652380D01*
X54076190Y-116604761D01*
X54123809Y-116557142D01*
X54171428Y-116461904D01*
X54171428Y-116366666D01*
X54123809Y-116271428D01*
X54076190Y-116223809D01*
X53980952Y-116176190D01*
X53790476Y-116128571D01*
X53695238Y-116080952D01*
X53647619Y-116033333D01*
X53600000Y-115938095D01*
X53600000Y-115842857D01*
X53647619Y-115747619D01*
X53695238Y-115700000D01*
X53790476Y-115652380D01*
X54028571Y-115652380D01*
X54171428Y-115700000D01*
X55028571Y-116652380D02*
X55028571Y-116128571D01*
X54980952Y-116033333D01*
X54885714Y-115985714D01*
X54695238Y-115985714D01*
X54600000Y-116033333D01*
X55028571Y-116604761D02*
X54933333Y-116652380D01*
X54695238Y-116652380D01*
X54600000Y-116604761D01*
X54552381Y-116509523D01*
X54552381Y-116414285D01*
X54600000Y-116319047D01*
X54695238Y-116271428D01*
X54933333Y-116271428D01*
X55028571Y-116223809D01*
X55409523Y-115985714D02*
X55600000Y-116652380D01*
X55790476Y-116176190D01*
X55980952Y-116652380D01*
X56171428Y-115985714D01*
X57504762Y-115652380D02*
X57695238Y-115652380D01*
X57790476Y-115700000D01*
X57885714Y-115795238D01*
X57933333Y-115985714D01*
X57933333Y-116319047D01*
X57885714Y-116509523D01*
X57790476Y-116604761D01*
X57695238Y-116652380D01*
X57504762Y-116652380D01*
X57409523Y-116604761D01*
X57314285Y-116509523D01*
X57266666Y-116319047D01*
X57266666Y-115985714D01*
X57314285Y-115795238D01*
X57409523Y-115700000D01*
X57504762Y-115652380D01*
X58790476Y-115985714D02*
X58790476Y-116652380D01*
X58361904Y-115985714D02*
X58361904Y-116509523D01*
X58409523Y-116604761D01*
X58504762Y-116652380D01*
X58647619Y-116652380D01*
X58742857Y-116604761D01*
X58790476Y-116557142D01*
X59123809Y-115985714D02*
X59504762Y-115985714D01*
X59266666Y-115652380D02*
X59266666Y-116509523D01*
X59314285Y-116604761D01*
X59409523Y-116652380D01*
X59504762Y-116652380D01*
X54647618Y-99652380D02*
X55219047Y-99652380D01*
X54933332Y-100652380D02*
X54933332Y-99652380D01*
X55552380Y-100652380D02*
X55552380Y-99985714D01*
X55552380Y-100176190D02*
X55599999Y-100080952D01*
X55647618Y-100033333D01*
X55742856Y-99985714D01*
X55838094Y-99985714D01*
X56171428Y-100652380D02*
X56171428Y-99985714D01*
X56171428Y-99652380D02*
X56123809Y-99700000D01*
X56171428Y-99747619D01*
X56219047Y-99700000D01*
X56171428Y-99652380D01*
X56171428Y-99747619D01*
X57409523Y-100652380D02*
X57409523Y-99652380D01*
X57742856Y-100366666D01*
X58076190Y-99652380D01*
X58076190Y-100652380D01*
X58552380Y-100652380D02*
X58552380Y-99985714D01*
X58552380Y-99652380D02*
X58504761Y-99700000D01*
X58552380Y-99747619D01*
X58599999Y-99700000D01*
X58552380Y-99652380D01*
X58552380Y-99747619D01*
X58933332Y-100652380D02*
X59457142Y-99985714D01*
X58933332Y-99985714D02*
X59457142Y-100652380D01*
X54028570Y-125366666D02*
X54504761Y-125366666D01*
X53933332Y-125652380D02*
X54266666Y-124652380D01*
X54599999Y-125652380D01*
X55361904Y-124985714D02*
X55361904Y-125652380D01*
X54933332Y-124985714D02*
X54933332Y-125509523D01*
X54980951Y-125604761D01*
X55076189Y-125652380D01*
X55219047Y-125652380D01*
X55314285Y-125604761D01*
X55361904Y-125557142D01*
X55742856Y-125652380D02*
X56266666Y-124985714D01*
X55742856Y-124985714D02*
X56266666Y-125652380D01*
X57409523Y-125652380D02*
X57409523Y-124652380D01*
X57742856Y-125366666D01*
X58076189Y-124652380D01*
X58076189Y-125652380D01*
X58552380Y-125652380D02*
X58552380Y-124985714D01*
X58552380Y-124652380D02*
X58504761Y-124700000D01*
X58552380Y-124747619D01*
X58599999Y-124700000D01*
X58552380Y-124652380D01*
X58552380Y-124747619D01*
X58933332Y-125652380D02*
X59457142Y-124985714D01*
X58933332Y-124985714D02*
X59457142Y-125652380D01*
X54123809Y-91352380D02*
X54123809Y-90352380D01*
X54457142Y-91066666D01*
X54790476Y-90352380D01*
X54790476Y-91352380D01*
X55266666Y-91352380D02*
X55266666Y-90685714D01*
X55266666Y-90352380D02*
X55219047Y-90400000D01*
X55266666Y-90447619D01*
X55314285Y-90400000D01*
X55266666Y-90352380D01*
X55266666Y-90447619D01*
X55647618Y-91352380D02*
X56171428Y-90685714D01*
X55647618Y-90685714D02*
X56171428Y-91352380D01*
X57504761Y-90352380D02*
X57695237Y-90352380D01*
X57790476Y-90400000D01*
X57885714Y-90495238D01*
X57933333Y-90685714D01*
X57933333Y-91019047D01*
X57885714Y-91209523D01*
X57790476Y-91304761D01*
X57695237Y-91352380D01*
X57504761Y-91352380D01*
X57409523Y-91304761D01*
X57314285Y-91209523D01*
X57266666Y-91019047D01*
X57266666Y-90685714D01*
X57314285Y-90495238D01*
X57409523Y-90400000D01*
X57504761Y-90352380D01*
X58790476Y-90685714D02*
X58790476Y-91352380D01*
X58361904Y-90685714D02*
X58361904Y-91209523D01*
X58409523Y-91304761D01*
X58504761Y-91352380D01*
X58647618Y-91352380D01*
X58742857Y-91304761D01*
X58790476Y-91257142D01*
X59123809Y-90685714D02*
X59504761Y-90685714D01*
X59266666Y-90352380D02*
X59266666Y-91209523D01*
X59314285Y-91304761D01*
X59409523Y-91352380D01*
X59504761Y-91352380D01*
X51361905Y-88228571D02*
X51695238Y-88228571D01*
X51838095Y-88752380D02*
X51361905Y-88752380D01*
X51361905Y-87752380D01*
X51838095Y-87752380D01*
X52171428Y-88752380D02*
X52695238Y-88085714D01*
X52171428Y-88085714D02*
X52695238Y-88752380D01*
X53076190Y-88085714D02*
X53076190Y-89085714D01*
X53076190Y-88133333D02*
X53171428Y-88085714D01*
X53361905Y-88085714D01*
X53457143Y-88133333D01*
X53504762Y-88180952D01*
X53552381Y-88276190D01*
X53552381Y-88561904D01*
X53504762Y-88657142D01*
X53457143Y-88704761D01*
X53361905Y-88752380D01*
X53171428Y-88752380D01*
X53076190Y-88704761D01*
X54123809Y-88752380D02*
X54028571Y-88704761D01*
X53980952Y-88657142D01*
X53933333Y-88561904D01*
X53933333Y-88276190D01*
X53980952Y-88180952D01*
X54028571Y-88133333D01*
X54123809Y-88085714D01*
X54266666Y-88085714D01*
X54361905Y-88133333D01*
X54409524Y-88180952D01*
X54457143Y-88276190D01*
X54457143Y-88561904D01*
X54409524Y-88657142D01*
X54361905Y-88704761D01*
X54266666Y-88752380D01*
X54123809Y-88752380D01*
X55980952Y-88228571D02*
X55647619Y-88228571D01*
X55647619Y-88752380D02*
X55647619Y-87752380D01*
X56123809Y-87752380D01*
X56504762Y-88752380D02*
X56504762Y-88085714D01*
X56504762Y-88276190D02*
X56552381Y-88180952D01*
X56600000Y-88133333D01*
X56695238Y-88085714D01*
X56790476Y-88085714D01*
X57504762Y-88704761D02*
X57409524Y-88752380D01*
X57219047Y-88752380D01*
X57123809Y-88704761D01*
X57076190Y-88609523D01*
X57076190Y-88228571D01*
X57123809Y-88133333D01*
X57219047Y-88085714D01*
X57409524Y-88085714D01*
X57504762Y-88133333D01*
X57552381Y-88228571D01*
X57552381Y-88323809D01*
X57076190Y-88419047D01*
X58409524Y-88085714D02*
X58409524Y-89085714D01*
X58409524Y-88704761D02*
X58314285Y-88752380D01*
X58123809Y-88752380D01*
X58028571Y-88704761D01*
X57980952Y-88657142D01*
X57933333Y-88561904D01*
X57933333Y-88276190D01*
X57980952Y-88180952D01*
X58028571Y-88133333D01*
X58123809Y-88085714D01*
X58314285Y-88085714D01*
X58409524Y-88133333D01*
X58838095Y-87847619D02*
X58885714Y-87800000D01*
X58980952Y-87752380D01*
X59219047Y-87752380D01*
X59314285Y-87800000D01*
X59361905Y-87847619D01*
X59409524Y-87942857D01*
X59409524Y-88038095D01*
X59361905Y-88180952D01*
X58790476Y-88752380D01*
X59409524Y-88752380D01*
X52457143Y-81252380D02*
X52457143Y-80252380D01*
X52838095Y-80252380D01*
X52933333Y-80300000D01*
X52980952Y-80347619D01*
X53028571Y-80442857D01*
X53028571Y-80585714D01*
X52980952Y-80680952D01*
X52933333Y-80728571D01*
X52838095Y-80776190D01*
X52457143Y-80776190D01*
X53885714Y-80585714D02*
X53885714Y-81252380D01*
X53457143Y-80585714D02*
X53457143Y-81109523D01*
X53504762Y-81204761D01*
X53600000Y-81252380D01*
X53742857Y-81252380D01*
X53838095Y-81204761D01*
X53885714Y-81157142D01*
X54504762Y-81252380D02*
X54409524Y-81204761D01*
X54361904Y-81109523D01*
X54361904Y-80252380D01*
X54838095Y-81204761D02*
X54933333Y-81252380D01*
X55123809Y-81252380D01*
X55219047Y-81204761D01*
X55266666Y-81109523D01*
X55266666Y-81061904D01*
X55219047Y-80966666D01*
X55123809Y-80919047D01*
X54980952Y-80919047D01*
X54885714Y-80871428D01*
X54838095Y-80776190D01*
X54838095Y-80728571D01*
X54885714Y-80633333D01*
X54980952Y-80585714D01*
X55123809Y-80585714D01*
X55219047Y-80633333D01*
X56076190Y-81204761D02*
X55980952Y-81252380D01*
X55790476Y-81252380D01*
X55695238Y-81204761D01*
X55647619Y-81109523D01*
X55647619Y-80728571D01*
X55695238Y-80633333D01*
X55790476Y-80585714D01*
X55980952Y-80585714D01*
X56076190Y-80633333D01*
X56123809Y-80728571D01*
X56123809Y-80823809D01*
X55647619Y-80919047D01*
X57504762Y-80252380D02*
X57695238Y-80252380D01*
X57790476Y-80300000D01*
X57885714Y-80395238D01*
X57933333Y-80585714D01*
X57933333Y-80919047D01*
X57885714Y-81109523D01*
X57790476Y-81204761D01*
X57695238Y-81252380D01*
X57504762Y-81252380D01*
X57409524Y-81204761D01*
X57314285Y-81109523D01*
X57266666Y-80919047D01*
X57266666Y-80585714D01*
X57314285Y-80395238D01*
X57409524Y-80300000D01*
X57504762Y-80252380D01*
X58790476Y-80585714D02*
X58790476Y-81252380D01*
X58361904Y-80585714D02*
X58361904Y-81109523D01*
X58409524Y-81204761D01*
X58504762Y-81252380D01*
X58647619Y-81252380D01*
X58742857Y-81204761D01*
X58790476Y-81157142D01*
X59123809Y-80585714D02*
X59504762Y-80585714D01*
X59266666Y-80252380D02*
X59266666Y-81109523D01*
X59314285Y-81204761D01*
X59409524Y-81252380D01*
X59504762Y-81252380D01*
X53600000Y-78604761D02*
X53742857Y-78652380D01*
X53980952Y-78652380D01*
X54076190Y-78604761D01*
X54123809Y-78557142D01*
X54171428Y-78461904D01*
X54171428Y-78366666D01*
X54123809Y-78271428D01*
X54076190Y-78223809D01*
X53980952Y-78176190D01*
X53790476Y-78128571D01*
X53695238Y-78080952D01*
X53647619Y-78033333D01*
X53600000Y-77938095D01*
X53600000Y-77842857D01*
X53647619Y-77747619D01*
X53695238Y-77700000D01*
X53790476Y-77652380D01*
X54028571Y-77652380D01*
X54171428Y-77700000D01*
X55028571Y-78652380D02*
X55028571Y-78128571D01*
X54980952Y-78033333D01*
X54885714Y-77985714D01*
X54695238Y-77985714D01*
X54600000Y-78033333D01*
X55028571Y-78604761D02*
X54933333Y-78652380D01*
X54695238Y-78652380D01*
X54600000Y-78604761D01*
X54552381Y-78509523D01*
X54552381Y-78414285D01*
X54600000Y-78319047D01*
X54695238Y-78271428D01*
X54933333Y-78271428D01*
X55028571Y-78223809D01*
X55409523Y-77985714D02*
X55600000Y-78652380D01*
X55790476Y-78176190D01*
X55980952Y-78652380D01*
X56171428Y-77985714D01*
X57504762Y-77652380D02*
X57695238Y-77652380D01*
X57790476Y-77700000D01*
X57885714Y-77795238D01*
X57933333Y-77985714D01*
X57933333Y-78319047D01*
X57885714Y-78509523D01*
X57790476Y-78604761D01*
X57695238Y-78652380D01*
X57504762Y-78652380D01*
X57409523Y-78604761D01*
X57314285Y-78509523D01*
X57266666Y-78319047D01*
X57266666Y-77985714D01*
X57314285Y-77795238D01*
X57409523Y-77700000D01*
X57504762Y-77652380D01*
X58790476Y-77985714D02*
X58790476Y-78652380D01*
X58361904Y-77985714D02*
X58361904Y-78509523D01*
X58409523Y-78604761D01*
X58504762Y-78652380D01*
X58647619Y-78652380D01*
X58742857Y-78604761D01*
X58790476Y-78557142D01*
X59123809Y-77985714D02*
X59504762Y-77985714D01*
X59266666Y-77652380D02*
X59266666Y-78509523D01*
X59314285Y-78604761D01*
X59409523Y-78652380D01*
X59504762Y-78652380D01*
X54552380Y-82752380D02*
X55123809Y-82752380D01*
X54838094Y-83752380D02*
X54838094Y-82752380D01*
X55457142Y-83752380D02*
X55457142Y-83085714D01*
X55457142Y-83276190D02*
X55504761Y-83180952D01*
X55552380Y-83133333D01*
X55647618Y-83085714D01*
X55742856Y-83085714D01*
X56076190Y-83752380D02*
X56076190Y-83085714D01*
X56076190Y-82752380D02*
X56028571Y-82800000D01*
X56076190Y-82847619D01*
X56123809Y-82800000D01*
X56076190Y-82752380D01*
X56076190Y-82847619D01*
X57504761Y-82752380D02*
X57695237Y-82752380D01*
X57790475Y-82800000D01*
X57885713Y-82895238D01*
X57933332Y-83085714D01*
X57933332Y-83419047D01*
X57885713Y-83609523D01*
X57790475Y-83704761D01*
X57695237Y-83752380D01*
X57504761Y-83752380D01*
X57409523Y-83704761D01*
X57314285Y-83609523D01*
X57266666Y-83419047D01*
X57266666Y-83085714D01*
X57314285Y-82895238D01*
X57409523Y-82800000D01*
X57504761Y-82752380D01*
X58790475Y-83085714D02*
X58790475Y-83752380D01*
X58361904Y-83085714D02*
X58361904Y-83609523D01*
X58409523Y-83704761D01*
X58504761Y-83752380D01*
X58647618Y-83752380D01*
X58742856Y-83704761D01*
X58790475Y-83657142D01*
X59123809Y-83085714D02*
X59504761Y-83085714D01*
X59266666Y-82752380D02*
X59266666Y-83609523D01*
X59314285Y-83704761D01*
X59409523Y-83752380D01*
X59504761Y-83752380D01*
X51361905Y-85728571D02*
X51695238Y-85728571D01*
X51838095Y-86252380D02*
X51361905Y-86252380D01*
X51361905Y-85252380D01*
X51838095Y-85252380D01*
X52171428Y-86252380D02*
X52695238Y-85585714D01*
X52171428Y-85585714D02*
X52695238Y-86252380D01*
X53076190Y-85585714D02*
X53076190Y-86585714D01*
X53076190Y-85633333D02*
X53171428Y-85585714D01*
X53361905Y-85585714D01*
X53457143Y-85633333D01*
X53504762Y-85680952D01*
X53552381Y-85776190D01*
X53552381Y-86061904D01*
X53504762Y-86157142D01*
X53457143Y-86204761D01*
X53361905Y-86252380D01*
X53171428Y-86252380D01*
X53076190Y-86204761D01*
X54123809Y-86252380D02*
X54028571Y-86204761D01*
X53980952Y-86157142D01*
X53933333Y-86061904D01*
X53933333Y-85776190D01*
X53980952Y-85680952D01*
X54028571Y-85633333D01*
X54123809Y-85585714D01*
X54266666Y-85585714D01*
X54361905Y-85633333D01*
X54409524Y-85680952D01*
X54457143Y-85776190D01*
X54457143Y-86061904D01*
X54409524Y-86157142D01*
X54361905Y-86204761D01*
X54266666Y-86252380D01*
X54123809Y-86252380D01*
X55980952Y-85728571D02*
X55647619Y-85728571D01*
X55647619Y-86252380D02*
X55647619Y-85252380D01*
X56123809Y-85252380D01*
X56504762Y-86252380D02*
X56504762Y-85585714D01*
X56504762Y-85776190D02*
X56552381Y-85680952D01*
X56600000Y-85633333D01*
X56695238Y-85585714D01*
X56790476Y-85585714D01*
X57504762Y-86204761D02*
X57409524Y-86252380D01*
X57219047Y-86252380D01*
X57123809Y-86204761D01*
X57076190Y-86109523D01*
X57076190Y-85728571D01*
X57123809Y-85633333D01*
X57219047Y-85585714D01*
X57409524Y-85585714D01*
X57504762Y-85633333D01*
X57552381Y-85728571D01*
X57552381Y-85823809D01*
X57076190Y-85919047D01*
X58409524Y-85585714D02*
X58409524Y-86585714D01*
X58409524Y-86204761D02*
X58314285Y-86252380D01*
X58123809Y-86252380D01*
X58028571Y-86204761D01*
X57980952Y-86157142D01*
X57933333Y-86061904D01*
X57933333Y-85776190D01*
X57980952Y-85680952D01*
X58028571Y-85633333D01*
X58123809Y-85585714D01*
X58314285Y-85585714D01*
X58409524Y-85633333D01*
X59409524Y-86252380D02*
X58838095Y-86252380D01*
X59123809Y-86252380D02*
X59123809Y-85252380D01*
X59028571Y-85395238D01*
X58933333Y-85490476D01*
X58838095Y-85538095D01*
X57314285Y-70700000D02*
X57219047Y-70652380D01*
X57076190Y-70652380D01*
X56933332Y-70700000D01*
X56838094Y-70795238D01*
X56790475Y-70890476D01*
X56742856Y-71080952D01*
X56742856Y-71223809D01*
X56790475Y-71414285D01*
X56838094Y-71509523D01*
X56933332Y-71604761D01*
X57076190Y-71652380D01*
X57171428Y-71652380D01*
X57314285Y-71604761D01*
X57361904Y-71557142D01*
X57361904Y-71223809D01*
X57171428Y-71223809D01*
X57790475Y-71652380D02*
X57790475Y-70652380D01*
X58361904Y-71652380D01*
X58361904Y-70652380D01*
X58838094Y-71652380D02*
X58838094Y-70652380D01*
X59076190Y-70652380D01*
X59219047Y-70700000D01*
X59314285Y-70795238D01*
X59361904Y-70890476D01*
X59409523Y-71080952D01*
X59409523Y-71223809D01*
X59361904Y-71414285D01*
X59314285Y-71509523D01*
X59219047Y-71604761D01*
X59076190Y-71652380D01*
X58838094Y-71652380D01*
X56790475Y-63671428D02*
X57552380Y-63671428D01*
X58504761Y-63052380D02*
X58028570Y-63052380D01*
X57980951Y-63528571D01*
X58028570Y-63480952D01*
X58123809Y-63433333D01*
X58361904Y-63433333D01*
X58457142Y-63480952D01*
X58504761Y-63528571D01*
X58552380Y-63623809D01*
X58552380Y-63861904D01*
X58504761Y-63957142D01*
X58457142Y-64004761D01*
X58361904Y-64052380D01*
X58123809Y-64052380D01*
X58028570Y-64004761D01*
X57980951Y-63957142D01*
X58838094Y-63052380D02*
X59171428Y-64052380D01*
X59504761Y-63052380D01*
X56790475Y-66171428D02*
X57552380Y-66171428D01*
X57171428Y-66552380D02*
X57171428Y-65790476D01*
X58504761Y-65552380D02*
X58028570Y-65552380D01*
X57980951Y-66028571D01*
X58028570Y-65980952D01*
X58123809Y-65933333D01*
X58361904Y-65933333D01*
X58457142Y-65980952D01*
X58504761Y-66028571D01*
X58552380Y-66123809D01*
X58552380Y-66361904D01*
X58504761Y-66457142D01*
X58457142Y-66504761D01*
X58361904Y-66552380D01*
X58123809Y-66552380D01*
X58028570Y-66504761D01*
X57980951Y-66457142D01*
X58838094Y-65552380D02*
X59171428Y-66552380D01*
X59504761Y-65552380D01*
X56552380Y-68247619D02*
X56599999Y-68200000D01*
X56695237Y-68152380D01*
X56933332Y-68152380D01*
X57028571Y-68200000D01*
X57076190Y-68247619D01*
X57123809Y-68342857D01*
X57123809Y-68438095D01*
X57076190Y-68580952D01*
X56504761Y-69152380D01*
X57123809Y-69152380D01*
X57552380Y-69057142D02*
X57599999Y-69104761D01*
X57552380Y-69152380D01*
X57504761Y-69104761D01*
X57552380Y-69057142D01*
X57552380Y-69152380D01*
X58504761Y-68152380D02*
X58028571Y-68152380D01*
X57980952Y-68628571D01*
X58028571Y-68580952D01*
X58123809Y-68533333D01*
X58361904Y-68533333D01*
X58457142Y-68580952D01*
X58504761Y-68628571D01*
X58552380Y-68723809D01*
X58552380Y-68961904D01*
X58504761Y-69057142D01*
X58457142Y-69104761D01*
X58361904Y-69152380D01*
X58123809Y-69152380D01*
X58028571Y-69104761D01*
X57980952Y-69057142D01*
X58838094Y-68152380D02*
X59171428Y-69152380D01*
X59504761Y-68152380D01*
X55838095Y-57871428D02*
X56600000Y-57871428D01*
X57600000Y-58252380D02*
X57028571Y-58252380D01*
X57314285Y-58252380D02*
X57314285Y-57252380D01*
X57219047Y-57395238D01*
X57123809Y-57490476D01*
X57028571Y-57538095D01*
X57980952Y-57347619D02*
X58028571Y-57300000D01*
X58123809Y-57252380D01*
X58361904Y-57252380D01*
X58457142Y-57300000D01*
X58504761Y-57347619D01*
X58552380Y-57442857D01*
X58552380Y-57538095D01*
X58504761Y-57680952D01*
X57933333Y-58252380D01*
X58552380Y-58252380D01*
X58838095Y-57252380D02*
X59171428Y-58252380D01*
X59504761Y-57252380D01*
X57314285Y-54700000D02*
X57219047Y-54652380D01*
X57076190Y-54652380D01*
X56933332Y-54700000D01*
X56838094Y-54795238D01*
X56790475Y-54890476D01*
X56742856Y-55080952D01*
X56742856Y-55223809D01*
X56790475Y-55414285D01*
X56838094Y-55509523D01*
X56933332Y-55604761D01*
X57076190Y-55652380D01*
X57171428Y-55652380D01*
X57314285Y-55604761D01*
X57361904Y-55557142D01*
X57361904Y-55223809D01*
X57171428Y-55223809D01*
X57790475Y-55652380D02*
X57790475Y-54652380D01*
X58361904Y-55652380D01*
X58361904Y-54652380D01*
X58838094Y-55652380D02*
X58838094Y-54652380D01*
X59076190Y-54652380D01*
X59219047Y-54700000D01*
X59314285Y-54795238D01*
X59361904Y-54890476D01*
X59409523Y-55080952D01*
X59409523Y-55223809D01*
X59361904Y-55414285D01*
X59314285Y-55509523D01*
X59219047Y-55604761D01*
X59076190Y-55652380D01*
X58838094Y-55652380D01*
X55838095Y-52771428D02*
X56600000Y-52771428D01*
X56219047Y-53152380D02*
X56219047Y-52390476D01*
X57600000Y-53152380D02*
X57028571Y-53152380D01*
X57314285Y-53152380D02*
X57314285Y-52152380D01*
X57219047Y-52295238D01*
X57123809Y-52390476D01*
X57028571Y-52438095D01*
X57980952Y-52247619D02*
X58028571Y-52200000D01*
X58123809Y-52152380D01*
X58361904Y-52152380D01*
X58457142Y-52200000D01*
X58504761Y-52247619D01*
X58552380Y-52342857D01*
X58552380Y-52438095D01*
X58504761Y-52580952D01*
X57933333Y-53152380D01*
X58552380Y-53152380D01*
X58838095Y-52152380D02*
X59171428Y-53152380D01*
X59504761Y-52152380D01*
X116523809Y-122052380D02*
X116523809Y-121052380D01*
X116904761Y-121052380D01*
X117000000Y-121100000D01*
X117047619Y-121147619D01*
X117095238Y-121242857D01*
X117095238Y-121385714D01*
X117047619Y-121480952D01*
X117000000Y-121528571D01*
X116904761Y-121576190D01*
X116523809Y-121576190D01*
X117428571Y-121052380D02*
X117666666Y-122052380D01*
X117857142Y-121338095D01*
X118047619Y-122052380D01*
X118285714Y-121052380D01*
X118666666Y-122052380D02*
X118666666Y-121052380D01*
X119000000Y-121766666D01*
X119333333Y-121052380D01*
X119333333Y-122052380D01*
X120571428Y-122052380D02*
X120571428Y-121052380D01*
X121047619Y-121385714D02*
X121047619Y-122052380D01*
X121047619Y-121480952D02*
X121095238Y-121433333D01*
X121190476Y-121385714D01*
X121333333Y-121385714D01*
X121428571Y-121433333D01*
X121476190Y-121528571D01*
X121476190Y-122052380D01*
X130976190Y-133752380D02*
X130976190Y-132752380D01*
X131357142Y-132752380D01*
X131452380Y-132800000D01*
X131500000Y-132847619D01*
X131547619Y-132942857D01*
X131547619Y-133085714D01*
X131500000Y-133180952D01*
X131452380Y-133228571D01*
X131357142Y-133276190D01*
X130976190Y-133276190D01*
X131880952Y-132752380D02*
X132119047Y-133752380D01*
X132309523Y-133038095D01*
X132500000Y-133752380D01*
X132738095Y-132752380D01*
X133119047Y-133752380D02*
X133119047Y-132752380D01*
X133452380Y-133466666D01*
X133785714Y-132752380D01*
X133785714Y-133752380D01*
X135023809Y-133752380D02*
X135023809Y-132752380D01*
X135404761Y-132752380D01*
X135500000Y-132800000D01*
X135547619Y-132847619D01*
X135595238Y-132942857D01*
X135595238Y-133085714D01*
X135547619Y-133180952D01*
X135500000Y-133228571D01*
X135404761Y-133276190D01*
X135023809Y-133276190D01*
X136166666Y-133752380D02*
X136071428Y-133704761D01*
X136023809Y-133657142D01*
X135976190Y-133561904D01*
X135976190Y-133276190D01*
X136023809Y-133180952D01*
X136071428Y-133133333D01*
X136166666Y-133085714D01*
X136309523Y-133085714D01*
X136404761Y-133133333D01*
X136452380Y-133180952D01*
X136500000Y-133276190D01*
X136500000Y-133561904D01*
X136452380Y-133657142D01*
X136404761Y-133704761D01*
X136309523Y-133752380D01*
X136166666Y-133752380D01*
X136785714Y-133085714D02*
X137166666Y-133085714D01*
X136928571Y-132752380D02*
X136928571Y-133609523D01*
X136976190Y-133704761D01*
X137071428Y-133752380D01*
X137166666Y-133752380D01*
X131000000Y-113752380D02*
X131000000Y-112752380D01*
X131380952Y-112752380D01*
X131476190Y-112800000D01*
X131523809Y-112847619D01*
X131571428Y-112942857D01*
X131571428Y-113085714D01*
X131523809Y-113180952D01*
X131476190Y-113228571D01*
X131380952Y-113276190D01*
X131000000Y-113276190D01*
X131904761Y-112752380D02*
X132142857Y-113752380D01*
X132333333Y-113038095D01*
X132523809Y-113752380D01*
X132761904Y-112752380D01*
X133142857Y-113752380D02*
X133142857Y-112752380D01*
X133476190Y-113466666D01*
X133809523Y-112752380D01*
X133809523Y-113752380D01*
X135047619Y-113752380D02*
X135047619Y-112752380D01*
X135380952Y-113466666D01*
X135714285Y-112752380D01*
X135714285Y-113752380D01*
X136190476Y-113752380D02*
X136190476Y-113085714D01*
X136190476Y-112752380D02*
X136142857Y-112800000D01*
X136190476Y-112847619D01*
X136238095Y-112800000D01*
X136190476Y-112752380D01*
X136190476Y-112847619D01*
X136571428Y-113752380D02*
X137095238Y-113085714D01*
X136571428Y-113085714D02*
X137095238Y-113752380D01*
X138847618Y-93057142D02*
X138799999Y-93104761D01*
X138657142Y-93152380D01*
X138561904Y-93152380D01*
X138419047Y-93104761D01*
X138323809Y-93009523D01*
X138276190Y-92914285D01*
X138228571Y-92723809D01*
X138228571Y-92580952D01*
X138276190Y-92390476D01*
X138323809Y-92295238D01*
X138419047Y-92200000D01*
X138561904Y-92152380D01*
X138657142Y-92152380D01*
X138799999Y-92200000D01*
X138847618Y-92247619D01*
X139133333Y-92152380D02*
X139466666Y-93152380D01*
X139799999Y-92152380D01*
X140895237Y-93152380D02*
X140895237Y-92152380D01*
X141371428Y-92485714D02*
X141371428Y-93152380D01*
X141371428Y-92580952D02*
X141419047Y-92533333D01*
X141514285Y-92485714D01*
X141657142Y-92485714D01*
X141752380Y-92533333D01*
X141799999Y-92628571D01*
X141799999Y-93152380D01*
X138847618Y-87657142D02*
X138799999Y-87704761D01*
X138657142Y-87752380D01*
X138561903Y-87752380D01*
X138419046Y-87704761D01*
X138323808Y-87609523D01*
X138276189Y-87514285D01*
X138228570Y-87323809D01*
X138228570Y-87180952D01*
X138276189Y-86990476D01*
X138323808Y-86895238D01*
X138419046Y-86800000D01*
X138561903Y-86752380D01*
X138657142Y-86752380D01*
X138799999Y-86800000D01*
X138847618Y-86847619D01*
X139133332Y-86752380D02*
X139466665Y-87752380D01*
X139799999Y-86752380D01*
X141085713Y-86752380D02*
X141276189Y-86752380D01*
X141371427Y-86800000D01*
X141466665Y-86895238D01*
X141514284Y-87085714D01*
X141514284Y-87419047D01*
X141466665Y-87609523D01*
X141371427Y-87704761D01*
X141276189Y-87752380D01*
X141085713Y-87752380D01*
X140990475Y-87704761D01*
X140895237Y-87609523D01*
X140847618Y-87419047D01*
X140847618Y-87085714D01*
X140895237Y-86895238D01*
X140990475Y-86800000D01*
X141085713Y-86752380D01*
X142371427Y-87085714D02*
X142371427Y-87752380D01*
X141942856Y-87085714D02*
X141942856Y-87609523D01*
X141990475Y-87704761D01*
X142085713Y-87752380D01*
X142228570Y-87752380D01*
X142323808Y-87704761D01*
X142371427Y-87657142D01*
X142704761Y-87085714D02*
X143085713Y-87085714D01*
X142847618Y-86752380D02*
X142847618Y-87609523D01*
X142895237Y-87704761D01*
X142990475Y-87752380D01*
X143085713Y-87752380D01*
X98923809Y-100552380D02*
X98923809Y-99552380D01*
X99304761Y-99552380D01*
X99400000Y-99600000D01*
X99447619Y-99647619D01*
X99495238Y-99742857D01*
X99495238Y-99885714D01*
X99447619Y-99980952D01*
X99400000Y-100028571D01*
X99304761Y-100076190D01*
X98923809Y-100076190D01*
X99828571Y-99552380D02*
X100066666Y-100552380D01*
X100257142Y-99838095D01*
X100447619Y-100552380D01*
X100685714Y-99552380D01*
X101066666Y-100552380D02*
X101066666Y-99552380D01*
X101400000Y-100266666D01*
X101733333Y-99552380D01*
X101733333Y-100552380D01*
X102971428Y-100552380D02*
X102971428Y-99552380D01*
X103447619Y-99885714D02*
X103447619Y-100552380D01*
X103447619Y-99980952D02*
X103495238Y-99933333D01*
X103590476Y-99885714D01*
X103733333Y-99885714D01*
X103828571Y-99933333D01*
X103876190Y-100028571D01*
X103876190Y-100552380D01*
X98342857Y-87952380D02*
X98342857Y-86952380D01*
X98342857Y-87428571D02*
X98914285Y-87428571D01*
X98914285Y-87952380D02*
X98914285Y-86952380D01*
X100104761Y-87904761D02*
X100247619Y-87952380D01*
X100485714Y-87952380D01*
X100580952Y-87904761D01*
X100628571Y-87857142D01*
X100676190Y-87761904D01*
X100676190Y-87666666D01*
X100628571Y-87571428D01*
X100580952Y-87523809D01*
X100485714Y-87476190D01*
X100295238Y-87428571D01*
X100200000Y-87380952D01*
X100152380Y-87333333D01*
X100104761Y-87238095D01*
X100104761Y-87142857D01*
X100152380Y-87047619D01*
X100200000Y-87000000D01*
X100295238Y-86952380D01*
X100533333Y-86952380D01*
X100676190Y-87000000D01*
X101009523Y-87285714D02*
X101247619Y-87952380D01*
X101485714Y-87285714D02*
X101247619Y-87952380D01*
X101152380Y-88190476D01*
X101104761Y-88238095D01*
X101009523Y-88285714D01*
X101866666Y-87285714D02*
X101866666Y-87952380D01*
X101866666Y-87380952D02*
X101914285Y-87333333D01*
X102009523Y-87285714D01*
X102152380Y-87285714D01*
X102247619Y-87333333D01*
X102295238Y-87428571D01*
X102295238Y-87952380D01*
X103200000Y-87904761D02*
X103104761Y-87952380D01*
X102914285Y-87952380D01*
X102819047Y-87904761D01*
X102771428Y-87857142D01*
X102723809Y-87761904D01*
X102723809Y-87476190D01*
X102771428Y-87380952D01*
X102819047Y-87333333D01*
X102914285Y-87285714D01*
X103104761Y-87285714D01*
X103200000Y-87333333D01*
X103628571Y-87952380D02*
X103628571Y-86952380D01*
X104057142Y-87952380D02*
X104057142Y-87428571D01*
X104009523Y-87333333D01*
X103914285Y-87285714D01*
X103771428Y-87285714D01*
X103676190Y-87333333D01*
X103628571Y-87380952D01*
X98342857Y-85304761D02*
X98485714Y-85352380D01*
X98723809Y-85352380D01*
X98819047Y-85304761D01*
X98866666Y-85257142D01*
X98914285Y-85161904D01*
X98914285Y-85066666D01*
X98866666Y-84971428D01*
X98819047Y-84923809D01*
X98723809Y-84876190D01*
X98533333Y-84828571D01*
X98438095Y-84780952D01*
X98390476Y-84733333D01*
X98342857Y-84638095D01*
X98342857Y-84542857D01*
X98390476Y-84447619D01*
X98438095Y-84400000D01*
X98533333Y-84352380D01*
X98771428Y-84352380D01*
X98914285Y-84400000D01*
X100057142Y-85304761D02*
X100200000Y-85352380D01*
X100438095Y-85352380D01*
X100533333Y-85304761D01*
X100580952Y-85257142D01*
X100628571Y-85161904D01*
X100628571Y-85066666D01*
X100580952Y-84971428D01*
X100533333Y-84923809D01*
X100438095Y-84876190D01*
X100247619Y-84828571D01*
X100152380Y-84780952D01*
X100104761Y-84733333D01*
X100057142Y-84638095D01*
X100057142Y-84542857D01*
X100104761Y-84447619D01*
X100152380Y-84400000D01*
X100247619Y-84352380D01*
X100485714Y-84352380D01*
X100628571Y-84400000D01*
X100961904Y-84685714D02*
X101200000Y-85352380D01*
X101438095Y-84685714D02*
X101200000Y-85352380D01*
X101104761Y-85590476D01*
X101057142Y-85638095D01*
X100961904Y-85685714D01*
X101819047Y-84685714D02*
X101819047Y-85352380D01*
X101819047Y-84780952D02*
X101866666Y-84733333D01*
X101961904Y-84685714D01*
X102104761Y-84685714D01*
X102200000Y-84733333D01*
X102247619Y-84828571D01*
X102247619Y-85352380D01*
X103152380Y-85304761D02*
X103057142Y-85352380D01*
X102866666Y-85352380D01*
X102771428Y-85304761D01*
X102723809Y-85257142D01*
X102676190Y-85161904D01*
X102676190Y-84876190D01*
X102723809Y-84780952D01*
X102771428Y-84733333D01*
X102866666Y-84685714D01*
X103057142Y-84685714D01*
X103152380Y-84733333D01*
X103580952Y-85352380D02*
X103580952Y-84352380D01*
X104009523Y-85352380D02*
X104009523Y-84828571D01*
X103961904Y-84733333D01*
X103866666Y-84685714D01*
X103723809Y-84685714D01*
X103628571Y-84733333D01*
X103580952Y-84780952D01*
X102447619Y-73028571D02*
X102780952Y-73028571D01*
X102923809Y-73552380D02*
X102447619Y-73552380D01*
X102447619Y-72552380D01*
X102923809Y-72552380D01*
X103257142Y-73552380D02*
X103780952Y-72885714D01*
X103257142Y-72885714D02*
X103780952Y-73552380D01*
X104161904Y-72885714D02*
X104161904Y-73885714D01*
X104161904Y-72933333D02*
X104257142Y-72885714D01*
X104447619Y-72885714D01*
X104542857Y-72933333D01*
X104590476Y-72980952D01*
X104638095Y-73076190D01*
X104638095Y-73361904D01*
X104590476Y-73457142D01*
X104542857Y-73504761D01*
X104447619Y-73552380D01*
X104257142Y-73552380D01*
X104161904Y-73504761D01*
X105209523Y-73552380D02*
X105114285Y-73504761D01*
X105066666Y-73457142D01*
X105019047Y-73361904D01*
X105019047Y-73076190D01*
X105066666Y-72980952D01*
X105114285Y-72933333D01*
X105209523Y-72885714D01*
X105352380Y-72885714D01*
X105447619Y-72933333D01*
X105495238Y-72980952D01*
X105542857Y-73076190D01*
X105542857Y-73361904D01*
X105495238Y-73457142D01*
X105447619Y-73504761D01*
X105352380Y-73552380D01*
X105209523Y-73552380D01*
X106685714Y-73504761D02*
X106828571Y-73552380D01*
X107066666Y-73552380D01*
X107161904Y-73504761D01*
X107209523Y-73457142D01*
X107257142Y-73361904D01*
X107257142Y-73266666D01*
X107209523Y-73171428D01*
X107161904Y-73123809D01*
X107066666Y-73076190D01*
X106876190Y-73028571D01*
X106780952Y-72980952D01*
X106733333Y-72933333D01*
X106685714Y-72838095D01*
X106685714Y-72742857D01*
X106733333Y-72647619D01*
X106780952Y-72600000D01*
X106876190Y-72552380D01*
X107114285Y-72552380D01*
X107257142Y-72600000D01*
X108114285Y-73504761D02*
X108019047Y-73552380D01*
X107828571Y-73552380D01*
X107733333Y-73504761D01*
X107685714Y-73457142D01*
X107638095Y-73361904D01*
X107638095Y-73076190D01*
X107685714Y-72980952D01*
X107733333Y-72933333D01*
X107828571Y-72885714D01*
X108019047Y-72885714D01*
X108114285Y-72933333D01*
X108971428Y-73552380D02*
X108971428Y-73028571D01*
X108923809Y-72933333D01*
X108828571Y-72885714D01*
X108638095Y-72885714D01*
X108542857Y-72933333D01*
X108971428Y-73504761D02*
X108876190Y-73552380D01*
X108638095Y-73552380D01*
X108542857Y-73504761D01*
X108495238Y-73409523D01*
X108495238Y-73314285D01*
X108542857Y-73219047D01*
X108638095Y-73171428D01*
X108876190Y-73171428D01*
X108971428Y-73123809D01*
X109590476Y-73552380D02*
X109495238Y-73504761D01*
X109447619Y-73409523D01*
X109447619Y-72552380D01*
X110352380Y-73504761D02*
X110257142Y-73552380D01*
X110066666Y-73552380D01*
X109971428Y-73504761D01*
X109923809Y-73409523D01*
X109923809Y-73028571D01*
X109971428Y-72933333D01*
X110066666Y-72885714D01*
X110257142Y-72885714D01*
X110352380Y-72933333D01*
X110400000Y-73028571D01*
X110400000Y-73123809D01*
X109923809Y-73219047D01*
X118019047Y-76952380D02*
X117542857Y-76952380D01*
X117542857Y-75952380D01*
X118352380Y-76952380D02*
X118352380Y-76285714D01*
X118352380Y-75952380D02*
X118304761Y-76000000D01*
X118352380Y-76047619D01*
X118400000Y-76000000D01*
X118352380Y-75952380D01*
X118352380Y-76047619D01*
X118828571Y-76285714D02*
X118828571Y-76952380D01*
X118828571Y-76380952D02*
X118876190Y-76333333D01*
X118971428Y-76285714D01*
X119114285Y-76285714D01*
X119209523Y-76333333D01*
X119257142Y-76428571D01*
X119257142Y-76952380D01*
X120828571Y-76428571D02*
X120495238Y-76428571D01*
X120495238Y-76952380D02*
X120495238Y-75952380D01*
X120971428Y-75952380D01*
X121352380Y-76952380D02*
X121352380Y-76285714D01*
X121352380Y-76476190D02*
X121400000Y-76380952D01*
X121447619Y-76333333D01*
X121542857Y-76285714D01*
X121638095Y-76285714D01*
X122352380Y-76904761D02*
X122257142Y-76952380D01*
X122066666Y-76952380D01*
X121971428Y-76904761D01*
X121923809Y-76809523D01*
X121923809Y-76428571D01*
X121971428Y-76333333D01*
X122066666Y-76285714D01*
X122257142Y-76285714D01*
X122352380Y-76333333D01*
X122400000Y-76428571D01*
X122400000Y-76523809D01*
X121923809Y-76619047D01*
X123257142Y-76285714D02*
X123257142Y-77285714D01*
X123257142Y-76904761D02*
X123161904Y-76952380D01*
X122971428Y-76952380D01*
X122876190Y-76904761D01*
X122828571Y-76857142D01*
X122780952Y-76761904D01*
X122780952Y-76476190D01*
X122828571Y-76380952D01*
X122876190Y-76333333D01*
X122971428Y-76285714D01*
X123161904Y-76285714D01*
X123257142Y-76333333D01*
X138276190Y-78952380D02*
X138276190Y-77952380D01*
X138657142Y-77952380D01*
X138752380Y-78000000D01*
X138799999Y-78047619D01*
X138847618Y-78142857D01*
X138847618Y-78285714D01*
X138799999Y-78380952D01*
X138752380Y-78428571D01*
X138657142Y-78476190D01*
X138276190Y-78476190D01*
X139180952Y-77952380D02*
X139419047Y-78952380D01*
X139609523Y-78238095D01*
X139799999Y-78952380D01*
X140038095Y-77952380D01*
X140419047Y-78952380D02*
X140419047Y-77952380D01*
X140752380Y-78666666D01*
X141085714Y-77952380D01*
X141085714Y-78952380D01*
X142323809Y-78952380D02*
X142323809Y-77952380D01*
X142799999Y-78285714D02*
X142799999Y-78952380D01*
X142799999Y-78380952D02*
X142847618Y-78333333D01*
X142942857Y-78285714D01*
X143085714Y-78285714D01*
X143180952Y-78333333D01*
X143228571Y-78428571D01*
X143228571Y-78952380D01*
X143704761Y-78285714D02*
X143704761Y-79285714D01*
X143704761Y-78333333D02*
X143799999Y-78285714D01*
X143990476Y-78285714D01*
X144085714Y-78333333D01*
X144133333Y-78380952D01*
X144180952Y-78476190D01*
X144180952Y-78761904D01*
X144133333Y-78857142D01*
X144085714Y-78904761D01*
X143990476Y-78952380D01*
X143799999Y-78952380D01*
X143704761Y-78904761D01*
X145038095Y-78285714D02*
X145038095Y-78952380D01*
X144609523Y-78285714D02*
X144609523Y-78809523D01*
X144657142Y-78904761D01*
X144752380Y-78952380D01*
X144895237Y-78952380D01*
X144990476Y-78904761D01*
X145038095Y-78857142D01*
X145371428Y-78285714D02*
X145752380Y-78285714D01*
X145514285Y-77952380D02*
X145514285Y-78809523D01*
X145561904Y-78904761D01*
X145657142Y-78952380D01*
X145752380Y-78952380D01*
X138276190Y-75752380D02*
X138276190Y-74752380D01*
X138657142Y-74752380D01*
X138752380Y-74800000D01*
X138800000Y-74847619D01*
X138847619Y-74942857D01*
X138847619Y-75085714D01*
X138800000Y-75180952D01*
X138752380Y-75228571D01*
X138657142Y-75276190D01*
X138276190Y-75276190D01*
X139180952Y-74752380D02*
X139419047Y-75752380D01*
X139609523Y-75038095D01*
X139800000Y-75752380D01*
X140038095Y-74752380D01*
X140419047Y-75752380D02*
X140419047Y-74752380D01*
X140752380Y-75466666D01*
X141085714Y-74752380D01*
X141085714Y-75752380D01*
X142323809Y-75752380D02*
X142323809Y-74752380D01*
X142704761Y-74752380D01*
X142800000Y-74800000D01*
X142847619Y-74847619D01*
X142895238Y-74942857D01*
X142895238Y-75085714D01*
X142847619Y-75180952D01*
X142800000Y-75228571D01*
X142704761Y-75276190D01*
X142323809Y-75276190D01*
X143466666Y-75752380D02*
X143371428Y-75704761D01*
X143323809Y-75657142D01*
X143276190Y-75561904D01*
X143276190Y-75276190D01*
X143323809Y-75180952D01*
X143371428Y-75133333D01*
X143466666Y-75085714D01*
X143609523Y-75085714D01*
X143704761Y-75133333D01*
X143752380Y-75180952D01*
X143800000Y-75276190D01*
X143800000Y-75561904D01*
X143752380Y-75657142D01*
X143704761Y-75704761D01*
X143609523Y-75752380D01*
X143466666Y-75752380D01*
X144085714Y-75085714D02*
X144466666Y-75085714D01*
X144228571Y-74752380D02*
X144228571Y-75609523D01*
X144276190Y-75704761D01*
X144371428Y-75752380D01*
X144466666Y-75752380D01*
D13*
%TO.C,R24*%
X129757142Y-93252380D02*
X129423809Y-92776190D01*
X129185714Y-93252380D02*
X129185714Y-92252380D01*
X129566666Y-92252380D01*
X129661904Y-92300000D01*
X129709523Y-92347619D01*
X129757142Y-92442857D01*
X129757142Y-92585714D01*
X129709523Y-92680952D01*
X129661904Y-92728571D01*
X129566666Y-92776190D01*
X129185714Y-92776190D01*
X130138095Y-92347619D02*
X130185714Y-92300000D01*
X130280952Y-92252380D01*
X130519047Y-92252380D01*
X130614285Y-92300000D01*
X130661904Y-92347619D01*
X130709523Y-92442857D01*
X130709523Y-92538095D01*
X130661904Y-92680952D01*
X130090476Y-93252380D01*
X130709523Y-93252380D01*
X131566666Y-92585714D02*
X131566666Y-93252380D01*
X131328571Y-92204761D02*
X131090476Y-92919047D01*
X131709523Y-92919047D01*
%TO.C,R23*%
X129857142Y-90652380D02*
X129523809Y-90176190D01*
X129285714Y-90652380D02*
X129285714Y-89652380D01*
X129666666Y-89652380D01*
X129761904Y-89700000D01*
X129809523Y-89747619D01*
X129857142Y-89842857D01*
X129857142Y-89985714D01*
X129809523Y-90080952D01*
X129761904Y-90128571D01*
X129666666Y-90176190D01*
X129285714Y-90176190D01*
X130238095Y-89747619D02*
X130285714Y-89700000D01*
X130380952Y-89652380D01*
X130619047Y-89652380D01*
X130714285Y-89700000D01*
X130761904Y-89747619D01*
X130809523Y-89842857D01*
X130809523Y-89938095D01*
X130761904Y-90080952D01*
X130190476Y-90652380D01*
X130809523Y-90652380D01*
X131142857Y-89652380D02*
X131761904Y-89652380D01*
X131428571Y-90033333D01*
X131571428Y-90033333D01*
X131666666Y-90080952D01*
X131714285Y-90128571D01*
X131761904Y-90223809D01*
X131761904Y-90461904D01*
X131714285Y-90557142D01*
X131666666Y-90604761D01*
X131571428Y-90652380D01*
X131285714Y-90652380D01*
X131190476Y-90604761D01*
X131142857Y-90557142D01*
%TO.C,R22*%
X129857142Y-95652380D02*
X129523809Y-95176190D01*
X129285714Y-95652380D02*
X129285714Y-94652380D01*
X129666666Y-94652380D01*
X129761904Y-94700000D01*
X129809523Y-94747619D01*
X129857142Y-94842857D01*
X129857142Y-94985714D01*
X129809523Y-95080952D01*
X129761904Y-95128571D01*
X129666666Y-95176190D01*
X129285714Y-95176190D01*
X130238095Y-94747619D02*
X130285714Y-94700000D01*
X130380952Y-94652380D01*
X130619047Y-94652380D01*
X130714285Y-94700000D01*
X130761904Y-94747619D01*
X130809523Y-94842857D01*
X130809523Y-94938095D01*
X130761904Y-95080952D01*
X130190476Y-95652380D01*
X130809523Y-95652380D01*
X131190476Y-94747619D02*
X131238095Y-94700000D01*
X131333333Y-94652380D01*
X131571428Y-94652380D01*
X131666666Y-94700000D01*
X131714285Y-94747619D01*
X131761904Y-94842857D01*
X131761904Y-94938095D01*
X131714285Y-95080952D01*
X131142857Y-95652380D01*
X131761904Y-95652380D01*
%TO.C,C11*%
X129757142Y-88057142D02*
X129709523Y-88104761D01*
X129566666Y-88152380D01*
X129471428Y-88152380D01*
X129328571Y-88104761D01*
X129233333Y-88009523D01*
X129185714Y-87914285D01*
X129138095Y-87723809D01*
X129138095Y-87580952D01*
X129185714Y-87390476D01*
X129233333Y-87295238D01*
X129328571Y-87200000D01*
X129471428Y-87152380D01*
X129566666Y-87152380D01*
X129709523Y-87200000D01*
X129757142Y-87247619D01*
X130709523Y-88152380D02*
X130138095Y-88152380D01*
X130423809Y-88152380D02*
X130423809Y-87152380D01*
X130328571Y-87295238D01*
X130233333Y-87390476D01*
X130138095Y-87438095D01*
X131661904Y-88152380D02*
X131090476Y-88152380D01*
X131376190Y-88152380D02*
X131376190Y-87152380D01*
X131280952Y-87295238D01*
X131185714Y-87390476D01*
X131090476Y-87438095D01*
%TO.C,R19*%
X85857142Y-113652380D02*
X85523809Y-113176190D01*
X85285714Y-113652380D02*
X85285714Y-112652380D01*
X85666666Y-112652380D01*
X85761904Y-112700000D01*
X85809523Y-112747619D01*
X85857142Y-112842857D01*
X85857142Y-112985714D01*
X85809523Y-113080952D01*
X85761904Y-113128571D01*
X85666666Y-113176190D01*
X85285714Y-113176190D01*
X86809523Y-113652380D02*
X86238095Y-113652380D01*
X86523809Y-113652380D02*
X86523809Y-112652380D01*
X86428571Y-112795238D01*
X86333333Y-112890476D01*
X86238095Y-112938095D01*
X87285714Y-113652380D02*
X87476190Y-113652380D01*
X87571428Y-113604761D01*
X87619047Y-113557142D01*
X87714285Y-113414285D01*
X87761904Y-113223809D01*
X87761904Y-112842857D01*
X87714285Y-112747619D01*
X87666666Y-112700000D01*
X87571428Y-112652380D01*
X87380952Y-112652380D01*
X87285714Y-112700000D01*
X87238095Y-112747619D01*
X87190476Y-112842857D01*
X87190476Y-113080952D01*
X87238095Y-113176190D01*
X87285714Y-113223809D01*
X87380952Y-113271428D01*
X87571428Y-113271428D01*
X87666666Y-113223809D01*
X87714285Y-113176190D01*
X87761904Y-113080952D01*
%TO.C,R11*%
X108957142Y-88152380D02*
X108623809Y-87676190D01*
X108385714Y-88152380D02*
X108385714Y-87152380D01*
X108766666Y-87152380D01*
X108861904Y-87200000D01*
X108909523Y-87247619D01*
X108957142Y-87342857D01*
X108957142Y-87485714D01*
X108909523Y-87580952D01*
X108861904Y-87628571D01*
X108766666Y-87676190D01*
X108385714Y-87676190D01*
X109909523Y-88152380D02*
X109338095Y-88152380D01*
X109623809Y-88152380D02*
X109623809Y-87152380D01*
X109528571Y-87295238D01*
X109433333Y-87390476D01*
X109338095Y-87438095D01*
X110861904Y-88152380D02*
X110290476Y-88152380D01*
X110576190Y-88152380D02*
X110576190Y-87152380D01*
X110480952Y-87295238D01*
X110385714Y-87390476D01*
X110290476Y-87438095D01*
%TO.C,R15*%
X85857142Y-108652380D02*
X85523809Y-108176190D01*
X85285714Y-108652380D02*
X85285714Y-107652380D01*
X85666666Y-107652380D01*
X85761904Y-107700000D01*
X85809523Y-107747619D01*
X85857142Y-107842857D01*
X85857142Y-107985714D01*
X85809523Y-108080952D01*
X85761904Y-108128571D01*
X85666666Y-108176190D01*
X85285714Y-108176190D01*
X86809523Y-108652380D02*
X86238095Y-108652380D01*
X86523809Y-108652380D02*
X86523809Y-107652380D01*
X86428571Y-107795238D01*
X86333333Y-107890476D01*
X86238095Y-107938095D01*
X87714285Y-107652380D02*
X87238095Y-107652380D01*
X87190476Y-108128571D01*
X87238095Y-108080952D01*
X87333333Y-108033333D01*
X87571428Y-108033333D01*
X87666666Y-108080952D01*
X87714285Y-108128571D01*
X87761904Y-108223809D01*
X87761904Y-108461904D01*
X87714285Y-108557142D01*
X87666666Y-108604761D01*
X87571428Y-108652380D01*
X87333333Y-108652380D01*
X87238095Y-108604761D01*
X87190476Y-108557142D01*
%TO.C,R16*%
X85857142Y-111152380D02*
X85523809Y-110676190D01*
X85285714Y-111152380D02*
X85285714Y-110152380D01*
X85666666Y-110152380D01*
X85761904Y-110200000D01*
X85809523Y-110247619D01*
X85857142Y-110342857D01*
X85857142Y-110485714D01*
X85809523Y-110580952D01*
X85761904Y-110628571D01*
X85666666Y-110676190D01*
X85285714Y-110676190D01*
X86809523Y-111152380D02*
X86238095Y-111152380D01*
X86523809Y-111152380D02*
X86523809Y-110152380D01*
X86428571Y-110295238D01*
X86333333Y-110390476D01*
X86238095Y-110438095D01*
X87666666Y-110152380D02*
X87476190Y-110152380D01*
X87380952Y-110200000D01*
X87333333Y-110247619D01*
X87238095Y-110390476D01*
X87190476Y-110580952D01*
X87190476Y-110961904D01*
X87238095Y-111057142D01*
X87285714Y-111104761D01*
X87380952Y-111152380D01*
X87571428Y-111152380D01*
X87666666Y-111104761D01*
X87714285Y-111057142D01*
X87761904Y-110961904D01*
X87761904Y-110723809D01*
X87714285Y-110628571D01*
X87666666Y-110580952D01*
X87571428Y-110533333D01*
X87380952Y-110533333D01*
X87285714Y-110580952D01*
X87238095Y-110628571D01*
X87190476Y-110723809D01*
%TO.C,R5*%
X76208333Y-78452380D02*
X75875000Y-77976190D01*
X75636904Y-78452380D02*
X75636904Y-77452380D01*
X76017857Y-77452380D01*
X76113095Y-77500000D01*
X76160714Y-77547619D01*
X76208333Y-77642857D01*
X76208333Y-77785714D01*
X76160714Y-77880952D01*
X76113095Y-77928571D01*
X76017857Y-77976190D01*
X75636904Y-77976190D01*
X77113095Y-77452380D02*
X76636904Y-77452380D01*
X76589285Y-77928571D01*
X76636904Y-77880952D01*
X76732142Y-77833333D01*
X76970238Y-77833333D01*
X77065476Y-77880952D01*
X77113095Y-77928571D01*
X77160714Y-78023809D01*
X77160714Y-78261904D01*
X77113095Y-78357142D01*
X77065476Y-78404761D01*
X76970238Y-78452380D01*
X76732142Y-78452380D01*
X76636904Y-78404761D01*
X76589285Y-78357142D01*
%TO.C,R6*%
X127133333Y-84802380D02*
X126800000Y-84326190D01*
X126561904Y-84802380D02*
X126561904Y-83802380D01*
X126942857Y-83802380D01*
X127038095Y-83850000D01*
X127085714Y-83897619D01*
X127133333Y-83992857D01*
X127133333Y-84135714D01*
X127085714Y-84230952D01*
X127038095Y-84278571D01*
X126942857Y-84326190D01*
X126561904Y-84326190D01*
X127990476Y-83802380D02*
X127800000Y-83802380D01*
X127704761Y-83850000D01*
X127657142Y-83897619D01*
X127561904Y-84040476D01*
X127514285Y-84230952D01*
X127514285Y-84611904D01*
X127561904Y-84707142D01*
X127609523Y-84754761D01*
X127704761Y-84802380D01*
X127895238Y-84802380D01*
X127990476Y-84754761D01*
X128038095Y-84707142D01*
X128085714Y-84611904D01*
X128085714Y-84373809D01*
X128038095Y-84278571D01*
X127990476Y-84230952D01*
X127895238Y-84183333D01*
X127704761Y-84183333D01*
X127609523Y-84230952D01*
X127561904Y-84278571D01*
X127514285Y-84373809D01*
%TO.C,C1*%
X119333333Y-56257142D02*
X119285714Y-56304761D01*
X119142857Y-56352380D01*
X119047619Y-56352380D01*
X118904761Y-56304761D01*
X118809523Y-56209523D01*
X118761904Y-56114285D01*
X118714285Y-55923809D01*
X118714285Y-55780952D01*
X118761904Y-55590476D01*
X118809523Y-55495238D01*
X118904761Y-55400000D01*
X119047619Y-55352380D01*
X119142857Y-55352380D01*
X119285714Y-55400000D01*
X119333333Y-55447619D01*
X120285714Y-56352380D02*
X119714285Y-56352380D01*
X120000000Y-56352380D02*
X120000000Y-55352380D01*
X119904761Y-55495238D01*
X119809523Y-55590476D01*
X119714285Y-55638095D01*
%TO.C,C8*%
X76108333Y-88457142D02*
X76060714Y-88504761D01*
X75917857Y-88552380D01*
X75822619Y-88552380D01*
X75679761Y-88504761D01*
X75584523Y-88409523D01*
X75536904Y-88314285D01*
X75489285Y-88123809D01*
X75489285Y-87980952D01*
X75536904Y-87790476D01*
X75584523Y-87695238D01*
X75679761Y-87600000D01*
X75822619Y-87552380D01*
X75917857Y-87552380D01*
X76060714Y-87600000D01*
X76108333Y-87647619D01*
X76679761Y-87980952D02*
X76584523Y-87933333D01*
X76536904Y-87885714D01*
X76489285Y-87790476D01*
X76489285Y-87742857D01*
X76536904Y-87647619D01*
X76584523Y-87600000D01*
X76679761Y-87552380D01*
X76870238Y-87552380D01*
X76965476Y-87600000D01*
X77013095Y-87647619D01*
X77060714Y-87742857D01*
X77060714Y-87790476D01*
X77013095Y-87885714D01*
X76965476Y-87933333D01*
X76870238Y-87980952D01*
X76679761Y-87980952D01*
X76584523Y-88028571D01*
X76536904Y-88076190D01*
X76489285Y-88171428D01*
X76489285Y-88361904D01*
X76536904Y-88457142D01*
X76584523Y-88504761D01*
X76679761Y-88552380D01*
X76870238Y-88552380D01*
X76965476Y-88504761D01*
X77013095Y-88457142D01*
X77060714Y-88361904D01*
X77060714Y-88171428D01*
X77013095Y-88076190D01*
X76965476Y-88028571D01*
X76870238Y-87980952D01*
%TO.C,R18*%
X108057142Y-107652380D02*
X107723809Y-107176190D01*
X107485714Y-107652380D02*
X107485714Y-106652380D01*
X107866666Y-106652380D01*
X107961904Y-106700000D01*
X108009523Y-106747619D01*
X108057142Y-106842857D01*
X108057142Y-106985714D01*
X108009523Y-107080952D01*
X107961904Y-107128571D01*
X107866666Y-107176190D01*
X107485714Y-107176190D01*
X109009523Y-107652380D02*
X108438095Y-107652380D01*
X108723809Y-107652380D02*
X108723809Y-106652380D01*
X108628571Y-106795238D01*
X108533333Y-106890476D01*
X108438095Y-106938095D01*
X109580952Y-107080952D02*
X109485714Y-107033333D01*
X109438095Y-106985714D01*
X109390476Y-106890476D01*
X109390476Y-106842857D01*
X109438095Y-106747619D01*
X109485714Y-106700000D01*
X109580952Y-106652380D01*
X109771428Y-106652380D01*
X109866666Y-106700000D01*
X109914285Y-106747619D01*
X109961904Y-106842857D01*
X109961904Y-106890476D01*
X109914285Y-106985714D01*
X109866666Y-107033333D01*
X109771428Y-107080952D01*
X109580952Y-107080952D01*
X109485714Y-107128571D01*
X109438095Y-107176190D01*
X109390476Y-107271428D01*
X109390476Y-107461904D01*
X109438095Y-107557142D01*
X109485714Y-107604761D01*
X109580952Y-107652380D01*
X109771428Y-107652380D01*
X109866666Y-107604761D01*
X109914285Y-107557142D01*
X109961904Y-107461904D01*
X109961904Y-107271428D01*
X109914285Y-107176190D01*
X109866666Y-107128571D01*
X109771428Y-107080952D01*
%TO.C,R7*%
X76208333Y-80552380D02*
X75875000Y-80076190D01*
X75636904Y-80552380D02*
X75636904Y-79552380D01*
X76017857Y-79552380D01*
X76113095Y-79600000D01*
X76160714Y-79647619D01*
X76208333Y-79742857D01*
X76208333Y-79885714D01*
X76160714Y-79980952D01*
X76113095Y-80028571D01*
X76017857Y-80076190D01*
X75636904Y-80076190D01*
X76541666Y-79552380D02*
X77208333Y-79552380D01*
X76779761Y-80552380D01*
%TO.C,R20*%
X85957142Y-106152380D02*
X85623809Y-105676190D01*
X85385714Y-106152380D02*
X85385714Y-105152380D01*
X85766666Y-105152380D01*
X85861904Y-105200000D01*
X85909523Y-105247619D01*
X85957142Y-105342857D01*
X85957142Y-105485714D01*
X85909523Y-105580952D01*
X85861904Y-105628571D01*
X85766666Y-105676190D01*
X85385714Y-105676190D01*
X86338095Y-105247619D02*
X86385714Y-105200000D01*
X86480952Y-105152380D01*
X86719047Y-105152380D01*
X86814285Y-105200000D01*
X86861904Y-105247619D01*
X86909523Y-105342857D01*
X86909523Y-105438095D01*
X86861904Y-105580952D01*
X86290476Y-106152380D01*
X86909523Y-106152380D01*
X87528571Y-105152380D02*
X87623809Y-105152380D01*
X87719047Y-105200000D01*
X87766666Y-105247619D01*
X87814285Y-105342857D01*
X87861904Y-105533333D01*
X87861904Y-105771428D01*
X87814285Y-105961904D01*
X87766666Y-106057142D01*
X87719047Y-106104761D01*
X87623809Y-106152380D01*
X87528571Y-106152380D01*
X87433333Y-106104761D01*
X87385714Y-106057142D01*
X87338095Y-105961904D01*
X87290476Y-105771428D01*
X87290476Y-105533333D01*
X87338095Y-105342857D01*
X87385714Y-105247619D01*
X87433333Y-105200000D01*
X87528571Y-105152380D01*
%TO.C,R17*%
X85857142Y-103652380D02*
X85523809Y-103176190D01*
X85285714Y-103652380D02*
X85285714Y-102652380D01*
X85666666Y-102652380D01*
X85761904Y-102700000D01*
X85809523Y-102747619D01*
X85857142Y-102842857D01*
X85857142Y-102985714D01*
X85809523Y-103080952D01*
X85761904Y-103128571D01*
X85666666Y-103176190D01*
X85285714Y-103176190D01*
X86809523Y-103652380D02*
X86238095Y-103652380D01*
X86523809Y-103652380D02*
X86523809Y-102652380D01*
X86428571Y-102795238D01*
X86333333Y-102890476D01*
X86238095Y-102938095D01*
X87142857Y-102652380D02*
X87809523Y-102652380D01*
X87380952Y-103652380D01*
%TO.C,R8*%
X76208333Y-84452380D02*
X75875000Y-83976190D01*
X75636904Y-84452380D02*
X75636904Y-83452380D01*
X76017857Y-83452380D01*
X76113095Y-83500000D01*
X76160714Y-83547619D01*
X76208333Y-83642857D01*
X76208333Y-83785714D01*
X76160714Y-83880952D01*
X76113095Y-83928571D01*
X76017857Y-83976190D01*
X75636904Y-83976190D01*
X76779761Y-83880952D02*
X76684523Y-83833333D01*
X76636904Y-83785714D01*
X76589285Y-83690476D01*
X76589285Y-83642857D01*
X76636904Y-83547619D01*
X76684523Y-83500000D01*
X76779761Y-83452380D01*
X76970238Y-83452380D01*
X77065476Y-83500000D01*
X77113095Y-83547619D01*
X77160714Y-83642857D01*
X77160714Y-83690476D01*
X77113095Y-83785714D01*
X77065476Y-83833333D01*
X76970238Y-83880952D01*
X76779761Y-83880952D01*
X76684523Y-83928571D01*
X76636904Y-83976190D01*
X76589285Y-84071428D01*
X76589285Y-84261904D01*
X76636904Y-84357142D01*
X76684523Y-84404761D01*
X76779761Y-84452380D01*
X76970238Y-84452380D01*
X77065476Y-84404761D01*
X77113095Y-84357142D01*
X77160714Y-84261904D01*
X77160714Y-84071428D01*
X77113095Y-83976190D01*
X77065476Y-83928571D01*
X76970238Y-83880952D01*
%TO.C,C6*%
X94833333Y-85757142D02*
X94785714Y-85804761D01*
X94642857Y-85852380D01*
X94547619Y-85852380D01*
X94404761Y-85804761D01*
X94309523Y-85709523D01*
X94261904Y-85614285D01*
X94214285Y-85423809D01*
X94214285Y-85280952D01*
X94261904Y-85090476D01*
X94309523Y-84995238D01*
X94404761Y-84900000D01*
X94547619Y-84852380D01*
X94642857Y-84852380D01*
X94785714Y-84900000D01*
X94833333Y-84947619D01*
X95690476Y-84852380D02*
X95500000Y-84852380D01*
X95404761Y-84900000D01*
X95357142Y-84947619D01*
X95261904Y-85090476D01*
X95214285Y-85280952D01*
X95214285Y-85661904D01*
X95261904Y-85757142D01*
X95309523Y-85804761D01*
X95404761Y-85852380D01*
X95595238Y-85852380D01*
X95690476Y-85804761D01*
X95738095Y-85757142D01*
X95785714Y-85661904D01*
X95785714Y-85423809D01*
X95738095Y-85328571D01*
X95690476Y-85280952D01*
X95595238Y-85233333D01*
X95404761Y-85233333D01*
X95309523Y-85280952D01*
X95261904Y-85328571D01*
X95214285Y-85423809D01*
%TO.C,R1*%
X94908333Y-81152380D02*
X94575000Y-80676190D01*
X94336904Y-81152380D02*
X94336904Y-80152380D01*
X94717857Y-80152380D01*
X94813095Y-80200000D01*
X94860714Y-80247619D01*
X94908333Y-80342857D01*
X94908333Y-80485714D01*
X94860714Y-80580952D01*
X94813095Y-80628571D01*
X94717857Y-80676190D01*
X94336904Y-80676190D01*
X95860714Y-81152380D02*
X95289285Y-81152380D01*
X95575000Y-81152380D02*
X95575000Y-80152380D01*
X95479761Y-80295238D01*
X95384523Y-80390476D01*
X95289285Y-80438095D01*
%TO.C,U5*%
X119038095Y-87502380D02*
X119038095Y-88311904D01*
X119085714Y-88407142D01*
X119133333Y-88454761D01*
X119228571Y-88502380D01*
X119419047Y-88502380D01*
X119514285Y-88454761D01*
X119561904Y-88407142D01*
X119609523Y-88311904D01*
X119609523Y-87502380D01*
X120561904Y-87502380D02*
X120085714Y-87502380D01*
X120038095Y-87978571D01*
X120085714Y-87930952D01*
X120180952Y-87883333D01*
X120419047Y-87883333D01*
X120514285Y-87930952D01*
X120561904Y-87978571D01*
X120609523Y-88073809D01*
X120609523Y-88311904D01*
X120561904Y-88407142D01*
X120514285Y-88454761D01*
X120419047Y-88502380D01*
X120180952Y-88502380D01*
X120085714Y-88454761D01*
X120038095Y-88407142D01*
%TO.C,R13*%
X72257142Y-63752380D02*
X71923809Y-63276190D01*
X71685714Y-63752380D02*
X71685714Y-62752380D01*
X72066666Y-62752380D01*
X72161904Y-62800000D01*
X72209523Y-62847619D01*
X72257142Y-62942857D01*
X72257142Y-63085714D01*
X72209523Y-63180952D01*
X72161904Y-63228571D01*
X72066666Y-63276190D01*
X71685714Y-63276190D01*
X73209523Y-63752380D02*
X72638095Y-63752380D01*
X72923809Y-63752380D02*
X72923809Y-62752380D01*
X72828571Y-62895238D01*
X72733333Y-62990476D01*
X72638095Y-63038095D01*
X73542857Y-62752380D02*
X74161904Y-62752380D01*
X73828571Y-63133333D01*
X73971428Y-63133333D01*
X74066666Y-63180952D01*
X74114285Y-63228571D01*
X74161904Y-63323809D01*
X74161904Y-63561904D01*
X74114285Y-63657142D01*
X74066666Y-63704761D01*
X73971428Y-63752380D01*
X73685714Y-63752380D01*
X73590476Y-63704761D01*
X73542857Y-63657142D01*
%TO.C,R10*%
X108957142Y-85652380D02*
X108623809Y-85176190D01*
X108385714Y-85652380D02*
X108385714Y-84652380D01*
X108766666Y-84652380D01*
X108861904Y-84700000D01*
X108909523Y-84747619D01*
X108957142Y-84842857D01*
X108957142Y-84985714D01*
X108909523Y-85080952D01*
X108861904Y-85128571D01*
X108766666Y-85176190D01*
X108385714Y-85176190D01*
X109909523Y-85652380D02*
X109338095Y-85652380D01*
X109623809Y-85652380D02*
X109623809Y-84652380D01*
X109528571Y-84795238D01*
X109433333Y-84890476D01*
X109338095Y-84938095D01*
X110528571Y-84652380D02*
X110623809Y-84652380D01*
X110719047Y-84700000D01*
X110766666Y-84747619D01*
X110814285Y-84842857D01*
X110861904Y-85033333D01*
X110861904Y-85271428D01*
X110814285Y-85461904D01*
X110766666Y-85557142D01*
X110719047Y-85604761D01*
X110623809Y-85652380D01*
X110528571Y-85652380D01*
X110433333Y-85604761D01*
X110385714Y-85557142D01*
X110338095Y-85461904D01*
X110290476Y-85271428D01*
X110290476Y-85033333D01*
X110338095Y-84842857D01*
X110385714Y-84747619D01*
X110433333Y-84700000D01*
X110528571Y-84652380D01*
%TO.C,U3*%
X85238095Y-75927380D02*
X85238095Y-76736904D01*
X85285714Y-76832142D01*
X85333333Y-76879761D01*
X85428571Y-76927380D01*
X85619047Y-76927380D01*
X85714285Y-76879761D01*
X85761904Y-76832142D01*
X85809523Y-76736904D01*
X85809523Y-75927380D01*
X86190476Y-75927380D02*
X86809523Y-75927380D01*
X86476190Y-76308333D01*
X86619047Y-76308333D01*
X86714285Y-76355952D01*
X86761904Y-76403571D01*
X86809523Y-76498809D01*
X86809523Y-76736904D01*
X86761904Y-76832142D01*
X86714285Y-76879761D01*
X86619047Y-76927380D01*
X86333333Y-76927380D01*
X86238095Y-76879761D01*
X86190476Y-76832142D01*
%TO.C,C9*%
X109933333Y-90557142D02*
X109885714Y-90604761D01*
X109742857Y-90652380D01*
X109647619Y-90652380D01*
X109504761Y-90604761D01*
X109409523Y-90509523D01*
X109361904Y-90414285D01*
X109314285Y-90223809D01*
X109314285Y-90080952D01*
X109361904Y-89890476D01*
X109409523Y-89795238D01*
X109504761Y-89700000D01*
X109647619Y-89652380D01*
X109742857Y-89652380D01*
X109885714Y-89700000D01*
X109933333Y-89747619D01*
X110409523Y-90652380D02*
X110600000Y-90652380D01*
X110695238Y-90604761D01*
X110742857Y-90557142D01*
X110838095Y-90414285D01*
X110885714Y-90223809D01*
X110885714Y-89842857D01*
X110838095Y-89747619D01*
X110790476Y-89700000D01*
X110695238Y-89652380D01*
X110504761Y-89652380D01*
X110409523Y-89700000D01*
X110361904Y-89747619D01*
X110314285Y-89842857D01*
X110314285Y-90080952D01*
X110361904Y-90176190D01*
X110409523Y-90223809D01*
X110504761Y-90271428D01*
X110695238Y-90271428D01*
X110790476Y-90223809D01*
X110838095Y-90176190D01*
X110885714Y-90080952D01*
%TO.C,C10*%
X75057142Y-63657142D02*
X75009523Y-63704761D01*
X74866666Y-63752380D01*
X74771428Y-63752380D01*
X74628571Y-63704761D01*
X74533333Y-63609523D01*
X74485714Y-63514285D01*
X74438095Y-63323809D01*
X74438095Y-63180952D01*
X74485714Y-62990476D01*
X74533333Y-62895238D01*
X74628571Y-62800000D01*
X74771428Y-62752380D01*
X74866666Y-62752380D01*
X75009523Y-62800000D01*
X75057142Y-62847619D01*
X76009523Y-63752380D02*
X75438095Y-63752380D01*
X75723809Y-63752380D02*
X75723809Y-62752380D01*
X75628571Y-62895238D01*
X75533333Y-62990476D01*
X75438095Y-63038095D01*
X76628571Y-62752380D02*
X76723809Y-62752380D01*
X76819047Y-62800000D01*
X76866666Y-62847619D01*
X76914285Y-62942857D01*
X76961904Y-63133333D01*
X76961904Y-63371428D01*
X76914285Y-63561904D01*
X76866666Y-63657142D01*
X76819047Y-63704761D01*
X76723809Y-63752380D01*
X76628571Y-63752380D01*
X76533333Y-63704761D01*
X76485714Y-63657142D01*
X76438095Y-63561904D01*
X76390476Y-63371428D01*
X76390476Y-63133333D01*
X76438095Y-62942857D01*
X76485714Y-62847619D01*
X76533333Y-62800000D01*
X76628571Y-62752380D01*
%TO.C,R12*%
X108957142Y-93152380D02*
X108623809Y-92676190D01*
X108385714Y-93152380D02*
X108385714Y-92152380D01*
X108766666Y-92152380D01*
X108861904Y-92200000D01*
X108909523Y-92247619D01*
X108957142Y-92342857D01*
X108957142Y-92485714D01*
X108909523Y-92580952D01*
X108861904Y-92628571D01*
X108766666Y-92676190D01*
X108385714Y-92676190D01*
X109909523Y-93152380D02*
X109338095Y-93152380D01*
X109623809Y-93152380D02*
X109623809Y-92152380D01*
X109528571Y-92295238D01*
X109433333Y-92390476D01*
X109338095Y-92438095D01*
X110290476Y-92247619D02*
X110338095Y-92200000D01*
X110433333Y-92152380D01*
X110671428Y-92152380D01*
X110766666Y-92200000D01*
X110814285Y-92247619D01*
X110861904Y-92342857D01*
X110861904Y-92438095D01*
X110814285Y-92580952D01*
X110242857Y-93152380D01*
X110861904Y-93152380D01*
%TO.C,C2*%
X77983333Y-62107142D02*
X77935714Y-62154761D01*
X77792857Y-62202380D01*
X77697619Y-62202380D01*
X77554761Y-62154761D01*
X77459523Y-62059523D01*
X77411904Y-61964285D01*
X77364285Y-61773809D01*
X77364285Y-61630952D01*
X77411904Y-61440476D01*
X77459523Y-61345238D01*
X77554761Y-61250000D01*
X77697619Y-61202380D01*
X77792857Y-61202380D01*
X77935714Y-61250000D01*
X77983333Y-61297619D01*
X78364285Y-61297619D02*
X78411904Y-61250000D01*
X78507142Y-61202380D01*
X78745238Y-61202380D01*
X78840476Y-61250000D01*
X78888095Y-61297619D01*
X78935714Y-61392857D01*
X78935714Y-61488095D01*
X78888095Y-61630952D01*
X78316666Y-62202380D01*
X78935714Y-62202380D01*
%TO.C,R4*%
X76208333Y-82452380D02*
X75875000Y-81976190D01*
X75636904Y-82452380D02*
X75636904Y-81452380D01*
X76017857Y-81452380D01*
X76113095Y-81500000D01*
X76160714Y-81547619D01*
X76208333Y-81642857D01*
X76208333Y-81785714D01*
X76160714Y-81880952D01*
X76113095Y-81928571D01*
X76017857Y-81976190D01*
X75636904Y-81976190D01*
X77065476Y-81785714D02*
X77065476Y-82452380D01*
X76827380Y-81404761D02*
X76589285Y-82119047D01*
X77208333Y-82119047D01*
%TO.C,U7*%
X75038095Y-105052380D02*
X75038095Y-105861904D01*
X75085714Y-105957142D01*
X75133333Y-106004761D01*
X75228571Y-106052380D01*
X75419047Y-106052380D01*
X75514285Y-106004761D01*
X75561904Y-105957142D01*
X75609523Y-105861904D01*
X75609523Y-105052380D01*
X75990476Y-105052380D02*
X76657142Y-105052380D01*
X76228571Y-106052380D01*
%TO.C,R14*%
X108957142Y-95652380D02*
X108623809Y-95176190D01*
X108385714Y-95652380D02*
X108385714Y-94652380D01*
X108766666Y-94652380D01*
X108861904Y-94700000D01*
X108909523Y-94747619D01*
X108957142Y-94842857D01*
X108957142Y-94985714D01*
X108909523Y-95080952D01*
X108861904Y-95128571D01*
X108766666Y-95176190D01*
X108385714Y-95176190D01*
X109909523Y-95652380D02*
X109338095Y-95652380D01*
X109623809Y-95652380D02*
X109623809Y-94652380D01*
X109528571Y-94795238D01*
X109433333Y-94890476D01*
X109338095Y-94938095D01*
X110766666Y-94985714D02*
X110766666Y-95652380D01*
X110528571Y-94604761D02*
X110290476Y-95319047D01*
X110909523Y-95319047D01*
%TO.C,C5*%
X94908333Y-83582142D02*
X94860714Y-83629761D01*
X94717857Y-83677380D01*
X94622619Y-83677380D01*
X94479761Y-83629761D01*
X94384523Y-83534523D01*
X94336904Y-83439285D01*
X94289285Y-83248809D01*
X94289285Y-83105952D01*
X94336904Y-82915476D01*
X94384523Y-82820238D01*
X94479761Y-82725000D01*
X94622619Y-82677380D01*
X94717857Y-82677380D01*
X94860714Y-82725000D01*
X94908333Y-82772619D01*
X95813095Y-82677380D02*
X95336904Y-82677380D01*
X95289285Y-83153571D01*
X95336904Y-83105952D01*
X95432142Y-83058333D01*
X95670238Y-83058333D01*
X95765476Y-83105952D01*
X95813095Y-83153571D01*
X95860714Y-83248809D01*
X95860714Y-83486904D01*
X95813095Y-83582142D01*
X95765476Y-83629761D01*
X95670238Y-83677380D01*
X95432142Y-83677380D01*
X95336904Y-83629761D01*
X95289285Y-83582142D01*
%TO.C,U4*%
X68038095Y-62552380D02*
X68038095Y-63361904D01*
X68085714Y-63457142D01*
X68133333Y-63504761D01*
X68228571Y-63552380D01*
X68419047Y-63552380D01*
X68514285Y-63504761D01*
X68561904Y-63457142D01*
X68609523Y-63361904D01*
X68609523Y-62552380D01*
X69514285Y-62885714D02*
X69514285Y-63552380D01*
X69276190Y-62504761D02*
X69038095Y-63219047D01*
X69657142Y-63219047D01*
%TO.C,C4*%
X94908333Y-78982142D02*
X94860714Y-79029761D01*
X94717857Y-79077380D01*
X94622619Y-79077380D01*
X94479761Y-79029761D01*
X94384523Y-78934523D01*
X94336904Y-78839285D01*
X94289285Y-78648809D01*
X94289285Y-78505952D01*
X94336904Y-78315476D01*
X94384523Y-78220238D01*
X94479761Y-78125000D01*
X94622619Y-78077380D01*
X94717857Y-78077380D01*
X94860714Y-78125000D01*
X94908333Y-78172619D01*
X95765476Y-78410714D02*
X95765476Y-79077380D01*
X95527380Y-78029761D02*
X95289285Y-78744047D01*
X95908333Y-78744047D01*
%TO.C,C3*%
X98483333Y-54907142D02*
X98435714Y-54954761D01*
X98292857Y-55002380D01*
X98197619Y-55002380D01*
X98054761Y-54954761D01*
X97959523Y-54859523D01*
X97911904Y-54764285D01*
X97864285Y-54573809D01*
X97864285Y-54430952D01*
X97911904Y-54240476D01*
X97959523Y-54145238D01*
X98054761Y-54050000D01*
X98197619Y-54002380D01*
X98292857Y-54002380D01*
X98435714Y-54050000D01*
X98483333Y-54097619D01*
X98816666Y-54002380D02*
X99435714Y-54002380D01*
X99102380Y-54383333D01*
X99245238Y-54383333D01*
X99340476Y-54430952D01*
X99388095Y-54478571D01*
X99435714Y-54573809D01*
X99435714Y-54811904D01*
X99388095Y-54907142D01*
X99340476Y-54954761D01*
X99245238Y-55002380D01*
X98959523Y-55002380D01*
X98864285Y-54954761D01*
X98816666Y-54907142D01*
%TO.C,C7*%
X76108333Y-86257142D02*
X76060714Y-86304761D01*
X75917857Y-86352380D01*
X75822619Y-86352380D01*
X75679761Y-86304761D01*
X75584523Y-86209523D01*
X75536904Y-86114285D01*
X75489285Y-85923809D01*
X75489285Y-85780952D01*
X75536904Y-85590476D01*
X75584523Y-85495238D01*
X75679761Y-85400000D01*
X75822619Y-85352380D01*
X75917857Y-85352380D01*
X76060714Y-85400000D01*
X76108333Y-85447619D01*
X76441666Y-85352380D02*
X77108333Y-85352380D01*
X76679761Y-86352380D01*
%TO.C,R3*%
X115333333Y-81252380D02*
X115000000Y-80776190D01*
X114761904Y-81252380D02*
X114761904Y-80252380D01*
X115142857Y-80252380D01*
X115238095Y-80300000D01*
X115285714Y-80347619D01*
X115333333Y-80442857D01*
X115333333Y-80585714D01*
X115285714Y-80680952D01*
X115238095Y-80728571D01*
X115142857Y-80776190D01*
X114761904Y-80776190D01*
X115666666Y-80252380D02*
X116285714Y-80252380D01*
X115952380Y-80633333D01*
X116095238Y-80633333D01*
X116190476Y-80680952D01*
X116238095Y-80728571D01*
X116285714Y-80823809D01*
X116285714Y-81061904D01*
X116238095Y-81157142D01*
X116190476Y-81204761D01*
X116095238Y-81252380D01*
X115809523Y-81252380D01*
X115714285Y-81204761D01*
X115666666Y-81157142D01*
%TO.C,J2*%
X114690476Y-105632380D02*
X114690476Y-104632380D01*
X115071428Y-104632380D01*
X115166666Y-104680000D01*
X115214285Y-104727619D01*
X115261904Y-104822857D01*
X115261904Y-104965714D01*
X115214285Y-105060952D01*
X115166666Y-105108571D01*
X115071428Y-105156190D01*
X114690476Y-105156190D01*
X115595238Y-104632380D02*
X115833333Y-105632380D01*
X116023809Y-104918095D01*
X116214285Y-105632380D01*
X116452380Y-104632380D01*
X116833333Y-105632380D02*
X116833333Y-104632380D01*
X117166666Y-105346666D01*
X117500000Y-104632380D01*
X117500000Y-105632380D01*
X117738095Y-105727619D02*
X118500000Y-105727619D01*
X118595238Y-104632380D02*
X118928571Y-105632380D01*
X119261904Y-104632380D01*
X120166666Y-105537142D02*
X120119047Y-105584761D01*
X119976190Y-105632380D01*
X119880952Y-105632380D01*
X119738095Y-105584761D01*
X119642857Y-105489523D01*
X119595238Y-105394285D01*
X119547619Y-105203809D01*
X119547619Y-105060952D01*
X119595238Y-104870476D01*
X119642857Y-104775238D01*
X119738095Y-104680000D01*
X119880952Y-104632380D01*
X119976190Y-104632380D01*
X120119047Y-104680000D01*
X120166666Y-104727619D01*
X120785714Y-104632380D02*
X120976190Y-104632380D01*
X121071428Y-104680000D01*
X121166666Y-104775238D01*
X121214285Y-104965714D01*
X121214285Y-105299047D01*
X121166666Y-105489523D01*
X121071428Y-105584761D01*
X120976190Y-105632380D01*
X120785714Y-105632380D01*
X120690476Y-105584761D01*
X120595238Y-105489523D01*
X120547619Y-105299047D01*
X120547619Y-104965714D01*
X120595238Y-104775238D01*
X120690476Y-104680000D01*
X120785714Y-104632380D01*
X121404761Y-105727619D02*
X122166666Y-105727619D01*
X122404761Y-105632380D02*
X122404761Y-104632380D01*
X122880952Y-104965714D02*
X122880952Y-105632380D01*
X122880952Y-105060952D02*
X122928571Y-105013333D01*
X123023809Y-104965714D01*
X123166666Y-104965714D01*
X123261904Y-105013333D01*
X123309523Y-105108571D01*
X123309523Y-105632380D01*
%TO.C,U6*%
X96538095Y-104252380D02*
X96538095Y-105061904D01*
X96585714Y-105157142D01*
X96633333Y-105204761D01*
X96728571Y-105252380D01*
X96919047Y-105252380D01*
X97014285Y-105204761D01*
X97061904Y-105157142D01*
X97109523Y-105061904D01*
X97109523Y-104252380D01*
X98014285Y-104252380D02*
X97823809Y-104252380D01*
X97728571Y-104300000D01*
X97680952Y-104347619D01*
X97585714Y-104490476D01*
X97538095Y-104680952D01*
X97538095Y-105061904D01*
X97585714Y-105157142D01*
X97633333Y-105204761D01*
X97728571Y-105252380D01*
X97919047Y-105252380D01*
X98014285Y-105204761D01*
X98061904Y-105157142D01*
X98109523Y-105061904D01*
X98109523Y-104823809D01*
X98061904Y-104728571D01*
X98014285Y-104680952D01*
X97919047Y-104633333D01*
X97728571Y-104633333D01*
X97633333Y-104680952D01*
X97585714Y-104728571D01*
X97538095Y-104823809D01*
%TO.C,R9*%
X94933333Y-88052380D02*
X94600000Y-87576190D01*
X94361904Y-88052380D02*
X94361904Y-87052380D01*
X94742857Y-87052380D01*
X94838095Y-87100000D01*
X94885714Y-87147619D01*
X94933333Y-87242857D01*
X94933333Y-87385714D01*
X94885714Y-87480952D01*
X94838095Y-87528571D01*
X94742857Y-87576190D01*
X94361904Y-87576190D01*
X95409523Y-88052380D02*
X95600000Y-88052380D01*
X95695238Y-88004761D01*
X95742857Y-87957142D01*
X95838095Y-87814285D01*
X95885714Y-87623809D01*
X95885714Y-87242857D01*
X95838095Y-87147619D01*
X95790476Y-87100000D01*
X95695238Y-87052380D01*
X95504761Y-87052380D01*
X95409523Y-87100000D01*
X95361904Y-87147619D01*
X95314285Y-87242857D01*
X95314285Y-87480952D01*
X95361904Y-87576190D01*
X95409523Y-87623809D01*
X95504761Y-87671428D01*
X95695238Y-87671428D01*
X95790476Y-87623809D01*
X95838095Y-87576190D01*
X95885714Y-87480952D01*
%TO.C,R21*%
X108057142Y-110152380D02*
X107723809Y-109676190D01*
X107485714Y-110152380D02*
X107485714Y-109152380D01*
X107866666Y-109152380D01*
X107961904Y-109200000D01*
X108009523Y-109247619D01*
X108057142Y-109342857D01*
X108057142Y-109485714D01*
X108009523Y-109580952D01*
X107961904Y-109628571D01*
X107866666Y-109676190D01*
X107485714Y-109676190D01*
X108438095Y-109247619D02*
X108485714Y-109200000D01*
X108580952Y-109152380D01*
X108819047Y-109152380D01*
X108914285Y-109200000D01*
X108961904Y-109247619D01*
X109009523Y-109342857D01*
X109009523Y-109438095D01*
X108961904Y-109580952D01*
X108390476Y-110152380D01*
X109009523Y-110152380D01*
X109961904Y-110152380D02*
X109390476Y-110152380D01*
X109676190Y-110152380D02*
X109676190Y-109152380D01*
X109580952Y-109295238D01*
X109485714Y-109390476D01*
X109390476Y-109438095D01*
D14*
%TO.C,J3*%
X104970000Y-86205000D02*
X104970000Y-83605000D01*
X107630000Y-88805000D02*
X106300000Y-88805000D01*
X107630000Y-86205000D02*
X104970000Y-86205000D01*
X107630000Y-86205000D02*
X107630000Y-83605000D01*
X107630000Y-83605000D02*
X104970000Y-83605000D01*
X107630000Y-87475000D02*
X107630000Y-88805000D01*
%TO.C,J1*%
X61470000Y-79470000D02*
X61470000Y-92230000D01*
X61470000Y-78200000D02*
X61470000Y-76870000D01*
X61470000Y-76870000D02*
X62800000Y-76870000D01*
X61470000Y-79470000D02*
X64130000Y-79470000D01*
X61470000Y-92230000D02*
X64130000Y-92230000D01*
X64130000Y-79470000D02*
X64130000Y-92230000D01*
%TO.C,R24*%
X127072936Y-91965000D02*
X127527064Y-91965000D01*
X127072936Y-93435000D02*
X127527064Y-93435000D01*
%TO.C,R23*%
X127072936Y-90935000D02*
X127527064Y-90935000D01*
X127072936Y-89465000D02*
X127527064Y-89465000D01*
%TO.C,R22*%
X127072936Y-95935000D02*
X127527064Y-95935000D01*
X127072936Y-94465000D02*
X127527064Y-94465000D01*
%TO.C,J11*%
X134370000Y-87200000D02*
X134370000Y-85870000D01*
X134370000Y-88470000D02*
X134370000Y-88530000D01*
X137030000Y-88470000D02*
X137030000Y-88530000D01*
X134370000Y-88530000D02*
X137030000Y-88530000D01*
X134370000Y-88470000D02*
X137030000Y-88470000D01*
X134370000Y-85870000D02*
X135700000Y-85870000D01*
%TO.C,J10*%
X134370000Y-92700000D02*
X134370000Y-91370000D01*
X134370000Y-93970000D02*
X134370000Y-94030000D01*
X137030000Y-93970000D02*
X137030000Y-94030000D01*
X134370000Y-94030000D02*
X137030000Y-94030000D01*
X134370000Y-93970000D02*
X137030000Y-93970000D01*
X134370000Y-91370000D02*
X135700000Y-91370000D01*
%TO.C,J9*%
X104970000Y-100100000D02*
X104970000Y-98770000D01*
X104970000Y-101370000D02*
X104970000Y-101430000D01*
X107630000Y-101370000D02*
X107630000Y-101430000D01*
X104970000Y-101430000D02*
X107630000Y-101430000D01*
X104970000Y-101370000D02*
X107630000Y-101370000D01*
X104970000Y-98770000D02*
X106300000Y-98770000D01*
%TO.C,C11*%
X127561252Y-88435000D02*
X127038748Y-88435000D01*
X127561252Y-86965000D02*
X127038748Y-86965000D01*
%TO.C,J8*%
X61470000Y-69930000D02*
X61470000Y-62250000D01*
X64130000Y-71200000D02*
X64130000Y-72530000D01*
X64130000Y-62250000D02*
X61470000Y-62250000D01*
X64130000Y-69930000D02*
X61470000Y-69930000D01*
X64130000Y-72530000D02*
X62800000Y-72530000D01*
X64130000Y-69930000D02*
X64130000Y-62250000D01*
%TO.C,J7*%
X61470000Y-59110000D02*
X64130000Y-59110000D01*
X61470000Y-53970000D02*
X61470000Y-59110000D01*
X61470000Y-52700000D02*
X61470000Y-51370000D01*
X64130000Y-53970000D02*
X64130000Y-59110000D01*
X61470000Y-51370000D02*
X62800000Y-51370000D01*
X61470000Y-53970000D02*
X64130000Y-53970000D01*
%TO.C,R19*%
X90027064Y-113935000D02*
X89572936Y-113935000D01*
X90027064Y-112465000D02*
X89572936Y-112465000D01*
%TO.C,R11*%
X113027064Y-86965000D02*
X112572936Y-86965000D01*
X113027064Y-88435000D02*
X112572936Y-88435000D01*
%TO.C,R15*%
X90027064Y-108935000D02*
X89572936Y-108935000D01*
X90027064Y-107465000D02*
X89572936Y-107465000D01*
%TO.C,JP2*%
X134370000Y-74200000D02*
X134370000Y-72870000D01*
X134370000Y-75470000D02*
X137030000Y-75470000D01*
X134370000Y-75470000D02*
X134370000Y-80610000D01*
X137030000Y-75470000D02*
X137030000Y-80610000D01*
X134370000Y-72870000D02*
X135700000Y-72870000D01*
X134370000Y-80610000D02*
X137030000Y-80610000D01*
%TO.C,R16*%
X90027064Y-111435000D02*
X89572936Y-111435000D01*
X90027064Y-109965000D02*
X89572936Y-109965000D01*
%TO.C,RV2*%
X137325000Y-109860000D02*
X138960000Y-109860000D01*
X138960000Y-109860000D02*
X138960000Y-105994000D01*
X132325000Y-109860000D02*
X133175000Y-109860000D01*
X129039000Y-97740000D02*
X138960000Y-97740000D01*
X129039000Y-101605000D02*
X129039000Y-97740000D01*
X129039000Y-109860000D02*
X130675000Y-109860000D01*
X134825000Y-109860000D02*
X135675000Y-109860000D01*
X129039000Y-109860000D02*
X129039000Y-105994000D01*
X138960000Y-101605000D02*
X138960000Y-97740000D01*
X136762000Y-102127000D02*
G75*
G03*
X131237568Y-102128018I-2762000J-1173000D01*
G01*
X131702000Y-105228000D02*
G75*
G03*
X136297753Y-105228295I2298000J1928000D01*
G01*
%TO.C,R5*%
X78972936Y-77240000D02*
X79427064Y-77240000D01*
X78972936Y-78710000D02*
X79427064Y-78710000D01*
%TO.C,R6*%
X127527064Y-83435000D02*
X127072936Y-83435000D01*
X127527064Y-81965000D02*
X127072936Y-81965000D01*
%TO.C,C1*%
X120235000Y-58138748D02*
X120235000Y-58661252D01*
X118765000Y-58138748D02*
X118765000Y-58661252D01*
%TO.C,JP7*%
X64070000Y-121530000D02*
X61470000Y-121530000D01*
X66670000Y-118870000D02*
X66670000Y-120200000D01*
X61470000Y-118870000D02*
X61470000Y-121530000D01*
X64070000Y-118870000D02*
X61470000Y-118870000D01*
X64070000Y-118870000D02*
X64070000Y-121530000D01*
X65340000Y-118870000D02*
X66670000Y-118870000D01*
%TO.C,C8*%
X78938748Y-87340000D02*
X79461252Y-87340000D01*
X78938748Y-88810000D02*
X79461252Y-88810000D01*
%TO.C,R18*%
X105192936Y-106465000D02*
X105647064Y-106465000D01*
X105192936Y-107935000D02*
X105647064Y-107935000D01*
%TO.C,R7*%
X78972936Y-80810000D02*
X79427064Y-80810000D01*
X78972936Y-79340000D02*
X79427064Y-79340000D01*
%TO.C,J6*%
X64070000Y-132870000D02*
X64130000Y-132870000D01*
X64130000Y-135530000D02*
X64130000Y-132870000D01*
X62800000Y-135530000D02*
X61470000Y-135530000D01*
X64070000Y-135530000D02*
X64130000Y-135530000D01*
X61470000Y-135530000D02*
X61470000Y-134200000D01*
X64070000Y-135530000D02*
X64070000Y-132870000D01*
%TO.C,R20*%
X90027064Y-106435000D02*
X89572936Y-106435000D01*
X90027064Y-104965000D02*
X89572936Y-104965000D01*
%TO.C,R17*%
X90027064Y-103935000D02*
X89572936Y-103935000D01*
X90027064Y-102465000D02*
X89572936Y-102465000D01*
%TO.C,R8*%
X78972936Y-83240000D02*
X79427064Y-83240000D01*
X78972936Y-84710000D02*
X79427064Y-84710000D01*
%TO.C,C6*%
X92038748Y-86110000D02*
X92561252Y-86110000D01*
X92038748Y-84640000D02*
X92561252Y-84640000D01*
%TO.C,R1*%
X92072936Y-81410000D02*
X92527064Y-81410000D01*
X92072936Y-79940000D02*
X92527064Y-79940000D01*
%TO.C,U5*%
X119800000Y-92110000D02*
X121300000Y-92110000D01*
X119800000Y-88890000D02*
X121300000Y-88890000D01*
X119800000Y-88890000D02*
X116875000Y-88890000D01*
X119800000Y-92110000D02*
X118300000Y-92110000D01*
%TO.C,R13*%
X73635000Y-65572936D02*
X73635000Y-66027064D01*
X72165000Y-65572936D02*
X72165000Y-66027064D01*
%TO.C,J5*%
X64070000Y-131530000D02*
X64070000Y-128870000D01*
X61470000Y-131530000D02*
X61470000Y-130200000D01*
X64070000Y-131530000D02*
X64130000Y-131530000D01*
X64070000Y-128870000D02*
X64130000Y-128870000D01*
X62800000Y-131530000D02*
X61470000Y-131530000D01*
X64130000Y-131530000D02*
X64130000Y-128870000D01*
%TO.C,JP5*%
X66670000Y-110870000D02*
X66670000Y-112200000D01*
X64070000Y-110870000D02*
X61470000Y-110870000D01*
X64070000Y-113530000D02*
X61470000Y-113530000D01*
X65340000Y-110870000D02*
X66670000Y-110870000D01*
X64070000Y-110870000D02*
X64070000Y-113530000D01*
X61470000Y-110870000D02*
X61470000Y-113530000D01*
%TO.C,R10*%
X113027064Y-85935000D02*
X112572936Y-85935000D01*
X113027064Y-84465000D02*
X112572936Y-84465000D01*
%TO.C,U3*%
X86000000Y-87435000D02*
X84050000Y-87435000D01*
X86000000Y-77315000D02*
X82550000Y-77315000D01*
X86000000Y-87435000D02*
X87950000Y-87435000D01*
X86000000Y-77315000D02*
X87950000Y-77315000D01*
%TO.C,C9*%
X112538748Y-89465000D02*
X113061252Y-89465000D01*
X112538748Y-90935000D02*
X113061252Y-90935000D01*
%TO.C,C10*%
X74965000Y-66061252D02*
X74965000Y-65538748D01*
X76435000Y-66061252D02*
X76435000Y-65538748D01*
%TO.C,JP3*%
X64070000Y-98870000D02*
X66670000Y-98870000D01*
X66670000Y-101530000D02*
X66670000Y-98870000D01*
X64070000Y-101530000D02*
X66670000Y-101530000D01*
X61470000Y-101530000D02*
X61470000Y-100200000D01*
X62800000Y-101530000D02*
X61470000Y-101530000D01*
X64070000Y-101530000D02*
X64070000Y-98870000D01*
%TO.C,R12*%
X113027064Y-91965000D02*
X112572936Y-91965000D01*
X113027064Y-93435000D02*
X112572936Y-93435000D01*
%TO.C,JP6*%
X64070000Y-109930000D02*
X64070000Y-107270000D01*
X66670000Y-109930000D02*
X66670000Y-107270000D01*
X64070000Y-109930000D02*
X66670000Y-109930000D01*
X64070000Y-107270000D02*
X66670000Y-107270000D01*
X62800000Y-109930000D02*
X61470000Y-109930000D01*
X61470000Y-109930000D02*
X61470000Y-108600000D01*
%TO.C,C2*%
X75390000Y-60810000D02*
X75390000Y-59110000D01*
X81775000Y-59735000D02*
X81150000Y-59735000D01*
X80910000Y-59745563D02*
X80910000Y-59110000D01*
X80910000Y-59745563D02*
X79845563Y-60810000D01*
X80910000Y-56354437D02*
X79845563Y-55290000D01*
X79845563Y-55290000D02*
X75390000Y-55290000D01*
X79845563Y-60810000D02*
X75390000Y-60810000D01*
X75390000Y-55290000D02*
X75390000Y-56990000D01*
X80910000Y-56354437D02*
X80910000Y-56990000D01*
X81462500Y-60047500D02*
X81462500Y-59422500D01*
%TO.C,R4*%
X78972936Y-82710000D02*
X79427064Y-82710000D01*
X78972936Y-81240000D02*
X79427064Y-81240000D01*
%TO.C,U7*%
X75800000Y-111810000D02*
X73600000Y-111810000D01*
X75800000Y-111810000D02*
X79400000Y-111810000D01*
X75800000Y-106590000D02*
X78000000Y-106590000D01*
X75800000Y-106590000D02*
X73600000Y-106590000D01*
%TO.C,R14*%
X113027064Y-95935000D02*
X112572936Y-95935000D01*
X113027064Y-94465000D02*
X112572936Y-94465000D01*
%TO.C,R2*%
X107784000Y-74286001D02*
G75*
G03*
X104814798Y-74286613I-1484000J-2913999D01*
G01*
X107364000Y-80292000D02*
G75*
G03*
X109213829Y-75716032I-1064000J3092000D01*
G01*
X103030000Y-77200000D02*
G75*
G03*
X105235392Y-80291846I3270000J0D01*
G01*
X103386000Y-75715000D02*
G75*
G03*
X103029925Y-77256863I2914000J-1485000D01*
G01*
%TO.C,C5*%
X92038748Y-83935000D02*
X92561252Y-83935000D01*
X92038748Y-82465000D02*
X92561252Y-82465000D01*
%TO.C,U4*%
X70360000Y-65800000D02*
X70360000Y-65150000D01*
X67240000Y-65800000D02*
X67240000Y-65150000D01*
X67240000Y-65800000D02*
X67240000Y-67475000D01*
X70360000Y-65800000D02*
X70360000Y-66450000D01*
%TO.C,JP4*%
X62800000Y-105530000D02*
X61470000Y-105530000D01*
X64070000Y-102870000D02*
X66670000Y-102870000D01*
X66670000Y-105530000D02*
X66670000Y-102870000D01*
X64070000Y-105530000D02*
X64070000Y-102870000D01*
X64070000Y-105530000D02*
X66670000Y-105530000D01*
X61470000Y-105530000D02*
X61470000Y-104200000D01*
%TO.C,C4*%
X92561252Y-77765000D02*
X92038748Y-77765000D01*
X92561252Y-79235000D02*
X92038748Y-79235000D01*
%TO.C,C3*%
X95890000Y-59945563D02*
X95890000Y-59310000D01*
X95025000Y-56565000D02*
X95650000Y-56565000D01*
X96954437Y-61010000D02*
X101410000Y-61010000D01*
X101410000Y-55490000D02*
X101410000Y-57190000D01*
X95890000Y-56554437D02*
X96954437Y-55490000D01*
X95890000Y-59945563D02*
X96954437Y-61010000D01*
X101410000Y-61010000D02*
X101410000Y-59310000D01*
X95337500Y-56252500D02*
X95337500Y-56877500D01*
X96954437Y-55490000D02*
X101410000Y-55490000D01*
X95890000Y-56554437D02*
X95890000Y-57190000D01*
%TO.C,C7*%
X79461252Y-86710000D02*
X78938748Y-86710000D01*
X79461252Y-85240000D02*
X78938748Y-85240000D01*
%TO.C,JP9*%
X65340000Y-123870000D02*
X66670000Y-123870000D01*
X64070000Y-126530000D02*
X61470000Y-126530000D01*
X64070000Y-123870000D02*
X61470000Y-123870000D01*
X66670000Y-123870000D02*
X66670000Y-125200000D01*
X64070000Y-123870000D02*
X64070000Y-126530000D01*
X61470000Y-123870000D02*
X61470000Y-126530000D01*
%TO.C,R3*%
X112572936Y-81435000D02*
X113027064Y-81435000D01*
X112572936Y-79965000D02*
X113027064Y-79965000D01*
%TO.C,JP8*%
X64070000Y-117530000D02*
X66670000Y-117530000D01*
X66670000Y-117530000D02*
X66670000Y-114870000D01*
X64070000Y-117530000D02*
X64070000Y-114870000D01*
X64070000Y-114870000D02*
X66670000Y-114870000D01*
X61470000Y-117530000D02*
X61470000Y-116200000D01*
X62800000Y-117530000D02*
X61470000Y-117530000D01*
%TO.C,RV1*%
X132325000Y-129960000D02*
X133175000Y-129960000D01*
X138960000Y-121705000D02*
X138960000Y-117840000D01*
X129039000Y-129960000D02*
X129039000Y-126094000D01*
X137325000Y-129960000D02*
X138960000Y-129960000D01*
X129039000Y-117840000D02*
X138960000Y-117840000D01*
X134825000Y-129960000D02*
X135675000Y-129960000D01*
X138960000Y-129960000D02*
X138960000Y-126094000D01*
X129039000Y-121705000D02*
X129039000Y-117840000D01*
X129039000Y-129960000D02*
X130675000Y-129960000D01*
X136762000Y-122227000D02*
G75*
G03*
X131237568Y-122228018I-2762000J-1173000D01*
G01*
X131702000Y-125328000D02*
G75*
G03*
X136297753Y-125328295I2298000J1928000D01*
G01*
D13*
%TO.C,J2*%
X120905000Y-116610000D02*
X123445000Y-116610000D01*
X114500000Y-117300000D02*
X123500000Y-117300000D01*
X114500000Y-106800000D02*
X123500000Y-106800000D01*
X117095000Y-117245000D02*
X120905000Y-117245000D01*
X114555000Y-116610000D02*
X117095000Y-116610000D01*
X123500000Y-106800000D02*
X123500000Y-117300000D01*
X120905000Y-117245000D02*
X120905000Y-116610000D01*
X117095000Y-116610000D02*
X117095000Y-117245000D01*
X120905000Y-114705000D02*
X117095000Y-114705000D01*
X117095000Y-110895000D02*
X120905000Y-110895000D01*
X114500000Y-106800000D02*
X114500000Y-117300000D01*
X117095000Y-110895000D02*
G75*
G03*
X117095000Y-114705000I1904999J-1905000D01*
G01*
X120905000Y-114705000D02*
G75*
G03*
X120905000Y-110895000I-1905000J1905000D01*
G01*
X120796051Y-112800000D02*
G75*
G03*
X120796051Y-112800000I-1796051J0D01*
G01*
D14*
%TO.C,U2*%
X113175000Y-56005000D02*
X109725000Y-56005000D01*
X113175000Y-61125000D02*
X115125000Y-61125000D01*
X113175000Y-61125000D02*
X111225000Y-61125000D01*
X113175000Y-56005000D02*
X115125000Y-56005000D01*
%TO.C,JP1*%
X124470000Y-80570000D02*
X127130000Y-80570000D01*
X127130000Y-77970000D02*
X127130000Y-80570000D01*
X124470000Y-75370000D02*
X125800000Y-75370000D01*
X124470000Y-77970000D02*
X124470000Y-80570000D01*
X124470000Y-76700000D02*
X124470000Y-75370000D01*
X124470000Y-77970000D02*
X127130000Y-77970000D01*
%TO.C,U1*%
X86500000Y-61660000D02*
X90260000Y-61660000D01*
X90260000Y-61660000D02*
X90260000Y-60400000D01*
X84250000Y-54840000D02*
X90260000Y-54840000D01*
X90260000Y-54840000D02*
X90260000Y-56100000D01*
%TO.C,U6*%
X97300000Y-105640000D02*
X99250000Y-105640000D01*
X97300000Y-110760000D02*
X95350000Y-110760000D01*
X97300000Y-105640000D02*
X93850000Y-105640000D01*
X97300000Y-110760000D02*
X99250000Y-110760000D01*
%TO.C,R9*%
X92527064Y-88310000D02*
X92072936Y-88310000D01*
X92527064Y-86840000D02*
X92072936Y-86840000D01*
%TO.C,R21*%
X105192936Y-110470000D02*
X105647064Y-110470000D01*
X105192936Y-109000000D02*
X105647064Y-109000000D01*
%TD*%
D15*
%TO.C,J2*%
X119000000Y-119280000D03*
X119000000Y-116180000D03*
X119000000Y-107880000D03*
%TD*%
M02*
