%TF.GenerationSoftware,KiCad,Pcbnew,(6.0.8)*%
%TF.CreationDate,2022-10-24T12:17:12+01:00*%
%TF.ProjectId,VCO_Test,56434f5f-5465-4737-942e-6b696361645f,rev?*%
%TF.SameCoordinates,Original*%
%TF.FileFunction,Soldermask,Top*%
%TF.FilePolarity,Negative*%
%FSLAX46Y46*%
G04 Gerber Fmt 4.6, Leading zero omitted, Abs format (unit mm)*
G04 Created by KiCad (PCBNEW (6.0.8)) date 2022-10-24 12:17:12*
%MOMM*%
%LPD*%
G01*
G04 APERTURE LIST*
G04 Aperture macros list*
%AMRoundRect*
0 Rectangle with rounded corners*
0 $1 Rounding radius*
0 $2 $3 $4 $5 $6 $7 $8 $9 X,Y pos of 4 corners*
0 Add a 4 corners polygon primitive as box body*
4,1,4,$2,$3,$4,$5,$6,$7,$8,$9,$2,$3,0*
0 Add four circle primitives for the rounded corners*
1,1,$1+$1,$2,$3*
1,1,$1+$1,$4,$5*
1,1,$1+$1,$6,$7*
1,1,$1+$1,$8,$9*
0 Add four rect primitives between the rounded corners*
20,1,$1+$1,$2,$3,$4,$5,0*
20,1,$1+$1,$4,$5,$6,$7,0*
20,1,$1+$1,$6,$7,$8,$9,0*
20,1,$1+$1,$8,$9,$2,$3,0*%
G04 Aperture macros list end*
%ADD10O,1.700000X1.700000*%
%ADD11R,1.700000X1.700000*%
%ADD12RoundRect,0.250000X-0.262500X-0.450000X0.262500X-0.450000X0.262500X0.450000X-0.262500X0.450000X0*%
%ADD13RoundRect,0.250000X0.250000X0.475000X-0.250000X0.475000X-0.250000X-0.475000X0.250000X-0.475000X0*%
%ADD14RoundRect,0.250000X0.262500X0.450000X-0.262500X0.450000X-0.262500X-0.450000X0.262500X-0.450000X0*%
%ADD15C,4.000000*%
%ADD16C,1.800000*%
%ADD17RoundRect,0.250000X-0.475000X0.250000X-0.475000X-0.250000X0.475000X-0.250000X0.475000X0.250000X0*%
%ADD18RoundRect,0.250000X-0.250000X-0.475000X0.250000X-0.475000X0.250000X0.475000X-0.250000X0.475000X0*%
%ADD19RoundRect,0.100000X-0.712500X-0.100000X0.712500X-0.100000X0.712500X0.100000X-0.712500X0.100000X0*%
%ADD20RoundRect,0.250000X-0.450000X0.262500X-0.450000X-0.262500X0.450000X-0.262500X0.450000X0.262500X0*%
%ADD21RoundRect,0.150000X-0.825000X-0.150000X0.825000X-0.150000X0.825000X0.150000X-0.825000X0.150000X0*%
%ADD22RoundRect,0.250000X0.475000X-0.250000X0.475000X0.250000X-0.475000X0.250000X-0.475000X-0.250000X0*%
%ADD23RoundRect,0.250000X1.250000X0.550000X-1.250000X0.550000X-1.250000X-0.550000X1.250000X-0.550000X0*%
%ADD24RoundRect,0.100000X0.637500X0.100000X-0.637500X0.100000X-0.637500X-0.100000X0.637500X-0.100000X0*%
%ADD25C,1.620000*%
%ADD26RoundRect,0.150000X0.150000X-0.587500X0.150000X0.587500X-0.150000X0.587500X-0.150000X-0.587500X0*%
%ADD27RoundRect,0.250000X-1.250000X-0.550000X1.250000X-0.550000X1.250000X0.550000X-1.250000X0.550000X0*%
%ADD28C,2.500000*%
%ADD29R,2.500000X1.000000*%
%ADD30R,2.000000X1.500000*%
%ADD31R,2.000000X3.800000*%
%ADD32RoundRect,0.150000X-0.725000X-0.150000X0.725000X-0.150000X0.725000X0.150000X-0.725000X0.150000X0*%
G04 APERTURE END LIST*
D10*
%TO.C,J3*%
X106300000Y-84935000D03*
D11*
X106300000Y-87475000D03*
%TD*%
%TO.C,J1*%
X62800000Y-78200000D03*
D10*
X62800000Y-80740000D03*
X62800000Y-83280000D03*
X62800000Y-85820000D03*
X62800000Y-88360000D03*
X62800000Y-90900000D03*
%TD*%
D12*
%TO.C,R24*%
X126387500Y-92700000D03*
X128212500Y-92700000D03*
%TD*%
%TO.C,R23*%
X128212500Y-90200000D03*
X126387500Y-90200000D03*
%TD*%
%TO.C,R22*%
X128212500Y-95200000D03*
X126387500Y-95200000D03*
%TD*%
D11*
%TO.C,J11*%
X135700000Y-87200000D03*
%TD*%
%TO.C,J10*%
X135700000Y-92700000D03*
%TD*%
%TO.C,J9*%
X106300000Y-100100000D03*
%TD*%
D13*
%TO.C,C11*%
X126350000Y-87700000D03*
X128250000Y-87700000D03*
%TD*%
D11*
%TO.C,J8*%
X62800000Y-71200000D03*
D10*
X62800000Y-68660000D03*
X62800000Y-66120000D03*
X62800000Y-63580000D03*
%TD*%
D11*
%TO.C,J7*%
X62800000Y-52700000D03*
D10*
X62800000Y-55240000D03*
X62800000Y-57780000D03*
%TD*%
D14*
%TO.C,R19*%
X90712500Y-113200000D03*
X88887500Y-113200000D03*
%TD*%
%TO.C,R11*%
X111887500Y-87700000D03*
X113712500Y-87700000D03*
%TD*%
%TO.C,R15*%
X90712500Y-108200000D03*
X88887500Y-108200000D03*
%TD*%
D11*
%TO.C,JP2*%
X135700000Y-74200000D03*
D10*
X135700000Y-76740000D03*
X135700000Y-79280000D03*
%TD*%
D14*
%TO.C,R16*%
X90712500Y-110700000D03*
X88887500Y-110700000D03*
%TD*%
D15*
%TO.C,RV2*%
X129600000Y-103800000D03*
X138400000Y-103800000D03*
D16*
X136500000Y-110800000D03*
X134000000Y-110800000D03*
X131500000Y-110800000D03*
%TD*%
D12*
%TO.C,R5*%
X78287500Y-77975000D03*
X80112500Y-77975000D03*
%TD*%
D14*
%TO.C,R6*%
X128212500Y-82700000D03*
X126387500Y-82700000D03*
%TD*%
D17*
%TO.C,C1*%
X119500000Y-57450000D03*
X119500000Y-59350000D03*
%TD*%
D10*
%TO.C,JP7*%
X62800000Y-120200000D03*
D11*
X65340000Y-120200000D03*
%TD*%
D18*
%TO.C,C8*%
X80150000Y-88075000D03*
X78250000Y-88075000D03*
%TD*%
D12*
%TO.C,R18*%
X104507500Y-107200000D03*
X106332500Y-107200000D03*
%TD*%
%TO.C,R7*%
X78287500Y-80075000D03*
X80112500Y-80075000D03*
%TD*%
D11*
%TO.C,J6*%
X62800000Y-134200000D03*
%TD*%
D14*
%TO.C,R20*%
X90712500Y-105700000D03*
X88887500Y-105700000D03*
%TD*%
%TO.C,R17*%
X90712500Y-103200000D03*
X88887500Y-103200000D03*
%TD*%
D12*
%TO.C,R8*%
X80112500Y-83975000D03*
X78287500Y-83975000D03*
%TD*%
D18*
%TO.C,C6*%
X93250000Y-85375000D03*
X91350000Y-85375000D03*
%TD*%
D12*
%TO.C,R1*%
X93212500Y-80675000D03*
X91387500Y-80675000D03*
%TD*%
D19*
%TO.C,U5*%
X121912500Y-89525000D03*
X121912500Y-90175000D03*
X121912500Y-90825000D03*
X121912500Y-91475000D03*
X117687500Y-91475000D03*
X117687500Y-90825000D03*
X117687500Y-90175000D03*
X117687500Y-89525000D03*
%TD*%
D20*
%TO.C,R13*%
X72900000Y-64887500D03*
X72900000Y-66712500D03*
%TD*%
D11*
%TO.C,J5*%
X62800000Y-130200000D03*
%TD*%
D10*
%TO.C,JP5*%
X62800000Y-112200000D03*
D11*
X65340000Y-112200000D03*
%TD*%
D14*
%TO.C,R10*%
X111887500Y-85200000D03*
X113712500Y-85200000D03*
%TD*%
D21*
%TO.C,U3*%
X88475000Y-77930000D03*
X88475000Y-79200000D03*
X88475000Y-80470000D03*
X88475000Y-81740000D03*
X88475000Y-83010000D03*
X88475000Y-84280000D03*
X88475000Y-85550000D03*
X88475000Y-86820000D03*
X83525000Y-86820000D03*
X83525000Y-85550000D03*
X83525000Y-84280000D03*
X83525000Y-83010000D03*
X83525000Y-81740000D03*
X83525000Y-80470000D03*
X83525000Y-79200000D03*
X83525000Y-77930000D03*
%TD*%
D18*
%TO.C,C9*%
X113750000Y-90200000D03*
X111850000Y-90200000D03*
%TD*%
D22*
%TO.C,C10*%
X75700000Y-66750000D03*
X75700000Y-64850000D03*
%TD*%
D11*
%TO.C,JP3*%
X62800000Y-100200000D03*
D10*
X65340000Y-100200000D03*
%TD*%
D14*
%TO.C,R12*%
X113712500Y-92700000D03*
X111887500Y-92700000D03*
%TD*%
D11*
%TO.C,JP6*%
X62800000Y-108600000D03*
D10*
X65340000Y-108600000D03*
%TD*%
D23*
%TO.C,C2*%
X80350000Y-58050000D03*
X75950000Y-58050000D03*
%TD*%
D12*
%TO.C,R4*%
X78287500Y-81975000D03*
X80112500Y-81975000D03*
%TD*%
D24*
%TO.C,U7*%
X78662500Y-111150000D03*
X78662500Y-110500000D03*
X78662500Y-109850000D03*
X78662500Y-109200000D03*
X78662500Y-108550000D03*
X78662500Y-107900000D03*
X78662500Y-107250000D03*
X72937500Y-107250000D03*
X72937500Y-107900000D03*
X72937500Y-108550000D03*
X72937500Y-109200000D03*
X72937500Y-109850000D03*
X72937500Y-110500000D03*
X72937500Y-111150000D03*
%TD*%
D14*
%TO.C,R14*%
X111887500Y-95200000D03*
X113712500Y-95200000D03*
%TD*%
D25*
%TO.C,R2*%
X103800000Y-74700000D03*
X106300000Y-79700000D03*
X108800000Y-74700000D03*
%TD*%
D18*
%TO.C,C5*%
X91350000Y-83200000D03*
X93250000Y-83200000D03*
%TD*%
D26*
%TO.C,U4*%
X68800000Y-64862500D03*
X69750000Y-66737500D03*
X67850000Y-66737500D03*
%TD*%
D11*
%TO.C,JP4*%
X62800000Y-104200000D03*
D10*
X65340000Y-104200000D03*
%TD*%
D13*
%TO.C,C4*%
X91350000Y-78500000D03*
X93250000Y-78500000D03*
%TD*%
D27*
%TO.C,C3*%
X96450000Y-58250000D03*
X100850000Y-58250000D03*
%TD*%
D13*
%TO.C,C7*%
X78250000Y-85975000D03*
X80150000Y-85975000D03*
%TD*%
D10*
%TO.C,JP9*%
X62800000Y-125200000D03*
D11*
X65340000Y-125200000D03*
%TD*%
D12*
%TO.C,R3*%
X111887500Y-80700000D03*
X113712500Y-80700000D03*
%TD*%
D11*
%TO.C,JP8*%
X62800000Y-116200000D03*
D10*
X65340000Y-116200000D03*
%TD*%
D15*
%TO.C,RV1*%
X138400000Y-123900000D03*
X129600000Y-123900000D03*
D16*
X136500000Y-130900000D03*
X134000000Y-130900000D03*
X131500000Y-130900000D03*
%TD*%
D28*
%TO.C,J2*%
X119000000Y-112800000D03*
D29*
X119000000Y-119280000D03*
X119000000Y-116180000D03*
X119000000Y-107880000D03*
%TD*%
D21*
%TO.C,U2*%
X110700000Y-56660000D03*
X110700000Y-57930000D03*
X110700000Y-59200000D03*
X110700000Y-60470000D03*
X115650000Y-60470000D03*
X115650000Y-59200000D03*
X115650000Y-57930000D03*
X115650000Y-56660000D03*
%TD*%
D11*
%TO.C,JP1*%
X125800000Y-76700000D03*
D10*
X125800000Y-79240000D03*
%TD*%
D30*
%TO.C,U1*%
X85200000Y-55950000D03*
D31*
X91500000Y-58250000D03*
D30*
X85200000Y-58250000D03*
X85200000Y-60550000D03*
%TD*%
D32*
%TO.C,U6*%
X94725000Y-106295000D03*
X94725000Y-107565000D03*
X94725000Y-108835000D03*
X94725000Y-110105000D03*
X99875000Y-110105000D03*
X99875000Y-108835000D03*
X99875000Y-107565000D03*
X99875000Y-106295000D03*
%TD*%
D14*
%TO.C,R9*%
X91387500Y-87575000D03*
X93212500Y-87575000D03*
%TD*%
D12*
%TO.C,R21*%
X104507500Y-109735000D03*
X106332500Y-109735000D03*
%TD*%
M02*
