%TF.GenerationSoftware,KiCad,Pcbnew,(6.0.11)*%
%TF.CreationDate,2023-01-29T15:19:43+00:00*%
%TF.ProjectId,Quadraphone_Breakout_Panel,51756164-7261-4706-986f-6e655f427265,rev?*%
%TF.SameCoordinates,Original*%
%TF.FileFunction,Legend,Bot*%
%TF.FilePolarity,Positive*%
%FSLAX46Y46*%
G04 Gerber Fmt 4.6, Leading zero omitted, Abs format (unit mm)*
G04 Created by KiCad (PCBNEW (6.0.11)) date 2023-01-29 15:19:43*
%MOMM*%
%LPD*%
G01*
G04 APERTURE LIST*
%ADD10C,0.300000*%
%ADD11C,0.150000*%
G04 APERTURE END LIST*
D10*
X66400000Y-106192857D02*
X66185714Y-106264285D01*
X66114285Y-106335714D01*
X66042857Y-106478571D01*
X66042857Y-106692857D01*
X66114285Y-106835714D01*
X66185714Y-106907142D01*
X66328571Y-106978571D01*
X66900000Y-106978571D01*
X66900000Y-105478571D01*
X66400000Y-105478571D01*
X66257142Y-105550000D01*
X66185714Y-105621428D01*
X66114285Y-105764285D01*
X66114285Y-105907142D01*
X66185714Y-106050000D01*
X66257142Y-106121428D01*
X66400000Y-106192857D01*
X66900000Y-106192857D01*
X65400000Y-106978571D02*
X65400000Y-105978571D01*
X65400000Y-106264285D02*
X65328571Y-106121428D01*
X65257142Y-106050000D01*
X65114285Y-105978571D01*
X64971428Y-105978571D01*
X63900000Y-106907142D02*
X64042857Y-106978571D01*
X64328571Y-106978571D01*
X64471428Y-106907142D01*
X64542857Y-106764285D01*
X64542857Y-106192857D01*
X64471428Y-106050000D01*
X64328571Y-105978571D01*
X64042857Y-105978571D01*
X63900000Y-106050000D01*
X63828571Y-106192857D01*
X63828571Y-106335714D01*
X64542857Y-106478571D01*
X62542857Y-106978571D02*
X62542857Y-106192857D01*
X62614285Y-106050000D01*
X62757142Y-105978571D01*
X63042857Y-105978571D01*
X63185714Y-106050000D01*
X62542857Y-106907142D02*
X62685714Y-106978571D01*
X63042857Y-106978571D01*
X63185714Y-106907142D01*
X63257142Y-106764285D01*
X63257142Y-106621428D01*
X63185714Y-106478571D01*
X63042857Y-106407142D01*
X62685714Y-106407142D01*
X62542857Y-106335714D01*
X61828571Y-106978571D02*
X61828571Y-105478571D01*
X61685714Y-106407142D02*
X61257142Y-106978571D01*
X61257142Y-105978571D02*
X61828571Y-106550000D01*
X60400000Y-106978571D02*
X60542857Y-106907142D01*
X60614285Y-106835714D01*
X60685714Y-106692857D01*
X60685714Y-106264285D01*
X60614285Y-106121428D01*
X60542857Y-106050000D01*
X60400000Y-105978571D01*
X60185714Y-105978571D01*
X60042857Y-106050000D01*
X59971428Y-106121428D01*
X59900000Y-106264285D01*
X59900000Y-106692857D01*
X59971428Y-106835714D01*
X60042857Y-106907142D01*
X60185714Y-106978571D01*
X60400000Y-106978571D01*
X58614285Y-105978571D02*
X58614285Y-106978571D01*
X59257142Y-105978571D02*
X59257142Y-106764285D01*
X59185714Y-106907142D01*
X59042857Y-106978571D01*
X58828571Y-106978571D01*
X58685714Y-106907142D01*
X58614285Y-106835714D01*
X58114285Y-105978571D02*
X57542857Y-105978571D01*
X57900000Y-105478571D02*
X57900000Y-106764285D01*
X57828571Y-106907142D01*
X57685714Y-106978571D01*
X57542857Y-106978571D01*
X56042857Y-105978571D02*
X55685714Y-106978571D01*
X55328571Y-105978571D01*
X53971428Y-106978571D02*
X54828571Y-106978571D01*
X54400000Y-106978571D02*
X54400000Y-105478571D01*
X54542857Y-105692857D01*
X54685714Y-105835714D01*
X54828571Y-105907142D01*
X53328571Y-106835714D02*
X53257142Y-106907142D01*
X53328571Y-106978571D01*
X53400000Y-106907142D01*
X53328571Y-106835714D01*
X53328571Y-106978571D01*
X52328571Y-105478571D02*
X52185714Y-105478571D01*
X52042857Y-105550000D01*
X51971428Y-105621428D01*
X51900000Y-105764285D01*
X51828571Y-106050000D01*
X51828571Y-106407142D01*
X51900000Y-106692857D01*
X51971428Y-106835714D01*
X52042857Y-106907142D01*
X52185714Y-106978571D01*
X52328571Y-106978571D01*
X52471428Y-106907142D01*
X52542857Y-106835714D01*
X52614285Y-106692857D01*
X52685714Y-106407142D01*
X52685714Y-106050000D01*
X52614285Y-105764285D01*
X52542857Y-105621428D01*
X52471428Y-105550000D01*
X52328571Y-105478571D01*
D11*
X64219047Y-161302380D02*
X64219047Y-162016666D01*
X64266666Y-162159523D01*
X64361904Y-162254761D01*
X64504761Y-162302380D01*
X64600000Y-162302380D01*
X63266666Y-162302380D02*
X63742857Y-162302380D01*
X63742857Y-161302380D01*
X62361904Y-162207142D02*
X62409523Y-162254761D01*
X62552380Y-162302380D01*
X62647619Y-162302380D01*
X62790476Y-162254761D01*
X62885714Y-162159523D01*
X62933333Y-162064285D01*
X62980952Y-161873809D01*
X62980952Y-161730952D01*
X62933333Y-161540476D01*
X62885714Y-161445238D01*
X62790476Y-161350000D01*
X62647619Y-161302380D01*
X62552380Y-161302380D01*
X62409523Y-161350000D01*
X62361904Y-161397619D01*
X61647619Y-161302380D02*
X61647619Y-162016666D01*
X61695238Y-162159523D01*
X61790476Y-162254761D01*
X61933333Y-162302380D01*
X62028571Y-162302380D01*
X60695238Y-162302380D02*
X61171428Y-162302380D01*
X61171428Y-161302380D01*
X59790476Y-162207142D02*
X59838095Y-162254761D01*
X59980952Y-162302380D01*
X60076190Y-162302380D01*
X60219047Y-162254761D01*
X60314285Y-162159523D01*
X60361904Y-162064285D01*
X60409523Y-161873809D01*
X60409523Y-161730952D01*
X60361904Y-161540476D01*
X60314285Y-161445238D01*
X60219047Y-161350000D01*
X60076190Y-161302380D01*
X59980952Y-161302380D01*
X59838095Y-161350000D01*
X59790476Y-161397619D01*
X59076190Y-161302380D02*
X59076190Y-162016666D01*
X59123809Y-162159523D01*
X59219047Y-162254761D01*
X59361904Y-162302380D01*
X59457142Y-162302380D01*
X58123809Y-162302380D02*
X58600000Y-162302380D01*
X58600000Y-161302380D01*
X57219047Y-162207142D02*
X57266666Y-162254761D01*
X57409523Y-162302380D01*
X57504761Y-162302380D01*
X57647619Y-162254761D01*
X57742857Y-162159523D01*
X57790476Y-162064285D01*
X57838095Y-161873809D01*
X57838095Y-161730952D01*
X57790476Y-161540476D01*
X57742857Y-161445238D01*
X57647619Y-161350000D01*
X57504761Y-161302380D01*
X57409523Y-161302380D01*
X57266666Y-161350000D01*
X57219047Y-161397619D01*
X56504761Y-161302380D02*
X56504761Y-162016666D01*
X56552380Y-162159523D01*
X56647619Y-162254761D01*
X56790476Y-162302380D01*
X56885714Y-162302380D01*
X55552380Y-162302380D02*
X56028571Y-162302380D01*
X56028571Y-161302380D01*
X54647619Y-162207142D02*
X54695238Y-162254761D01*
X54838095Y-162302380D01*
X54933333Y-162302380D01*
X55076190Y-162254761D01*
X55171428Y-162159523D01*
X55219047Y-162064285D01*
X55266666Y-161873809D01*
X55266666Y-161730952D01*
X55219047Y-161540476D01*
X55171428Y-161445238D01*
X55076190Y-161350000D01*
X54933333Y-161302380D01*
X54838095Y-161302380D01*
X54695238Y-161350000D01*
X54647619Y-161397619D01*
M02*
