M48
; DRILL file {KiCad (6.0.8)} date Mon Oct 24 12:17:14 2022
; FORMAT={-:-/ absolute / inch / decimal}
; #@! TF.CreationDate,2022-10-24T12:17:14+01:00
; #@! TF.GenerationSoftware,Kicad,Pcbnew,(6.0.8)
; #@! TF.FileFunction,Plated,1,2,PTH
FMAT,2
INCH
; #@! TA.AperFunction,Plated,PTH,ViaDrill
T1C0.0157
; #@! TA.AperFunction,Plated,PTH,ComponentDrill
T2C0.0197
; #@! TA.AperFunction,Plated,PTH,ComponentDrill
T3C0.0354
; #@! TA.AperFunction,Plated,PTH,ComponentDrill
T4C0.0394
%
G90
G05
T1
X2.5433Y-3.7362
X2.5984Y-3.4134
X2.622Y-2.626
X2.8031Y-4.4055
X2.9528Y-3.6654
X2.9882Y-3.0709
X3.0394Y-2.626
X3.0472Y-4.2244
X3.1654Y-4.248
X3.189Y-3.6732
X3.2126Y-4.0906
X3.2136Y-3.3681
X3.2598Y-2.4134
X3.377Y-3.4449
X3.4163Y-3.1693
X3.4173Y-2.7795
X3.4567Y-4.1535
X3.4646Y-3.9567
X3.4961Y-3.0315
X3.5896Y-3.0354
X3.685Y-3.9882
X3.6929Y-2.3268
X3.7323Y-4.374
X3.9921Y-4.185
X3.9921Y-4.3386
X4.2677Y-3.248
X4.3318Y-3.4539
X4.5827Y-3.2559
X4.5827Y-3.4291
X4.5984Y-3.7205
X4.6457Y-2.5394
X4.6457Y-3.1772
X4.7126Y-3.6024
X4.7323Y-3.3504
X4.7402Y-3.5236
X4.9055Y-3.2874
T3
X4.0866Y-2.9409
X4.185Y-3.1378
X4.2835Y-2.9409
T4
X2.4724Y-2.0748
X2.4724Y-2.1748
X2.4724Y-2.2748
X2.4724Y-2.5031
X2.4724Y-2.6031
X2.4724Y-2.7031
X2.4724Y-2.8031
X2.4724Y-3.0787
X2.4724Y-3.1787
X2.4724Y-3.2787
X2.4724Y-3.3787
X2.4724Y-3.4787
X2.4724Y-3.5787
X2.4724Y-3.9449
X2.4724Y-4.1024
X2.4724Y-4.2756
X2.4724Y-4.4173
X2.4724Y-4.5748
X2.4724Y-4.7323
X2.4724Y-4.9291
X2.4724Y-5.126
X2.4724Y-5.2835
X2.5724Y-3.9449
X2.5724Y-4.1024
X2.5724Y-4.2756
X2.5724Y-4.4173
X2.5724Y-4.5748
X2.5724Y-4.7323
X2.5724Y-4.9291
X4.185Y-3.3439
X4.185Y-3.4439
X4.185Y-3.9409
X4.9528Y-3.0197
X4.9528Y-3.1197
X5.1772Y-4.3622
X5.1772Y-5.1535
X5.2756Y-4.3622
X5.2756Y-5.1535
X5.3425Y-2.9213
X5.3425Y-3.0213
X5.3425Y-3.1213
X5.3425Y-3.4331
X5.3425Y-3.6496
X5.374Y-4.3622
X5.374Y-5.1535
T2
G00X4.6654Y-4.2472
M15
G01X4.7047Y-4.2472
M16
G05
G00X4.6654Y-4.574
M15
G01X4.7047Y-4.574
M16
G05
G00X4.6654Y-4.6961
M15
G01X4.7047Y-4.6961
M16
G05
T0
M30
