%TF.GenerationSoftware,KiCad,Pcbnew,(6.0.8)*%
%TF.CreationDate,2022-10-24T12:17:12+01:00*%
%TF.ProjectId,VCO_Test,56434f5f-5465-4737-942e-6b696361645f,rev?*%
%TF.SameCoordinates,Original*%
%TF.FileFunction,Copper,L2,Bot*%
%TF.FilePolarity,Positive*%
%FSLAX46Y46*%
G04 Gerber Fmt 4.6, Leading zero omitted, Abs format (unit mm)*
G04 Created by KiCad (PCBNEW (6.0.8)) date 2022-10-24 12:17:12*
%MOMM*%
%LPD*%
G01*
G04 APERTURE LIST*
%TA.AperFunction,ComponentPad*%
%ADD10O,1.700000X1.700000*%
%TD*%
%TA.AperFunction,ComponentPad*%
%ADD11R,1.700000X1.700000*%
%TD*%
%TA.AperFunction,WasherPad*%
%ADD12C,4.000000*%
%TD*%
%TA.AperFunction,ComponentPad*%
%ADD13C,1.800000*%
%TD*%
%TA.AperFunction,ComponentPad*%
%ADD14C,1.620000*%
%TD*%
%TA.AperFunction,ComponentPad*%
%ADD15R,2.500000X1.000000*%
%TD*%
%TA.AperFunction,ViaPad*%
%ADD16C,0.800000*%
%TD*%
%TA.AperFunction,Conductor*%
%ADD17C,0.500000*%
%TD*%
%TA.AperFunction,Conductor*%
%ADD18C,0.250000*%
%TD*%
G04 APERTURE END LIST*
D10*
%TO.P,J3,2,Pin_2*%
%TO.N,/SOFT_SYNCH*%
X106300000Y-84935000D03*
D11*
%TO.P,J3,1,Pin_1*%
%TO.N,/HARD_SYNCH*%
X106300000Y-87475000D03*
%TD*%
%TO.P,J1,1,Pin_1*%
%TO.N,/SAW_OUT*%
X62800000Y-78200000D03*
D10*
%TO.P,J1,2,Pin_2*%
%TO.N,/PULSE_OUT*%
X62800000Y-80740000D03*
%TO.P,J1,3,Pin_3*%
%TO.N,/TRI_OUT*%
X62800000Y-83280000D03*
%TO.P,J1,4,Pin_4*%
%TO.N,/EXPO_FREQ1*%
X62800000Y-85820000D03*
%TO.P,J1,5,Pin_5*%
%TO.N,/EXPO_FREQ2*%
X62800000Y-88360000D03*
%TO.P,J1,6,Pin_6*%
%TO.N,/MIX_OUT*%
X62800000Y-90900000D03*
%TD*%
D11*
%TO.P,J11,1,Pin_1*%
%TO.N,Net-(U5-Pad7)*%
X135700000Y-87200000D03*
%TD*%
%TO.P,J10,1,Pin_1*%
%TO.N,Net-(J10-Pad1)*%
X135700000Y-92700000D03*
%TD*%
%TO.P,J9,1,Pin_1*%
%TO.N,Net-(J2-Pad3)*%
X106300000Y-100100000D03*
%TD*%
%TO.P,J8,1,Pin_1*%
%TO.N,GND*%
X62800000Y-71200000D03*
D10*
%TO.P,J8,2,Pin_2*%
%TO.N,+2V5*%
X62800000Y-68660000D03*
%TO.P,J8,3,Pin_3*%
%TO.N,+5V*%
X62800000Y-66120000D03*
%TO.P,J8,4,Pin_4*%
%TO.N,-5V*%
X62800000Y-63580000D03*
%TD*%
D11*
%TO.P,J7,1,Pin_1*%
%TO.N,+12V*%
X62800000Y-52700000D03*
D10*
%TO.P,J7,2,Pin_2*%
%TO.N,GND*%
X62800000Y-55240000D03*
%TO.P,J7,3,Pin_3*%
%TO.N,-12V*%
X62800000Y-57780000D03*
%TD*%
D11*
%TO.P,JP2,1,A*%
%TO.N,/PWM_pot*%
X135700000Y-74200000D03*
D10*
%TO.P,JP2,2,C*%
%TO.N,/PWM_Ctrl*%
X135700000Y-76740000D03*
%TO.P,JP2,3,B*%
%TO.N,/PWM_scaled_input*%
X135700000Y-79280000D03*
%TD*%
D12*
%TO.P,RV2,*%
%TO.N,*%
X129600000Y-103800000D03*
X138400000Y-103800000D03*
D13*
%TO.P,RV2,1,1*%
%TO.N,+12V*%
X136500000Y-110800000D03*
%TO.P,RV2,2,2*%
%TO.N,Net-(R14-Pad2)*%
X134000000Y-110800000D03*
%TO.P,RV2,3,3*%
%TO.N,-12V*%
X131500000Y-110800000D03*
%TD*%
D10*
%TO.P,JP7,2,2*%
%TO.N,+5V*%
X62800000Y-120200000D03*
D11*
%TO.P,JP7,1,1*%
%TO.N,Net-(JP7-Pad1)*%
X65340000Y-120200000D03*
%TD*%
%TO.P,J6,1,Pin_1*%
%TO.N,Net-(J6-Pad1)*%
X62800000Y-134200000D03*
%TD*%
%TO.P,J5,1,Pin_1*%
%TO.N,Net-(J5-Pad1)*%
X62800000Y-130200000D03*
%TD*%
D10*
%TO.P,JP5,2,2*%
%TO.N,+5V*%
X62800000Y-112200000D03*
D11*
%TO.P,JP5,1,1*%
%TO.N,Net-(JP5-Pad1)*%
X65340000Y-112200000D03*
%TD*%
%TO.P,JP3,1,1*%
%TO.N,Net-(JP3-Pad1)*%
X62800000Y-100200000D03*
D10*
%TO.P,JP3,2,2*%
%TO.N,+5V*%
X65340000Y-100200000D03*
%TD*%
D11*
%TO.P,JP6,1,1*%
%TO.N,/PULSE_OUT*%
X62800000Y-108600000D03*
D10*
%TO.P,JP6,2,2*%
%TO.N,Net-(U7-Pad11)*%
X65340000Y-108600000D03*
%TD*%
D14*
%TO.P,R2,1*%
%TO.N,Net-(R2-Pad1)*%
X103800000Y-74700000D03*
%TO.P,R2,2*%
%TO.N,Net-(R2-Pad2)*%
X106300000Y-79700000D03*
%TO.P,R2,3*%
%TO.N,N/C*%
X108800000Y-74700000D03*
%TD*%
D11*
%TO.P,JP4,1,1*%
%TO.N,/TRI_OUT*%
X62800000Y-104200000D03*
D10*
%TO.P,JP4,2,2*%
%TO.N,Net-(JP4-Pad2)*%
X65340000Y-104200000D03*
%TD*%
%TO.P,JP9,2,2*%
%TO.N,+5V*%
X62800000Y-125200000D03*
D11*
%TO.P,JP9,1,1*%
%TO.N,Net-(JP9-Pad1)*%
X65340000Y-125200000D03*
%TD*%
%TO.P,JP8,1,1*%
%TO.N,/SAW_OUT*%
X62800000Y-116200000D03*
D10*
%TO.P,JP8,2,2*%
%TO.N,Net-(JP8-Pad2)*%
X65340000Y-116200000D03*
%TD*%
D12*
%TO.P,RV1,*%
%TO.N,*%
X138400000Y-123900000D03*
X129600000Y-123900000D03*
D13*
%TO.P,RV1,1,1*%
%TO.N,+2V5*%
X136500000Y-130900000D03*
%TO.P,RV1,2,2*%
%TO.N,/PWM_pot*%
X134000000Y-130900000D03*
%TO.P,RV1,3,3*%
%TO.N,GND*%
X131500000Y-130900000D03*
%TD*%
D15*
%TO.P,J2,1*%
%TO.N,GND*%
X119000000Y-119280000D03*
%TO.P,J2,2*%
X119000000Y-116180000D03*
%TO.P,J2,3*%
%TO.N,Net-(J2-Pad3)*%
X119000000Y-107880000D03*
%TD*%
D11*
%TO.P,JP1,1,1*%
%TO.N,/LIN_FREQ*%
X125800000Y-76700000D03*
D10*
%TO.P,JP1,2,2*%
%TO.N,Net-(JP1-Pad2)*%
X125800000Y-79240000D03*
%TD*%
D16*
%TO.N,GND*%
X75900000Y-78000000D03*
%TO.N,+5V*%
X93800000Y-59100000D03*
X88800000Y-77000000D03*
%TO.N,+2V5*%
X86775000Y-80500000D03*
%TO.N,GND*%
X116400000Y-87100000D03*
X116400000Y-82700000D03*
X108400000Y-82500000D03*
X124600000Y-83500000D03*
X120200000Y-85100000D03*
X88000000Y-100500000D03*
X81000000Y-93300000D03*
X66000000Y-86700000D03*
X75000000Y-93100000D03*
X81600000Y-103900000D03*
X64600000Y-94900000D03*
X119700000Y-91500000D03*
X66600000Y-66700000D03*
X91175000Y-77100000D03*
X85775000Y-87500000D03*
X77400000Y-107300000D03*
X101400000Y-110200000D03*
%TO.N,-5V*%
X116800000Y-94500000D03*
X110027860Y-87727860D03*
%TO.N,-12V*%
X94800000Y-111100000D03*
%TO.N,-5V*%
X87800000Y-105500000D03*
%TO.N,-12V*%
X81625000Y-85550000D03*
%TO.N,+5V*%
X71200000Y-111900000D03*
%TO.N,-5V*%
X77200000Y-66700000D03*
X93600000Y-101300000D03*
%TO.N,+12V*%
X101400000Y-106300000D03*
X82800000Y-61300000D03*
%TO.N,Net-(JP3-Pad1)*%
X80400000Y-107900000D03*
%TO.N,+2V5*%
X120400000Y-89500000D03*
X118000000Y-80700000D03*
X86800000Y-70600000D03*
X118000000Y-64500000D03*
%TD*%
D17*
%TO.N,+2V5*%
X136500000Y-126600000D02*
X136500000Y-130900000D01*
X124000000Y-114100000D02*
X136500000Y-126600000D01*
X124000000Y-93100000D02*
X124000000Y-114100000D01*
X120400000Y-89500000D02*
X124000000Y-93100000D01*
%TO.N,+5V*%
X88800000Y-77000000D02*
X93800000Y-72000000D01*
X93800000Y-72000000D02*
X93800000Y-59100000D01*
%TO.N,+12V*%
X84700000Y-84225000D02*
X84700000Y-63200000D01*
X97175000Y-96700000D02*
X84700000Y-84225000D01*
X84700000Y-63200000D02*
X82800000Y-61300000D01*
%TO.N,-12V*%
X94800000Y-98725000D02*
X94800000Y-111100000D01*
X81625000Y-85550000D02*
X94800000Y-98725000D01*
%TO.N,+12V*%
X101400000Y-100900000D02*
X97200000Y-96700000D01*
X101400000Y-106300000D02*
X101400000Y-100900000D01*
%TO.N,-12V*%
X81000000Y-84925000D02*
X81625000Y-85550000D01*
X72080000Y-57780000D02*
X81000000Y-66700000D01*
X62800000Y-57780000D02*
X72080000Y-57780000D01*
X81000000Y-66700000D02*
X81000000Y-84925000D01*
%TO.N,+12V*%
X129200000Y-134100000D02*
X101400000Y-106300000D01*
X137200000Y-134100000D02*
X129200000Y-134100000D01*
X143200000Y-128100000D02*
X137200000Y-134100000D01*
X143200000Y-115900000D02*
X143200000Y-128100000D01*
X136500000Y-110800000D02*
X138100000Y-110800000D01*
X138100000Y-110800000D02*
X143200000Y-115900000D01*
%TO.N,-5V*%
X116800000Y-94500000D02*
X110027860Y-87727860D01*
X87800000Y-105500000D02*
X92000000Y-101300000D01*
X92000000Y-101300000D02*
X93600000Y-101300000D01*
%TO.N,+5V*%
X64300000Y-110700000D02*
X62800000Y-112200000D01*
X70000000Y-110700000D02*
X64300000Y-110700000D01*
X71200000Y-111900000D02*
X70000000Y-110700000D01*
X60200000Y-109600000D02*
X60200000Y-94700000D01*
X62800000Y-112200000D02*
X60200000Y-109600000D01*
X60200000Y-68720000D02*
X62800000Y-66120000D01*
X65340000Y-100200000D02*
X65340000Y-100140000D01*
X65340000Y-100140000D02*
X60200000Y-95000000D01*
X60200000Y-95000000D02*
X60200000Y-68720000D01*
X60200000Y-114800000D02*
X62800000Y-112200000D01*
X60200000Y-117600000D02*
X60200000Y-114800000D01*
X62800000Y-120200000D02*
X60200000Y-117600000D01*
X62800000Y-125200000D02*
X62800000Y-120200000D01*
%TO.N,-5V*%
X77200000Y-66700000D02*
X77200000Y-94900000D01*
X77200000Y-94900000D02*
X87800000Y-105500000D01*
D18*
%TO.N,Net-(JP3-Pad1)*%
X64900000Y-102300000D02*
X62800000Y-100200000D01*
X74800000Y-102300000D02*
X64900000Y-102300000D01*
X80400000Y-107900000D02*
X74800000Y-102300000D01*
D17*
%TO.N,+2V5*%
X118000000Y-87100000D02*
X120400000Y-89500000D01*
X118000000Y-80700000D02*
X118000000Y-87100000D01*
X118000000Y-64500000D02*
X118000000Y-80700000D01*
X86775000Y-80500000D02*
X86775000Y-70500000D01*
%TD*%
%TA.AperFunction,Conductor*%
%TO.N,GND*%
G36*
X147133621Y-50528502D02*
G01*
X147180114Y-50582158D01*
X147191500Y-50634500D01*
X147191500Y-139365500D01*
X147171498Y-139433621D01*
X147117842Y-139480114D01*
X147065500Y-139491500D01*
X50634500Y-139491500D01*
X50566379Y-139471498D01*
X50519886Y-139417842D01*
X50508500Y-139365500D01*
X50508500Y-135098134D01*
X61441500Y-135098134D01*
X61448255Y-135160316D01*
X61499385Y-135296705D01*
X61586739Y-135413261D01*
X61703295Y-135500615D01*
X61839684Y-135551745D01*
X61901866Y-135558500D01*
X63698134Y-135558500D01*
X63760316Y-135551745D01*
X63896705Y-135500615D01*
X64013261Y-135413261D01*
X64100615Y-135296705D01*
X64151745Y-135160316D01*
X64158500Y-135098134D01*
X64158500Y-133301866D01*
X64151745Y-133239684D01*
X64100615Y-133103295D01*
X64013261Y-132986739D01*
X63896705Y-132899385D01*
X63760316Y-132848255D01*
X63698134Y-132841500D01*
X61901866Y-132841500D01*
X61839684Y-132848255D01*
X61703295Y-132899385D01*
X61586739Y-132986739D01*
X61499385Y-133103295D01*
X61448255Y-133239684D01*
X61441500Y-133301866D01*
X61441500Y-135098134D01*
X50508500Y-135098134D01*
X50508500Y-131098134D01*
X61441500Y-131098134D01*
X61448255Y-131160316D01*
X61499385Y-131296705D01*
X61586739Y-131413261D01*
X61703295Y-131500615D01*
X61839684Y-131551745D01*
X61901866Y-131558500D01*
X63698134Y-131558500D01*
X63760316Y-131551745D01*
X63896705Y-131500615D01*
X64013261Y-131413261D01*
X64100615Y-131296705D01*
X64151745Y-131160316D01*
X64158500Y-131098134D01*
X64158500Y-129301866D01*
X64151745Y-129239684D01*
X64100615Y-129103295D01*
X64013261Y-128986739D01*
X63896705Y-128899385D01*
X63760316Y-128848255D01*
X63698134Y-128841500D01*
X61901866Y-128841500D01*
X61839684Y-128848255D01*
X61703295Y-128899385D01*
X61586739Y-128986739D01*
X61499385Y-129103295D01*
X61448255Y-129239684D01*
X61441500Y-129301866D01*
X61441500Y-131098134D01*
X50508500Y-131098134D01*
X50508500Y-117573349D01*
X59436801Y-117573349D01*
X59437394Y-117580641D01*
X59437394Y-117580644D01*
X59441085Y-117626018D01*
X59441500Y-117636233D01*
X59441500Y-117644293D01*
X59441925Y-117647937D01*
X59444789Y-117672507D01*
X59445222Y-117676882D01*
X59451140Y-117749637D01*
X59453396Y-117756601D01*
X59454587Y-117762560D01*
X59455971Y-117768415D01*
X59456818Y-117775681D01*
X59481735Y-117844327D01*
X59483152Y-117848455D01*
X59505649Y-117917899D01*
X59509445Y-117924154D01*
X59511951Y-117929628D01*
X59514670Y-117935058D01*
X59517167Y-117941937D01*
X59521180Y-117948057D01*
X59521180Y-117948058D01*
X59557186Y-118002976D01*
X59559523Y-118006680D01*
X59597405Y-118069107D01*
X59601121Y-118073315D01*
X59601122Y-118073316D01*
X59604803Y-118077484D01*
X59604776Y-118077508D01*
X59607429Y-118080500D01*
X59610132Y-118083733D01*
X59614144Y-118089852D01*
X59619456Y-118094884D01*
X59670383Y-118143128D01*
X59672825Y-118145506D01*
X61419449Y-119892130D01*
X61453475Y-119954442D01*
X61455641Y-119994613D01*
X61437251Y-120166695D01*
X61450110Y-120389715D01*
X61451247Y-120394761D01*
X61451248Y-120394767D01*
X61475304Y-120501508D01*
X61499222Y-120607639D01*
X61583266Y-120814616D01*
X61699987Y-121005088D01*
X61846250Y-121173938D01*
X61994124Y-121296705D01*
X61995985Y-121298250D01*
X62035620Y-121357152D01*
X62041500Y-121395194D01*
X62041500Y-124007655D01*
X62021498Y-124075776D01*
X61991153Y-124108415D01*
X61986774Y-124111703D01*
X61894965Y-124180635D01*
X61891393Y-124184373D01*
X61801280Y-124278671D01*
X61740629Y-124342138D01*
X61614743Y-124526680D01*
X61612564Y-124531375D01*
X61525557Y-124718816D01*
X61520688Y-124729305D01*
X61460989Y-124944570D01*
X61437251Y-125166695D01*
X61450110Y-125389715D01*
X61451247Y-125394761D01*
X61451248Y-125394767D01*
X61468873Y-125472972D01*
X61499222Y-125607639D01*
X61583266Y-125814616D01*
X61699987Y-126005088D01*
X61846250Y-126173938D01*
X62018126Y-126316632D01*
X62211000Y-126429338D01*
X62419692Y-126509030D01*
X62424760Y-126510061D01*
X62424763Y-126510062D01*
X62532017Y-126531883D01*
X62638597Y-126553567D01*
X62643772Y-126553757D01*
X62643774Y-126553757D01*
X62856673Y-126561564D01*
X62856677Y-126561564D01*
X62861837Y-126561753D01*
X62866957Y-126561097D01*
X62866959Y-126561097D01*
X63078288Y-126534025D01*
X63078289Y-126534025D01*
X63083416Y-126533368D01*
X63102985Y-126527497D01*
X63292429Y-126470661D01*
X63292434Y-126470659D01*
X63297384Y-126469174D01*
X63497994Y-126370896D01*
X63679860Y-126241173D01*
X63788091Y-126133319D01*
X63850462Y-126099404D01*
X63921268Y-126104592D01*
X63978030Y-126147238D01*
X63995012Y-126178341D01*
X64039385Y-126296705D01*
X64126739Y-126413261D01*
X64243295Y-126500615D01*
X64379684Y-126551745D01*
X64441866Y-126558500D01*
X66238134Y-126558500D01*
X66300316Y-126551745D01*
X66436705Y-126500615D01*
X66553261Y-126413261D01*
X66640615Y-126296705D01*
X66691745Y-126160316D01*
X66698500Y-126098134D01*
X66698500Y-124301866D01*
X66691745Y-124239684D01*
X66640615Y-124103295D01*
X66553261Y-123986739D01*
X66436705Y-123899385D01*
X66300316Y-123848255D01*
X66238134Y-123841500D01*
X64441866Y-123841500D01*
X64379684Y-123848255D01*
X64243295Y-123899385D01*
X64126739Y-123986739D01*
X64039385Y-124103295D01*
X64036233Y-124111703D01*
X63994919Y-124221907D01*
X63952277Y-124278671D01*
X63885716Y-124303371D01*
X63816367Y-124288163D01*
X63783743Y-124262476D01*
X63733148Y-124206873D01*
X63733146Y-124206871D01*
X63729670Y-124203051D01*
X63606407Y-124105703D01*
X63565345Y-124047785D01*
X63558500Y-124006821D01*
X63558500Y-121392632D01*
X63578502Y-121324511D01*
X63611331Y-121290054D01*
X63679860Y-121241173D01*
X63788091Y-121133319D01*
X63850462Y-121099404D01*
X63921268Y-121104592D01*
X63978030Y-121147238D01*
X63995012Y-121178341D01*
X64039385Y-121296705D01*
X64126739Y-121413261D01*
X64243295Y-121500615D01*
X64379684Y-121551745D01*
X64441866Y-121558500D01*
X66238134Y-121558500D01*
X66300316Y-121551745D01*
X66436705Y-121500615D01*
X66553261Y-121413261D01*
X66640615Y-121296705D01*
X66691745Y-121160316D01*
X66698500Y-121098134D01*
X66698500Y-119301866D01*
X66691745Y-119239684D01*
X66640615Y-119103295D01*
X66553261Y-118986739D01*
X66436705Y-118899385D01*
X66300316Y-118848255D01*
X66238134Y-118841500D01*
X64441866Y-118841500D01*
X64379684Y-118848255D01*
X64243295Y-118899385D01*
X64126739Y-118986739D01*
X64039385Y-119103295D01*
X64036233Y-119111703D01*
X63994919Y-119221907D01*
X63952277Y-119278671D01*
X63885716Y-119303371D01*
X63816367Y-119288163D01*
X63783743Y-119262476D01*
X63733151Y-119206875D01*
X63733142Y-119206866D01*
X63729670Y-119203051D01*
X63725619Y-119199852D01*
X63725615Y-119199848D01*
X63558414Y-119067800D01*
X63558410Y-119067798D01*
X63554359Y-119064598D01*
X63358789Y-118956638D01*
X63353920Y-118954914D01*
X63353916Y-118954912D01*
X63153087Y-118883795D01*
X63153083Y-118883794D01*
X63148212Y-118882069D01*
X63143119Y-118881162D01*
X63143116Y-118881161D01*
X62933373Y-118843800D01*
X62933367Y-118843799D01*
X62928284Y-118842894D01*
X62857770Y-118842033D01*
X62710082Y-118840228D01*
X62710080Y-118840228D01*
X62704911Y-118840165D01*
X62681156Y-118843800D01*
X62601385Y-118856006D01*
X62531023Y-118846538D01*
X62493232Y-118820551D01*
X60995405Y-117322724D01*
X60961379Y-117260412D01*
X60958500Y-117233629D01*
X60958500Y-117098134D01*
X61441500Y-117098134D01*
X61448255Y-117160316D01*
X61499385Y-117296705D01*
X61586739Y-117413261D01*
X61703295Y-117500615D01*
X61839684Y-117551745D01*
X61901866Y-117558500D01*
X63698134Y-117558500D01*
X63760316Y-117551745D01*
X63896705Y-117500615D01*
X64013261Y-117413261D01*
X64100615Y-117296705D01*
X64141367Y-117188000D01*
X64144598Y-117179382D01*
X64187240Y-117122618D01*
X64253802Y-117097918D01*
X64323150Y-117113126D01*
X64357817Y-117141114D01*
X64386250Y-117173938D01*
X64558126Y-117316632D01*
X64751000Y-117429338D01*
X64959692Y-117509030D01*
X64964760Y-117510061D01*
X64964763Y-117510062D01*
X65072017Y-117531883D01*
X65178597Y-117553567D01*
X65183772Y-117553757D01*
X65183774Y-117553757D01*
X65396673Y-117561564D01*
X65396677Y-117561564D01*
X65401837Y-117561753D01*
X65406957Y-117561097D01*
X65406959Y-117561097D01*
X65618288Y-117534025D01*
X65618289Y-117534025D01*
X65623416Y-117533368D01*
X65628366Y-117531883D01*
X65832429Y-117470661D01*
X65832434Y-117470659D01*
X65837384Y-117469174D01*
X66037994Y-117370896D01*
X66219860Y-117241173D01*
X66227431Y-117233629D01*
X66320268Y-117141115D01*
X66378096Y-117083489D01*
X66403393Y-117048285D01*
X66505435Y-116906277D01*
X66508453Y-116902077D01*
X66560086Y-116797606D01*
X66605136Y-116706453D01*
X66605137Y-116706451D01*
X66607430Y-116701811D01*
X66672370Y-116488069D01*
X66701529Y-116266590D01*
X66703156Y-116200000D01*
X66684852Y-115977361D01*
X66630431Y-115760702D01*
X66541354Y-115555840D01*
X66467673Y-115441946D01*
X66422822Y-115372617D01*
X66422820Y-115372614D01*
X66420014Y-115368277D01*
X66269670Y-115203051D01*
X66265619Y-115199852D01*
X66265615Y-115199848D01*
X66098414Y-115067800D01*
X66098410Y-115067798D01*
X66094359Y-115064598D01*
X65898789Y-114956638D01*
X65893920Y-114954914D01*
X65893916Y-114954912D01*
X65693087Y-114883795D01*
X65693083Y-114883794D01*
X65688212Y-114882069D01*
X65683119Y-114881162D01*
X65683116Y-114881161D01*
X65473373Y-114843800D01*
X65473367Y-114843799D01*
X65468284Y-114842894D01*
X65394452Y-114841992D01*
X65250081Y-114840228D01*
X65250079Y-114840228D01*
X65244911Y-114840165D01*
X65024091Y-114873955D01*
X64811756Y-114943357D01*
X64613607Y-115046507D01*
X64609474Y-115049610D01*
X64609471Y-115049612D01*
X64439100Y-115177530D01*
X64434965Y-115180635D01*
X64378537Y-115239684D01*
X64354283Y-115265064D01*
X64292759Y-115300494D01*
X64221846Y-115297037D01*
X64164060Y-115255791D01*
X64145207Y-115222243D01*
X64103767Y-115111703D01*
X64100615Y-115103295D01*
X64013261Y-114986739D01*
X63896705Y-114899385D01*
X63760316Y-114848255D01*
X63698134Y-114841500D01*
X61901866Y-114841500D01*
X61839684Y-114848255D01*
X61703295Y-114899385D01*
X61586739Y-114986739D01*
X61499385Y-115103295D01*
X61448255Y-115239684D01*
X61441500Y-115301866D01*
X61441500Y-117098134D01*
X60958500Y-117098134D01*
X60958500Y-115166371D01*
X60978502Y-115098250D01*
X60995405Y-115077276D01*
X62491441Y-113581240D01*
X62553753Y-113547214D01*
X62605657Y-113546865D01*
X62638597Y-113553567D01*
X62643772Y-113553757D01*
X62643774Y-113553757D01*
X62856673Y-113561564D01*
X62856677Y-113561564D01*
X62861837Y-113561753D01*
X62866957Y-113561097D01*
X62866959Y-113561097D01*
X63078288Y-113534025D01*
X63078289Y-113534025D01*
X63083416Y-113533368D01*
X63088366Y-113531883D01*
X63292429Y-113470661D01*
X63292434Y-113470659D01*
X63297384Y-113469174D01*
X63497994Y-113370896D01*
X63679860Y-113241173D01*
X63788091Y-113133319D01*
X63850462Y-113099404D01*
X63921268Y-113104592D01*
X63978030Y-113147238D01*
X63995012Y-113178341D01*
X64039385Y-113296705D01*
X64126739Y-113413261D01*
X64243295Y-113500615D01*
X64379684Y-113551745D01*
X64441866Y-113558500D01*
X66238134Y-113558500D01*
X66300316Y-113551745D01*
X66436705Y-113500615D01*
X66553261Y-113413261D01*
X66640615Y-113296705D01*
X66691745Y-113160316D01*
X66698500Y-113098134D01*
X66698500Y-111584500D01*
X66718502Y-111516379D01*
X66772158Y-111469886D01*
X66824500Y-111458500D01*
X69633629Y-111458500D01*
X69701750Y-111478502D01*
X69722724Y-111495405D01*
X70279875Y-112052556D01*
X70310613Y-112102714D01*
X70365473Y-112271556D01*
X70460960Y-112436944D01*
X70588747Y-112578866D01*
X70743248Y-112691118D01*
X70749276Y-112693802D01*
X70749278Y-112693803D01*
X70911681Y-112766109D01*
X70917712Y-112768794D01*
X71011112Y-112788647D01*
X71098056Y-112807128D01*
X71098061Y-112807128D01*
X71104513Y-112808500D01*
X71295487Y-112808500D01*
X71301939Y-112807128D01*
X71301944Y-112807128D01*
X71388888Y-112788647D01*
X71482288Y-112768794D01*
X71488319Y-112766109D01*
X71650722Y-112693803D01*
X71650724Y-112693802D01*
X71656752Y-112691118D01*
X71811253Y-112578866D01*
X71939040Y-112436944D01*
X72034527Y-112271556D01*
X72093542Y-112089928D01*
X72113504Y-111900000D01*
X72101181Y-111782749D01*
X72094232Y-111716635D01*
X72094232Y-111716633D01*
X72093542Y-111710072D01*
X72034527Y-111528444D01*
X71939040Y-111363056D01*
X71811253Y-111221134D01*
X71665608Y-111115316D01*
X71662094Y-111112763D01*
X71662093Y-111112762D01*
X71656752Y-111108882D01*
X71650724Y-111106198D01*
X71650722Y-111106197D01*
X71488319Y-111033891D01*
X71488318Y-111033891D01*
X71482288Y-111031206D01*
X71475833Y-111029834D01*
X71475824Y-111029831D01*
X71419228Y-111017801D01*
X71356331Y-110983650D01*
X70583770Y-110211089D01*
X70571384Y-110196677D01*
X70562851Y-110185082D01*
X70562846Y-110185077D01*
X70558508Y-110179182D01*
X70552930Y-110174443D01*
X70552927Y-110174440D01*
X70518232Y-110144965D01*
X70510716Y-110138035D01*
X70505021Y-110132340D01*
X70498880Y-110127482D01*
X70482749Y-110114719D01*
X70479345Y-110111928D01*
X70429297Y-110069409D01*
X70429295Y-110069408D01*
X70423715Y-110064667D01*
X70417199Y-110061339D01*
X70412150Y-110057972D01*
X70407021Y-110054805D01*
X70401284Y-110050266D01*
X70335125Y-110019345D01*
X70331225Y-110017439D01*
X70266192Y-109984231D01*
X70259084Y-109982492D01*
X70253441Y-109980393D01*
X70247678Y-109978476D01*
X70241050Y-109975378D01*
X70169583Y-109960513D01*
X70165299Y-109959543D01*
X70094390Y-109942192D01*
X70088788Y-109941844D01*
X70088785Y-109941844D01*
X70083236Y-109941500D01*
X70083238Y-109941464D01*
X70079245Y-109941225D01*
X70075053Y-109940851D01*
X70067885Y-109939360D01*
X70004120Y-109941085D01*
X69990479Y-109941454D01*
X69987072Y-109941500D01*
X66192440Y-109941500D01*
X66124319Y-109921498D01*
X66077826Y-109867842D01*
X66067722Y-109797568D01*
X66097216Y-109732988D01*
X66119272Y-109712921D01*
X66219860Y-109641173D01*
X66224818Y-109636233D01*
X66328482Y-109532930D01*
X66378096Y-109483489D01*
X66414625Y-109432654D01*
X66505435Y-109306277D01*
X66508453Y-109302077D01*
X66607430Y-109101811D01*
X66672370Y-108888069D01*
X66701529Y-108666590D01*
X66703156Y-108600000D01*
X66684852Y-108377361D01*
X66630431Y-108160702D01*
X66541354Y-107955840D01*
X66420014Y-107768277D01*
X66269670Y-107603051D01*
X66265619Y-107599852D01*
X66265615Y-107599848D01*
X66098414Y-107467800D01*
X66098410Y-107467798D01*
X66094359Y-107464598D01*
X65898789Y-107356638D01*
X65893920Y-107354914D01*
X65893916Y-107354912D01*
X65693087Y-107283795D01*
X65693083Y-107283794D01*
X65688212Y-107282069D01*
X65683119Y-107281162D01*
X65683116Y-107281161D01*
X65473373Y-107243800D01*
X65473367Y-107243799D01*
X65468284Y-107242894D01*
X65394452Y-107241992D01*
X65250081Y-107240228D01*
X65250079Y-107240228D01*
X65244911Y-107240165D01*
X65024091Y-107273955D01*
X64811756Y-107343357D01*
X64613607Y-107446507D01*
X64609474Y-107449610D01*
X64609471Y-107449612D01*
X64496106Y-107534729D01*
X64434965Y-107580635D01*
X64378537Y-107639684D01*
X64354283Y-107665064D01*
X64292759Y-107700494D01*
X64221846Y-107697037D01*
X64164060Y-107655791D01*
X64145207Y-107622243D01*
X64103767Y-107511703D01*
X64100615Y-107503295D01*
X64013261Y-107386739D01*
X63896705Y-107299385D01*
X63760316Y-107248255D01*
X63698134Y-107241500D01*
X61901866Y-107241500D01*
X61839684Y-107248255D01*
X61703295Y-107299385D01*
X61586739Y-107386739D01*
X61499385Y-107503295D01*
X61448255Y-107639684D01*
X61441500Y-107701866D01*
X61441500Y-109464629D01*
X61421498Y-109532750D01*
X61367842Y-109579243D01*
X61297568Y-109589347D01*
X61232988Y-109559853D01*
X61226405Y-109553724D01*
X60995405Y-109322724D01*
X60961379Y-109260412D01*
X60958500Y-109233629D01*
X60958500Y-97135371D01*
X60978502Y-97067250D01*
X61032158Y-97020757D01*
X61102432Y-97010653D01*
X61167012Y-97040147D01*
X61173595Y-97046276D01*
X62753724Y-98626405D01*
X62787750Y-98688717D01*
X62782685Y-98759532D01*
X62740138Y-98816368D01*
X62673618Y-98841179D01*
X62664629Y-98841500D01*
X61901866Y-98841500D01*
X61839684Y-98848255D01*
X61703295Y-98899385D01*
X61586739Y-98986739D01*
X61499385Y-99103295D01*
X61448255Y-99239684D01*
X61441500Y-99301866D01*
X61441500Y-101098134D01*
X61448255Y-101160316D01*
X61499385Y-101296705D01*
X61586739Y-101413261D01*
X61703295Y-101500615D01*
X61839684Y-101551745D01*
X61901866Y-101558500D01*
X63210406Y-101558500D01*
X63278527Y-101578502D01*
X63299501Y-101595405D01*
X64396343Y-102692247D01*
X64403887Y-102700537D01*
X64408000Y-102707018D01*
X64413777Y-102712443D01*
X64457667Y-102753658D01*
X64460509Y-102756413D01*
X64480230Y-102776134D01*
X64483425Y-102778612D01*
X64492447Y-102786318D01*
X64524679Y-102816586D01*
X64531628Y-102820406D01*
X64542432Y-102826346D01*
X64558956Y-102837199D01*
X64574959Y-102849613D01*
X64581922Y-102852626D01*
X64630271Y-102904407D01*
X64642977Y-102974258D01*
X64615902Y-103039889D01*
X64593333Y-103061729D01*
X64464605Y-103158381D01*
X64434965Y-103180635D01*
X64378537Y-103239684D01*
X64354283Y-103265064D01*
X64292759Y-103300494D01*
X64221846Y-103297037D01*
X64164060Y-103255791D01*
X64145207Y-103222243D01*
X64103767Y-103111703D01*
X64100615Y-103103295D01*
X64013261Y-102986739D01*
X63896705Y-102899385D01*
X63760316Y-102848255D01*
X63698134Y-102841500D01*
X61901866Y-102841500D01*
X61839684Y-102848255D01*
X61703295Y-102899385D01*
X61586739Y-102986739D01*
X61499385Y-103103295D01*
X61448255Y-103239684D01*
X61441500Y-103301866D01*
X61441500Y-105098134D01*
X61448255Y-105160316D01*
X61499385Y-105296705D01*
X61586739Y-105413261D01*
X61703295Y-105500615D01*
X61839684Y-105551745D01*
X61901866Y-105558500D01*
X63698134Y-105558500D01*
X63760316Y-105551745D01*
X63896705Y-105500615D01*
X64013261Y-105413261D01*
X64100615Y-105296705D01*
X64122799Y-105237529D01*
X64144598Y-105179382D01*
X64187240Y-105122618D01*
X64253802Y-105097918D01*
X64323150Y-105113126D01*
X64357817Y-105141114D01*
X64386250Y-105173938D01*
X64558126Y-105316632D01*
X64751000Y-105429338D01*
X64959692Y-105509030D01*
X64964760Y-105510061D01*
X64964763Y-105510062D01*
X65029816Y-105523297D01*
X65178597Y-105553567D01*
X65183772Y-105553757D01*
X65183774Y-105553757D01*
X65396673Y-105561564D01*
X65396677Y-105561564D01*
X65401837Y-105561753D01*
X65406957Y-105561097D01*
X65406959Y-105561097D01*
X65618288Y-105534025D01*
X65618289Y-105534025D01*
X65623416Y-105533368D01*
X65628366Y-105531883D01*
X65832429Y-105470661D01*
X65832434Y-105470659D01*
X65837384Y-105469174D01*
X66037994Y-105370896D01*
X66219860Y-105241173D01*
X66378096Y-105083489D01*
X66427874Y-105014216D01*
X66505435Y-104906277D01*
X66508453Y-104902077D01*
X66607430Y-104701811D01*
X66672370Y-104488069D01*
X66701529Y-104266590D01*
X66703156Y-104200000D01*
X66684852Y-103977361D01*
X66630431Y-103760702D01*
X66541354Y-103555840D01*
X66420014Y-103368277D01*
X66269670Y-103203051D01*
X66237355Y-103177530D01*
X66213109Y-103158381D01*
X66172047Y-103100464D01*
X66168815Y-103029541D01*
X66204441Y-102968130D01*
X66267612Y-102935728D01*
X66291202Y-102933500D01*
X74485406Y-102933500D01*
X74553527Y-102953502D01*
X74574501Y-102970405D01*
X79452878Y-107848783D01*
X79486904Y-107911095D01*
X79489093Y-107924706D01*
X79506458Y-108089928D01*
X79565473Y-108271556D01*
X79660960Y-108436944D01*
X79788747Y-108578866D01*
X79943248Y-108691118D01*
X79949276Y-108693802D01*
X79949278Y-108693803D01*
X80111681Y-108766109D01*
X80117712Y-108768794D01*
X80211113Y-108788647D01*
X80298056Y-108807128D01*
X80298061Y-108807128D01*
X80304513Y-108808500D01*
X80495487Y-108808500D01*
X80501939Y-108807128D01*
X80501944Y-108807128D01*
X80588888Y-108788647D01*
X80682288Y-108768794D01*
X80688319Y-108766109D01*
X80850722Y-108693803D01*
X80850724Y-108693802D01*
X80856752Y-108691118D01*
X81011253Y-108578866D01*
X81139040Y-108436944D01*
X81234527Y-108271556D01*
X81293542Y-108089928D01*
X81313504Y-107900000D01*
X81293542Y-107710072D01*
X81234527Y-107528444D01*
X81139040Y-107363056D01*
X81110957Y-107331866D01*
X81015675Y-107226045D01*
X81015674Y-107226044D01*
X81011253Y-107221134D01*
X80901926Y-107141703D01*
X80862094Y-107112763D01*
X80862093Y-107112762D01*
X80856752Y-107108882D01*
X80850724Y-107106198D01*
X80850722Y-107106197D01*
X80688319Y-107033891D01*
X80688318Y-107033891D01*
X80682288Y-107031206D01*
X80588887Y-107011353D01*
X80501944Y-106992872D01*
X80501939Y-106992872D01*
X80495487Y-106991500D01*
X80439594Y-106991500D01*
X80371473Y-106971498D01*
X80350499Y-106954595D01*
X75303652Y-101907747D01*
X75296112Y-101899461D01*
X75292000Y-101892982D01*
X75242348Y-101846356D01*
X75239507Y-101843602D01*
X75219770Y-101823865D01*
X75216573Y-101821385D01*
X75207551Y-101813680D01*
X75181100Y-101788841D01*
X75175321Y-101783414D01*
X75168375Y-101779595D01*
X75168372Y-101779593D01*
X75157566Y-101773652D01*
X75141047Y-101762801D01*
X75140583Y-101762441D01*
X75125041Y-101750386D01*
X75117772Y-101747241D01*
X75117768Y-101747238D01*
X75084463Y-101732826D01*
X75073813Y-101727609D01*
X75035060Y-101706305D01*
X75015437Y-101701267D01*
X74996734Y-101694863D01*
X74985420Y-101689967D01*
X74985419Y-101689967D01*
X74978145Y-101686819D01*
X74970322Y-101685580D01*
X74970312Y-101685577D01*
X74934476Y-101679901D01*
X74922856Y-101677495D01*
X74887711Y-101668472D01*
X74887710Y-101668472D01*
X74880030Y-101666500D01*
X74859776Y-101666500D01*
X74840065Y-101664949D01*
X74827886Y-101663020D01*
X74820057Y-101661780D01*
X74812165Y-101662526D01*
X74776039Y-101665941D01*
X74764181Y-101666500D01*
X65978191Y-101666500D01*
X65910070Y-101646498D01*
X65863577Y-101592842D01*
X65853473Y-101522568D01*
X65882967Y-101457988D01*
X65922759Y-101427349D01*
X65961080Y-101408576D01*
X66037994Y-101370896D01*
X66219860Y-101241173D01*
X66246947Y-101214181D01*
X66363400Y-101098134D01*
X66378096Y-101083489D01*
X66394748Y-101060316D01*
X66505435Y-100906277D01*
X66508453Y-100902077D01*
X66522339Y-100873982D01*
X66605136Y-100706453D01*
X66605137Y-100706451D01*
X66607430Y-100701811D01*
X66643915Y-100581725D01*
X66670865Y-100493023D01*
X66670865Y-100493021D01*
X66672370Y-100488069D01*
X66701529Y-100266590D01*
X66703156Y-100200000D01*
X66684852Y-99977361D01*
X66630431Y-99760702D01*
X66541354Y-99555840D01*
X66420014Y-99368277D01*
X66269670Y-99203051D01*
X66265619Y-99199852D01*
X66265615Y-99199848D01*
X66098414Y-99067800D01*
X66098410Y-99067798D01*
X66094359Y-99064598D01*
X65898789Y-98956638D01*
X65893920Y-98954914D01*
X65893916Y-98954912D01*
X65693087Y-98883795D01*
X65693083Y-98883794D01*
X65688212Y-98882069D01*
X65683119Y-98881162D01*
X65683116Y-98881161D01*
X65473373Y-98843800D01*
X65473367Y-98843799D01*
X65468284Y-98842894D01*
X65394452Y-98841992D01*
X65250081Y-98840228D01*
X65250079Y-98840228D01*
X65244911Y-98840165D01*
X65239802Y-98840947D01*
X65239799Y-98840947D01*
X65227077Y-98842894D01*
X65193423Y-98848044D01*
X65123062Y-98838577D01*
X65085270Y-98812589D01*
X60995405Y-94722724D01*
X60961379Y-94660412D01*
X60958500Y-94633629D01*
X60958500Y-90866695D01*
X61437251Y-90866695D01*
X61437548Y-90871848D01*
X61437548Y-90871851D01*
X61443011Y-90966590D01*
X61450110Y-91089715D01*
X61451247Y-91094761D01*
X61451248Y-91094767D01*
X61471119Y-91182939D01*
X61499222Y-91307639D01*
X61583266Y-91514616D01*
X61699987Y-91705088D01*
X61846250Y-91873938D01*
X62018126Y-92016632D01*
X62211000Y-92129338D01*
X62419692Y-92209030D01*
X62424760Y-92210061D01*
X62424763Y-92210062D01*
X62532017Y-92231883D01*
X62638597Y-92253567D01*
X62643772Y-92253757D01*
X62643774Y-92253757D01*
X62856673Y-92261564D01*
X62856677Y-92261564D01*
X62861837Y-92261753D01*
X62866957Y-92261097D01*
X62866959Y-92261097D01*
X63078288Y-92234025D01*
X63078289Y-92234025D01*
X63083416Y-92233368D01*
X63088366Y-92231883D01*
X63292429Y-92170661D01*
X63292434Y-92170659D01*
X63297384Y-92169174D01*
X63497994Y-92070896D01*
X63679860Y-91941173D01*
X63838096Y-91783489D01*
X63897594Y-91700689D01*
X63965435Y-91606277D01*
X63968453Y-91602077D01*
X64067430Y-91401811D01*
X64132370Y-91188069D01*
X64161529Y-90966590D01*
X64163156Y-90900000D01*
X64144852Y-90677361D01*
X64090431Y-90460702D01*
X64001354Y-90255840D01*
X63880014Y-90068277D01*
X63729670Y-89903051D01*
X63725619Y-89899852D01*
X63725615Y-89899848D01*
X63558414Y-89767800D01*
X63558410Y-89767798D01*
X63554359Y-89764598D01*
X63513053Y-89741796D01*
X63463084Y-89691364D01*
X63448312Y-89621921D01*
X63473428Y-89555516D01*
X63500780Y-89528909D01*
X63544603Y-89497650D01*
X63679860Y-89401173D01*
X63838096Y-89243489D01*
X63897594Y-89160689D01*
X63965435Y-89066277D01*
X63968453Y-89062077D01*
X64067430Y-88861811D01*
X64132370Y-88648069D01*
X64161529Y-88426590D01*
X64161855Y-88413261D01*
X64163074Y-88363365D01*
X64163074Y-88363361D01*
X64163156Y-88360000D01*
X64144852Y-88137361D01*
X64090431Y-87920702D01*
X64001354Y-87715840D01*
X63955059Y-87644279D01*
X63882822Y-87532617D01*
X63882820Y-87532614D01*
X63880014Y-87528277D01*
X63729670Y-87363051D01*
X63725619Y-87359852D01*
X63725615Y-87359848D01*
X63558414Y-87227800D01*
X63558410Y-87227798D01*
X63554359Y-87224598D01*
X63513053Y-87201796D01*
X63463084Y-87151364D01*
X63448312Y-87081921D01*
X63473428Y-87015516D01*
X63500780Y-86988909D01*
X63544603Y-86957650D01*
X63679860Y-86861173D01*
X63838096Y-86703489D01*
X63897594Y-86620689D01*
X63965435Y-86526277D01*
X63968453Y-86522077D01*
X64019499Y-86418794D01*
X64065136Y-86326453D01*
X64065137Y-86326451D01*
X64067430Y-86321811D01*
X64127756Y-86123255D01*
X64130865Y-86113023D01*
X64130865Y-86113021D01*
X64132370Y-86108069D01*
X64161529Y-85886590D01*
X64162466Y-85848255D01*
X64163074Y-85823365D01*
X64163074Y-85823361D01*
X64163156Y-85820000D01*
X64144852Y-85597361D01*
X64090431Y-85380702D01*
X64001354Y-85175840D01*
X63931162Y-85067339D01*
X63882822Y-84992617D01*
X63882820Y-84992614D01*
X63880014Y-84988277D01*
X63729670Y-84823051D01*
X63725619Y-84819852D01*
X63725615Y-84819848D01*
X63558414Y-84687800D01*
X63558410Y-84687798D01*
X63554359Y-84684598D01*
X63513053Y-84661796D01*
X63463084Y-84611364D01*
X63448312Y-84541921D01*
X63473428Y-84475516D01*
X63500780Y-84448909D01*
X63568393Y-84400681D01*
X63679860Y-84321173D01*
X63714663Y-84286492D01*
X63834435Y-84167137D01*
X63838096Y-84163489D01*
X63881363Y-84103277D01*
X63965435Y-83986277D01*
X63968453Y-83982077D01*
X63988325Y-83941870D01*
X64065136Y-83786453D01*
X64065137Y-83786451D01*
X64067430Y-83781811D01*
X64117483Y-83617069D01*
X64130865Y-83573023D01*
X64130865Y-83573021D01*
X64132370Y-83568069D01*
X64161529Y-83346590D01*
X64163156Y-83280000D01*
X64144852Y-83057361D01*
X64090431Y-82840702D01*
X64001354Y-82635840D01*
X63880014Y-82448277D01*
X63729670Y-82283051D01*
X63725619Y-82279852D01*
X63725615Y-82279848D01*
X63558414Y-82147800D01*
X63558410Y-82147798D01*
X63554359Y-82144598D01*
X63513053Y-82121796D01*
X63463084Y-82071364D01*
X63448312Y-82001921D01*
X63473428Y-81935516D01*
X63500780Y-81908909D01*
X63544603Y-81877650D01*
X63679860Y-81781173D01*
X63838096Y-81623489D01*
X63897594Y-81540689D01*
X63965435Y-81446277D01*
X63968453Y-81442077D01*
X64003994Y-81370166D01*
X64065136Y-81246453D01*
X64065137Y-81246451D01*
X64067430Y-81241811D01*
X64121067Y-81065271D01*
X64130865Y-81033023D01*
X64130865Y-81033021D01*
X64132370Y-81028069D01*
X64161529Y-80806590D01*
X64163156Y-80740000D01*
X64144852Y-80517361D01*
X64090431Y-80300702D01*
X64001354Y-80095840D01*
X63937258Y-79996762D01*
X63882822Y-79912617D01*
X63882820Y-79912614D01*
X63880014Y-79908277D01*
X63871591Y-79899020D01*
X63732798Y-79746488D01*
X63701746Y-79682642D01*
X63710141Y-79612143D01*
X63755317Y-79557375D01*
X63781761Y-79543706D01*
X63888297Y-79503767D01*
X63896705Y-79500615D01*
X64013261Y-79413261D01*
X64100615Y-79296705D01*
X64151745Y-79160316D01*
X64158500Y-79098134D01*
X64158500Y-77301866D01*
X64151745Y-77239684D01*
X64100615Y-77103295D01*
X64013261Y-76986739D01*
X63896705Y-76899385D01*
X63760316Y-76848255D01*
X63698134Y-76841500D01*
X61901866Y-76841500D01*
X61839684Y-76848255D01*
X61703295Y-76899385D01*
X61586739Y-76986739D01*
X61499385Y-77103295D01*
X61448255Y-77239684D01*
X61441500Y-77301866D01*
X61441500Y-79098134D01*
X61448255Y-79160316D01*
X61499385Y-79296705D01*
X61586739Y-79413261D01*
X61703295Y-79500615D01*
X61711704Y-79503767D01*
X61711705Y-79503768D01*
X61820451Y-79544535D01*
X61877216Y-79587176D01*
X61901916Y-79653738D01*
X61886709Y-79723087D01*
X61867316Y-79749568D01*
X61740629Y-79882138D01*
X61737715Y-79886410D01*
X61737714Y-79886411D01*
X61732117Y-79894616D01*
X61614743Y-80066680D01*
X61588730Y-80122721D01*
X61529635Y-80250031D01*
X61520688Y-80269305D01*
X61460989Y-80484570D01*
X61437251Y-80706695D01*
X61437548Y-80711848D01*
X61437548Y-80711851D01*
X61447816Y-80889928D01*
X61450110Y-80929715D01*
X61451247Y-80934761D01*
X61451248Y-80934767D01*
X61453586Y-80945140D01*
X61499222Y-81147639D01*
X61583266Y-81354616D01*
X61699987Y-81545088D01*
X61846250Y-81713938D01*
X62018126Y-81856632D01*
X62088595Y-81897811D01*
X62091445Y-81899476D01*
X62140169Y-81951114D01*
X62153240Y-82020897D01*
X62126509Y-82086669D01*
X62086055Y-82120027D01*
X62073607Y-82126507D01*
X62069474Y-82129610D01*
X62069471Y-82129612D01*
X62045247Y-82147800D01*
X61894965Y-82260635D01*
X61740629Y-82422138D01*
X61614743Y-82606680D01*
X61520688Y-82809305D01*
X61460989Y-83024570D01*
X61437251Y-83246695D01*
X61437548Y-83251848D01*
X61437548Y-83251851D01*
X61443011Y-83346590D01*
X61450110Y-83469715D01*
X61451247Y-83474761D01*
X61451248Y-83474767D01*
X61473889Y-83575228D01*
X61499222Y-83687639D01*
X61545984Y-83802800D01*
X61579529Y-83885412D01*
X61583266Y-83894616D01*
X61699987Y-84085088D01*
X61846250Y-84253938D01*
X62018126Y-84396632D01*
X62088595Y-84437811D01*
X62091445Y-84439476D01*
X62140169Y-84491114D01*
X62153240Y-84560897D01*
X62126509Y-84626669D01*
X62086055Y-84660027D01*
X62073607Y-84666507D01*
X62069474Y-84669610D01*
X62069471Y-84669612D01*
X61938260Y-84768128D01*
X61894965Y-84800635D01*
X61891393Y-84804373D01*
X61751256Y-84951018D01*
X61740629Y-84962138D01*
X61737715Y-84966410D01*
X61737714Y-84966411D01*
X61668866Y-85067339D01*
X61614743Y-85146680D01*
X61581666Y-85217939D01*
X61530589Y-85327976D01*
X61520688Y-85349305D01*
X61460989Y-85564570D01*
X61437251Y-85786695D01*
X61437548Y-85791848D01*
X61437548Y-85791851D01*
X61444717Y-85916187D01*
X61450110Y-86009715D01*
X61451247Y-86014761D01*
X61451248Y-86014767D01*
X61469580Y-86096109D01*
X61499222Y-86227639D01*
X61583266Y-86434616D01*
X61632332Y-86514684D01*
X61672531Y-86580283D01*
X61699987Y-86625088D01*
X61846250Y-86793938D01*
X62018126Y-86936632D01*
X62024956Y-86940623D01*
X62091445Y-86979476D01*
X62140169Y-87031114D01*
X62153240Y-87100897D01*
X62126509Y-87166669D01*
X62086055Y-87200027D01*
X62073607Y-87206507D01*
X62069474Y-87209610D01*
X62069471Y-87209612D01*
X61972323Y-87282553D01*
X61894965Y-87340635D01*
X61740629Y-87502138D01*
X61737715Y-87506410D01*
X61737714Y-87506411D01*
X61689231Y-87577484D01*
X61614743Y-87686680D01*
X61520688Y-87889305D01*
X61460989Y-88104570D01*
X61437251Y-88326695D01*
X61437548Y-88331848D01*
X61437548Y-88331851D01*
X61446968Y-88495229D01*
X61450110Y-88549715D01*
X61451247Y-88554761D01*
X61451248Y-88554767D01*
X61468165Y-88629831D01*
X61499222Y-88767639D01*
X61583266Y-88974616D01*
X61585965Y-88979020D01*
X61677532Y-89128444D01*
X61699987Y-89165088D01*
X61846250Y-89333938D01*
X62018126Y-89476632D01*
X62088595Y-89517811D01*
X62091445Y-89519476D01*
X62140169Y-89571114D01*
X62153240Y-89640897D01*
X62126509Y-89706669D01*
X62086055Y-89740027D01*
X62073607Y-89746507D01*
X62069474Y-89749610D01*
X62069471Y-89749612D01*
X61899100Y-89877530D01*
X61894965Y-89880635D01*
X61891393Y-89884373D01*
X61745593Y-90036944D01*
X61740629Y-90042138D01*
X61614743Y-90226680D01*
X61584832Y-90291118D01*
X61538953Y-90389957D01*
X61520688Y-90429305D01*
X61460989Y-90644570D01*
X61437251Y-90866695D01*
X60958500Y-90866695D01*
X60958500Y-72094669D01*
X61442001Y-72094669D01*
X61442371Y-72101490D01*
X61447895Y-72152352D01*
X61451521Y-72167604D01*
X61496676Y-72288054D01*
X61505214Y-72303649D01*
X61581715Y-72405724D01*
X61594276Y-72418285D01*
X61696351Y-72494786D01*
X61711946Y-72503324D01*
X61832394Y-72548478D01*
X61847649Y-72552105D01*
X61898514Y-72557631D01*
X61905328Y-72558000D01*
X62527885Y-72558000D01*
X62543124Y-72553525D01*
X62544329Y-72552135D01*
X62546000Y-72544452D01*
X62546000Y-72539884D01*
X63054000Y-72539884D01*
X63058475Y-72555123D01*
X63059865Y-72556328D01*
X63067548Y-72557999D01*
X63694669Y-72557999D01*
X63701490Y-72557629D01*
X63752352Y-72552105D01*
X63767604Y-72548479D01*
X63888054Y-72503324D01*
X63903649Y-72494786D01*
X64005724Y-72418285D01*
X64018285Y-72405724D01*
X64094786Y-72303649D01*
X64103324Y-72288054D01*
X64148478Y-72167606D01*
X64152105Y-72152351D01*
X64157631Y-72101486D01*
X64158000Y-72094672D01*
X64158000Y-71472115D01*
X64153525Y-71456876D01*
X64152135Y-71455671D01*
X64144452Y-71454000D01*
X63072115Y-71454000D01*
X63056876Y-71458475D01*
X63055671Y-71459865D01*
X63054000Y-71467548D01*
X63054000Y-72539884D01*
X62546000Y-72539884D01*
X62546000Y-71472115D01*
X62541525Y-71456876D01*
X62540135Y-71455671D01*
X62532452Y-71454000D01*
X61460116Y-71454000D01*
X61444877Y-71458475D01*
X61443672Y-71459865D01*
X61442001Y-71467548D01*
X61442001Y-72094669D01*
X60958500Y-72094669D01*
X60958500Y-69086371D01*
X60978502Y-69018250D01*
X60995405Y-68997276D01*
X61234656Y-68758025D01*
X61296968Y-68723999D01*
X61367783Y-68729064D01*
X61424619Y-68771611D01*
X61449542Y-68839865D01*
X61450110Y-68849715D01*
X61451247Y-68854761D01*
X61451248Y-68854767D01*
X61471119Y-68942939D01*
X61499222Y-69067639D01*
X61583266Y-69274616D01*
X61699987Y-69465088D01*
X61846250Y-69633938D01*
X61850225Y-69637238D01*
X61850231Y-69637244D01*
X61855425Y-69641556D01*
X61895059Y-69700460D01*
X61896555Y-69771441D01*
X61859439Y-69831962D01*
X61819168Y-69856480D01*
X61711946Y-69896676D01*
X61696351Y-69905214D01*
X61594276Y-69981715D01*
X61581715Y-69994276D01*
X61505214Y-70096351D01*
X61496676Y-70111946D01*
X61451522Y-70232394D01*
X61447895Y-70247649D01*
X61442369Y-70298514D01*
X61442000Y-70305328D01*
X61442000Y-70927885D01*
X61446475Y-70943124D01*
X61447865Y-70944329D01*
X61455548Y-70946000D01*
X64139884Y-70946000D01*
X64155123Y-70941525D01*
X64156328Y-70940135D01*
X64157999Y-70932452D01*
X64157999Y-70305331D01*
X64157629Y-70298510D01*
X64152105Y-70247648D01*
X64148479Y-70232396D01*
X64103324Y-70111946D01*
X64094786Y-70096351D01*
X64018285Y-69994276D01*
X64005724Y-69981715D01*
X63903649Y-69905214D01*
X63888054Y-69896676D01*
X63777813Y-69855348D01*
X63721049Y-69812706D01*
X63696349Y-69746145D01*
X63711557Y-69676796D01*
X63733104Y-69648115D01*
X63834430Y-69547144D01*
X63834440Y-69547132D01*
X63838096Y-69543489D01*
X63897594Y-69460689D01*
X63965435Y-69366277D01*
X63968453Y-69362077D01*
X64067430Y-69161811D01*
X64132370Y-68948069D01*
X64161529Y-68726590D01*
X64163156Y-68660000D01*
X64144852Y-68437361D01*
X64090431Y-68220702D01*
X64001354Y-68015840D01*
X63880014Y-67828277D01*
X63729670Y-67663051D01*
X63725619Y-67659852D01*
X63725615Y-67659848D01*
X63558414Y-67527800D01*
X63558410Y-67527798D01*
X63554359Y-67524598D01*
X63513053Y-67501796D01*
X63463084Y-67451364D01*
X63448312Y-67381921D01*
X63473428Y-67315516D01*
X63500780Y-67288909D01*
X63573555Y-67236999D01*
X63679860Y-67161173D01*
X63838096Y-67003489D01*
X63968453Y-66822077D01*
X64032032Y-66693435D01*
X64065136Y-66626453D01*
X64065137Y-66626451D01*
X64067430Y-66621811D01*
X64132370Y-66408069D01*
X64161529Y-66186590D01*
X64163156Y-66120000D01*
X64144852Y-65897361D01*
X64090431Y-65680702D01*
X64001354Y-65475840D01*
X63880014Y-65288277D01*
X63729670Y-65123051D01*
X63725619Y-65119852D01*
X63725615Y-65119848D01*
X63558414Y-64987800D01*
X63558410Y-64987798D01*
X63554359Y-64984598D01*
X63513053Y-64961796D01*
X63463084Y-64911364D01*
X63448312Y-64841921D01*
X63473428Y-64775516D01*
X63500780Y-64748909D01*
X63544603Y-64717650D01*
X63679860Y-64621173D01*
X63838096Y-64463489D01*
X63897594Y-64380689D01*
X63965435Y-64286277D01*
X63968453Y-64282077D01*
X64041277Y-64134729D01*
X64065136Y-64086453D01*
X64065137Y-64086451D01*
X64067430Y-64081811D01*
X64132370Y-63868069D01*
X64161529Y-63646590D01*
X64161905Y-63631206D01*
X64163074Y-63583365D01*
X64163074Y-63583361D01*
X64163156Y-63580000D01*
X64144852Y-63357361D01*
X64090431Y-63140702D01*
X64001354Y-62935840D01*
X63880014Y-62748277D01*
X63729670Y-62583051D01*
X63725619Y-62579852D01*
X63725615Y-62579848D01*
X63558414Y-62447800D01*
X63558410Y-62447798D01*
X63554359Y-62444598D01*
X63358789Y-62336638D01*
X63353920Y-62334914D01*
X63353916Y-62334912D01*
X63153087Y-62263795D01*
X63153083Y-62263794D01*
X63148212Y-62262069D01*
X63143119Y-62261162D01*
X63143116Y-62261161D01*
X62933373Y-62223800D01*
X62933367Y-62223799D01*
X62928284Y-62222894D01*
X62854452Y-62221992D01*
X62710081Y-62220228D01*
X62710079Y-62220228D01*
X62704911Y-62220165D01*
X62484091Y-62253955D01*
X62271756Y-62323357D01*
X62073607Y-62426507D01*
X62069474Y-62429610D01*
X62069471Y-62429612D01*
X62045247Y-62447800D01*
X61894965Y-62560635D01*
X61891393Y-62564373D01*
X61756896Y-62705116D01*
X61740629Y-62722138D01*
X61614743Y-62906680D01*
X61520688Y-63109305D01*
X61460989Y-63324570D01*
X61437251Y-63546695D01*
X61437548Y-63551848D01*
X61437548Y-63551851D01*
X61443011Y-63646590D01*
X61450110Y-63769715D01*
X61451247Y-63774761D01*
X61451248Y-63774767D01*
X61471119Y-63862939D01*
X61499222Y-63987639D01*
X61583266Y-64194616D01*
X61699987Y-64385088D01*
X61846250Y-64553938D01*
X62018126Y-64696632D01*
X62088595Y-64737811D01*
X62091445Y-64739476D01*
X62140169Y-64791114D01*
X62153240Y-64860897D01*
X62126509Y-64926669D01*
X62086055Y-64960027D01*
X62073607Y-64966507D01*
X62069474Y-64969610D01*
X62069471Y-64969612D01*
X61979720Y-65036999D01*
X61894965Y-65100635D01*
X61740629Y-65262138D01*
X61614743Y-65446680D01*
X61520688Y-65649305D01*
X61460989Y-65864570D01*
X61437251Y-66086695D01*
X61450110Y-66309715D01*
X61451247Y-66314760D01*
X61451966Y-66319877D01*
X61450518Y-66320081D01*
X61446398Y-66384274D01*
X61417119Y-66430200D01*
X59711089Y-68136230D01*
X59696677Y-68148616D01*
X59685082Y-68157149D01*
X59685077Y-68157154D01*
X59679182Y-68161492D01*
X59674443Y-68167070D01*
X59674440Y-68167073D01*
X59644965Y-68201768D01*
X59638035Y-68209284D01*
X59632340Y-68214979D01*
X59630060Y-68217861D01*
X59614719Y-68237251D01*
X59611928Y-68240655D01*
X59569409Y-68290703D01*
X59564667Y-68296285D01*
X59561339Y-68302801D01*
X59557972Y-68307850D01*
X59554805Y-68312979D01*
X59550266Y-68318716D01*
X59519345Y-68384875D01*
X59517442Y-68388769D01*
X59484231Y-68453808D01*
X59482492Y-68460916D01*
X59480393Y-68466559D01*
X59478476Y-68472322D01*
X59475378Y-68478950D01*
X59473888Y-68486112D01*
X59473888Y-68486113D01*
X59460514Y-68550412D01*
X59459544Y-68554696D01*
X59442192Y-68625610D01*
X59441500Y-68636764D01*
X59441464Y-68636762D01*
X59441225Y-68640755D01*
X59440851Y-68644947D01*
X59439360Y-68652115D01*
X59439558Y-68659432D01*
X59441454Y-68729521D01*
X59441500Y-68732928D01*
X59441500Y-94932930D01*
X59440067Y-94951880D01*
X59436801Y-94973349D01*
X59437394Y-94980641D01*
X59437394Y-94980644D01*
X59441085Y-95026018D01*
X59441500Y-95036233D01*
X59441500Y-109532930D01*
X59440067Y-109551880D01*
X59438784Y-109560316D01*
X59436801Y-109573349D01*
X59437394Y-109580641D01*
X59437394Y-109580644D01*
X59441085Y-109626018D01*
X59441500Y-109636233D01*
X59441500Y-109644293D01*
X59441925Y-109647937D01*
X59444789Y-109672507D01*
X59445222Y-109676882D01*
X59449786Y-109732988D01*
X59451140Y-109749637D01*
X59453396Y-109756601D01*
X59454587Y-109762560D01*
X59455971Y-109768415D01*
X59456818Y-109775681D01*
X59481735Y-109844327D01*
X59483152Y-109848455D01*
X59503273Y-109910564D01*
X59505649Y-109917899D01*
X59509445Y-109924154D01*
X59511951Y-109929628D01*
X59514670Y-109935058D01*
X59517167Y-109941937D01*
X59521180Y-109948057D01*
X59521180Y-109948058D01*
X59557186Y-110002976D01*
X59559523Y-110006680D01*
X59597405Y-110069107D01*
X59601121Y-110073315D01*
X59601122Y-110073316D01*
X59604803Y-110077484D01*
X59604776Y-110077508D01*
X59607429Y-110080500D01*
X59610132Y-110083733D01*
X59614144Y-110089852D01*
X59619456Y-110094884D01*
X59670383Y-110143128D01*
X59672825Y-110145506D01*
X61419449Y-111892130D01*
X61453475Y-111954442D01*
X61455641Y-111994613D01*
X61437251Y-112166695D01*
X61450110Y-112389715D01*
X61451247Y-112394760D01*
X61451966Y-112399877D01*
X61450518Y-112400081D01*
X61446398Y-112464274D01*
X61417119Y-112510200D01*
X59711089Y-114216230D01*
X59696677Y-114228616D01*
X59685082Y-114237149D01*
X59685077Y-114237154D01*
X59679182Y-114241492D01*
X59674443Y-114247070D01*
X59674440Y-114247073D01*
X59644965Y-114281768D01*
X59638035Y-114289284D01*
X59632340Y-114294979D01*
X59630060Y-114297861D01*
X59614719Y-114317251D01*
X59611928Y-114320655D01*
X59569409Y-114370703D01*
X59564667Y-114376285D01*
X59561339Y-114382801D01*
X59557972Y-114387850D01*
X59554805Y-114392979D01*
X59550266Y-114398716D01*
X59519345Y-114464875D01*
X59517442Y-114468769D01*
X59484231Y-114533808D01*
X59482492Y-114540916D01*
X59480393Y-114546559D01*
X59478476Y-114552322D01*
X59475378Y-114558950D01*
X59473888Y-114566112D01*
X59473888Y-114566113D01*
X59460514Y-114630412D01*
X59459544Y-114634696D01*
X59442192Y-114705610D01*
X59441500Y-114716764D01*
X59441464Y-114716762D01*
X59441225Y-114720755D01*
X59440851Y-114724947D01*
X59439360Y-114732115D01*
X59439558Y-114739432D01*
X59441454Y-114809521D01*
X59441500Y-114812928D01*
X59441500Y-117532930D01*
X59440067Y-117551880D01*
X59438594Y-117561564D01*
X59436801Y-117573349D01*
X50508500Y-117573349D01*
X50508500Y-57746695D01*
X61437251Y-57746695D01*
X61450110Y-57969715D01*
X61451247Y-57974761D01*
X61451248Y-57974767D01*
X61475304Y-58081508D01*
X61499222Y-58187639D01*
X61583266Y-58394616D01*
X61699987Y-58585088D01*
X61846250Y-58753938D01*
X62018126Y-58896632D01*
X62211000Y-59009338D01*
X62419692Y-59089030D01*
X62424760Y-59090061D01*
X62424763Y-59090062D01*
X62532017Y-59111883D01*
X62638597Y-59133567D01*
X62643772Y-59133757D01*
X62643774Y-59133757D01*
X62856673Y-59141564D01*
X62856677Y-59141564D01*
X62861837Y-59141753D01*
X62866957Y-59141097D01*
X62866959Y-59141097D01*
X63078288Y-59114025D01*
X63078289Y-59114025D01*
X63083416Y-59113368D01*
X63088366Y-59111883D01*
X63292429Y-59050661D01*
X63292434Y-59050659D01*
X63297384Y-59049174D01*
X63497994Y-58950896D01*
X63679860Y-58821173D01*
X63838096Y-58663489D01*
X63890203Y-58590974D01*
X63946198Y-58547326D01*
X63992526Y-58538500D01*
X71713629Y-58538500D01*
X71781750Y-58558502D01*
X71802724Y-58575405D01*
X80204595Y-66977276D01*
X80238621Y-67039588D01*
X80241500Y-67066371D01*
X80241500Y-84857930D01*
X80240067Y-84876880D01*
X80236801Y-84898349D01*
X80237394Y-84905641D01*
X80237394Y-84905644D01*
X80241085Y-84951018D01*
X80241500Y-84961233D01*
X80241500Y-84969293D01*
X80241925Y-84972937D01*
X80244789Y-84997507D01*
X80245222Y-85001882D01*
X80251140Y-85074637D01*
X80253396Y-85081601D01*
X80254587Y-85087560D01*
X80255971Y-85093415D01*
X80256818Y-85100681D01*
X80281735Y-85169327D01*
X80283152Y-85173455D01*
X80305649Y-85242899D01*
X80309445Y-85249154D01*
X80311951Y-85254628D01*
X80314670Y-85260058D01*
X80317167Y-85266937D01*
X80321180Y-85273057D01*
X80321180Y-85273058D01*
X80357186Y-85327976D01*
X80359523Y-85331680D01*
X80397405Y-85394107D01*
X80401121Y-85398315D01*
X80401122Y-85398316D01*
X80404803Y-85402484D01*
X80404776Y-85402508D01*
X80407429Y-85405500D01*
X80410132Y-85408733D01*
X80414144Y-85414852D01*
X80470383Y-85468128D01*
X80472825Y-85470506D01*
X80704875Y-85702556D01*
X80735613Y-85752714D01*
X80790473Y-85921556D01*
X80885960Y-86086944D01*
X80890378Y-86091851D01*
X80890379Y-86091852D01*
X80924692Y-86129960D01*
X81013747Y-86228866D01*
X81168248Y-86341118D01*
X81174276Y-86343802D01*
X81174278Y-86343803D01*
X81235609Y-86371109D01*
X81342712Y-86418794D01*
X81349167Y-86420166D01*
X81349176Y-86420169D01*
X81405772Y-86432199D01*
X81468669Y-86466350D01*
X94004595Y-99002276D01*
X94038621Y-99064588D01*
X94041500Y-99091371D01*
X94041500Y-100310238D01*
X94021498Y-100378359D01*
X93967842Y-100424852D01*
X93897568Y-100434956D01*
X93883214Y-100431618D01*
X93882288Y-100431206D01*
X93824572Y-100418938D01*
X93701944Y-100392872D01*
X93701939Y-100392872D01*
X93695487Y-100391500D01*
X93504513Y-100391500D01*
X93498061Y-100392872D01*
X93498056Y-100392872D01*
X93411113Y-100411353D01*
X93317712Y-100431206D01*
X93311682Y-100433891D01*
X93311681Y-100433891D01*
X93149278Y-100506197D01*
X93149276Y-100506198D01*
X93143248Y-100508882D01*
X93137909Y-100512761D01*
X93137902Y-100512765D01*
X93131472Y-100517437D01*
X93057413Y-100541500D01*
X92067070Y-100541500D01*
X92048120Y-100540067D01*
X92033885Y-100537901D01*
X92033881Y-100537901D01*
X92026651Y-100536801D01*
X92019359Y-100537394D01*
X92019356Y-100537394D01*
X91973982Y-100541085D01*
X91963767Y-100541500D01*
X91955707Y-100541500D01*
X91952073Y-100541924D01*
X91952067Y-100541924D01*
X91939042Y-100543443D01*
X91927480Y-100544791D01*
X91923132Y-100545221D01*
X91850364Y-100551140D01*
X91843403Y-100553395D01*
X91837463Y-100554582D01*
X91831588Y-100555971D01*
X91824319Y-100556818D01*
X91755670Y-100581736D01*
X91751542Y-100583153D01*
X91689064Y-100603393D01*
X91689062Y-100603394D01*
X91682101Y-100605649D01*
X91675846Y-100609445D01*
X91670372Y-100611951D01*
X91664942Y-100614670D01*
X91658063Y-100617167D01*
X91651943Y-100621180D01*
X91651942Y-100621180D01*
X91597024Y-100657186D01*
X91593320Y-100659523D01*
X91530893Y-100697405D01*
X91522516Y-100704803D01*
X91522492Y-100704776D01*
X91519500Y-100707429D01*
X91516267Y-100710132D01*
X91510148Y-100714144D01*
X91505116Y-100719456D01*
X91456872Y-100770383D01*
X91454494Y-100772825D01*
X87889095Y-104338224D01*
X87826783Y-104372250D01*
X87755968Y-104367185D01*
X87710905Y-104338224D01*
X77995405Y-94622724D01*
X77961379Y-94560412D01*
X77958500Y-94533629D01*
X77958500Y-67236999D01*
X77975381Y-67173999D01*
X78031223Y-67077279D01*
X78031224Y-67077278D01*
X78034527Y-67071556D01*
X78093542Y-66889928D01*
X78113504Y-66700000D01*
X78105654Y-66625308D01*
X78094232Y-66516635D01*
X78094232Y-66516633D01*
X78093542Y-66510072D01*
X78034527Y-66328444D01*
X78014240Y-66293305D01*
X77971628Y-66219500D01*
X77939040Y-66163056D01*
X77811253Y-66021134D01*
X77656752Y-65908882D01*
X77650724Y-65906198D01*
X77650722Y-65906197D01*
X77488319Y-65833891D01*
X77488318Y-65833891D01*
X77482288Y-65831206D01*
X77388887Y-65811353D01*
X77301944Y-65792872D01*
X77301939Y-65792872D01*
X77295487Y-65791500D01*
X77104513Y-65791500D01*
X77098061Y-65792872D01*
X77098056Y-65792872D01*
X77011113Y-65811353D01*
X76917712Y-65831206D01*
X76911682Y-65833891D01*
X76911681Y-65833891D01*
X76749278Y-65906197D01*
X76749276Y-65906198D01*
X76743248Y-65908882D01*
X76588747Y-66021134D01*
X76460960Y-66163056D01*
X76428372Y-66219500D01*
X76385761Y-66293305D01*
X76365473Y-66328444D01*
X76306458Y-66510072D01*
X76305768Y-66516633D01*
X76305768Y-66516635D01*
X76294346Y-66625308D01*
X76286496Y-66700000D01*
X76306458Y-66889928D01*
X76365473Y-67071556D01*
X76368776Y-67077278D01*
X76368777Y-67077279D01*
X76424619Y-67173999D01*
X76441500Y-67236999D01*
X76441500Y-94832930D01*
X76440067Y-94851880D01*
X76438030Y-94865271D01*
X76436801Y-94873349D01*
X76437394Y-94880641D01*
X76437394Y-94880644D01*
X76441085Y-94926018D01*
X76441500Y-94936233D01*
X76441500Y-94944293D01*
X76441925Y-94947937D01*
X76444789Y-94972507D01*
X76445222Y-94976882D01*
X76450507Y-95041852D01*
X76451140Y-95049637D01*
X76453396Y-95056601D01*
X76454587Y-95062560D01*
X76455971Y-95068415D01*
X76456818Y-95075681D01*
X76481735Y-95144327D01*
X76483152Y-95148455D01*
X76505649Y-95217899D01*
X76509445Y-95224154D01*
X76511951Y-95229628D01*
X76514670Y-95235058D01*
X76517167Y-95241937D01*
X76521180Y-95248057D01*
X76521180Y-95248058D01*
X76557186Y-95302976D01*
X76559523Y-95306680D01*
X76597405Y-95369107D01*
X76601121Y-95373315D01*
X76601122Y-95373316D01*
X76604803Y-95377484D01*
X76604776Y-95377508D01*
X76607429Y-95380500D01*
X76610132Y-95383733D01*
X76614144Y-95389852D01*
X76619456Y-95394884D01*
X76670383Y-95443128D01*
X76672825Y-95445506D01*
X86879875Y-105652556D01*
X86910613Y-105702714D01*
X86965473Y-105871556D01*
X87060960Y-106036944D01*
X87065378Y-106041851D01*
X87065379Y-106041852D01*
X87184325Y-106173955D01*
X87188747Y-106178866D01*
X87343248Y-106291118D01*
X87349276Y-106293802D01*
X87349278Y-106293803D01*
X87511681Y-106366109D01*
X87517712Y-106368794D01*
X87611113Y-106388647D01*
X87698056Y-106407128D01*
X87698061Y-106407128D01*
X87704513Y-106408500D01*
X87895487Y-106408500D01*
X87901939Y-106407128D01*
X87901944Y-106407128D01*
X87988887Y-106388647D01*
X88082288Y-106368794D01*
X88088319Y-106366109D01*
X88250722Y-106293803D01*
X88250724Y-106293802D01*
X88256752Y-106291118D01*
X88411253Y-106178866D01*
X88415675Y-106173955D01*
X88534621Y-106041852D01*
X88534622Y-106041851D01*
X88539040Y-106036944D01*
X88634527Y-105871556D01*
X88689387Y-105702714D01*
X88720125Y-105652556D01*
X92277276Y-102095405D01*
X92339588Y-102061379D01*
X92366371Y-102058500D01*
X93057413Y-102058500D01*
X93131472Y-102082563D01*
X93137902Y-102087235D01*
X93137909Y-102087239D01*
X93143248Y-102091118D01*
X93149276Y-102093802D01*
X93149278Y-102093803D01*
X93311681Y-102166109D01*
X93317712Y-102168794D01*
X93411112Y-102188647D01*
X93498056Y-102207128D01*
X93498061Y-102207128D01*
X93504513Y-102208500D01*
X93695487Y-102208500D01*
X93701939Y-102207128D01*
X93701944Y-102207128D01*
X93875833Y-102170166D01*
X93875832Y-102170166D01*
X93882288Y-102168794D01*
X93882493Y-102169758D01*
X93947536Y-102167903D01*
X94008333Y-102204568D01*
X94039655Y-102268281D01*
X94041500Y-102289762D01*
X94041500Y-110563001D01*
X94024619Y-110626000D01*
X93965473Y-110728444D01*
X93906458Y-110910072D01*
X93905768Y-110916633D01*
X93905768Y-110916635D01*
X93892626Y-111041673D01*
X93886496Y-111100000D01*
X93887186Y-111106565D01*
X93899228Y-111221134D01*
X93906458Y-111289928D01*
X93965473Y-111471556D01*
X93968776Y-111477278D01*
X93968777Y-111477279D01*
X93983780Y-111503264D01*
X94060960Y-111636944D01*
X94065378Y-111641851D01*
X94065379Y-111641852D01*
X94135431Y-111719653D01*
X94188747Y-111778866D01*
X94343248Y-111891118D01*
X94349276Y-111893802D01*
X94349278Y-111893803D01*
X94498724Y-111960340D01*
X94517712Y-111968794D01*
X94611112Y-111988647D01*
X94698056Y-112007128D01*
X94698061Y-112007128D01*
X94704513Y-112008500D01*
X94895487Y-112008500D01*
X94901939Y-112007128D01*
X94901944Y-112007128D01*
X94988888Y-111988647D01*
X95082288Y-111968794D01*
X95101276Y-111960340D01*
X95250722Y-111893803D01*
X95250724Y-111893802D01*
X95256752Y-111891118D01*
X95411253Y-111778866D01*
X95464569Y-111719653D01*
X95534621Y-111641852D01*
X95534622Y-111641851D01*
X95539040Y-111636944D01*
X95616220Y-111503264D01*
X95631223Y-111477279D01*
X95631224Y-111477278D01*
X95634527Y-111471556D01*
X95693542Y-111289928D01*
X95700773Y-111221134D01*
X95712814Y-111106565D01*
X95713504Y-111100000D01*
X95707374Y-111041673D01*
X95694232Y-110916635D01*
X95694232Y-110916633D01*
X95693542Y-110910072D01*
X95634527Y-110728444D01*
X95575381Y-110626000D01*
X95558500Y-110563001D01*
X95558500Y-98792070D01*
X95559933Y-98773120D01*
X95562099Y-98758885D01*
X95562099Y-98758881D01*
X95563199Y-98751651D01*
X95562404Y-98741869D01*
X95558915Y-98698982D01*
X95558500Y-98688767D01*
X95558500Y-98680707D01*
X95555209Y-98652480D01*
X95554778Y-98648121D01*
X95549454Y-98582662D01*
X95549453Y-98582659D01*
X95548860Y-98575364D01*
X95546604Y-98568400D01*
X95545417Y-98562461D01*
X95544030Y-98556590D01*
X95543182Y-98549319D01*
X95540686Y-98542443D01*
X95540684Y-98542434D01*
X95518275Y-98480702D01*
X95516865Y-98476598D01*
X95494352Y-98407101D01*
X95490556Y-98400846D01*
X95488057Y-98395387D01*
X95485329Y-98389939D01*
X95482833Y-98383063D01*
X95442805Y-98322010D01*
X95440481Y-98318327D01*
X95405504Y-98260686D01*
X95405501Y-98260682D01*
X95402595Y-98255893D01*
X95398886Y-98251694D01*
X95398883Y-98251689D01*
X95395197Y-98247516D01*
X95395224Y-98247492D01*
X95392571Y-98244500D01*
X95389868Y-98241267D01*
X95385856Y-98235148D01*
X95329617Y-98181872D01*
X95327175Y-98179494D01*
X82545125Y-85397444D01*
X82514387Y-85347285D01*
X82512878Y-85342639D01*
X82459527Y-85178444D01*
X82428507Y-85124715D01*
X82367341Y-85018774D01*
X82364040Y-85013056D01*
X82338290Y-84984457D01*
X82240675Y-84876045D01*
X82240674Y-84876044D01*
X82236253Y-84871134D01*
X82081752Y-84758882D01*
X82075724Y-84756198D01*
X82075722Y-84756197D01*
X81913319Y-84683891D01*
X81913318Y-84683891D01*
X81907288Y-84681206D01*
X81858303Y-84670794D01*
X81795830Y-84637066D01*
X81761508Y-84574916D01*
X81758500Y-84547547D01*
X81758500Y-66767070D01*
X81759933Y-66748120D01*
X81762099Y-66733885D01*
X81762099Y-66733881D01*
X81763199Y-66726651D01*
X81761566Y-66706565D01*
X81758915Y-66673982D01*
X81758500Y-66663767D01*
X81758500Y-66655707D01*
X81755211Y-66627493D01*
X81754778Y-66623118D01*
X81749454Y-66557661D01*
X81749453Y-66557658D01*
X81748860Y-66550363D01*
X81746604Y-66543399D01*
X81745413Y-66537440D01*
X81744029Y-66531585D01*
X81743182Y-66524319D01*
X81718265Y-66455673D01*
X81716848Y-66451545D01*
X81696607Y-66389064D01*
X81696606Y-66389062D01*
X81694351Y-66382101D01*
X81690555Y-66375846D01*
X81688049Y-66370372D01*
X81685330Y-66364942D01*
X81682833Y-66358063D01*
X81678820Y-66351942D01*
X81642814Y-66297024D01*
X81640467Y-66293305D01*
X81602595Y-66230893D01*
X81595197Y-66222516D01*
X81595224Y-66222492D01*
X81592571Y-66219500D01*
X81589868Y-66216267D01*
X81585856Y-66210148D01*
X81529617Y-66156872D01*
X81527175Y-66154494D01*
X76672681Y-61300000D01*
X81886496Y-61300000D01*
X81906458Y-61489928D01*
X81965473Y-61671556D01*
X82060960Y-61836944D01*
X82188747Y-61978866D01*
X82343248Y-62091118D01*
X82349276Y-62093802D01*
X82349278Y-62093803D01*
X82511681Y-62166109D01*
X82517712Y-62168794D01*
X82524167Y-62170166D01*
X82524176Y-62170169D01*
X82580772Y-62182199D01*
X82643669Y-62216350D01*
X83904595Y-63477276D01*
X83938621Y-63539588D01*
X83941500Y-63566371D01*
X83941500Y-84157930D01*
X83940067Y-84176880D01*
X83936801Y-84198349D01*
X83937394Y-84205641D01*
X83937394Y-84205644D01*
X83941085Y-84251018D01*
X83941500Y-84261233D01*
X83941500Y-84269293D01*
X83941925Y-84272937D01*
X83944789Y-84297507D01*
X83945222Y-84301882D01*
X83951140Y-84374637D01*
X83953396Y-84381601D01*
X83954587Y-84387560D01*
X83955971Y-84393415D01*
X83956818Y-84400681D01*
X83981735Y-84469327D01*
X83983152Y-84473455D01*
X83994777Y-84509338D01*
X84005649Y-84542899D01*
X84009445Y-84549154D01*
X84011951Y-84554628D01*
X84014670Y-84560058D01*
X84017167Y-84566937D01*
X84021180Y-84573057D01*
X84021180Y-84573058D01*
X84057186Y-84627976D01*
X84059523Y-84631680D01*
X84097405Y-84694107D01*
X84101121Y-84698315D01*
X84101122Y-84698316D01*
X84104803Y-84702484D01*
X84104776Y-84702508D01*
X84107429Y-84705500D01*
X84110132Y-84708733D01*
X84114144Y-84714852D01*
X84119456Y-84719884D01*
X84170383Y-84768128D01*
X84172825Y-84770506D01*
X96669979Y-97267660D01*
X96672856Y-97269936D01*
X96773716Y-97349734D01*
X96773662Y-97349802D01*
X96790226Y-97362907D01*
X100604595Y-101177276D01*
X100638621Y-101239588D01*
X100641500Y-101266371D01*
X100641500Y-105763001D01*
X100624619Y-105826000D01*
X100565473Y-105928444D01*
X100506458Y-106110072D01*
X100505768Y-106116633D01*
X100505768Y-106116635D01*
X100498819Y-106182749D01*
X100486496Y-106300000D01*
X100506458Y-106489928D01*
X100565473Y-106671556D01*
X100660960Y-106836944D01*
X100665378Y-106841851D01*
X100665379Y-106841852D01*
X100700654Y-106881029D01*
X100788747Y-106978866D01*
X100943248Y-107091118D01*
X100949276Y-107093802D01*
X100949278Y-107093803D01*
X101056864Y-107141703D01*
X101117712Y-107168794D01*
X101124167Y-107170166D01*
X101124176Y-107170169D01*
X101180772Y-107182199D01*
X101243669Y-107216350D01*
X128616230Y-134588911D01*
X128628616Y-134603323D01*
X128637149Y-134614918D01*
X128637154Y-134614923D01*
X128641492Y-134620818D01*
X128647070Y-134625557D01*
X128647073Y-134625560D01*
X128681768Y-134655035D01*
X128689284Y-134661965D01*
X128694979Y-134667660D01*
X128697861Y-134669940D01*
X128717251Y-134685281D01*
X128720655Y-134688072D01*
X128770703Y-134730591D01*
X128776285Y-134735333D01*
X128782801Y-134738661D01*
X128787850Y-134742028D01*
X128792979Y-134745195D01*
X128798716Y-134749734D01*
X128864875Y-134780655D01*
X128868769Y-134782558D01*
X128933808Y-134815769D01*
X128940916Y-134817508D01*
X128946559Y-134819607D01*
X128952322Y-134821524D01*
X128958950Y-134824622D01*
X128966112Y-134826112D01*
X128966113Y-134826112D01*
X129030412Y-134839486D01*
X129034696Y-134840456D01*
X129105610Y-134857808D01*
X129111212Y-134858156D01*
X129111215Y-134858156D01*
X129116764Y-134858500D01*
X129116762Y-134858536D01*
X129120755Y-134858775D01*
X129124947Y-134859149D01*
X129132115Y-134860640D01*
X129209520Y-134858546D01*
X129212928Y-134858500D01*
X137132930Y-134858500D01*
X137151880Y-134859933D01*
X137166115Y-134862099D01*
X137166119Y-134862099D01*
X137173349Y-134863199D01*
X137180641Y-134862606D01*
X137180644Y-134862606D01*
X137226018Y-134858915D01*
X137236233Y-134858500D01*
X137244293Y-134858500D01*
X137261680Y-134856473D01*
X137272507Y-134855211D01*
X137276882Y-134854778D01*
X137342339Y-134849454D01*
X137342342Y-134849453D01*
X137349637Y-134848860D01*
X137356601Y-134846604D01*
X137362560Y-134845413D01*
X137368415Y-134844029D01*
X137375681Y-134843182D01*
X137444327Y-134818265D01*
X137448455Y-134816848D01*
X137510936Y-134796607D01*
X137510938Y-134796606D01*
X137517899Y-134794351D01*
X137524154Y-134790555D01*
X137529628Y-134788049D01*
X137535058Y-134785330D01*
X137541937Y-134782833D01*
X137548058Y-134778820D01*
X137602976Y-134742814D01*
X137606680Y-134740477D01*
X137669107Y-134702595D01*
X137677484Y-134695197D01*
X137677508Y-134695224D01*
X137680500Y-134692571D01*
X137683733Y-134689868D01*
X137689852Y-134685856D01*
X137743128Y-134629617D01*
X137745506Y-134627175D01*
X143688911Y-128683770D01*
X143703323Y-128671384D01*
X143714918Y-128662851D01*
X143714923Y-128662846D01*
X143720818Y-128658508D01*
X143725557Y-128652930D01*
X143725560Y-128652927D01*
X143755035Y-128618232D01*
X143761965Y-128610716D01*
X143767660Y-128605021D01*
X143785281Y-128582749D01*
X143788072Y-128579345D01*
X143830591Y-128529297D01*
X143830592Y-128529295D01*
X143835333Y-128523715D01*
X143838661Y-128517199D01*
X143842028Y-128512150D01*
X143845195Y-128507021D01*
X143849734Y-128501284D01*
X143880655Y-128435125D01*
X143882561Y-128431225D01*
X143915769Y-128366192D01*
X143917508Y-128359084D01*
X143919607Y-128353441D01*
X143921524Y-128347678D01*
X143924622Y-128341050D01*
X143939487Y-128269583D01*
X143940457Y-128265299D01*
X143956473Y-128199845D01*
X143957808Y-128194390D01*
X143958500Y-128183236D01*
X143958536Y-128183238D01*
X143958775Y-128179245D01*
X143959149Y-128175053D01*
X143960640Y-128167885D01*
X143958546Y-128090479D01*
X143958500Y-128087072D01*
X143958500Y-115967069D01*
X143959933Y-115948118D01*
X143962099Y-115933883D01*
X143962099Y-115933881D01*
X143963199Y-115926651D01*
X143958915Y-115873982D01*
X143958500Y-115863767D01*
X143958500Y-115855707D01*
X143955211Y-115827493D01*
X143954778Y-115823118D01*
X143949454Y-115757661D01*
X143949453Y-115757658D01*
X143948860Y-115750363D01*
X143946604Y-115743399D01*
X143945413Y-115737440D01*
X143944029Y-115731585D01*
X143943182Y-115724319D01*
X143918265Y-115655673D01*
X143916848Y-115651545D01*
X143896607Y-115589064D01*
X143896606Y-115589062D01*
X143894351Y-115582101D01*
X143890555Y-115575846D01*
X143888049Y-115570372D01*
X143885330Y-115564942D01*
X143882833Y-115558063D01*
X143842814Y-115497024D01*
X143840467Y-115493305D01*
X143802595Y-115430893D01*
X143795197Y-115422516D01*
X143795224Y-115422492D01*
X143792571Y-115419500D01*
X143789868Y-115416267D01*
X143785856Y-115410148D01*
X143729617Y-115356872D01*
X143727175Y-115354494D01*
X138683770Y-110311089D01*
X138671384Y-110296677D01*
X138662851Y-110285082D01*
X138662846Y-110285077D01*
X138658508Y-110279182D01*
X138652930Y-110274443D01*
X138652927Y-110274440D01*
X138618232Y-110244965D01*
X138610716Y-110238035D01*
X138605021Y-110232340D01*
X138598880Y-110227482D01*
X138582749Y-110214719D01*
X138579345Y-110211928D01*
X138529297Y-110169409D01*
X138529295Y-110169408D01*
X138523715Y-110164667D01*
X138517199Y-110161339D01*
X138512150Y-110157972D01*
X138507021Y-110154805D01*
X138501284Y-110150266D01*
X138435125Y-110119345D01*
X138431225Y-110117439D01*
X138366192Y-110084231D01*
X138359084Y-110082492D01*
X138353441Y-110080393D01*
X138347678Y-110078476D01*
X138341050Y-110075378D01*
X138269583Y-110060513D01*
X138265299Y-110059543D01*
X138194390Y-110042192D01*
X138188788Y-110041844D01*
X138188785Y-110041844D01*
X138183236Y-110041500D01*
X138183238Y-110041464D01*
X138179245Y-110041225D01*
X138175053Y-110040851D01*
X138167885Y-110039360D01*
X138101675Y-110041151D01*
X138090479Y-110041454D01*
X138087072Y-110041500D01*
X137755493Y-110041500D01*
X137687372Y-110021498D01*
X137649701Y-109983941D01*
X137646183Y-109978502D01*
X137619764Y-109937665D01*
X137601779Y-109917899D01*
X137521194Y-109829338D01*
X137463887Y-109766358D01*
X137459836Y-109763159D01*
X137459832Y-109763155D01*
X137286177Y-109626011D01*
X137286172Y-109626008D01*
X137282123Y-109622810D01*
X137277607Y-109620317D01*
X137277604Y-109620315D01*
X137083879Y-109513373D01*
X137083875Y-109513371D01*
X137079355Y-109510876D01*
X137074486Y-109509152D01*
X137074482Y-109509150D01*
X136865903Y-109435288D01*
X136865899Y-109435287D01*
X136861028Y-109433562D01*
X136855935Y-109432655D01*
X136855932Y-109432654D01*
X136638095Y-109393851D01*
X136638089Y-109393850D01*
X136633006Y-109392945D01*
X136560096Y-109392054D01*
X136406581Y-109390179D01*
X136406579Y-109390179D01*
X136401411Y-109390116D01*
X136172464Y-109425150D01*
X135952314Y-109497106D01*
X135947726Y-109499494D01*
X135947722Y-109499496D01*
X135791838Y-109580644D01*
X135746872Y-109604052D01*
X135742739Y-109607155D01*
X135742736Y-109607157D01*
X135565790Y-109740012D01*
X135561655Y-109743117D01*
X135558083Y-109746855D01*
X135410091Y-109901720D01*
X135401639Y-109910564D01*
X135354836Y-109979174D01*
X135299927Y-110024175D01*
X135229402Y-110032346D01*
X135165655Y-110001092D01*
X135144959Y-109976609D01*
X135122577Y-109942013D01*
X135122576Y-109942012D01*
X135119764Y-109937665D01*
X135101779Y-109917899D01*
X135021194Y-109829338D01*
X134963887Y-109766358D01*
X134959836Y-109763159D01*
X134959832Y-109763155D01*
X134786177Y-109626011D01*
X134786172Y-109626008D01*
X134782123Y-109622810D01*
X134777607Y-109620317D01*
X134777604Y-109620315D01*
X134583879Y-109513373D01*
X134583875Y-109513371D01*
X134579355Y-109510876D01*
X134574486Y-109509152D01*
X134574482Y-109509150D01*
X134365903Y-109435288D01*
X134365899Y-109435287D01*
X134361028Y-109433562D01*
X134355935Y-109432655D01*
X134355932Y-109432654D01*
X134138095Y-109393851D01*
X134138089Y-109393850D01*
X134133006Y-109392945D01*
X134060096Y-109392054D01*
X133906581Y-109390179D01*
X133906579Y-109390179D01*
X133901411Y-109390116D01*
X133672464Y-109425150D01*
X133452314Y-109497106D01*
X133447726Y-109499494D01*
X133447722Y-109499496D01*
X133291838Y-109580644D01*
X133246872Y-109604052D01*
X133242739Y-109607155D01*
X133242736Y-109607157D01*
X133065790Y-109740012D01*
X133061655Y-109743117D01*
X133058083Y-109746855D01*
X132910091Y-109901720D01*
X132901639Y-109910564D01*
X132854836Y-109979174D01*
X132799927Y-110024175D01*
X132729402Y-110032346D01*
X132665655Y-110001092D01*
X132644959Y-109976609D01*
X132622577Y-109942013D01*
X132622576Y-109942012D01*
X132619764Y-109937665D01*
X132601779Y-109917899D01*
X132521194Y-109829338D01*
X132463887Y-109766358D01*
X132459836Y-109763159D01*
X132459832Y-109763155D01*
X132286177Y-109626011D01*
X132286172Y-109626008D01*
X132282123Y-109622810D01*
X132277607Y-109620317D01*
X132277604Y-109620315D01*
X132083879Y-109513373D01*
X132083875Y-109513371D01*
X132079355Y-109510876D01*
X132074486Y-109509152D01*
X132074482Y-109509150D01*
X131865903Y-109435288D01*
X131865899Y-109435287D01*
X131861028Y-109433562D01*
X131855935Y-109432655D01*
X131855932Y-109432654D01*
X131638095Y-109393851D01*
X131638089Y-109393850D01*
X131633006Y-109392945D01*
X131560096Y-109392054D01*
X131406581Y-109390179D01*
X131406579Y-109390179D01*
X131401411Y-109390116D01*
X131172464Y-109425150D01*
X130952314Y-109497106D01*
X130947726Y-109499494D01*
X130947722Y-109499496D01*
X130791838Y-109580644D01*
X130746872Y-109604052D01*
X130742739Y-109607155D01*
X130742736Y-109607157D01*
X130565790Y-109740012D01*
X130561655Y-109743117D01*
X130558083Y-109746855D01*
X130410091Y-109901720D01*
X130401639Y-109910564D01*
X130398730Y-109914829D01*
X130398724Y-109914837D01*
X130381513Y-109940067D01*
X130271119Y-110101899D01*
X130173602Y-110311981D01*
X130111707Y-110535169D01*
X130087095Y-110765469D01*
X130087392Y-110770622D01*
X130087392Y-110770625D01*
X130092315Y-110856006D01*
X130100427Y-110996697D01*
X130101564Y-111001743D01*
X130101565Y-111001749D01*
X130122228Y-111093435D01*
X130151346Y-111222642D01*
X130153288Y-111227424D01*
X130153289Y-111227428D01*
X130208362Y-111363056D01*
X130238484Y-111437237D01*
X130275089Y-111496971D01*
X130352249Y-111622884D01*
X130359501Y-111634719D01*
X130511147Y-111809784D01*
X130689349Y-111957730D01*
X130889322Y-112074584D01*
X131105694Y-112157209D01*
X131110760Y-112158240D01*
X131110761Y-112158240D01*
X131152319Y-112166695D01*
X131332656Y-112203385D01*
X131463324Y-112208176D01*
X131558949Y-112211683D01*
X131558953Y-112211683D01*
X131564113Y-112211872D01*
X131569233Y-112211216D01*
X131569235Y-112211216D01*
X131642270Y-112201860D01*
X131793847Y-112182442D01*
X131798795Y-112180957D01*
X131798802Y-112180956D01*
X132010747Y-112117369D01*
X132015690Y-112115886D01*
X132020324Y-112113616D01*
X132219049Y-112016262D01*
X132219052Y-112016260D01*
X132223684Y-112013991D01*
X132412243Y-111879494D01*
X132576303Y-111716005D01*
X132585078Y-111703794D01*
X132645370Y-111619888D01*
X132701365Y-111576240D01*
X132772068Y-111569794D01*
X132835033Y-111602597D01*
X132855128Y-111627584D01*
X132856799Y-111630311D01*
X132856804Y-111630317D01*
X132859501Y-111634719D01*
X133011147Y-111809784D01*
X133189349Y-111957730D01*
X133389322Y-112074584D01*
X133605694Y-112157209D01*
X133610760Y-112158240D01*
X133610761Y-112158240D01*
X133652319Y-112166695D01*
X133832656Y-112203385D01*
X133963324Y-112208176D01*
X134058949Y-112211683D01*
X134058953Y-112211683D01*
X134064113Y-112211872D01*
X134069233Y-112211216D01*
X134069235Y-112211216D01*
X134142270Y-112201860D01*
X134293847Y-112182442D01*
X134298795Y-112180957D01*
X134298802Y-112180956D01*
X134510747Y-112117369D01*
X134515690Y-112115886D01*
X134520324Y-112113616D01*
X134719049Y-112016262D01*
X134719052Y-112016260D01*
X134723684Y-112013991D01*
X134912243Y-111879494D01*
X135076303Y-111716005D01*
X135085078Y-111703794D01*
X135145370Y-111619888D01*
X135201365Y-111576240D01*
X135272068Y-111569794D01*
X135335033Y-111602597D01*
X135355128Y-111627584D01*
X135356799Y-111630311D01*
X135356804Y-111630317D01*
X135359501Y-111634719D01*
X135511147Y-111809784D01*
X135689349Y-111957730D01*
X135889322Y-112074584D01*
X136105694Y-112157209D01*
X136110760Y-112158240D01*
X136110761Y-112158240D01*
X136152319Y-112166695D01*
X136332656Y-112203385D01*
X136463324Y-112208176D01*
X136558949Y-112211683D01*
X136558953Y-112211683D01*
X136564113Y-112211872D01*
X136569233Y-112211216D01*
X136569235Y-112211216D01*
X136642270Y-112201860D01*
X136793847Y-112182442D01*
X136798795Y-112180957D01*
X136798802Y-112180956D01*
X137010747Y-112117369D01*
X137015690Y-112115886D01*
X137020324Y-112113616D01*
X137219049Y-112016262D01*
X137219052Y-112016260D01*
X137223684Y-112013991D01*
X137412243Y-111879494D01*
X137576303Y-111716005D01*
X137643219Y-111622882D01*
X137699211Y-111579236D01*
X137769914Y-111572790D01*
X137834634Y-111607315D01*
X142404595Y-116177276D01*
X142438621Y-116239588D01*
X142441500Y-116266371D01*
X142441500Y-127733629D01*
X142421498Y-127801750D01*
X142404595Y-127822724D01*
X136922724Y-133304595D01*
X136860412Y-133338621D01*
X136833629Y-133341500D01*
X129566371Y-133341500D01*
X129498250Y-133321498D01*
X129477276Y-133304595D01*
X128234087Y-132061406D01*
X130703423Y-132061406D01*
X130708704Y-132068461D01*
X130885080Y-132171527D01*
X130894363Y-132175974D01*
X131101003Y-132254883D01*
X131110901Y-132257759D01*
X131327653Y-132301857D01*
X131337883Y-132303076D01*
X131558914Y-132311182D01*
X131569223Y-132310714D01*
X131788623Y-132282608D01*
X131798688Y-132280468D01*
X132010557Y-132216905D01*
X132020152Y-132213144D01*
X132218778Y-132115838D01*
X132227636Y-132110559D01*
X132285097Y-132069572D01*
X132293497Y-132058874D01*
X132286510Y-132045721D01*
X131512811Y-131272021D01*
X131498868Y-131264408D01*
X131497034Y-131264539D01*
X131490420Y-131268790D01*
X130710180Y-132049031D01*
X130703423Y-132061406D01*
X128234087Y-132061406D01*
X127043319Y-130870638D01*
X130087893Y-130870638D01*
X130100627Y-131091468D01*
X130102061Y-131101670D01*
X130150685Y-131317439D01*
X130153773Y-131327292D01*
X130236986Y-131532220D01*
X130241634Y-131541421D01*
X130330097Y-131685781D01*
X130340553Y-131695242D01*
X130349331Y-131691458D01*
X131127979Y-130912811D01*
X131135592Y-130898868D01*
X131135461Y-130897034D01*
X131131210Y-130890420D01*
X130353862Y-130113073D01*
X130342330Y-130106776D01*
X130330048Y-130116399D01*
X130274467Y-130197877D01*
X130269379Y-130206833D01*
X130176252Y-130407459D01*
X130172689Y-130417146D01*
X130113581Y-130630280D01*
X130111650Y-130640400D01*
X130088145Y-130860349D01*
X130087893Y-130870638D01*
X127043319Y-130870638D01*
X125913392Y-129740711D01*
X130705508Y-129740711D01*
X130712251Y-129753040D01*
X131487189Y-130527979D01*
X131501132Y-130535592D01*
X131502966Y-130535461D01*
X131509580Y-130531210D01*
X132288994Y-129751795D01*
X132296011Y-129738944D01*
X132288237Y-129728274D01*
X132285902Y-129726430D01*
X132277320Y-129720729D01*
X132083678Y-129613833D01*
X132074272Y-129609606D01*
X131865772Y-129535772D01*
X131855809Y-129533140D01*
X131638047Y-129494350D01*
X131627796Y-129493381D01*
X131406616Y-129490679D01*
X131396332Y-129491399D01*
X131177693Y-129524855D01*
X131167666Y-129527244D01*
X130957426Y-129595961D01*
X130947916Y-129599958D01*
X130751725Y-129702089D01*
X130743007Y-129707578D01*
X130713961Y-129729386D01*
X130705508Y-129740711D01*
X125913392Y-129740711D01*
X115997350Y-119824669D01*
X117242001Y-119824669D01*
X117242371Y-119831490D01*
X117247895Y-119882352D01*
X117251521Y-119897604D01*
X117296676Y-120018054D01*
X117305214Y-120033649D01*
X117381715Y-120135724D01*
X117394276Y-120148285D01*
X117496351Y-120224786D01*
X117511946Y-120233324D01*
X117632394Y-120278478D01*
X117647649Y-120282105D01*
X117698514Y-120287631D01*
X117705328Y-120288000D01*
X118727885Y-120288000D01*
X118743124Y-120283525D01*
X118744329Y-120282135D01*
X118746000Y-120274452D01*
X118746000Y-120269884D01*
X119254000Y-120269884D01*
X119258475Y-120285123D01*
X119259865Y-120286328D01*
X119267548Y-120287999D01*
X120294669Y-120287999D01*
X120301490Y-120287629D01*
X120352352Y-120282105D01*
X120367604Y-120278479D01*
X120488054Y-120233324D01*
X120503649Y-120224786D01*
X120605724Y-120148285D01*
X120618285Y-120135724D01*
X120694786Y-120033649D01*
X120703324Y-120018054D01*
X120748478Y-119897606D01*
X120752105Y-119882351D01*
X120757631Y-119831486D01*
X120758000Y-119824672D01*
X120758000Y-119552115D01*
X120753525Y-119536876D01*
X120752135Y-119535671D01*
X120744452Y-119534000D01*
X119272115Y-119534000D01*
X119256876Y-119538475D01*
X119255671Y-119539865D01*
X119254000Y-119547548D01*
X119254000Y-120269884D01*
X118746000Y-120269884D01*
X118746000Y-119552115D01*
X118741525Y-119536876D01*
X118740135Y-119535671D01*
X118732452Y-119534000D01*
X117260116Y-119534000D01*
X117244877Y-119538475D01*
X117243672Y-119539865D01*
X117242001Y-119547548D01*
X117242001Y-119824669D01*
X115997350Y-119824669D01*
X115180566Y-119007885D01*
X117242000Y-119007885D01*
X117246475Y-119023124D01*
X117247865Y-119024329D01*
X117255548Y-119026000D01*
X118727885Y-119026000D01*
X118743124Y-119021525D01*
X118744329Y-119020135D01*
X118746000Y-119012452D01*
X118746000Y-119007885D01*
X119254000Y-119007885D01*
X119258475Y-119023124D01*
X119259865Y-119024329D01*
X119267548Y-119026000D01*
X120739884Y-119026000D01*
X120755123Y-119021525D01*
X120756328Y-119020135D01*
X120757999Y-119012452D01*
X120757999Y-118735331D01*
X120757629Y-118728510D01*
X120752105Y-118677648D01*
X120748479Y-118662396D01*
X120703324Y-118541946D01*
X120694786Y-118526351D01*
X120618285Y-118424276D01*
X120605724Y-118411715D01*
X120503649Y-118335214D01*
X120488054Y-118326676D01*
X120367606Y-118281522D01*
X120352351Y-118277895D01*
X120301486Y-118272369D01*
X120294672Y-118272000D01*
X119272115Y-118272000D01*
X119256876Y-118276475D01*
X119255671Y-118277865D01*
X119254000Y-118285548D01*
X119254000Y-119007885D01*
X118746000Y-119007885D01*
X118746000Y-118290116D01*
X118741525Y-118274877D01*
X118740135Y-118273672D01*
X118732452Y-118272001D01*
X117705331Y-118272001D01*
X117698510Y-118272371D01*
X117647648Y-118277895D01*
X117632396Y-118281521D01*
X117511946Y-118326676D01*
X117496351Y-118335214D01*
X117394276Y-118411715D01*
X117381715Y-118424276D01*
X117305214Y-118526351D01*
X117296676Y-118541946D01*
X117251522Y-118662394D01*
X117247895Y-118677649D01*
X117242369Y-118728514D01*
X117242000Y-118735328D01*
X117242000Y-119007885D01*
X115180566Y-119007885D01*
X112897350Y-116724669D01*
X117242001Y-116724669D01*
X117242371Y-116731490D01*
X117247895Y-116782352D01*
X117251521Y-116797604D01*
X117296676Y-116918054D01*
X117305214Y-116933649D01*
X117381715Y-117035724D01*
X117394276Y-117048285D01*
X117496351Y-117124786D01*
X117511946Y-117133324D01*
X117632394Y-117178478D01*
X117647649Y-117182105D01*
X117698514Y-117187631D01*
X117705328Y-117188000D01*
X118727885Y-117188000D01*
X118743124Y-117183525D01*
X118744329Y-117182135D01*
X118746000Y-117174452D01*
X118746000Y-117169884D01*
X119254000Y-117169884D01*
X119258475Y-117185123D01*
X119259865Y-117186328D01*
X119267548Y-117187999D01*
X120294669Y-117187999D01*
X120301490Y-117187629D01*
X120352352Y-117182105D01*
X120367604Y-117178479D01*
X120488054Y-117133324D01*
X120503649Y-117124786D01*
X120605724Y-117048285D01*
X120618285Y-117035724D01*
X120694786Y-116933649D01*
X120703324Y-116918054D01*
X120748478Y-116797606D01*
X120752105Y-116782351D01*
X120757631Y-116731486D01*
X120758000Y-116724672D01*
X120758000Y-116452115D01*
X120753525Y-116436876D01*
X120752135Y-116435671D01*
X120744452Y-116434000D01*
X119272115Y-116434000D01*
X119256876Y-116438475D01*
X119255671Y-116439865D01*
X119254000Y-116447548D01*
X119254000Y-117169884D01*
X118746000Y-117169884D01*
X118746000Y-116452115D01*
X118741525Y-116436876D01*
X118740135Y-116435671D01*
X118732452Y-116434000D01*
X117260116Y-116434000D01*
X117244877Y-116438475D01*
X117243672Y-116439865D01*
X117242001Y-116447548D01*
X117242001Y-116724669D01*
X112897350Y-116724669D01*
X112080566Y-115907885D01*
X117242000Y-115907885D01*
X117246475Y-115923124D01*
X117247865Y-115924329D01*
X117255548Y-115926000D01*
X118727885Y-115926000D01*
X118743124Y-115921525D01*
X118744329Y-115920135D01*
X118746000Y-115912452D01*
X118746000Y-115907885D01*
X119254000Y-115907885D01*
X119258475Y-115923124D01*
X119259865Y-115924329D01*
X119267548Y-115926000D01*
X120739884Y-115926000D01*
X120755123Y-115921525D01*
X120756328Y-115920135D01*
X120757999Y-115912452D01*
X120757999Y-115635331D01*
X120757629Y-115628510D01*
X120752105Y-115577648D01*
X120748479Y-115562396D01*
X120703324Y-115441946D01*
X120694786Y-115426351D01*
X120618285Y-115324276D01*
X120605724Y-115311715D01*
X120503649Y-115235214D01*
X120488054Y-115226676D01*
X120367606Y-115181522D01*
X120352351Y-115177895D01*
X120301486Y-115172369D01*
X120294672Y-115172000D01*
X119272115Y-115172000D01*
X119256876Y-115176475D01*
X119255671Y-115177865D01*
X119254000Y-115185548D01*
X119254000Y-115907885D01*
X118746000Y-115907885D01*
X118746000Y-115190116D01*
X118741525Y-115174877D01*
X118740135Y-115173672D01*
X118732452Y-115172001D01*
X117705331Y-115172001D01*
X117698510Y-115172371D01*
X117647648Y-115177895D01*
X117632396Y-115181521D01*
X117511946Y-115226676D01*
X117496351Y-115235214D01*
X117394276Y-115311715D01*
X117381715Y-115324276D01*
X117305214Y-115426351D01*
X117296676Y-115441946D01*
X117251522Y-115562394D01*
X117247895Y-115577649D01*
X117242369Y-115628514D01*
X117242000Y-115635328D01*
X117242000Y-115907885D01*
X112080566Y-115907885D01*
X109080336Y-112907655D01*
X117239858Y-112907655D01*
X117275104Y-113166638D01*
X117276412Y-113171124D01*
X117276412Y-113171126D01*
X117295767Y-113237529D01*
X117348243Y-113417567D01*
X117457668Y-113654928D01*
X117460231Y-113658837D01*
X117598410Y-113869596D01*
X117598414Y-113869601D01*
X117600976Y-113873509D01*
X117775018Y-114068506D01*
X117975970Y-114235637D01*
X117979973Y-114238066D01*
X118195422Y-114368804D01*
X118195426Y-114368806D01*
X118199419Y-114371229D01*
X118440455Y-114472303D01*
X118693783Y-114536641D01*
X118698434Y-114537109D01*
X118698438Y-114537110D01*
X118891308Y-114556531D01*
X118910867Y-114558500D01*
X119066354Y-114558500D01*
X119068679Y-114558327D01*
X119068685Y-114558327D01*
X119256000Y-114544407D01*
X119256004Y-114544406D01*
X119260652Y-114544061D01*
X119265200Y-114543032D01*
X119265206Y-114543031D01*
X119451601Y-114500853D01*
X119515577Y-114486377D01*
X119551769Y-114472303D01*
X119754824Y-114393340D01*
X119754827Y-114393339D01*
X119759177Y-114391647D01*
X119765821Y-114387850D01*
X119889343Y-114317251D01*
X119986098Y-114261951D01*
X120191357Y-114100138D01*
X120370443Y-113909763D01*
X120519424Y-113695009D01*
X120575529Y-113581240D01*
X120632960Y-113464781D01*
X120632961Y-113464778D01*
X120635025Y-113460593D01*
X120714707Y-113211665D01*
X120756721Y-112953693D01*
X120759141Y-112768794D01*
X120760081Y-112697022D01*
X120760081Y-112697019D01*
X120760142Y-112692345D01*
X120724896Y-112433362D01*
X120715196Y-112400081D01*
X120675902Y-112265271D01*
X120651757Y-112182433D01*
X120542332Y-111945072D01*
X120455798Y-111813086D01*
X120401590Y-111730404D01*
X120401586Y-111730399D01*
X120399024Y-111726491D01*
X120224982Y-111531494D01*
X120024030Y-111364363D01*
X119901365Y-111289928D01*
X119804578Y-111231196D01*
X119804574Y-111231194D01*
X119800581Y-111228771D01*
X119559545Y-111127697D01*
X119306217Y-111063359D01*
X119301566Y-111062891D01*
X119301562Y-111062890D01*
X119092271Y-111041816D01*
X119089133Y-111041500D01*
X118933646Y-111041500D01*
X118931321Y-111041673D01*
X118931315Y-111041673D01*
X118744000Y-111055593D01*
X118743996Y-111055594D01*
X118739348Y-111055939D01*
X118734800Y-111056968D01*
X118734794Y-111056969D01*
X118548399Y-111099147D01*
X118484423Y-111113623D01*
X118480071Y-111115315D01*
X118480069Y-111115316D01*
X118245176Y-111206660D01*
X118245173Y-111206661D01*
X118240823Y-111208353D01*
X118236769Y-111210670D01*
X118236767Y-111210671D01*
X118205099Y-111228771D01*
X118013902Y-111338049D01*
X117808643Y-111499862D01*
X117629557Y-111690237D01*
X117568073Y-111778866D01*
X117488593Y-111893435D01*
X117480576Y-111904991D01*
X117478510Y-111909181D01*
X117478508Y-111909184D01*
X117377694Y-112113616D01*
X117364975Y-112139407D01*
X117363553Y-112143850D01*
X117363552Y-112143852D01*
X117344435Y-112203574D01*
X117285293Y-112388335D01*
X117243279Y-112646307D01*
X117242676Y-112692345D01*
X117240277Y-112875678D01*
X117239858Y-112907655D01*
X109080336Y-112907655D01*
X104600815Y-108428134D01*
X117241500Y-108428134D01*
X117248255Y-108490316D01*
X117299385Y-108626705D01*
X117386739Y-108743261D01*
X117503295Y-108830615D01*
X117639684Y-108881745D01*
X117695560Y-108887815D01*
X117697899Y-108888069D01*
X117701866Y-108888500D01*
X120298134Y-108888500D01*
X120302102Y-108888069D01*
X120304440Y-108887815D01*
X120360316Y-108881745D01*
X120496705Y-108830615D01*
X120613261Y-108743261D01*
X120700615Y-108626705D01*
X120751745Y-108490316D01*
X120758500Y-108428134D01*
X120758500Y-107331866D01*
X120751745Y-107269684D01*
X120700615Y-107133295D01*
X120613261Y-107016739D01*
X120496705Y-106929385D01*
X120360316Y-106878255D01*
X120298134Y-106871500D01*
X117701866Y-106871500D01*
X117639684Y-106878255D01*
X117503295Y-106929385D01*
X117386739Y-107016739D01*
X117299385Y-107133295D01*
X117248255Y-107269684D01*
X117241500Y-107331866D01*
X117241500Y-108428134D01*
X104600815Y-108428134D01*
X102320125Y-106147444D01*
X102289387Y-106097285D01*
X102281902Y-106074247D01*
X102234527Y-105928444D01*
X102175381Y-105826000D01*
X102158500Y-105763001D01*
X102158500Y-100998134D01*
X104941500Y-100998134D01*
X104948255Y-101060316D01*
X104999385Y-101196705D01*
X105086739Y-101313261D01*
X105203295Y-101400615D01*
X105339684Y-101451745D01*
X105401866Y-101458500D01*
X107198134Y-101458500D01*
X107260316Y-101451745D01*
X107396705Y-101400615D01*
X107513261Y-101313261D01*
X107600615Y-101196705D01*
X107651745Y-101060316D01*
X107658500Y-100998134D01*
X107658500Y-99201866D01*
X107651745Y-99139684D01*
X107600615Y-99003295D01*
X107513261Y-98886739D01*
X107396705Y-98799385D01*
X107260316Y-98748255D01*
X107198134Y-98741500D01*
X105401866Y-98741500D01*
X105339684Y-98748255D01*
X105203295Y-98799385D01*
X105086739Y-98886739D01*
X104999385Y-99003295D01*
X104948255Y-99139684D01*
X104941500Y-99201866D01*
X104941500Y-100998134D01*
X102158500Y-100998134D01*
X102158500Y-100967070D01*
X102159933Y-100948120D01*
X102162099Y-100933885D01*
X102162099Y-100933881D01*
X102163199Y-100926651D01*
X102158915Y-100873982D01*
X102158500Y-100863767D01*
X102158500Y-100855707D01*
X102155209Y-100827480D01*
X102154778Y-100823121D01*
X102149453Y-100757660D01*
X102148860Y-100750364D01*
X102146605Y-100743403D01*
X102145418Y-100737463D01*
X102144029Y-100731588D01*
X102143182Y-100724319D01*
X102118264Y-100655670D01*
X102116847Y-100651542D01*
X102096607Y-100589064D01*
X102096606Y-100589062D01*
X102094351Y-100582101D01*
X102090555Y-100575846D01*
X102088049Y-100570372D01*
X102085330Y-100564942D01*
X102082833Y-100558063D01*
X102042814Y-100497024D01*
X102040467Y-100493305D01*
X102034177Y-100482939D01*
X102002595Y-100430893D01*
X101995197Y-100422516D01*
X101995224Y-100422492D01*
X101992571Y-100419500D01*
X101989868Y-100416267D01*
X101985856Y-100410148D01*
X101929617Y-100356872D01*
X101927175Y-100354494D01*
X97705021Y-96132340D01*
X97601284Y-96050266D01*
X97601338Y-96050198D01*
X97584774Y-96037093D01*
X86449376Y-84901695D01*
X104937251Y-84901695D01*
X104937548Y-84906848D01*
X104937548Y-84906851D01*
X104946802Y-85067339D01*
X104950110Y-85124715D01*
X104951247Y-85129761D01*
X104951248Y-85129767D01*
X104962702Y-85180590D01*
X104999222Y-85342639D01*
X105083266Y-85549616D01*
X105199987Y-85740088D01*
X105346250Y-85908938D01*
X105350230Y-85912242D01*
X105354981Y-85916187D01*
X105394616Y-85975090D01*
X105396113Y-86046071D01*
X105358997Y-86106593D01*
X105318724Y-86131112D01*
X105203295Y-86174385D01*
X105086739Y-86261739D01*
X104999385Y-86378295D01*
X104948255Y-86514684D01*
X104941500Y-86576866D01*
X104941500Y-88373134D01*
X104948255Y-88435316D01*
X104999385Y-88571705D01*
X105086739Y-88688261D01*
X105203295Y-88775615D01*
X105339684Y-88826745D01*
X105401866Y-88833500D01*
X107198134Y-88833500D01*
X107260316Y-88826745D01*
X107396705Y-88775615D01*
X107513261Y-88688261D01*
X107600615Y-88571705D01*
X107651745Y-88435316D01*
X107658500Y-88373134D01*
X107658500Y-87727860D01*
X109114356Y-87727860D01*
X109134318Y-87917788D01*
X109193333Y-88099416D01*
X109196636Y-88105138D01*
X109196637Y-88105139D01*
X109212343Y-88132342D01*
X109288820Y-88264804D01*
X109293238Y-88269711D01*
X109293239Y-88269712D01*
X109383284Y-88369717D01*
X109416607Y-88406726D01*
X109515703Y-88478724D01*
X109545834Y-88500615D01*
X109571108Y-88518978D01*
X109577136Y-88521662D01*
X109577138Y-88521663D01*
X109689535Y-88571705D01*
X109745572Y-88596654D01*
X109752027Y-88598026D01*
X109752036Y-88598029D01*
X109808632Y-88610059D01*
X109871529Y-88644210D01*
X115879875Y-94652556D01*
X115910613Y-94702714D01*
X115965473Y-94871556D01*
X116060960Y-95036944D01*
X116065378Y-95041851D01*
X116065379Y-95041852D01*
X116072389Y-95049637D01*
X116188747Y-95178866D01*
X116343248Y-95291118D01*
X116349276Y-95293802D01*
X116349278Y-95293803D01*
X116511681Y-95366109D01*
X116517712Y-95368794D01*
X116611113Y-95388647D01*
X116698056Y-95407128D01*
X116698061Y-95407128D01*
X116704513Y-95408500D01*
X116895487Y-95408500D01*
X116901939Y-95407128D01*
X116901944Y-95407128D01*
X116988888Y-95388647D01*
X117082288Y-95368794D01*
X117088319Y-95366109D01*
X117250722Y-95293803D01*
X117250724Y-95293802D01*
X117256752Y-95291118D01*
X117411253Y-95178866D01*
X117527611Y-95049637D01*
X117534621Y-95041852D01*
X117534622Y-95041851D01*
X117539040Y-95036944D01*
X117634527Y-94871556D01*
X117693542Y-94689928D01*
X117709970Y-94533629D01*
X117712814Y-94506565D01*
X117713504Y-94500000D01*
X117693542Y-94310072D01*
X117634527Y-94128444D01*
X117539040Y-93963056D01*
X117499050Y-93918642D01*
X117415675Y-93826045D01*
X117415674Y-93826044D01*
X117411253Y-93821134D01*
X117256752Y-93708882D01*
X117250724Y-93706198D01*
X117250722Y-93706197D01*
X117088319Y-93633891D01*
X117088318Y-93633891D01*
X117082288Y-93631206D01*
X117075833Y-93629834D01*
X117075824Y-93629831D01*
X117019228Y-93617801D01*
X116956331Y-93583650D01*
X110947985Y-87575304D01*
X110917247Y-87525145D01*
X110917024Y-87524457D01*
X110862387Y-87356304D01*
X110857856Y-87348455D01*
X110808264Y-87262560D01*
X110766900Y-87190916D01*
X110750325Y-87172507D01*
X110643535Y-87053905D01*
X110643534Y-87053904D01*
X110639113Y-87048994D01*
X110484612Y-86936742D01*
X110478584Y-86934058D01*
X110478582Y-86934057D01*
X110316179Y-86861751D01*
X110316178Y-86861751D01*
X110310148Y-86859066D01*
X110216748Y-86839213D01*
X110129804Y-86820732D01*
X110129799Y-86820732D01*
X110123347Y-86819360D01*
X109932373Y-86819360D01*
X109925921Y-86820732D01*
X109925916Y-86820732D01*
X109838972Y-86839213D01*
X109745572Y-86859066D01*
X109739542Y-86861751D01*
X109739541Y-86861751D01*
X109577138Y-86934057D01*
X109577136Y-86934058D01*
X109571108Y-86936742D01*
X109416607Y-87048994D01*
X109412186Y-87053904D01*
X109412185Y-87053905D01*
X109305396Y-87172507D01*
X109288820Y-87190916D01*
X109247456Y-87262560D01*
X109197865Y-87348455D01*
X109193333Y-87356304D01*
X109134318Y-87537932D01*
X109133628Y-87544493D01*
X109133628Y-87544495D01*
X109123141Y-87644279D01*
X109114356Y-87727860D01*
X107658500Y-87727860D01*
X107658500Y-86576866D01*
X107651745Y-86514684D01*
X107600615Y-86378295D01*
X107513261Y-86261739D01*
X107396705Y-86174385D01*
X107384132Y-86169672D01*
X107278203Y-86129960D01*
X107221439Y-86087318D01*
X107196739Y-86020756D01*
X107211947Y-85951408D01*
X107233493Y-85922727D01*
X107266427Y-85889908D01*
X107338096Y-85818489D01*
X107394548Y-85739928D01*
X107465435Y-85641277D01*
X107468453Y-85637077D01*
X107490563Y-85592342D01*
X107565136Y-85441453D01*
X107565137Y-85441451D01*
X107567430Y-85436811D01*
X107622782Y-85254628D01*
X107630865Y-85228023D01*
X107630865Y-85228021D01*
X107632370Y-85223069D01*
X107661529Y-85001590D01*
X107663156Y-84935000D01*
X107644852Y-84712361D01*
X107590431Y-84495702D01*
X107501354Y-84290840D01*
X107380014Y-84103277D01*
X107229670Y-83938051D01*
X107225619Y-83934852D01*
X107225615Y-83934848D01*
X107058414Y-83802800D01*
X107058410Y-83802798D01*
X107054359Y-83799598D01*
X106858789Y-83691638D01*
X106853920Y-83689914D01*
X106853916Y-83689912D01*
X106653087Y-83618795D01*
X106653083Y-83618794D01*
X106648212Y-83617069D01*
X106643119Y-83616162D01*
X106643116Y-83616161D01*
X106433373Y-83578800D01*
X106433367Y-83578799D01*
X106428284Y-83577894D01*
X106354452Y-83576992D01*
X106210081Y-83575228D01*
X106210079Y-83575228D01*
X106204911Y-83575165D01*
X105984091Y-83608955D01*
X105771756Y-83678357D01*
X105744732Y-83692425D01*
X105582540Y-83776857D01*
X105573607Y-83781507D01*
X105569474Y-83784610D01*
X105569471Y-83784612D01*
X105417094Y-83899020D01*
X105394965Y-83915635D01*
X105240629Y-84077138D01*
X105237715Y-84081410D01*
X105237714Y-84081411D01*
X105172590Y-84176880D01*
X105114743Y-84261680D01*
X105085736Y-84324171D01*
X105027835Y-84448909D01*
X105020688Y-84464305D01*
X104960989Y-84679570D01*
X104937251Y-84901695D01*
X86449376Y-84901695D01*
X85495405Y-83947724D01*
X85461379Y-83885412D01*
X85458500Y-83858629D01*
X85458500Y-80500000D01*
X85861496Y-80500000D01*
X85862186Y-80506565D01*
X85872191Y-80601753D01*
X85881458Y-80689928D01*
X85940473Y-80871556D01*
X86035960Y-81036944D01*
X86163747Y-81178866D01*
X86318248Y-81291118D01*
X86324276Y-81293802D01*
X86324278Y-81293803D01*
X86470759Y-81359020D01*
X86492712Y-81368794D01*
X86586113Y-81388647D01*
X86673056Y-81407128D01*
X86673061Y-81407128D01*
X86679513Y-81408500D01*
X86870487Y-81408500D01*
X86876939Y-81407128D01*
X86876944Y-81407128D01*
X86963887Y-81388647D01*
X87057288Y-81368794D01*
X87079241Y-81359020D01*
X87225722Y-81293803D01*
X87225724Y-81293802D01*
X87231752Y-81291118D01*
X87386253Y-81178866D01*
X87514040Y-81036944D01*
X87609527Y-80871556D01*
X87668542Y-80689928D01*
X87677810Y-80601753D01*
X87687814Y-80506565D01*
X87688504Y-80500000D01*
X87674449Y-80366276D01*
X87669232Y-80316635D01*
X87669232Y-80316633D01*
X87668542Y-80310072D01*
X87609527Y-80128444D01*
X87593446Y-80100590D01*
X87550381Y-80026001D01*
X87533500Y-79963001D01*
X87533500Y-79700000D01*
X104976464Y-79700000D01*
X104996571Y-79929830D01*
X105056283Y-80152676D01*
X105076841Y-80196762D01*
X105151458Y-80356781D01*
X105151461Y-80356786D01*
X105153784Y-80361768D01*
X105188184Y-80410896D01*
X105262732Y-80517361D01*
X105286113Y-80550753D01*
X105449247Y-80713887D01*
X105453755Y-80717044D01*
X105453758Y-80717046D01*
X105481750Y-80736646D01*
X105638232Y-80846216D01*
X105643214Y-80848539D01*
X105643219Y-80848542D01*
X105717898Y-80883365D01*
X105847324Y-80943717D01*
X106070170Y-81003429D01*
X106300000Y-81023536D01*
X106529830Y-81003429D01*
X106752676Y-80943717D01*
X106882102Y-80883365D01*
X106956781Y-80848542D01*
X106956786Y-80848539D01*
X106961768Y-80846216D01*
X107118250Y-80736646D01*
X107146242Y-80717046D01*
X107146245Y-80717044D01*
X107150753Y-80713887D01*
X107164640Y-80700000D01*
X117086496Y-80700000D01*
X117087186Y-80706565D01*
X117105129Y-80877279D01*
X117106458Y-80889928D01*
X117165473Y-81071556D01*
X117224594Y-81173955D01*
X117224619Y-81173999D01*
X117241500Y-81236999D01*
X117241500Y-87032930D01*
X117240067Y-87051880D01*
X117236801Y-87073349D01*
X117237394Y-87080641D01*
X117237394Y-87080644D01*
X117241085Y-87126018D01*
X117241500Y-87136233D01*
X117241500Y-87144293D01*
X117241925Y-87147937D01*
X117244789Y-87172507D01*
X117245222Y-87176882D01*
X117249364Y-87227800D01*
X117251140Y-87249637D01*
X117253396Y-87256601D01*
X117254587Y-87262560D01*
X117255971Y-87268415D01*
X117256818Y-87275681D01*
X117281735Y-87344327D01*
X117283152Y-87348455D01*
X117287881Y-87363051D01*
X117305649Y-87417899D01*
X117309445Y-87424154D01*
X117311951Y-87429628D01*
X117314670Y-87435058D01*
X117317167Y-87441937D01*
X117321180Y-87448057D01*
X117321180Y-87448058D01*
X117357186Y-87502976D01*
X117359523Y-87506680D01*
X117397405Y-87569107D01*
X117401121Y-87573315D01*
X117401122Y-87573316D01*
X117404803Y-87577484D01*
X117404776Y-87577508D01*
X117407429Y-87580500D01*
X117410132Y-87583733D01*
X117414144Y-87589852D01*
X117419456Y-87594884D01*
X117470383Y-87643128D01*
X117472825Y-87645506D01*
X119479875Y-89652556D01*
X119510613Y-89702714D01*
X119565473Y-89871556D01*
X119568776Y-89877278D01*
X119568777Y-89877279D01*
X119602686Y-89936010D01*
X119660960Y-90036944D01*
X119788747Y-90178866D01*
X119943248Y-90291118D01*
X119949276Y-90293802D01*
X119949278Y-90293803D01*
X120111681Y-90366109D01*
X120117712Y-90368794D01*
X120124167Y-90370166D01*
X120124176Y-90370169D01*
X120180772Y-90382199D01*
X120243669Y-90416350D01*
X123204595Y-93377275D01*
X123238621Y-93439587D01*
X123241500Y-93466370D01*
X123241500Y-114032930D01*
X123240067Y-114051880D01*
X123238069Y-114065016D01*
X123236801Y-114073349D01*
X123237394Y-114080641D01*
X123237394Y-114080644D01*
X123241085Y-114126018D01*
X123241500Y-114136233D01*
X123241500Y-114144293D01*
X123241925Y-114147937D01*
X123244789Y-114172507D01*
X123245222Y-114176882D01*
X123250199Y-114238066D01*
X123251140Y-114249637D01*
X123253396Y-114256601D01*
X123254587Y-114262560D01*
X123255971Y-114268415D01*
X123256818Y-114275681D01*
X123281735Y-114344327D01*
X123283152Y-114348455D01*
X123301581Y-114405341D01*
X123305649Y-114417899D01*
X123309445Y-114424154D01*
X123311951Y-114429628D01*
X123314670Y-114435058D01*
X123317167Y-114441937D01*
X123321180Y-114448057D01*
X123321180Y-114448058D01*
X123357186Y-114502976D01*
X123359523Y-114506680D01*
X123397405Y-114569107D01*
X123401121Y-114573315D01*
X123401122Y-114573316D01*
X123404803Y-114577484D01*
X123404776Y-114577508D01*
X123407429Y-114580500D01*
X123410132Y-114583733D01*
X123414144Y-114589852D01*
X123419456Y-114594884D01*
X123470383Y-114643128D01*
X123472825Y-114645506D01*
X130025252Y-121197933D01*
X130059278Y-121260245D01*
X130054213Y-121331060D01*
X130011666Y-121387896D01*
X129945146Y-121412707D01*
X129920367Y-121412034D01*
X129757821Y-121391500D01*
X129442179Y-121391500D01*
X129129025Y-121431060D01*
X128823298Y-121509557D01*
X128819629Y-121511010D01*
X128819628Y-121511010D01*
X128533495Y-121624298D01*
X128533490Y-121624300D01*
X128529821Y-121625753D01*
X128253221Y-121777816D01*
X127997860Y-121963346D01*
X127767767Y-122179418D01*
X127566568Y-122422625D01*
X127397438Y-122689131D01*
X127395754Y-122692710D01*
X127395750Y-122692717D01*
X127264733Y-122971144D01*
X127263044Y-122974734D01*
X127165505Y-123274928D01*
X127106359Y-123584980D01*
X127086540Y-123900000D01*
X127106359Y-124215020D01*
X127165505Y-124525072D01*
X127263044Y-124825266D01*
X127264731Y-124828852D01*
X127264733Y-124828856D01*
X127395750Y-125107283D01*
X127395754Y-125107290D01*
X127397438Y-125110869D01*
X127566568Y-125377375D01*
X127569093Y-125380427D01*
X127757060Y-125607639D01*
X127767767Y-125620582D01*
X127997860Y-125836654D01*
X128253221Y-126022184D01*
X128256690Y-126024091D01*
X128256693Y-126024093D01*
X128413226Y-126110148D01*
X128529821Y-126174247D01*
X128533490Y-126175700D01*
X128533495Y-126175702D01*
X128817878Y-126288297D01*
X128823298Y-126290443D01*
X129129025Y-126368940D01*
X129442179Y-126408500D01*
X129757821Y-126408500D01*
X130070975Y-126368940D01*
X130376702Y-126290443D01*
X130382122Y-126288297D01*
X130666505Y-126175702D01*
X130666510Y-126175700D01*
X130670179Y-126174247D01*
X130786774Y-126110148D01*
X130943307Y-126024093D01*
X130943310Y-126024091D01*
X130946779Y-126022184D01*
X131202140Y-125836654D01*
X131432233Y-125620582D01*
X131442941Y-125607639D01*
X131630907Y-125380427D01*
X131633432Y-125377375D01*
X131802562Y-125110869D01*
X131804246Y-125107290D01*
X131804250Y-125107283D01*
X131935267Y-124828856D01*
X131935269Y-124828852D01*
X131936956Y-124825266D01*
X132034495Y-124525072D01*
X132093641Y-124215020D01*
X132113460Y-123900000D01*
X132093641Y-123584980D01*
X132093519Y-123584339D01*
X132104709Y-123514979D01*
X132152115Y-123462128D01*
X132220569Y-123443298D01*
X132288336Y-123464465D01*
X132307503Y-123480184D01*
X135704595Y-126877276D01*
X135738621Y-126939588D01*
X135741500Y-126966371D01*
X135741500Y-129645127D01*
X135721498Y-129713248D01*
X135691154Y-129745886D01*
X135561655Y-129843117D01*
X135401639Y-130010564D01*
X135354836Y-130079174D01*
X135299927Y-130124175D01*
X135229402Y-130132346D01*
X135165655Y-130101092D01*
X135144959Y-130076609D01*
X135122577Y-130042013D01*
X135122574Y-130042009D01*
X135119764Y-130037665D01*
X134963887Y-129866358D01*
X134959836Y-129863159D01*
X134959832Y-129863155D01*
X134786177Y-129726011D01*
X134786172Y-129726008D01*
X134782123Y-129722810D01*
X134777607Y-129720317D01*
X134777604Y-129720315D01*
X134583879Y-129613373D01*
X134583875Y-129613371D01*
X134579355Y-129610876D01*
X134574486Y-129609152D01*
X134574482Y-129609150D01*
X134365903Y-129535288D01*
X134365899Y-129535287D01*
X134361028Y-129533562D01*
X134355935Y-129532655D01*
X134355932Y-129532654D01*
X134138095Y-129493851D01*
X134138089Y-129493850D01*
X134133006Y-129492945D01*
X134060096Y-129492054D01*
X133906581Y-129490179D01*
X133906579Y-129490179D01*
X133901411Y-129490116D01*
X133672464Y-129525150D01*
X133452314Y-129597106D01*
X133447726Y-129599494D01*
X133447722Y-129599496D01*
X133360066Y-129645127D01*
X133246872Y-129704052D01*
X133242739Y-129707155D01*
X133242736Y-129707157D01*
X133191153Y-129745887D01*
X133061655Y-129843117D01*
X132901639Y-130010564D01*
X132898730Y-130014829D01*
X132898724Y-130014837D01*
X132850199Y-130085972D01*
X132795288Y-130130975D01*
X132724763Y-130139146D01*
X132663884Y-130110439D01*
X132658538Y-130105835D01*
X132648973Y-130110238D01*
X131872021Y-130887189D01*
X131864408Y-130901132D01*
X131864539Y-130902966D01*
X131868790Y-130909580D01*
X132646307Y-131687096D01*
X132658313Y-131693652D01*
X132667244Y-131686829D01*
X132733519Y-131661370D01*
X132803037Y-131675783D01*
X132851165Y-131721117D01*
X132856800Y-131730311D01*
X132859501Y-131734719D01*
X133011147Y-131909784D01*
X133189349Y-132057730D01*
X133389322Y-132174584D01*
X133605694Y-132257209D01*
X133610760Y-132258240D01*
X133610761Y-132258240D01*
X133663846Y-132269040D01*
X133832656Y-132303385D01*
X133963324Y-132308176D01*
X134058949Y-132311683D01*
X134058953Y-132311683D01*
X134064113Y-132311872D01*
X134069233Y-132311216D01*
X134069235Y-132311216D01*
X134142291Y-132301857D01*
X134293847Y-132282442D01*
X134298795Y-132280957D01*
X134298802Y-132280956D01*
X134510747Y-132217369D01*
X134515690Y-132215886D01*
X134597161Y-132175974D01*
X134719049Y-132116262D01*
X134719052Y-132116260D01*
X134723684Y-132113991D01*
X134912243Y-131979494D01*
X135076303Y-131816005D01*
X135145370Y-131719888D01*
X135201365Y-131676240D01*
X135272068Y-131669794D01*
X135335033Y-131702597D01*
X135355128Y-131727584D01*
X135356799Y-131730311D01*
X135356802Y-131730315D01*
X135359501Y-131734719D01*
X135511147Y-131909784D01*
X135689349Y-132057730D01*
X135889322Y-132174584D01*
X136105694Y-132257209D01*
X136110760Y-132258240D01*
X136110761Y-132258240D01*
X136163846Y-132269040D01*
X136332656Y-132303385D01*
X136463324Y-132308176D01*
X136558949Y-132311683D01*
X136558953Y-132311683D01*
X136564113Y-132311872D01*
X136569233Y-132311216D01*
X136569235Y-132311216D01*
X136642291Y-132301857D01*
X136793847Y-132282442D01*
X136798795Y-132280957D01*
X136798802Y-132280956D01*
X137010747Y-132217369D01*
X137015690Y-132215886D01*
X137097161Y-132175974D01*
X137219049Y-132116262D01*
X137219052Y-132116260D01*
X137223684Y-132113991D01*
X137412243Y-131979494D01*
X137576303Y-131816005D01*
X137711458Y-131627917D01*
X137749105Y-131551745D01*
X137811784Y-131424922D01*
X137811785Y-131424920D01*
X137814078Y-131420280D01*
X137881408Y-131198671D01*
X137911640Y-130969041D01*
X137913327Y-130900000D01*
X137907032Y-130823434D01*
X137894773Y-130674318D01*
X137894772Y-130674312D01*
X137894349Y-130669167D01*
X137860797Y-130535592D01*
X137839184Y-130449544D01*
X137839183Y-130449540D01*
X137837925Y-130444533D01*
X137745570Y-130232131D01*
X137619764Y-130037665D01*
X137463887Y-129866358D01*
X137459836Y-129863159D01*
X137459832Y-129863155D01*
X137306408Y-129741989D01*
X137265345Y-129684072D01*
X137258500Y-129643107D01*
X137258500Y-126667070D01*
X137259933Y-126648120D01*
X137262099Y-126633885D01*
X137262099Y-126633881D01*
X137263199Y-126626651D01*
X137258915Y-126573982D01*
X137258500Y-126563767D01*
X137258500Y-126555707D01*
X137255209Y-126527480D01*
X137254778Y-126523121D01*
X137249454Y-126457662D01*
X137249453Y-126457659D01*
X137248860Y-126450364D01*
X137246604Y-126443400D01*
X137245417Y-126437461D01*
X137244030Y-126431590D01*
X137243182Y-126424319D01*
X137240686Y-126417443D01*
X137240684Y-126417434D01*
X137218275Y-126355702D01*
X137216798Y-126351391D01*
X137216718Y-126351143D01*
X137214841Y-126280172D01*
X137251632Y-126219451D01*
X137315410Y-126188261D01*
X137383017Y-126195309D01*
X137617878Y-126288297D01*
X137623298Y-126290443D01*
X137929025Y-126368940D01*
X138242179Y-126408500D01*
X138557821Y-126408500D01*
X138870975Y-126368940D01*
X139176702Y-126290443D01*
X139182122Y-126288297D01*
X139466505Y-126175702D01*
X139466510Y-126175700D01*
X139470179Y-126174247D01*
X139586774Y-126110148D01*
X139743307Y-126024093D01*
X139743310Y-126024091D01*
X139746779Y-126022184D01*
X140002140Y-125836654D01*
X140232233Y-125620582D01*
X140242941Y-125607639D01*
X140430907Y-125380427D01*
X140433432Y-125377375D01*
X140602562Y-125110869D01*
X140604246Y-125107290D01*
X140604250Y-125107283D01*
X140735267Y-124828856D01*
X140735269Y-124828852D01*
X140736956Y-124825266D01*
X140834495Y-124525072D01*
X140893641Y-124215020D01*
X140913460Y-123900000D01*
X140893641Y-123584980D01*
X140834495Y-123274928D01*
X140736956Y-122974734D01*
X140735267Y-122971144D01*
X140604250Y-122692717D01*
X140604246Y-122692710D01*
X140602562Y-122689131D01*
X140433432Y-122422625D01*
X140232233Y-122179418D01*
X140002140Y-121963346D01*
X139746779Y-121777816D01*
X139470179Y-121625753D01*
X139466510Y-121624300D01*
X139466505Y-121624298D01*
X139180372Y-121511010D01*
X139180371Y-121511010D01*
X139176702Y-121509557D01*
X138870975Y-121431060D01*
X138557821Y-121391500D01*
X138242179Y-121391500D01*
X137929025Y-121431060D01*
X137623298Y-121509557D01*
X137619629Y-121511010D01*
X137619628Y-121511010D01*
X137333495Y-121624298D01*
X137333490Y-121624300D01*
X137329821Y-121625753D01*
X137053221Y-121777816D01*
X136797860Y-121963346D01*
X136567767Y-122179418D01*
X136366568Y-122422625D01*
X136197438Y-122689131D01*
X136195754Y-122692710D01*
X136195750Y-122692717D01*
X136064733Y-122971144D01*
X136063044Y-122974734D01*
X135965505Y-123274928D01*
X135906359Y-123584980D01*
X135886540Y-123900000D01*
X135906359Y-124215020D01*
X135965505Y-124525072D01*
X135966732Y-124528848D01*
X136028456Y-124718816D01*
X136030483Y-124789784D01*
X135993821Y-124850581D01*
X135930109Y-124881907D01*
X135859575Y-124873814D01*
X135819528Y-124846847D01*
X124795405Y-113822724D01*
X124761379Y-113760412D01*
X124758500Y-113733629D01*
X124758500Y-103800000D01*
X127086540Y-103800000D01*
X127106359Y-104115020D01*
X127165505Y-104425072D01*
X127263044Y-104725266D01*
X127264731Y-104728852D01*
X127264733Y-104728856D01*
X127395750Y-105007283D01*
X127395754Y-105007290D01*
X127397438Y-105010869D01*
X127566568Y-105277375D01*
X127569090Y-105280423D01*
X127569091Y-105280425D01*
X127746793Y-105495229D01*
X127767767Y-105520582D01*
X127997860Y-105736654D01*
X128253221Y-105922184D01*
X128256690Y-105924091D01*
X128256693Y-105924093D01*
X128461967Y-106036944D01*
X128529821Y-106074247D01*
X128533490Y-106075700D01*
X128533495Y-106075702D01*
X128650754Y-106122128D01*
X128823298Y-106190443D01*
X129129025Y-106268940D01*
X129442179Y-106308500D01*
X129757821Y-106308500D01*
X130070975Y-106268940D01*
X130376702Y-106190443D01*
X130549246Y-106122128D01*
X130666505Y-106075702D01*
X130666510Y-106075700D01*
X130670179Y-106074247D01*
X130738033Y-106036944D01*
X130943307Y-105924093D01*
X130943310Y-105924091D01*
X130946779Y-105922184D01*
X131202140Y-105736654D01*
X131432233Y-105520582D01*
X131453207Y-105495229D01*
X131630909Y-105280425D01*
X131630910Y-105280423D01*
X131633432Y-105277375D01*
X131802562Y-105010869D01*
X131804246Y-105007290D01*
X131804250Y-105007283D01*
X131935267Y-104728856D01*
X131935269Y-104728852D01*
X131936956Y-104725266D01*
X132034495Y-104425072D01*
X132093641Y-104115020D01*
X132113460Y-103800000D01*
X135886540Y-103800000D01*
X135906359Y-104115020D01*
X135965505Y-104425072D01*
X136063044Y-104725266D01*
X136064731Y-104728852D01*
X136064733Y-104728856D01*
X136195750Y-105007283D01*
X136195754Y-105007290D01*
X136197438Y-105010869D01*
X136366568Y-105277375D01*
X136369090Y-105280423D01*
X136369091Y-105280425D01*
X136546793Y-105495229D01*
X136567767Y-105520582D01*
X136797860Y-105736654D01*
X137053221Y-105922184D01*
X137056690Y-105924091D01*
X137056693Y-105924093D01*
X137261967Y-106036944D01*
X137329821Y-106074247D01*
X137333490Y-106075700D01*
X137333495Y-106075702D01*
X137450754Y-106122128D01*
X137623298Y-106190443D01*
X137929025Y-106268940D01*
X138242179Y-106308500D01*
X138557821Y-106308500D01*
X138870975Y-106268940D01*
X139176702Y-106190443D01*
X139349246Y-106122128D01*
X139466505Y-106075702D01*
X139466510Y-106075700D01*
X139470179Y-106074247D01*
X139538033Y-106036944D01*
X139743307Y-105924093D01*
X139743310Y-105924091D01*
X139746779Y-105922184D01*
X140002140Y-105736654D01*
X140232233Y-105520582D01*
X140253207Y-105495229D01*
X140430909Y-105280425D01*
X140430910Y-105280423D01*
X140433432Y-105277375D01*
X140602562Y-105010869D01*
X140604246Y-105007290D01*
X140604250Y-105007283D01*
X140735267Y-104728856D01*
X140735269Y-104728852D01*
X140736956Y-104725266D01*
X140834495Y-104425072D01*
X140893641Y-104115020D01*
X140913460Y-103800000D01*
X140893641Y-103484980D01*
X140834495Y-103174928D01*
X140744966Y-102899385D01*
X140738182Y-102878507D01*
X140738182Y-102878506D01*
X140736956Y-102874734D01*
X140735267Y-102871144D01*
X140604250Y-102592717D01*
X140604246Y-102592710D01*
X140602562Y-102589131D01*
X140433432Y-102322625D01*
X140232233Y-102079418D01*
X140213024Y-102061379D01*
X140193001Y-102042577D01*
X140002140Y-101863346D01*
X139746779Y-101677816D01*
X139729783Y-101668472D01*
X139473648Y-101527660D01*
X139473647Y-101527659D01*
X139470179Y-101525753D01*
X139466510Y-101524300D01*
X139466505Y-101524298D01*
X139180372Y-101411010D01*
X139180371Y-101411010D01*
X139176702Y-101409557D01*
X138870975Y-101331060D01*
X138557821Y-101291500D01*
X138242179Y-101291500D01*
X137929025Y-101331060D01*
X137623298Y-101409557D01*
X137619629Y-101411010D01*
X137619628Y-101411010D01*
X137333495Y-101524298D01*
X137333490Y-101524300D01*
X137329821Y-101525753D01*
X137326353Y-101527659D01*
X137326352Y-101527660D01*
X137070218Y-101668472D01*
X137053221Y-101677816D01*
X136797860Y-101863346D01*
X136606999Y-102042577D01*
X136586977Y-102061379D01*
X136567767Y-102079418D01*
X136366568Y-102322625D01*
X136197438Y-102589131D01*
X136195754Y-102592710D01*
X136195750Y-102592717D01*
X136064733Y-102871144D01*
X136063044Y-102874734D01*
X136061818Y-102878506D01*
X136061818Y-102878507D01*
X136055034Y-102899385D01*
X135965505Y-103174928D01*
X135906359Y-103484980D01*
X135886540Y-103800000D01*
X132113460Y-103800000D01*
X132093641Y-103484980D01*
X132034495Y-103174928D01*
X131944966Y-102899385D01*
X131938182Y-102878507D01*
X131938182Y-102878506D01*
X131936956Y-102874734D01*
X131935267Y-102871144D01*
X131804250Y-102592717D01*
X131804246Y-102592710D01*
X131802562Y-102589131D01*
X131633432Y-102322625D01*
X131432233Y-102079418D01*
X131413024Y-102061379D01*
X131393001Y-102042577D01*
X131202140Y-101863346D01*
X130946779Y-101677816D01*
X130929783Y-101668472D01*
X130673648Y-101527660D01*
X130673647Y-101527659D01*
X130670179Y-101525753D01*
X130666510Y-101524300D01*
X130666505Y-101524298D01*
X130380372Y-101411010D01*
X130380371Y-101411010D01*
X130376702Y-101409557D01*
X130070975Y-101331060D01*
X129757821Y-101291500D01*
X129442179Y-101291500D01*
X129129025Y-101331060D01*
X128823298Y-101409557D01*
X128819629Y-101411010D01*
X128819628Y-101411010D01*
X128533495Y-101524298D01*
X128533490Y-101524300D01*
X128529821Y-101525753D01*
X128526353Y-101527659D01*
X128526352Y-101527660D01*
X128270218Y-101668472D01*
X128253221Y-101677816D01*
X127997860Y-101863346D01*
X127806999Y-102042577D01*
X127786977Y-102061379D01*
X127767767Y-102079418D01*
X127566568Y-102322625D01*
X127397438Y-102589131D01*
X127395754Y-102592710D01*
X127395750Y-102592717D01*
X127264733Y-102871144D01*
X127263044Y-102874734D01*
X127261818Y-102878506D01*
X127261818Y-102878507D01*
X127255034Y-102899385D01*
X127165505Y-103174928D01*
X127106359Y-103484980D01*
X127086540Y-103800000D01*
X124758500Y-103800000D01*
X124758500Y-93598134D01*
X134341500Y-93598134D01*
X134348255Y-93660316D01*
X134399385Y-93796705D01*
X134486739Y-93913261D01*
X134603295Y-94000615D01*
X134739684Y-94051745D01*
X134801866Y-94058500D01*
X136598134Y-94058500D01*
X136660316Y-94051745D01*
X136796705Y-94000615D01*
X136913261Y-93913261D01*
X137000615Y-93796705D01*
X137051745Y-93660316D01*
X137058500Y-93598134D01*
X137058500Y-91801866D01*
X137051745Y-91739684D01*
X137000615Y-91603295D01*
X136913261Y-91486739D01*
X136796705Y-91399385D01*
X136660316Y-91348255D01*
X136598134Y-91341500D01*
X134801866Y-91341500D01*
X134739684Y-91348255D01*
X134603295Y-91399385D01*
X134486739Y-91486739D01*
X134399385Y-91603295D01*
X134348255Y-91739684D01*
X134341500Y-91801866D01*
X134341500Y-93598134D01*
X124758500Y-93598134D01*
X124758500Y-93167070D01*
X124759933Y-93148120D01*
X124762099Y-93133885D01*
X124762099Y-93133881D01*
X124763199Y-93126651D01*
X124758915Y-93073982D01*
X124758500Y-93063767D01*
X124758500Y-93055707D01*
X124755209Y-93027480D01*
X124754778Y-93023121D01*
X124749453Y-92957660D01*
X124748860Y-92950364D01*
X124746605Y-92943403D01*
X124745418Y-92937463D01*
X124744029Y-92931588D01*
X124743182Y-92924319D01*
X124718264Y-92855670D01*
X124716847Y-92851542D01*
X124696607Y-92789064D01*
X124696606Y-92789062D01*
X124694351Y-92782101D01*
X124690555Y-92775846D01*
X124688049Y-92770372D01*
X124685330Y-92764942D01*
X124682833Y-92758063D01*
X124642814Y-92697024D01*
X124640467Y-92693305D01*
X124602595Y-92630893D01*
X124595197Y-92622516D01*
X124595224Y-92622492D01*
X124592571Y-92619500D01*
X124589868Y-92616267D01*
X124585856Y-92610148D01*
X124529617Y-92556872D01*
X124527175Y-92554494D01*
X121320125Y-89347444D01*
X121289387Y-89297285D01*
X121236569Y-89134729D01*
X121234527Y-89128444D01*
X121139040Y-88963056D01*
X121052059Y-88866453D01*
X121015675Y-88826045D01*
X121015674Y-88826044D01*
X121011253Y-88821134D01*
X120856752Y-88708882D01*
X120850724Y-88706198D01*
X120850722Y-88706197D01*
X120688319Y-88633891D01*
X120688318Y-88633891D01*
X120682288Y-88631206D01*
X120675833Y-88629834D01*
X120675824Y-88629831D01*
X120619228Y-88617801D01*
X120556331Y-88583650D01*
X120070815Y-88098134D01*
X134341500Y-88098134D01*
X134348255Y-88160316D01*
X134399385Y-88296705D01*
X134486739Y-88413261D01*
X134603295Y-88500615D01*
X134739684Y-88551745D01*
X134801866Y-88558500D01*
X136598134Y-88558500D01*
X136660316Y-88551745D01*
X136796705Y-88500615D01*
X136913261Y-88413261D01*
X137000615Y-88296705D01*
X137051745Y-88160316D01*
X137058500Y-88098134D01*
X137058500Y-86301866D01*
X137051745Y-86239684D01*
X137000615Y-86103295D01*
X136913261Y-85986739D01*
X136796705Y-85899385D01*
X136660316Y-85848255D01*
X136598134Y-85841500D01*
X134801866Y-85841500D01*
X134739684Y-85848255D01*
X134603295Y-85899385D01*
X134486739Y-85986739D01*
X134399385Y-86103295D01*
X134348255Y-86239684D01*
X134341500Y-86301866D01*
X134341500Y-88098134D01*
X120070815Y-88098134D01*
X118795405Y-86822724D01*
X118761379Y-86760412D01*
X118758500Y-86733629D01*
X118758500Y-81236999D01*
X118775381Y-81173999D01*
X118775407Y-81173955D01*
X118834527Y-81071556D01*
X118893542Y-80889928D01*
X118894872Y-80877279D01*
X118912814Y-80706565D01*
X118913504Y-80700000D01*
X118893542Y-80510072D01*
X118834527Y-80328444D01*
X118775381Y-80226000D01*
X118758500Y-80163001D01*
X118758500Y-79206695D01*
X124437251Y-79206695D01*
X124437548Y-79211848D01*
X124437548Y-79211851D01*
X124442855Y-79303891D01*
X124450110Y-79429715D01*
X124451247Y-79434761D01*
X124451248Y-79434767D01*
X124466799Y-79503768D01*
X124499222Y-79647639D01*
X124583266Y-79854616D01*
X124607778Y-79894616D01*
X124688291Y-80026001D01*
X124699987Y-80045088D01*
X124846250Y-80213938D01*
X125018126Y-80356632D01*
X125211000Y-80469338D01*
X125215825Y-80471180D01*
X125215826Y-80471181D01*
X125264341Y-80489707D01*
X125419692Y-80549030D01*
X125424760Y-80550061D01*
X125424763Y-80550062D01*
X125532017Y-80571883D01*
X125638597Y-80593567D01*
X125643772Y-80593757D01*
X125643774Y-80593757D01*
X125856673Y-80601564D01*
X125856677Y-80601564D01*
X125861837Y-80601753D01*
X125866957Y-80601097D01*
X125866959Y-80601097D01*
X126078288Y-80574025D01*
X126078289Y-80574025D01*
X126083416Y-80573368D01*
X126145806Y-80554650D01*
X126292429Y-80510661D01*
X126292434Y-80510659D01*
X126297384Y-80509174D01*
X126497994Y-80410896D01*
X126679860Y-80281173D01*
X126707191Y-80253938D01*
X126814136Y-80147365D01*
X126838096Y-80123489D01*
X126875544Y-80071375D01*
X126965435Y-79946277D01*
X126968453Y-79942077D01*
X126971882Y-79935140D01*
X127065136Y-79746453D01*
X127065137Y-79746451D01*
X127067430Y-79741811D01*
X127132370Y-79528069D01*
X127161529Y-79306590D01*
X127161976Y-79288297D01*
X127162993Y-79246695D01*
X134337251Y-79246695D01*
X134337548Y-79251848D01*
X134337548Y-79251851D01*
X134343011Y-79346590D01*
X134350110Y-79469715D01*
X134351247Y-79474761D01*
X134351248Y-79474767D01*
X134369865Y-79557375D01*
X134399222Y-79687639D01*
X134483266Y-79894616D01*
X134494297Y-79912617D01*
X134591584Y-80071375D01*
X134599987Y-80085088D01*
X134746250Y-80253938D01*
X134918126Y-80396632D01*
X135111000Y-80509338D01*
X135115825Y-80511180D01*
X135115826Y-80511181D01*
X135130109Y-80516635D01*
X135319692Y-80589030D01*
X135324760Y-80590061D01*
X135324763Y-80590062D01*
X135381298Y-80601564D01*
X135538597Y-80633567D01*
X135543772Y-80633757D01*
X135543774Y-80633757D01*
X135756673Y-80641564D01*
X135756677Y-80641564D01*
X135761837Y-80641753D01*
X135766957Y-80641097D01*
X135766959Y-80641097D01*
X135978288Y-80614025D01*
X135978289Y-80614025D01*
X135983416Y-80613368D01*
X135988366Y-80611883D01*
X136192429Y-80550661D01*
X136192434Y-80550659D01*
X136197384Y-80549174D01*
X136397994Y-80450896D01*
X136579860Y-80321173D01*
X136738096Y-80163489D01*
X136764218Y-80127137D01*
X136865435Y-79986277D01*
X136868453Y-79982077D01*
X136886147Y-79946277D01*
X136965136Y-79786453D01*
X136965137Y-79786451D01*
X136967430Y-79781811D01*
X137032370Y-79568069D01*
X137061529Y-79346590D01*
X137062425Y-79309908D01*
X137063074Y-79283365D01*
X137063074Y-79283361D01*
X137063156Y-79280000D01*
X137044852Y-79057361D01*
X136990431Y-78840702D01*
X136901354Y-78635840D01*
X136846765Y-78551458D01*
X136782822Y-78452617D01*
X136782820Y-78452614D01*
X136780014Y-78448277D01*
X136629670Y-78283051D01*
X136625619Y-78279852D01*
X136625615Y-78279848D01*
X136458414Y-78147800D01*
X136458410Y-78147798D01*
X136454359Y-78144598D01*
X136413053Y-78121796D01*
X136363084Y-78071364D01*
X136348312Y-78001921D01*
X136373428Y-77935516D01*
X136400780Y-77908909D01*
X136460783Y-77866109D01*
X136579860Y-77781173D01*
X136738096Y-77623489D01*
X136797594Y-77540689D01*
X136865435Y-77446277D01*
X136868453Y-77442077D01*
X136903307Y-77371556D01*
X136965136Y-77246453D01*
X136965137Y-77246451D01*
X136967430Y-77241811D01*
X137032370Y-77028069D01*
X137061529Y-76806590D01*
X137063156Y-76740000D01*
X137044852Y-76517361D01*
X136990431Y-76300702D01*
X136901354Y-76095840D01*
X136854269Y-76023057D01*
X136782822Y-75912617D01*
X136782820Y-75912614D01*
X136780014Y-75908277D01*
X136776532Y-75904450D01*
X136632798Y-75746488D01*
X136601746Y-75682642D01*
X136610141Y-75612143D01*
X136655317Y-75557375D01*
X136681761Y-75543706D01*
X136788297Y-75503767D01*
X136796705Y-75500615D01*
X136913261Y-75413261D01*
X137000615Y-75296705D01*
X137051745Y-75160316D01*
X137058500Y-75098134D01*
X137058500Y-73301866D01*
X137051745Y-73239684D01*
X137000615Y-73103295D01*
X136913261Y-72986739D01*
X136796705Y-72899385D01*
X136660316Y-72848255D01*
X136598134Y-72841500D01*
X134801866Y-72841500D01*
X134739684Y-72848255D01*
X134603295Y-72899385D01*
X134486739Y-72986739D01*
X134399385Y-73103295D01*
X134348255Y-73239684D01*
X134341500Y-73301866D01*
X134341500Y-75098134D01*
X134348255Y-75160316D01*
X134399385Y-75296705D01*
X134486739Y-75413261D01*
X134603295Y-75500615D01*
X134611704Y-75503767D01*
X134611705Y-75503768D01*
X134720451Y-75544535D01*
X134777216Y-75587176D01*
X134801916Y-75653738D01*
X134786709Y-75723087D01*
X134767316Y-75749568D01*
X134640629Y-75882138D01*
X134514743Y-76066680D01*
X134420688Y-76269305D01*
X134360989Y-76484570D01*
X134337251Y-76706695D01*
X134337548Y-76711848D01*
X134337548Y-76711851D01*
X134343590Y-76816635D01*
X134350110Y-76929715D01*
X134351247Y-76934761D01*
X134351248Y-76934767D01*
X134367429Y-77006565D01*
X134399222Y-77147639D01*
X134483266Y-77354616D01*
X134599987Y-77545088D01*
X134746250Y-77713938D01*
X134918126Y-77856632D01*
X134934344Y-77866109D01*
X134991445Y-77899476D01*
X135040169Y-77951114D01*
X135053240Y-78020897D01*
X135026509Y-78086669D01*
X134986055Y-78120027D01*
X134973607Y-78126507D01*
X134969474Y-78129610D01*
X134969471Y-78129612D01*
X134799100Y-78257530D01*
X134794965Y-78260635D01*
X134791393Y-78264373D01*
X134663702Y-78397994D01*
X134640629Y-78422138D01*
X134637715Y-78426410D01*
X134637714Y-78426411D01*
X134617337Y-78456283D01*
X134514743Y-78606680D01*
X134499003Y-78640590D01*
X134441435Y-78764610D01*
X134420688Y-78809305D01*
X134360989Y-79024570D01*
X134337251Y-79246695D01*
X127162993Y-79246695D01*
X127163074Y-79243365D01*
X127163074Y-79243361D01*
X127163156Y-79240000D01*
X127144852Y-79017361D01*
X127090431Y-78800702D01*
X127001354Y-78595840D01*
X126912575Y-78458608D01*
X126882822Y-78412617D01*
X126882820Y-78412614D01*
X126880014Y-78408277D01*
X126876532Y-78404450D01*
X126732798Y-78246488D01*
X126701746Y-78182642D01*
X126710141Y-78112143D01*
X126755317Y-78057375D01*
X126781761Y-78043706D01*
X126888297Y-78003767D01*
X126896705Y-78000615D01*
X127013261Y-77913261D01*
X127100615Y-77796705D01*
X127151745Y-77660316D01*
X127158500Y-77598134D01*
X127158500Y-75801866D01*
X127151745Y-75739684D01*
X127100615Y-75603295D01*
X127013261Y-75486739D01*
X126896705Y-75399385D01*
X126760316Y-75348255D01*
X126698134Y-75341500D01*
X124901866Y-75341500D01*
X124839684Y-75348255D01*
X124703295Y-75399385D01*
X124586739Y-75486739D01*
X124499385Y-75603295D01*
X124448255Y-75739684D01*
X124441500Y-75801866D01*
X124441500Y-77598134D01*
X124448255Y-77660316D01*
X124499385Y-77796705D01*
X124586739Y-77913261D01*
X124703295Y-78000615D01*
X124711704Y-78003767D01*
X124711705Y-78003768D01*
X124820451Y-78044535D01*
X124877216Y-78087176D01*
X124901916Y-78153738D01*
X124886709Y-78223087D01*
X124867316Y-78249568D01*
X124740629Y-78382138D01*
X124614743Y-78566680D01*
X124520688Y-78769305D01*
X124460989Y-78984570D01*
X124437251Y-79206695D01*
X118758500Y-79206695D01*
X118758500Y-65036999D01*
X118775381Y-64973999D01*
X118831223Y-64877279D01*
X118831224Y-64877278D01*
X118834527Y-64871556D01*
X118893542Y-64689928D01*
X118913504Y-64500000D01*
X118909667Y-64463489D01*
X118894232Y-64316635D01*
X118894232Y-64316633D01*
X118893542Y-64310072D01*
X118834527Y-64128444D01*
X118810284Y-64086453D01*
X118742341Y-63968774D01*
X118739040Y-63963056D01*
X118653514Y-63868069D01*
X118615675Y-63826045D01*
X118615674Y-63826044D01*
X118611253Y-63821134D01*
X118456752Y-63708882D01*
X118450724Y-63706198D01*
X118450722Y-63706197D01*
X118288319Y-63633891D01*
X118288318Y-63633891D01*
X118282288Y-63631206D01*
X118188888Y-63611353D01*
X118101944Y-63592872D01*
X118101939Y-63592872D01*
X118095487Y-63591500D01*
X117904513Y-63591500D01*
X117898061Y-63592872D01*
X117898056Y-63592872D01*
X117811112Y-63611353D01*
X117717712Y-63631206D01*
X117711682Y-63633891D01*
X117711681Y-63633891D01*
X117549278Y-63706197D01*
X117549276Y-63706198D01*
X117543248Y-63708882D01*
X117388747Y-63821134D01*
X117384326Y-63826044D01*
X117384325Y-63826045D01*
X117346487Y-63868069D01*
X117260960Y-63963056D01*
X117257659Y-63968774D01*
X117189717Y-64086453D01*
X117165473Y-64128444D01*
X117106458Y-64310072D01*
X117105768Y-64316633D01*
X117105768Y-64316635D01*
X117090333Y-64463489D01*
X117086496Y-64500000D01*
X117106458Y-64689928D01*
X117165473Y-64871556D01*
X117168776Y-64877278D01*
X117168777Y-64877279D01*
X117224619Y-64973999D01*
X117241500Y-65036999D01*
X117241500Y-80163001D01*
X117224619Y-80226000D01*
X117165473Y-80328444D01*
X117106458Y-80510072D01*
X117086496Y-80700000D01*
X107164640Y-80700000D01*
X107313887Y-80550753D01*
X107337269Y-80517361D01*
X107411816Y-80410896D01*
X107446216Y-80361768D01*
X107448539Y-80356786D01*
X107448542Y-80356781D01*
X107523159Y-80196762D01*
X107543717Y-80152676D01*
X107603429Y-79929830D01*
X107623536Y-79700000D01*
X107603429Y-79470170D01*
X107543717Y-79247324D01*
X107474149Y-79098134D01*
X107448542Y-79043219D01*
X107448539Y-79043214D01*
X107446216Y-79038232D01*
X107313887Y-78849247D01*
X107150753Y-78686113D01*
X107146245Y-78682956D01*
X107146242Y-78682954D01*
X106974074Y-78562401D01*
X106961768Y-78553784D01*
X106956786Y-78551461D01*
X106956781Y-78551458D01*
X106850442Y-78501872D01*
X106752676Y-78456283D01*
X106529830Y-78396571D01*
X106300000Y-78376464D01*
X106070170Y-78396571D01*
X105847324Y-78456283D01*
X105749558Y-78501872D01*
X105643219Y-78551458D01*
X105643214Y-78551461D01*
X105638232Y-78553784D01*
X105625926Y-78562401D01*
X105453758Y-78682954D01*
X105453755Y-78682956D01*
X105449247Y-78686113D01*
X105286113Y-78849247D01*
X105153784Y-79038232D01*
X105151461Y-79043214D01*
X105151458Y-79043219D01*
X105125851Y-79098134D01*
X105056283Y-79247324D01*
X104996571Y-79470170D01*
X104976464Y-79700000D01*
X87533500Y-79700000D01*
X87533500Y-77000000D01*
X87886496Y-77000000D01*
X87887186Y-77006565D01*
X87897353Y-77103295D01*
X87906458Y-77189928D01*
X87965473Y-77371556D01*
X88060960Y-77536944D01*
X88065378Y-77541851D01*
X88065379Y-77541852D01*
X88184325Y-77673955D01*
X88188747Y-77678866D01*
X88343248Y-77791118D01*
X88349276Y-77793802D01*
X88349278Y-77793803D01*
X88511681Y-77866109D01*
X88517712Y-77868794D01*
X88611113Y-77888647D01*
X88698056Y-77907128D01*
X88698061Y-77907128D01*
X88704513Y-77908500D01*
X88895487Y-77908500D01*
X88901939Y-77907128D01*
X88901944Y-77907128D01*
X88988887Y-77888647D01*
X89082288Y-77868794D01*
X89088319Y-77866109D01*
X89250722Y-77793803D01*
X89250724Y-77793802D01*
X89256752Y-77791118D01*
X89411253Y-77678866D01*
X89415675Y-77673955D01*
X89534621Y-77541852D01*
X89534622Y-77541851D01*
X89539040Y-77536944D01*
X89634527Y-77371556D01*
X89689387Y-77202714D01*
X89720125Y-77152556D01*
X92172681Y-74700000D01*
X102476464Y-74700000D01*
X102496571Y-74929830D01*
X102556283Y-75152676D01*
X102558608Y-75157661D01*
X102651458Y-75356781D01*
X102651461Y-75356786D01*
X102653784Y-75361768D01*
X102689840Y-75413261D01*
X102781179Y-75543706D01*
X102786113Y-75550753D01*
X102949247Y-75713887D01*
X102953755Y-75717044D01*
X102953758Y-75717046D01*
X103032630Y-75772272D01*
X103138232Y-75846216D01*
X103143214Y-75848539D01*
X103143219Y-75848542D01*
X103249558Y-75898128D01*
X103347324Y-75943717D01*
X103570170Y-76003429D01*
X103800000Y-76023536D01*
X104029830Y-76003429D01*
X104252676Y-75943717D01*
X104350442Y-75898128D01*
X104456781Y-75848542D01*
X104456786Y-75848539D01*
X104461768Y-75846216D01*
X104567370Y-75772272D01*
X104646242Y-75717046D01*
X104646245Y-75717044D01*
X104650753Y-75713887D01*
X104813887Y-75550753D01*
X104818822Y-75543706D01*
X104910160Y-75413261D01*
X104946216Y-75361768D01*
X104948539Y-75356786D01*
X104948542Y-75356781D01*
X105041392Y-75157661D01*
X105043717Y-75152676D01*
X105103429Y-74929830D01*
X105123536Y-74700000D01*
X107476464Y-74700000D01*
X107496571Y-74929830D01*
X107556283Y-75152676D01*
X107558608Y-75157661D01*
X107651458Y-75356781D01*
X107651461Y-75356786D01*
X107653784Y-75361768D01*
X107689840Y-75413261D01*
X107781179Y-75543706D01*
X107786113Y-75550753D01*
X107949247Y-75713887D01*
X107953755Y-75717044D01*
X107953758Y-75717046D01*
X108032630Y-75772272D01*
X108138232Y-75846216D01*
X108143214Y-75848539D01*
X108143219Y-75848542D01*
X108249558Y-75898128D01*
X108347324Y-75943717D01*
X108570170Y-76003429D01*
X108800000Y-76023536D01*
X109029830Y-76003429D01*
X109252676Y-75943717D01*
X109350442Y-75898128D01*
X109456781Y-75848542D01*
X109456786Y-75848539D01*
X109461768Y-75846216D01*
X109567370Y-75772272D01*
X109646242Y-75717046D01*
X109646245Y-75717044D01*
X109650753Y-75713887D01*
X109813887Y-75550753D01*
X109818822Y-75543706D01*
X109910160Y-75413261D01*
X109946216Y-75361768D01*
X109948539Y-75356786D01*
X109948542Y-75356781D01*
X110041392Y-75157661D01*
X110043717Y-75152676D01*
X110103429Y-74929830D01*
X110123536Y-74700000D01*
X110103429Y-74470170D01*
X110043717Y-74247324D01*
X109998128Y-74149558D01*
X109948542Y-74043219D01*
X109948539Y-74043214D01*
X109946216Y-74038232D01*
X109813887Y-73849247D01*
X109650753Y-73686113D01*
X109646245Y-73682956D01*
X109646242Y-73682954D01*
X109567370Y-73627728D01*
X109461768Y-73553784D01*
X109456786Y-73551461D01*
X109456781Y-73551458D01*
X109350442Y-73501872D01*
X109252676Y-73456283D01*
X109029830Y-73396571D01*
X108800000Y-73376464D01*
X108570170Y-73396571D01*
X108347324Y-73456283D01*
X108249558Y-73501872D01*
X108143219Y-73551458D01*
X108143214Y-73551461D01*
X108138232Y-73553784D01*
X108032630Y-73627728D01*
X107953758Y-73682954D01*
X107953755Y-73682956D01*
X107949247Y-73686113D01*
X107786113Y-73849247D01*
X107653784Y-74038232D01*
X107651461Y-74043214D01*
X107651458Y-74043219D01*
X107601872Y-74149558D01*
X107556283Y-74247324D01*
X107496571Y-74470170D01*
X107476464Y-74700000D01*
X105123536Y-74700000D01*
X105103429Y-74470170D01*
X105043717Y-74247324D01*
X104998128Y-74149558D01*
X104948542Y-74043219D01*
X104948539Y-74043214D01*
X104946216Y-74038232D01*
X104813887Y-73849247D01*
X104650753Y-73686113D01*
X104646245Y-73682956D01*
X104646242Y-73682954D01*
X104567370Y-73627728D01*
X104461768Y-73553784D01*
X104456786Y-73551461D01*
X104456781Y-73551458D01*
X104350442Y-73501872D01*
X104252676Y-73456283D01*
X104029830Y-73396571D01*
X103800000Y-73376464D01*
X103570170Y-73396571D01*
X103347324Y-73456283D01*
X103249558Y-73501872D01*
X103143219Y-73551458D01*
X103143214Y-73551461D01*
X103138232Y-73553784D01*
X103032630Y-73627728D01*
X102953758Y-73682954D01*
X102953755Y-73682956D01*
X102949247Y-73686113D01*
X102786113Y-73849247D01*
X102653784Y-74038232D01*
X102651461Y-74043214D01*
X102651458Y-74043219D01*
X102601872Y-74149558D01*
X102556283Y-74247324D01*
X102496571Y-74470170D01*
X102476464Y-74700000D01*
X92172681Y-74700000D01*
X94288911Y-72583770D01*
X94303323Y-72571384D01*
X94314918Y-72562851D01*
X94314923Y-72562846D01*
X94320818Y-72558508D01*
X94325557Y-72552930D01*
X94325560Y-72552927D01*
X94355035Y-72518232D01*
X94361965Y-72510716D01*
X94367661Y-72505020D01*
X94369924Y-72502159D01*
X94369929Y-72502154D01*
X94385293Y-72482734D01*
X94388082Y-72479333D01*
X94389743Y-72477378D01*
X94435333Y-72423715D01*
X94438659Y-72417202D01*
X94442020Y-72412163D01*
X94445196Y-72407021D01*
X94449734Y-72401284D01*
X94480655Y-72335125D01*
X94482561Y-72331225D01*
X94496642Y-72303649D01*
X94515769Y-72266192D01*
X94517508Y-72259083D01*
X94519604Y-72253449D01*
X94521523Y-72247679D01*
X94524622Y-72241050D01*
X94539491Y-72169565D01*
X94540461Y-72165282D01*
X94543625Y-72152351D01*
X94557808Y-72094390D01*
X94558500Y-72083236D01*
X94558535Y-72083238D01*
X94558775Y-72079266D01*
X94559152Y-72075045D01*
X94560641Y-72067885D01*
X94558546Y-71990458D01*
X94558500Y-71987050D01*
X94558500Y-59636999D01*
X94575381Y-59573999D01*
X94631223Y-59477279D01*
X94631224Y-59477278D01*
X94634527Y-59471556D01*
X94693542Y-59289928D01*
X94709136Y-59141564D01*
X94712814Y-59106565D01*
X94713504Y-59100000D01*
X94693542Y-58910072D01*
X94634527Y-58728444D01*
X94539040Y-58563056D01*
X94411253Y-58421134D01*
X94256752Y-58308882D01*
X94250724Y-58306198D01*
X94250722Y-58306197D01*
X94088319Y-58233891D01*
X94088318Y-58233891D01*
X94082288Y-58231206D01*
X93988887Y-58211353D01*
X93901944Y-58192872D01*
X93901939Y-58192872D01*
X93895487Y-58191500D01*
X93704513Y-58191500D01*
X93698061Y-58192872D01*
X93698056Y-58192872D01*
X93611113Y-58211353D01*
X93517712Y-58231206D01*
X93511682Y-58233891D01*
X93511681Y-58233891D01*
X93349278Y-58306197D01*
X93349276Y-58306198D01*
X93343248Y-58308882D01*
X93188747Y-58421134D01*
X93060960Y-58563056D01*
X92965473Y-58728444D01*
X92906458Y-58910072D01*
X92886496Y-59100000D01*
X92887186Y-59106565D01*
X92890865Y-59141564D01*
X92906458Y-59289928D01*
X92965473Y-59471556D01*
X92968776Y-59477278D01*
X92968777Y-59477279D01*
X93024619Y-59573999D01*
X93041500Y-59636999D01*
X93041500Y-71633629D01*
X93021498Y-71701750D01*
X93004595Y-71722724D01*
X88643669Y-76083650D01*
X88580772Y-76117801D01*
X88524176Y-76129831D01*
X88524167Y-76129834D01*
X88517712Y-76131206D01*
X88511682Y-76133891D01*
X88511681Y-76133891D01*
X88349278Y-76206197D01*
X88349276Y-76206198D01*
X88343248Y-76208882D01*
X88188747Y-76321134D01*
X88060960Y-76463056D01*
X87965473Y-76628444D01*
X87906458Y-76810072D01*
X87905768Y-76816633D01*
X87905768Y-76816635D01*
X87902445Y-76848255D01*
X87886496Y-77000000D01*
X87533500Y-77000000D01*
X87533500Y-71180301D01*
X87550381Y-71117301D01*
X87631223Y-70977279D01*
X87631224Y-70977278D01*
X87634527Y-70971556D01*
X87693542Y-70789928D01*
X87713504Y-70600000D01*
X87693542Y-70410072D01*
X87634527Y-70228444D01*
X87539040Y-70063056D01*
X87411253Y-69921134D01*
X87256752Y-69808882D01*
X87250724Y-69806198D01*
X87250722Y-69806197D01*
X87088319Y-69733891D01*
X87088318Y-69733891D01*
X87082288Y-69731206D01*
X86988888Y-69711353D01*
X86901944Y-69692872D01*
X86901939Y-69692872D01*
X86895487Y-69691500D01*
X86704513Y-69691500D01*
X86698061Y-69692872D01*
X86698056Y-69692872D01*
X86611112Y-69711353D01*
X86517712Y-69731206D01*
X86511682Y-69733891D01*
X86511681Y-69733891D01*
X86349278Y-69806197D01*
X86349276Y-69806198D01*
X86343248Y-69808882D01*
X86188747Y-69921134D01*
X86060960Y-70063056D01*
X85965473Y-70228444D01*
X85906458Y-70410072D01*
X85886496Y-70600000D01*
X85906458Y-70789928D01*
X85965473Y-70971556D01*
X85968776Y-70977278D01*
X85968777Y-70977279D01*
X85999619Y-71030698D01*
X86016500Y-71093698D01*
X86016500Y-79963001D01*
X85999619Y-80026001D01*
X85956555Y-80100590D01*
X85940473Y-80128444D01*
X85881458Y-80310072D01*
X85880768Y-80316633D01*
X85880768Y-80316635D01*
X85875551Y-80366276D01*
X85861496Y-80500000D01*
X85458500Y-80500000D01*
X85458500Y-63267070D01*
X85459933Y-63248120D01*
X85462099Y-63233885D01*
X85462099Y-63233881D01*
X85463199Y-63226651D01*
X85458915Y-63173982D01*
X85458500Y-63163767D01*
X85458500Y-63155707D01*
X85455209Y-63127480D01*
X85454778Y-63123121D01*
X85449453Y-63057660D01*
X85448860Y-63050364D01*
X85446605Y-63043403D01*
X85445418Y-63037463D01*
X85444029Y-63031588D01*
X85443182Y-63024319D01*
X85418264Y-62955670D01*
X85416847Y-62951542D01*
X85396607Y-62889064D01*
X85396606Y-62889062D01*
X85394351Y-62882101D01*
X85390555Y-62875846D01*
X85388049Y-62870372D01*
X85385330Y-62864942D01*
X85382833Y-62858063D01*
X85342814Y-62797024D01*
X85340467Y-62793305D01*
X85315777Y-62752617D01*
X85302595Y-62730893D01*
X85295197Y-62722516D01*
X85295224Y-62722492D01*
X85292571Y-62719500D01*
X85289868Y-62716267D01*
X85285856Y-62710148D01*
X85229617Y-62656872D01*
X85227175Y-62654494D01*
X83720125Y-61147444D01*
X83689387Y-61097285D01*
X83636569Y-60934729D01*
X83634527Y-60928444D01*
X83539040Y-60763056D01*
X83411253Y-60621134D01*
X83256752Y-60508882D01*
X83250724Y-60506198D01*
X83250722Y-60506197D01*
X83088319Y-60433891D01*
X83088318Y-60433891D01*
X83082288Y-60431206D01*
X82988887Y-60411353D01*
X82901944Y-60392872D01*
X82901939Y-60392872D01*
X82895487Y-60391500D01*
X82704513Y-60391500D01*
X82698061Y-60392872D01*
X82698056Y-60392872D01*
X82611113Y-60411353D01*
X82517712Y-60431206D01*
X82511682Y-60433891D01*
X82511681Y-60433891D01*
X82349278Y-60506197D01*
X82349276Y-60506198D01*
X82343248Y-60508882D01*
X82188747Y-60621134D01*
X82060960Y-60763056D01*
X81965473Y-60928444D01*
X81906458Y-61110072D01*
X81886496Y-61300000D01*
X76672681Y-61300000D01*
X72663770Y-57291089D01*
X72651384Y-57276677D01*
X72642851Y-57265082D01*
X72642846Y-57265077D01*
X72638508Y-57259182D01*
X72632930Y-57254443D01*
X72632927Y-57254440D01*
X72598232Y-57224965D01*
X72590716Y-57218035D01*
X72585021Y-57212340D01*
X72578880Y-57207482D01*
X72562749Y-57194719D01*
X72559345Y-57191928D01*
X72509297Y-57149409D01*
X72509295Y-57149408D01*
X72503715Y-57144667D01*
X72497199Y-57141339D01*
X72492150Y-57137972D01*
X72487021Y-57134805D01*
X72481284Y-57130266D01*
X72415125Y-57099345D01*
X72411225Y-57097439D01*
X72346192Y-57064231D01*
X72339084Y-57062492D01*
X72333441Y-57060393D01*
X72327678Y-57058476D01*
X72321050Y-57055378D01*
X72249583Y-57040513D01*
X72245299Y-57039543D01*
X72174390Y-57022192D01*
X72168788Y-57021844D01*
X72168785Y-57021844D01*
X72163236Y-57021500D01*
X72163238Y-57021464D01*
X72159245Y-57021225D01*
X72155053Y-57020851D01*
X72147885Y-57019360D01*
X72081675Y-57021151D01*
X72070479Y-57021454D01*
X72067072Y-57021500D01*
X63995939Y-57021500D01*
X63927818Y-57001498D01*
X63890147Y-56963941D01*
X63882818Y-56952612D01*
X63880014Y-56948277D01*
X63729670Y-56783051D01*
X63725619Y-56779852D01*
X63725615Y-56779848D01*
X63558414Y-56647800D01*
X63558410Y-56647798D01*
X63554359Y-56644598D01*
X63512569Y-56621529D01*
X63462598Y-56571097D01*
X63447826Y-56501654D01*
X63472942Y-56435248D01*
X63500294Y-56408641D01*
X63675328Y-56283792D01*
X63683200Y-56277139D01*
X63834052Y-56126812D01*
X63840730Y-56118965D01*
X63965003Y-55946020D01*
X63970313Y-55937183D01*
X64064670Y-55746267D01*
X64068469Y-55736672D01*
X64130377Y-55532910D01*
X64132555Y-55522837D01*
X64133986Y-55511962D01*
X64131775Y-55497778D01*
X64118617Y-55494000D01*
X61483225Y-55494000D01*
X61469694Y-55497973D01*
X61468257Y-55507966D01*
X61498565Y-55642446D01*
X61501645Y-55652275D01*
X61581770Y-55849603D01*
X61586413Y-55858794D01*
X61697694Y-56040388D01*
X61703777Y-56048699D01*
X61843213Y-56209667D01*
X61850580Y-56216883D01*
X62014434Y-56352916D01*
X62022881Y-56358831D01*
X62091969Y-56399203D01*
X62140693Y-56450842D01*
X62153764Y-56520625D01*
X62127033Y-56586396D01*
X62086584Y-56619752D01*
X62073607Y-56626507D01*
X62069474Y-56629610D01*
X62069471Y-56629612D01*
X62045247Y-56647800D01*
X61894965Y-56760635D01*
X61740629Y-56922138D01*
X61614743Y-57106680D01*
X61603795Y-57130266D01*
X61529144Y-57291089D01*
X61520688Y-57309305D01*
X61460989Y-57524570D01*
X61437251Y-57746695D01*
X50508500Y-57746695D01*
X50508500Y-53598134D01*
X61441500Y-53598134D01*
X61448255Y-53660316D01*
X61499385Y-53796705D01*
X61586739Y-53913261D01*
X61703295Y-54000615D01*
X61711704Y-54003767D01*
X61711705Y-54003768D01*
X61820960Y-54044726D01*
X61877725Y-54087367D01*
X61902425Y-54153929D01*
X61887218Y-54223278D01*
X61867825Y-54249759D01*
X61744590Y-54378717D01*
X61738104Y-54386727D01*
X61618098Y-54562649D01*
X61613000Y-54571623D01*
X61523338Y-54764783D01*
X61519775Y-54774470D01*
X61464389Y-54974183D01*
X61465912Y-54982607D01*
X61478292Y-54986000D01*
X64118344Y-54986000D01*
X64131875Y-54982027D01*
X64133180Y-54972947D01*
X64091214Y-54805875D01*
X64087894Y-54796124D01*
X64002972Y-54600814D01*
X63998105Y-54591739D01*
X63882426Y-54412926D01*
X63876136Y-54404757D01*
X63732293Y-54246677D01*
X63701241Y-54182831D01*
X63709635Y-54112333D01*
X63754812Y-54057564D01*
X63781256Y-54043895D01*
X63888297Y-54003767D01*
X63896705Y-54000615D01*
X64013261Y-53913261D01*
X64100615Y-53796705D01*
X64151745Y-53660316D01*
X64158500Y-53598134D01*
X64158500Y-51801866D01*
X64151745Y-51739684D01*
X64100615Y-51603295D01*
X64013261Y-51486739D01*
X63896705Y-51399385D01*
X63760316Y-51348255D01*
X63698134Y-51341500D01*
X61901866Y-51341500D01*
X61839684Y-51348255D01*
X61703295Y-51399385D01*
X61586739Y-51486739D01*
X61499385Y-51603295D01*
X61448255Y-51739684D01*
X61441500Y-51801866D01*
X61441500Y-53598134D01*
X50508500Y-53598134D01*
X50508500Y-50634500D01*
X50528502Y-50566379D01*
X50582158Y-50519886D01*
X50634500Y-50508500D01*
X147065500Y-50508500D01*
X147133621Y-50528502D01*
G37*
%TD.AperFunction*%
%TD*%
M02*
