%TF.GenerationSoftware,KiCad,Pcbnew,7.0.7*%
%TF.CreationDate,2023-08-21T15:50:53+01:00*%
%TF.ProjectId,Quadraphone_Controls_v3,51756164-7261-4706-986f-6e655f436f6e,rev?*%
%TF.SameCoordinates,Original*%
%TF.FileFunction,Soldermask,Bot*%
%TF.FilePolarity,Negative*%
%FSLAX46Y46*%
G04 Gerber Fmt 4.6, Leading zero omitted, Abs format (unit mm)*
G04 Created by KiCad (PCBNEW 7.0.7) date 2023-08-21 15:50:53*
%MOMM*%
%LPD*%
G01*
G04 APERTURE LIST*
G04 Aperture macros list*
%AMRoundRect*
0 Rectangle with rounded corners*
0 $1 Rounding radius*
0 $2 $3 $4 $5 $6 $7 $8 $9 X,Y pos of 4 corners*
0 Add a 4 corners polygon primitive as box body*
4,1,4,$2,$3,$4,$5,$6,$7,$8,$9,$2,$3,0*
0 Add four circle primitives for the rounded corners*
1,1,$1+$1,$2,$3*
1,1,$1+$1,$4,$5*
1,1,$1+$1,$6,$7*
1,1,$1+$1,$8,$9*
0 Add four rect primitives between the rounded corners*
20,1,$1+$1,$2,$3,$4,$5,0*
20,1,$1+$1,$4,$5,$6,$7,0*
20,1,$1+$1,$6,$7,$8,$9,0*
20,1,$1+$1,$8,$9,$2,$3,0*%
G04 Aperture macros list end*
%ADD10C,3.650000*%
%ADD11R,1.500000X1.500000*%
%ADD12C,1.500000*%
%ADD13C,3.500000*%
%ADD14C,1.800000*%
%ADD15C,1.700000*%
%ADD16R,2.500000X1.500000*%
%ADD17O,2.500000X1.500000*%
%ADD18R,2.775000X2.775000*%
%ADD19C,2.775000*%
%ADD20C,2.500000*%
%ADD21R,2.500000X1.000000*%
%ADD22C,1.440000*%
%ADD23RoundRect,0.250000X-0.262500X-0.450000X0.262500X-0.450000X0.262500X0.450000X-0.262500X0.450000X0*%
%ADD24RoundRect,0.250000X-0.450000X0.262500X-0.450000X-0.262500X0.450000X-0.262500X0.450000X0.262500X0*%
%ADD25R,1.700000X1.700000*%
%ADD26O,1.700000X1.700000*%
%ADD27RoundRect,0.250000X0.450000X-0.262500X0.450000X0.262500X-0.450000X0.262500X-0.450000X-0.262500X0*%
%ADD28RoundRect,0.237500X-0.237500X0.287500X-0.237500X-0.287500X0.237500X-0.287500X0.237500X0.287500X0*%
G04 APERTURE END LIST*
D10*
%TO.C,J7*%
X91330000Y-120200000D03*
X102760000Y-120200000D03*
D11*
X92600000Y-113850000D03*
D12*
X93870000Y-111310000D03*
X95140000Y-113850000D03*
X96410000Y-111310000D03*
X97680000Y-113850000D03*
X98950000Y-111310000D03*
X100220000Y-113850000D03*
X101490000Y-111310000D03*
%TD*%
D13*
%TO.C,Fine_Tune1*%
X89600000Y-55500000D03*
X98400000Y-55500000D03*
D14*
X96500000Y-62500000D03*
X94000000Y-62500000D03*
X91500000Y-62500000D03*
%TD*%
D15*
%TO.C,TP1*%
X82600000Y-47500000D03*
%TD*%
D10*
%TO.C,J9*%
X57330000Y-120200000D03*
X68760000Y-120200000D03*
D11*
X58600000Y-113850000D03*
D12*
X59870000Y-111310000D03*
X61140000Y-113850000D03*
X62410000Y-111310000D03*
X63680000Y-113850000D03*
X64950000Y-111310000D03*
X66220000Y-113850000D03*
X67490000Y-111310000D03*
%TD*%
D10*
%TO.C,J8*%
X92730000Y-145200000D03*
X104160000Y-145200000D03*
D11*
X94000000Y-138850000D03*
D12*
X95270000Y-136310000D03*
X96540000Y-138850000D03*
X97810000Y-136310000D03*
X99080000Y-138850000D03*
X100350000Y-136310000D03*
X101620000Y-138850000D03*
X102890000Y-136310000D03*
%TD*%
D16*
%TO.C,SW1*%
X94000000Y-71000000D03*
D17*
X94000000Y-73540000D03*
X94000000Y-76080000D03*
%TD*%
D13*
%TO.C,Vibrato_Depth1*%
X58600000Y-92000000D03*
X67400000Y-92000000D03*
D14*
X65500000Y-99000000D03*
X63000000Y-99000000D03*
X60500000Y-99000000D03*
%TD*%
D15*
%TO.C,TP2*%
X85400000Y-47500000D03*
%TD*%
D10*
%TO.C,J10*%
X55930000Y-145200000D03*
X67360000Y-145200000D03*
D11*
X57200000Y-138850000D03*
D12*
X58470000Y-136310000D03*
X59740000Y-138850000D03*
X61010000Y-136310000D03*
X62280000Y-138850000D03*
X63550000Y-136310000D03*
X64820000Y-138850000D03*
X66090000Y-136310000D03*
%TD*%
D18*
%TO.C,SW3*%
X63585000Y-59700000D03*
D19*
X63585000Y-55000000D03*
X63585000Y-50300000D03*
X68415000Y-59700000D03*
X68415000Y-55000000D03*
X68415000Y-50300000D03*
%TD*%
D18*
%TO.C,SW2*%
X63585000Y-78200000D03*
D19*
X63585000Y-73500000D03*
X63585000Y-68800000D03*
X68415000Y-78200000D03*
X68415000Y-73500000D03*
X68415000Y-68800000D03*
%TD*%
D10*
%TO.C,J11*%
X74330000Y-145200000D03*
X85760000Y-145200000D03*
D11*
X75600000Y-138850000D03*
D12*
X76870000Y-136310000D03*
X78140000Y-138850000D03*
X79410000Y-136310000D03*
X80680000Y-138850000D03*
X81950000Y-136310000D03*
X83220000Y-138850000D03*
X84490000Y-136310000D03*
%TD*%
D20*
%TO.C,J6*%
X80000000Y-106500000D03*
D21*
X80000000Y-100020000D03*
X80000000Y-103120000D03*
X80000000Y-111420000D03*
%TD*%
D13*
%TO.C,PWM_Pot1*%
X92600000Y-92000000D03*
X101400000Y-92000000D03*
D14*
X99500000Y-99000000D03*
X97000000Y-99000000D03*
X94500000Y-99000000D03*
%TD*%
D20*
%TO.C,J5*%
X80000000Y-122500000D03*
D21*
X80000000Y-116020000D03*
X80000000Y-119120000D03*
X80000000Y-127420000D03*
%TD*%
D22*
%TO.C,OctaveTrim1*%
X74675000Y-45775000D03*
X77215000Y-48315000D03*
X79755000Y-45775000D03*
%TD*%
D23*
%TO.C,R1*%
X75987500Y-53800000D03*
X77812500Y-53800000D03*
%TD*%
D24*
%TO.C,R8*%
X97700000Y-129987500D03*
X97700000Y-131812500D03*
%TD*%
D25*
%TO.C,J13*%
X103700000Y-45700000D03*
D26*
X101160000Y-45700000D03*
X98620000Y-45700000D03*
X96080000Y-45700000D03*
%TD*%
D25*
%TO.C,J3*%
X107100000Y-120000000D03*
D26*
X107100000Y-122540000D03*
X107100000Y-125080000D03*
X107100000Y-127620000D03*
X107100000Y-130160000D03*
X107100000Y-132700000D03*
X107100000Y-135240000D03*
X107100000Y-137780000D03*
X107100000Y-140320000D03*
X107100000Y-142860000D03*
%TD*%
D25*
%TO.C,J14*%
X60500000Y-46300000D03*
%TD*%
%TO.C,J4*%
X52800000Y-120000000D03*
D26*
X52800000Y-122540000D03*
X52800000Y-125080000D03*
X52800000Y-127620000D03*
X52800000Y-130160000D03*
X52800000Y-132700000D03*
X52800000Y-135240000D03*
X52800000Y-137780000D03*
X52800000Y-140320000D03*
X52800000Y-142860000D03*
%TD*%
D27*
%TO.C,R9*%
X99700000Y-131812500D03*
X99700000Y-129987500D03*
%TD*%
D24*
%TO.C,R6*%
X88400000Y-129987500D03*
X88400000Y-131812500D03*
%TD*%
D25*
%TO.C,J1*%
X107100000Y-63000000D03*
D26*
X107100000Y-65540000D03*
X107100000Y-68080000D03*
X107100000Y-70620000D03*
X107100000Y-73160000D03*
X107100000Y-75700000D03*
X107100000Y-78240000D03*
X107100000Y-80780000D03*
X107100000Y-83320000D03*
X107100000Y-85860000D03*
%TD*%
D27*
%TO.C,R10*%
X103300000Y-131812500D03*
X103300000Y-129987500D03*
%TD*%
D28*
%TO.C,D5*%
X95900000Y-130025000D03*
X95900000Y-131775000D03*
%TD*%
D27*
%TO.C,R5*%
X92100000Y-131812500D03*
X92100000Y-129987500D03*
%TD*%
D28*
%TO.C,D4*%
X90200000Y-130050000D03*
X90200000Y-131800000D03*
%TD*%
D23*
%TO.C,R2*%
X75987500Y-56200000D03*
X77812500Y-56200000D03*
%TD*%
D27*
%TO.C,R7*%
X94100000Y-131812500D03*
X94100000Y-129987500D03*
%TD*%
D28*
%TO.C,D3*%
X84600000Y-130025000D03*
X84600000Y-131775000D03*
%TD*%
D27*
%TO.C,R4*%
X82800000Y-131812500D03*
X82800000Y-129987500D03*
%TD*%
D28*
%TO.C,D6*%
X101500000Y-130025000D03*
X101500000Y-131775000D03*
%TD*%
D25*
%TO.C,J2*%
X52800000Y-63000000D03*
D26*
X52800000Y-65540000D03*
X52800000Y-68080000D03*
X52800000Y-70620000D03*
X52800000Y-73160000D03*
X52800000Y-75700000D03*
X52800000Y-78240000D03*
X52800000Y-80780000D03*
X52800000Y-83320000D03*
X52800000Y-85860000D03*
%TD*%
D27*
%TO.C,R3*%
X86400000Y-131812500D03*
X86400000Y-129987500D03*
%TD*%
M02*
