%TF.GenerationSoftware,KiCad,Pcbnew,7.0.7*%
%TF.CreationDate,2023-08-21T15:50:52+01:00*%
%TF.ProjectId,Quadraphone_Controls_v3,51756164-7261-4706-986f-6e655f436f6e,rev?*%
%TF.SameCoordinates,Original*%
%TF.FileFunction,Legend,Top*%
%TF.FilePolarity,Positive*%
%FSLAX46Y46*%
G04 Gerber Fmt 4.6, Leading zero omitted, Abs format (unit mm)*
G04 Created by KiCad (PCBNEW 7.0.7) date 2023-08-21 15:50:52*
%MOMM*%
%LPD*%
G01*
G04 APERTURE LIST*
%ADD10C,0.150000*%
%ADD11C,0.300000*%
%ADD12C,0.120000*%
%ADD13C,0.127000*%
%ADD14C,0.200000*%
G04 APERTURE END LIST*
D10*
X106766666Y-59504819D02*
X106766666Y-60219104D01*
X106766666Y-60219104D02*
X106719047Y-60361961D01*
X106719047Y-60361961D02*
X106623809Y-60457200D01*
X106623809Y-60457200D02*
X106480952Y-60504819D01*
X106480952Y-60504819D02*
X106385714Y-60504819D01*
X107766666Y-60504819D02*
X107195238Y-60504819D01*
X107480952Y-60504819D02*
X107480952Y-59504819D01*
X107480952Y-59504819D02*
X107385714Y-59647676D01*
X107385714Y-59647676D02*
X107290476Y-59742914D01*
X107290476Y-59742914D02*
X107195238Y-59790533D01*
D11*
X68028571Y-82913685D02*
X67885714Y-82842257D01*
X67885714Y-82842257D02*
X67742857Y-82699400D01*
X67742857Y-82699400D02*
X67528571Y-82485114D01*
X67528571Y-82485114D02*
X67385714Y-82413685D01*
X67385714Y-82413685D02*
X67242857Y-82413685D01*
X67314286Y-82770828D02*
X67171429Y-82699400D01*
X67171429Y-82699400D02*
X67028571Y-82556542D01*
X67028571Y-82556542D02*
X66957143Y-82270828D01*
X66957143Y-82270828D02*
X66957143Y-81770828D01*
X66957143Y-81770828D02*
X67028571Y-81485114D01*
X67028571Y-81485114D02*
X67171429Y-81342257D01*
X67171429Y-81342257D02*
X67314286Y-81270828D01*
X67314286Y-81270828D02*
X67600000Y-81270828D01*
X67600000Y-81270828D02*
X67742857Y-81342257D01*
X67742857Y-81342257D02*
X67885714Y-81485114D01*
X67885714Y-81485114D02*
X67957143Y-81770828D01*
X67957143Y-81770828D02*
X67957143Y-82270828D01*
X67957143Y-82270828D02*
X67885714Y-82556542D01*
X67885714Y-82556542D02*
X67742857Y-82699400D01*
X67742857Y-82699400D02*
X67600000Y-82770828D01*
X67600000Y-82770828D02*
X67314286Y-82770828D01*
X69242858Y-81770828D02*
X69242858Y-82770828D01*
X68600000Y-81770828D02*
X68600000Y-82556542D01*
X68600000Y-82556542D02*
X68671429Y-82699400D01*
X68671429Y-82699400D02*
X68814286Y-82770828D01*
X68814286Y-82770828D02*
X69028572Y-82770828D01*
X69028572Y-82770828D02*
X69171429Y-82699400D01*
X69171429Y-82699400D02*
X69242858Y-82627971D01*
X70600001Y-82770828D02*
X70600001Y-81985114D01*
X70600001Y-81985114D02*
X70528572Y-81842257D01*
X70528572Y-81842257D02*
X70385715Y-81770828D01*
X70385715Y-81770828D02*
X70100001Y-81770828D01*
X70100001Y-81770828D02*
X69957143Y-81842257D01*
X70600001Y-82699400D02*
X70457143Y-82770828D01*
X70457143Y-82770828D02*
X70100001Y-82770828D01*
X70100001Y-82770828D02*
X69957143Y-82699400D01*
X69957143Y-82699400D02*
X69885715Y-82556542D01*
X69885715Y-82556542D02*
X69885715Y-82413685D01*
X69885715Y-82413685D02*
X69957143Y-82270828D01*
X69957143Y-82270828D02*
X70100001Y-82199400D01*
X70100001Y-82199400D02*
X70457143Y-82199400D01*
X70457143Y-82199400D02*
X70600001Y-82127971D01*
X71957144Y-82770828D02*
X71957144Y-81270828D01*
X71957144Y-82699400D02*
X71814286Y-82770828D01*
X71814286Y-82770828D02*
X71528572Y-82770828D01*
X71528572Y-82770828D02*
X71385715Y-82699400D01*
X71385715Y-82699400D02*
X71314286Y-82627971D01*
X71314286Y-82627971D02*
X71242858Y-82485114D01*
X71242858Y-82485114D02*
X71242858Y-82056542D01*
X71242858Y-82056542D02*
X71314286Y-81913685D01*
X71314286Y-81913685D02*
X71385715Y-81842257D01*
X71385715Y-81842257D02*
X71528572Y-81770828D01*
X71528572Y-81770828D02*
X71814286Y-81770828D01*
X71814286Y-81770828D02*
X71957144Y-81842257D01*
X72671429Y-82770828D02*
X72671429Y-81770828D01*
X72671429Y-82056542D02*
X72742858Y-81913685D01*
X72742858Y-81913685D02*
X72814287Y-81842257D01*
X72814287Y-81842257D02*
X72957144Y-81770828D01*
X72957144Y-81770828D02*
X73100001Y-81770828D01*
X74242858Y-82770828D02*
X74242858Y-81985114D01*
X74242858Y-81985114D02*
X74171429Y-81842257D01*
X74171429Y-81842257D02*
X74028572Y-81770828D01*
X74028572Y-81770828D02*
X73742858Y-81770828D01*
X73742858Y-81770828D02*
X73600000Y-81842257D01*
X74242858Y-82699400D02*
X74100000Y-82770828D01*
X74100000Y-82770828D02*
X73742858Y-82770828D01*
X73742858Y-82770828D02*
X73600000Y-82699400D01*
X73600000Y-82699400D02*
X73528572Y-82556542D01*
X73528572Y-82556542D02*
X73528572Y-82413685D01*
X73528572Y-82413685D02*
X73600000Y-82270828D01*
X73600000Y-82270828D02*
X73742858Y-82199400D01*
X73742858Y-82199400D02*
X74100000Y-82199400D01*
X74100000Y-82199400D02*
X74242858Y-82127971D01*
X74957143Y-81770828D02*
X74957143Y-83270828D01*
X74957143Y-81842257D02*
X75100001Y-81770828D01*
X75100001Y-81770828D02*
X75385715Y-81770828D01*
X75385715Y-81770828D02*
X75528572Y-81842257D01*
X75528572Y-81842257D02*
X75600001Y-81913685D01*
X75600001Y-81913685D02*
X75671429Y-82056542D01*
X75671429Y-82056542D02*
X75671429Y-82485114D01*
X75671429Y-82485114D02*
X75600001Y-82627971D01*
X75600001Y-82627971D02*
X75528572Y-82699400D01*
X75528572Y-82699400D02*
X75385715Y-82770828D01*
X75385715Y-82770828D02*
X75100001Y-82770828D01*
X75100001Y-82770828D02*
X74957143Y-82699400D01*
X76314286Y-82770828D02*
X76314286Y-81270828D01*
X76957144Y-82770828D02*
X76957144Y-81985114D01*
X76957144Y-81985114D02*
X76885715Y-81842257D01*
X76885715Y-81842257D02*
X76742858Y-81770828D01*
X76742858Y-81770828D02*
X76528572Y-81770828D01*
X76528572Y-81770828D02*
X76385715Y-81842257D01*
X76385715Y-81842257D02*
X76314286Y-81913685D01*
X77885715Y-82770828D02*
X77742858Y-82699400D01*
X77742858Y-82699400D02*
X77671429Y-82627971D01*
X77671429Y-82627971D02*
X77600001Y-82485114D01*
X77600001Y-82485114D02*
X77600001Y-82056542D01*
X77600001Y-82056542D02*
X77671429Y-81913685D01*
X77671429Y-81913685D02*
X77742858Y-81842257D01*
X77742858Y-81842257D02*
X77885715Y-81770828D01*
X77885715Y-81770828D02*
X78100001Y-81770828D01*
X78100001Y-81770828D02*
X78242858Y-81842257D01*
X78242858Y-81842257D02*
X78314287Y-81913685D01*
X78314287Y-81913685D02*
X78385715Y-82056542D01*
X78385715Y-82056542D02*
X78385715Y-82485114D01*
X78385715Y-82485114D02*
X78314287Y-82627971D01*
X78314287Y-82627971D02*
X78242858Y-82699400D01*
X78242858Y-82699400D02*
X78100001Y-82770828D01*
X78100001Y-82770828D02*
X77885715Y-82770828D01*
X79028572Y-81770828D02*
X79028572Y-82770828D01*
X79028572Y-81913685D02*
X79100001Y-81842257D01*
X79100001Y-81842257D02*
X79242858Y-81770828D01*
X79242858Y-81770828D02*
X79457144Y-81770828D01*
X79457144Y-81770828D02*
X79600001Y-81842257D01*
X79600001Y-81842257D02*
X79671430Y-81985114D01*
X79671430Y-81985114D02*
X79671430Y-82770828D01*
X80957144Y-82699400D02*
X80814287Y-82770828D01*
X80814287Y-82770828D02*
X80528573Y-82770828D01*
X80528573Y-82770828D02*
X80385715Y-82699400D01*
X80385715Y-82699400D02*
X80314287Y-82556542D01*
X80314287Y-82556542D02*
X80314287Y-81985114D01*
X80314287Y-81985114D02*
X80385715Y-81842257D01*
X80385715Y-81842257D02*
X80528573Y-81770828D01*
X80528573Y-81770828D02*
X80814287Y-81770828D01*
X80814287Y-81770828D02*
X80957144Y-81842257D01*
X80957144Y-81842257D02*
X81028573Y-81985114D01*
X81028573Y-81985114D02*
X81028573Y-82127971D01*
X81028573Y-82127971D02*
X80314287Y-82270828D01*
X83671429Y-82627971D02*
X83600001Y-82699400D01*
X83600001Y-82699400D02*
X83385715Y-82770828D01*
X83385715Y-82770828D02*
X83242858Y-82770828D01*
X83242858Y-82770828D02*
X83028572Y-82699400D01*
X83028572Y-82699400D02*
X82885715Y-82556542D01*
X82885715Y-82556542D02*
X82814286Y-82413685D01*
X82814286Y-82413685D02*
X82742858Y-82127971D01*
X82742858Y-82127971D02*
X82742858Y-81913685D01*
X82742858Y-81913685D02*
X82814286Y-81627971D01*
X82814286Y-81627971D02*
X82885715Y-81485114D01*
X82885715Y-81485114D02*
X83028572Y-81342257D01*
X83028572Y-81342257D02*
X83242858Y-81270828D01*
X83242858Y-81270828D02*
X83385715Y-81270828D01*
X83385715Y-81270828D02*
X83600001Y-81342257D01*
X83600001Y-81342257D02*
X83671429Y-81413685D01*
X84528572Y-82770828D02*
X84385715Y-82699400D01*
X84385715Y-82699400D02*
X84314286Y-82627971D01*
X84314286Y-82627971D02*
X84242858Y-82485114D01*
X84242858Y-82485114D02*
X84242858Y-82056542D01*
X84242858Y-82056542D02*
X84314286Y-81913685D01*
X84314286Y-81913685D02*
X84385715Y-81842257D01*
X84385715Y-81842257D02*
X84528572Y-81770828D01*
X84528572Y-81770828D02*
X84742858Y-81770828D01*
X84742858Y-81770828D02*
X84885715Y-81842257D01*
X84885715Y-81842257D02*
X84957144Y-81913685D01*
X84957144Y-81913685D02*
X85028572Y-82056542D01*
X85028572Y-82056542D02*
X85028572Y-82485114D01*
X85028572Y-82485114D02*
X84957144Y-82627971D01*
X84957144Y-82627971D02*
X84885715Y-82699400D01*
X84885715Y-82699400D02*
X84742858Y-82770828D01*
X84742858Y-82770828D02*
X84528572Y-82770828D01*
X85671429Y-81770828D02*
X85671429Y-82770828D01*
X85671429Y-81913685D02*
X85742858Y-81842257D01*
X85742858Y-81842257D02*
X85885715Y-81770828D01*
X85885715Y-81770828D02*
X86100001Y-81770828D01*
X86100001Y-81770828D02*
X86242858Y-81842257D01*
X86242858Y-81842257D02*
X86314287Y-81985114D01*
X86314287Y-81985114D02*
X86314287Y-82770828D01*
X86814287Y-81770828D02*
X87385715Y-81770828D01*
X87028572Y-81270828D02*
X87028572Y-82556542D01*
X87028572Y-82556542D02*
X87100001Y-82699400D01*
X87100001Y-82699400D02*
X87242858Y-82770828D01*
X87242858Y-82770828D02*
X87385715Y-82770828D01*
X87885715Y-82770828D02*
X87885715Y-81770828D01*
X87885715Y-82056542D02*
X87957144Y-81913685D01*
X87957144Y-81913685D02*
X88028573Y-81842257D01*
X88028573Y-81842257D02*
X88171430Y-81770828D01*
X88171430Y-81770828D02*
X88314287Y-81770828D01*
X89028572Y-82770828D02*
X88885715Y-82699400D01*
X88885715Y-82699400D02*
X88814286Y-82627971D01*
X88814286Y-82627971D02*
X88742858Y-82485114D01*
X88742858Y-82485114D02*
X88742858Y-82056542D01*
X88742858Y-82056542D02*
X88814286Y-81913685D01*
X88814286Y-81913685D02*
X88885715Y-81842257D01*
X88885715Y-81842257D02*
X89028572Y-81770828D01*
X89028572Y-81770828D02*
X89242858Y-81770828D01*
X89242858Y-81770828D02*
X89385715Y-81842257D01*
X89385715Y-81842257D02*
X89457144Y-81913685D01*
X89457144Y-81913685D02*
X89528572Y-82056542D01*
X89528572Y-82056542D02*
X89528572Y-82485114D01*
X89528572Y-82485114D02*
X89457144Y-82627971D01*
X89457144Y-82627971D02*
X89385715Y-82699400D01*
X89385715Y-82699400D02*
X89242858Y-82770828D01*
X89242858Y-82770828D02*
X89028572Y-82770828D01*
X90385715Y-82770828D02*
X90242858Y-82699400D01*
X90242858Y-82699400D02*
X90171429Y-82556542D01*
X90171429Y-82556542D02*
X90171429Y-81270828D01*
X90885715Y-82699400D02*
X91028572Y-82770828D01*
X91028572Y-82770828D02*
X91314286Y-82770828D01*
X91314286Y-82770828D02*
X91457143Y-82699400D01*
X91457143Y-82699400D02*
X91528572Y-82556542D01*
X91528572Y-82556542D02*
X91528572Y-82485114D01*
X91528572Y-82485114D02*
X91457143Y-82342257D01*
X91457143Y-82342257D02*
X91314286Y-82270828D01*
X91314286Y-82270828D02*
X91100001Y-82270828D01*
X91100001Y-82270828D02*
X90957143Y-82199400D01*
X90957143Y-82199400D02*
X90885715Y-82056542D01*
X90885715Y-82056542D02*
X90885715Y-81985114D01*
X90885715Y-81985114D02*
X90957143Y-81842257D01*
X90957143Y-81842257D02*
X91100001Y-81770828D01*
X91100001Y-81770828D02*
X91314286Y-81770828D01*
X91314286Y-81770828D02*
X91457143Y-81842257D01*
X93171429Y-81770828D02*
X93528572Y-82770828D01*
X93528572Y-82770828D02*
X93885715Y-81770828D01*
X95100001Y-81770828D02*
X95100001Y-82770828D01*
X94742858Y-81199400D02*
X94385715Y-82270828D01*
X94385715Y-82270828D02*
X95314286Y-82270828D01*
X68100000Y-85185828D02*
X68100000Y-83685828D01*
X68100000Y-83685828D02*
X68600000Y-84757257D01*
X68600000Y-84757257D02*
X69100000Y-83685828D01*
X69100000Y-83685828D02*
X69100000Y-85185828D01*
X70028572Y-85185828D02*
X69885715Y-85114400D01*
X69885715Y-85114400D02*
X69814286Y-85042971D01*
X69814286Y-85042971D02*
X69742858Y-84900114D01*
X69742858Y-84900114D02*
X69742858Y-84471542D01*
X69742858Y-84471542D02*
X69814286Y-84328685D01*
X69814286Y-84328685D02*
X69885715Y-84257257D01*
X69885715Y-84257257D02*
X70028572Y-84185828D01*
X70028572Y-84185828D02*
X70242858Y-84185828D01*
X70242858Y-84185828D02*
X70385715Y-84257257D01*
X70385715Y-84257257D02*
X70457144Y-84328685D01*
X70457144Y-84328685D02*
X70528572Y-84471542D01*
X70528572Y-84471542D02*
X70528572Y-84900114D01*
X70528572Y-84900114D02*
X70457144Y-85042971D01*
X70457144Y-85042971D02*
X70385715Y-85114400D01*
X70385715Y-85114400D02*
X70242858Y-85185828D01*
X70242858Y-85185828D02*
X70028572Y-85185828D01*
X71814287Y-84185828D02*
X71814287Y-85185828D01*
X71171429Y-84185828D02*
X71171429Y-84971542D01*
X71171429Y-84971542D02*
X71242858Y-85114400D01*
X71242858Y-85114400D02*
X71385715Y-85185828D01*
X71385715Y-85185828D02*
X71600001Y-85185828D01*
X71600001Y-85185828D02*
X71742858Y-85114400D01*
X71742858Y-85114400D02*
X71814287Y-85042971D01*
X72528572Y-84185828D02*
X72528572Y-85185828D01*
X72528572Y-84328685D02*
X72600001Y-84257257D01*
X72600001Y-84257257D02*
X72742858Y-84185828D01*
X72742858Y-84185828D02*
X72957144Y-84185828D01*
X72957144Y-84185828D02*
X73100001Y-84257257D01*
X73100001Y-84257257D02*
X73171430Y-84400114D01*
X73171430Y-84400114D02*
X73171430Y-85185828D01*
X73671430Y-84185828D02*
X74242858Y-84185828D01*
X73885715Y-83685828D02*
X73885715Y-84971542D01*
X73885715Y-84971542D02*
X73957144Y-85114400D01*
X73957144Y-85114400D02*
X74100001Y-85185828D01*
X74100001Y-85185828D02*
X74242858Y-85185828D01*
X74742858Y-84185828D02*
X74742858Y-85471542D01*
X74742858Y-85471542D02*
X74671430Y-85614400D01*
X74671430Y-85614400D02*
X74528573Y-85685828D01*
X74528573Y-85685828D02*
X74457144Y-85685828D01*
X74742858Y-83685828D02*
X74671430Y-83757257D01*
X74671430Y-83757257D02*
X74742858Y-83828685D01*
X74742858Y-83828685D02*
X74814287Y-83757257D01*
X74814287Y-83757257D02*
X74742858Y-83685828D01*
X74742858Y-83685828D02*
X74742858Y-83828685D01*
X75671430Y-85185828D02*
X75528573Y-85114400D01*
X75528573Y-85114400D02*
X75457144Y-85042971D01*
X75457144Y-85042971D02*
X75385716Y-84900114D01*
X75385716Y-84900114D02*
X75385716Y-84471542D01*
X75385716Y-84471542D02*
X75457144Y-84328685D01*
X75457144Y-84328685D02*
X75528573Y-84257257D01*
X75528573Y-84257257D02*
X75671430Y-84185828D01*
X75671430Y-84185828D02*
X75885716Y-84185828D01*
X75885716Y-84185828D02*
X76028573Y-84257257D01*
X76028573Y-84257257D02*
X76100002Y-84328685D01*
X76100002Y-84328685D02*
X76171430Y-84471542D01*
X76171430Y-84471542D02*
X76171430Y-84900114D01*
X76171430Y-84900114D02*
X76100002Y-85042971D01*
X76100002Y-85042971D02*
X76028573Y-85114400D01*
X76028573Y-85114400D02*
X75885716Y-85185828D01*
X75885716Y-85185828D02*
X75671430Y-85185828D01*
X76671430Y-84185828D02*
X77028573Y-85185828D01*
X77385716Y-84185828D02*
X77028573Y-85185828D01*
X77028573Y-85185828D02*
X76885716Y-85542971D01*
X76885716Y-85542971D02*
X76814287Y-85614400D01*
X76814287Y-85614400D02*
X76671430Y-85685828D01*
X79100001Y-85185828D02*
X79100001Y-83685828D01*
X79100001Y-83685828D02*
X79600001Y-84757257D01*
X79600001Y-84757257D02*
X80100001Y-83685828D01*
X80100001Y-83685828D02*
X80100001Y-85185828D01*
X81028573Y-85185828D02*
X80885716Y-85114400D01*
X80885716Y-85114400D02*
X80814287Y-85042971D01*
X80814287Y-85042971D02*
X80742859Y-84900114D01*
X80742859Y-84900114D02*
X80742859Y-84471542D01*
X80742859Y-84471542D02*
X80814287Y-84328685D01*
X80814287Y-84328685D02*
X80885716Y-84257257D01*
X80885716Y-84257257D02*
X81028573Y-84185828D01*
X81028573Y-84185828D02*
X81242859Y-84185828D01*
X81242859Y-84185828D02*
X81385716Y-84257257D01*
X81385716Y-84257257D02*
X81457145Y-84328685D01*
X81457145Y-84328685D02*
X81528573Y-84471542D01*
X81528573Y-84471542D02*
X81528573Y-84900114D01*
X81528573Y-84900114D02*
X81457145Y-85042971D01*
X81457145Y-85042971D02*
X81385716Y-85114400D01*
X81385716Y-85114400D02*
X81242859Y-85185828D01*
X81242859Y-85185828D02*
X81028573Y-85185828D01*
X82814288Y-85185828D02*
X82814288Y-83685828D01*
X82814288Y-85114400D02*
X82671430Y-85185828D01*
X82671430Y-85185828D02*
X82385716Y-85185828D01*
X82385716Y-85185828D02*
X82242859Y-85114400D01*
X82242859Y-85114400D02*
X82171430Y-85042971D01*
X82171430Y-85042971D02*
X82100002Y-84900114D01*
X82100002Y-84900114D02*
X82100002Y-84471542D01*
X82100002Y-84471542D02*
X82171430Y-84328685D01*
X82171430Y-84328685D02*
X82242859Y-84257257D01*
X82242859Y-84257257D02*
X82385716Y-84185828D01*
X82385716Y-84185828D02*
X82671430Y-84185828D01*
X82671430Y-84185828D02*
X82814288Y-84257257D01*
X84171431Y-84185828D02*
X84171431Y-85185828D01*
X83528573Y-84185828D02*
X83528573Y-84971542D01*
X83528573Y-84971542D02*
X83600002Y-85114400D01*
X83600002Y-85114400D02*
X83742859Y-85185828D01*
X83742859Y-85185828D02*
X83957145Y-85185828D01*
X83957145Y-85185828D02*
X84100002Y-85114400D01*
X84100002Y-85114400D02*
X84171431Y-85042971D01*
X85100002Y-85185828D02*
X84957145Y-85114400D01*
X84957145Y-85114400D02*
X84885716Y-84971542D01*
X84885716Y-84971542D02*
X84885716Y-83685828D01*
X86314288Y-85185828D02*
X86314288Y-84400114D01*
X86314288Y-84400114D02*
X86242859Y-84257257D01*
X86242859Y-84257257D02*
X86100002Y-84185828D01*
X86100002Y-84185828D02*
X85814288Y-84185828D01*
X85814288Y-84185828D02*
X85671430Y-84257257D01*
X86314288Y-85114400D02*
X86171430Y-85185828D01*
X86171430Y-85185828D02*
X85814288Y-85185828D01*
X85814288Y-85185828D02*
X85671430Y-85114400D01*
X85671430Y-85114400D02*
X85600002Y-84971542D01*
X85600002Y-84971542D02*
X85600002Y-84828685D01*
X85600002Y-84828685D02*
X85671430Y-84685828D01*
X85671430Y-84685828D02*
X85814288Y-84614400D01*
X85814288Y-84614400D02*
X86171430Y-84614400D01*
X86171430Y-84614400D02*
X86314288Y-84542971D01*
X87028573Y-85185828D02*
X87028573Y-84185828D01*
X87028573Y-84471542D02*
X87100002Y-84328685D01*
X87100002Y-84328685D02*
X87171431Y-84257257D01*
X87171431Y-84257257D02*
X87314288Y-84185828D01*
X87314288Y-84185828D02*
X87457145Y-84185828D01*
X89028573Y-83828685D02*
X89100001Y-83757257D01*
X89100001Y-83757257D02*
X89242859Y-83685828D01*
X89242859Y-83685828D02*
X89600001Y-83685828D01*
X89600001Y-83685828D02*
X89742859Y-83757257D01*
X89742859Y-83757257D02*
X89814287Y-83828685D01*
X89814287Y-83828685D02*
X89885716Y-83971542D01*
X89885716Y-83971542D02*
X89885716Y-84114400D01*
X89885716Y-84114400D02*
X89814287Y-84328685D01*
X89814287Y-84328685D02*
X88957144Y-85185828D01*
X88957144Y-85185828D02*
X89885716Y-85185828D01*
X90814287Y-83685828D02*
X90957144Y-83685828D01*
X90957144Y-83685828D02*
X91100001Y-83757257D01*
X91100001Y-83757257D02*
X91171430Y-83828685D01*
X91171430Y-83828685D02*
X91242858Y-83971542D01*
X91242858Y-83971542D02*
X91314287Y-84257257D01*
X91314287Y-84257257D02*
X91314287Y-84614400D01*
X91314287Y-84614400D02*
X91242858Y-84900114D01*
X91242858Y-84900114D02*
X91171430Y-85042971D01*
X91171430Y-85042971D02*
X91100001Y-85114400D01*
X91100001Y-85114400D02*
X90957144Y-85185828D01*
X90957144Y-85185828D02*
X90814287Y-85185828D01*
X90814287Y-85185828D02*
X90671430Y-85114400D01*
X90671430Y-85114400D02*
X90600001Y-85042971D01*
X90600001Y-85042971D02*
X90528572Y-84900114D01*
X90528572Y-84900114D02*
X90457144Y-84614400D01*
X90457144Y-84614400D02*
X90457144Y-84257257D01*
X90457144Y-84257257D02*
X90528572Y-83971542D01*
X90528572Y-83971542D02*
X90600001Y-83828685D01*
X90600001Y-83828685D02*
X90671430Y-83757257D01*
X90671430Y-83757257D02*
X90814287Y-83685828D01*
X91885715Y-83828685D02*
X91957143Y-83757257D01*
X91957143Y-83757257D02*
X92100001Y-83685828D01*
X92100001Y-83685828D02*
X92457143Y-83685828D01*
X92457143Y-83685828D02*
X92600001Y-83757257D01*
X92600001Y-83757257D02*
X92671429Y-83828685D01*
X92671429Y-83828685D02*
X92742858Y-83971542D01*
X92742858Y-83971542D02*
X92742858Y-84114400D01*
X92742858Y-84114400D02*
X92671429Y-84328685D01*
X92671429Y-84328685D02*
X91814286Y-85185828D01*
X91814286Y-85185828D02*
X92742858Y-85185828D01*
X93242857Y-83685828D02*
X94171429Y-83685828D01*
X94171429Y-83685828D02*
X93671429Y-84257257D01*
X93671429Y-84257257D02*
X93885714Y-84257257D01*
X93885714Y-84257257D02*
X94028572Y-84328685D01*
X94028572Y-84328685D02*
X94100000Y-84400114D01*
X94100000Y-84400114D02*
X94171429Y-84542971D01*
X94171429Y-84542971D02*
X94171429Y-84900114D01*
X94171429Y-84900114D02*
X94100000Y-85042971D01*
X94100000Y-85042971D02*
X94028572Y-85114400D01*
X94028572Y-85114400D02*
X93885714Y-85185828D01*
X93885714Y-85185828D02*
X93457143Y-85185828D01*
X93457143Y-85185828D02*
X93314286Y-85114400D01*
X93314286Y-85114400D02*
X93242857Y-85042971D01*
D10*
X52466666Y-116504819D02*
X52466666Y-117219104D01*
X52466666Y-117219104D02*
X52419047Y-117361961D01*
X52419047Y-117361961D02*
X52323809Y-117457200D01*
X52323809Y-117457200D02*
X52180952Y-117504819D01*
X52180952Y-117504819D02*
X52085714Y-117504819D01*
X53371428Y-116838152D02*
X53371428Y-117504819D01*
X53133333Y-116457200D02*
X52895238Y-117171485D01*
X52895238Y-117171485D02*
X53514285Y-117171485D01*
X106766666Y-116504819D02*
X106766666Y-117219104D01*
X106766666Y-117219104D02*
X106719047Y-117361961D01*
X106719047Y-117361961D02*
X106623809Y-117457200D01*
X106623809Y-117457200D02*
X106480952Y-117504819D01*
X106480952Y-117504819D02*
X106385714Y-117504819D01*
X107147619Y-116504819D02*
X107766666Y-116504819D01*
X107766666Y-116504819D02*
X107433333Y-116885771D01*
X107433333Y-116885771D02*
X107576190Y-116885771D01*
X107576190Y-116885771D02*
X107671428Y-116933390D01*
X107671428Y-116933390D02*
X107719047Y-116981009D01*
X107719047Y-116981009D02*
X107766666Y-117076247D01*
X107766666Y-117076247D02*
X107766666Y-117314342D01*
X107766666Y-117314342D02*
X107719047Y-117409580D01*
X107719047Y-117409580D02*
X107671428Y-117457200D01*
X107671428Y-117457200D02*
X107576190Y-117504819D01*
X107576190Y-117504819D02*
X107290476Y-117504819D01*
X107290476Y-117504819D02*
X107195238Y-117457200D01*
X107195238Y-117457200D02*
X107147619Y-117409580D01*
X52466666Y-59504819D02*
X52466666Y-60219104D01*
X52466666Y-60219104D02*
X52419047Y-60361961D01*
X52419047Y-60361961D02*
X52323809Y-60457200D01*
X52323809Y-60457200D02*
X52180952Y-60504819D01*
X52180952Y-60504819D02*
X52085714Y-60504819D01*
X52895238Y-59600057D02*
X52942857Y-59552438D01*
X52942857Y-59552438D02*
X53038095Y-59504819D01*
X53038095Y-59504819D02*
X53276190Y-59504819D01*
X53276190Y-59504819D02*
X53371428Y-59552438D01*
X53371428Y-59552438D02*
X53419047Y-59600057D01*
X53419047Y-59600057D02*
X53466666Y-59695295D01*
X53466666Y-59695295D02*
X53466666Y-59790533D01*
X53466666Y-59790533D02*
X53419047Y-59933390D01*
X53419047Y-59933390D02*
X52847619Y-60504819D01*
X52847619Y-60504819D02*
X53466666Y-60504819D01*
X93214286Y-108854819D02*
X93214286Y-107854819D01*
X93214286Y-107854819D02*
X93595238Y-107854819D01*
X93595238Y-107854819D02*
X93690476Y-107902438D01*
X93690476Y-107902438D02*
X93738095Y-107950057D01*
X93738095Y-107950057D02*
X93785714Y-108045295D01*
X93785714Y-108045295D02*
X93785714Y-108188152D01*
X93785714Y-108188152D02*
X93738095Y-108283390D01*
X93738095Y-108283390D02*
X93690476Y-108331009D01*
X93690476Y-108331009D02*
X93595238Y-108378628D01*
X93595238Y-108378628D02*
X93214286Y-108378628D01*
X94119048Y-107854819D02*
X94357143Y-108854819D01*
X94357143Y-108854819D02*
X94547619Y-108140533D01*
X94547619Y-108140533D02*
X94738095Y-108854819D01*
X94738095Y-108854819D02*
X94976191Y-107854819D01*
X95357143Y-108854819D02*
X95357143Y-107854819D01*
X95357143Y-107854819D02*
X95690476Y-108569104D01*
X95690476Y-108569104D02*
X96023809Y-107854819D01*
X96023809Y-107854819D02*
X96023809Y-108854819D01*
X96261905Y-108950057D02*
X97023809Y-108950057D01*
X97833333Y-108759580D02*
X97785714Y-108807200D01*
X97785714Y-108807200D02*
X97642857Y-108854819D01*
X97642857Y-108854819D02*
X97547619Y-108854819D01*
X97547619Y-108854819D02*
X97404762Y-108807200D01*
X97404762Y-108807200D02*
X97309524Y-108711961D01*
X97309524Y-108711961D02*
X97261905Y-108616723D01*
X97261905Y-108616723D02*
X97214286Y-108426247D01*
X97214286Y-108426247D02*
X97214286Y-108283390D01*
X97214286Y-108283390D02*
X97261905Y-108092914D01*
X97261905Y-108092914D02*
X97309524Y-107997676D01*
X97309524Y-107997676D02*
X97404762Y-107902438D01*
X97404762Y-107902438D02*
X97547619Y-107854819D01*
X97547619Y-107854819D02*
X97642857Y-107854819D01*
X97642857Y-107854819D02*
X97785714Y-107902438D01*
X97785714Y-107902438D02*
X97833333Y-107950057D01*
X98119048Y-107854819D02*
X98452381Y-108854819D01*
X98452381Y-108854819D02*
X98785714Y-107854819D01*
X98880953Y-108950057D02*
X99642857Y-108950057D01*
X99880953Y-108854819D02*
X99880953Y-107854819D01*
X100357143Y-108188152D02*
X100357143Y-108854819D01*
X100357143Y-108283390D02*
X100404762Y-108235771D01*
X100404762Y-108235771D02*
X100500000Y-108188152D01*
X100500000Y-108188152D02*
X100642857Y-108188152D01*
X100642857Y-108188152D02*
X100738095Y-108235771D01*
X100738095Y-108235771D02*
X100785714Y-108331009D01*
X100785714Y-108331009D02*
X100785714Y-108854819D01*
X90412380Y-64971009D02*
X90079047Y-64971009D01*
X90079047Y-65494819D02*
X90079047Y-64494819D01*
X90079047Y-64494819D02*
X90555237Y-64494819D01*
X90936190Y-65494819D02*
X90936190Y-64828152D01*
X90936190Y-64494819D02*
X90888571Y-64542438D01*
X90888571Y-64542438D02*
X90936190Y-64590057D01*
X90936190Y-64590057D02*
X90983809Y-64542438D01*
X90983809Y-64542438D02*
X90936190Y-64494819D01*
X90936190Y-64494819D02*
X90936190Y-64590057D01*
X91412380Y-64828152D02*
X91412380Y-65494819D01*
X91412380Y-64923390D02*
X91459999Y-64875771D01*
X91459999Y-64875771D02*
X91555237Y-64828152D01*
X91555237Y-64828152D02*
X91698094Y-64828152D01*
X91698094Y-64828152D02*
X91793332Y-64875771D01*
X91793332Y-64875771D02*
X91840951Y-64971009D01*
X91840951Y-64971009D02*
X91840951Y-65494819D01*
X92698094Y-65447200D02*
X92602856Y-65494819D01*
X92602856Y-65494819D02*
X92412380Y-65494819D01*
X92412380Y-65494819D02*
X92317142Y-65447200D01*
X92317142Y-65447200D02*
X92269523Y-65351961D01*
X92269523Y-65351961D02*
X92269523Y-64971009D01*
X92269523Y-64971009D02*
X92317142Y-64875771D01*
X92317142Y-64875771D02*
X92412380Y-64828152D01*
X92412380Y-64828152D02*
X92602856Y-64828152D01*
X92602856Y-64828152D02*
X92698094Y-64875771D01*
X92698094Y-64875771D02*
X92745713Y-64971009D01*
X92745713Y-64971009D02*
X92745713Y-65066247D01*
X92745713Y-65066247D02*
X92269523Y-65161485D01*
X92936190Y-65590057D02*
X93698094Y-65590057D01*
X93793333Y-64494819D02*
X94364761Y-64494819D01*
X94079047Y-65494819D02*
X94079047Y-64494819D01*
X95126666Y-64828152D02*
X95126666Y-65494819D01*
X94698095Y-64828152D02*
X94698095Y-65351961D01*
X94698095Y-65351961D02*
X94745714Y-65447200D01*
X94745714Y-65447200D02*
X94840952Y-65494819D01*
X94840952Y-65494819D02*
X94983809Y-65494819D01*
X94983809Y-65494819D02*
X95079047Y-65447200D01*
X95079047Y-65447200D02*
X95126666Y-65399580D01*
X95602857Y-64828152D02*
X95602857Y-65494819D01*
X95602857Y-64923390D02*
X95650476Y-64875771D01*
X95650476Y-64875771D02*
X95745714Y-64828152D01*
X95745714Y-64828152D02*
X95888571Y-64828152D01*
X95888571Y-64828152D02*
X95983809Y-64875771D01*
X95983809Y-64875771D02*
X96031428Y-64971009D01*
X96031428Y-64971009D02*
X96031428Y-65494819D01*
X96888571Y-65447200D02*
X96793333Y-65494819D01*
X96793333Y-65494819D02*
X96602857Y-65494819D01*
X96602857Y-65494819D02*
X96507619Y-65447200D01*
X96507619Y-65447200D02*
X96460000Y-65351961D01*
X96460000Y-65351961D02*
X96460000Y-64971009D01*
X96460000Y-64971009D02*
X96507619Y-64875771D01*
X96507619Y-64875771D02*
X96602857Y-64828152D01*
X96602857Y-64828152D02*
X96793333Y-64828152D01*
X96793333Y-64828152D02*
X96888571Y-64875771D01*
X96888571Y-64875771D02*
X96936190Y-64971009D01*
X96936190Y-64971009D02*
X96936190Y-65066247D01*
X96936190Y-65066247D02*
X96460000Y-65161485D01*
X97888571Y-65494819D02*
X97317143Y-65494819D01*
X97602857Y-65494819D02*
X97602857Y-64494819D01*
X97602857Y-64494819D02*
X97507619Y-64637676D01*
X97507619Y-64637676D02*
X97412381Y-64732914D01*
X97412381Y-64732914D02*
X97317143Y-64780533D01*
X59023809Y-108331009D02*
X58690476Y-108331009D01*
X58690476Y-108854819D02*
X58690476Y-107854819D01*
X58690476Y-107854819D02*
X59166666Y-107854819D01*
X59547619Y-108854819D02*
X59547619Y-108188152D01*
X59547619Y-108378628D02*
X59595238Y-108283390D01*
X59595238Y-108283390D02*
X59642857Y-108235771D01*
X59642857Y-108235771D02*
X59738095Y-108188152D01*
X59738095Y-108188152D02*
X59833333Y-108188152D01*
X60547619Y-108807200D02*
X60452381Y-108854819D01*
X60452381Y-108854819D02*
X60261905Y-108854819D01*
X60261905Y-108854819D02*
X60166667Y-108807200D01*
X60166667Y-108807200D02*
X60119048Y-108711961D01*
X60119048Y-108711961D02*
X60119048Y-108331009D01*
X60119048Y-108331009D02*
X60166667Y-108235771D01*
X60166667Y-108235771D02*
X60261905Y-108188152D01*
X60261905Y-108188152D02*
X60452381Y-108188152D01*
X60452381Y-108188152D02*
X60547619Y-108235771D01*
X60547619Y-108235771D02*
X60595238Y-108331009D01*
X60595238Y-108331009D02*
X60595238Y-108426247D01*
X60595238Y-108426247D02*
X60119048Y-108521485D01*
X61452381Y-108188152D02*
X61452381Y-109188152D01*
X61452381Y-108807200D02*
X61357143Y-108854819D01*
X61357143Y-108854819D02*
X61166667Y-108854819D01*
X61166667Y-108854819D02*
X61071429Y-108807200D01*
X61071429Y-108807200D02*
X61023810Y-108759580D01*
X61023810Y-108759580D02*
X60976191Y-108664342D01*
X60976191Y-108664342D02*
X60976191Y-108378628D01*
X60976191Y-108378628D02*
X61023810Y-108283390D01*
X61023810Y-108283390D02*
X61071429Y-108235771D01*
X61071429Y-108235771D02*
X61166667Y-108188152D01*
X61166667Y-108188152D02*
X61357143Y-108188152D01*
X61357143Y-108188152D02*
X61452381Y-108235771D01*
X61690477Y-108950057D02*
X62452381Y-108950057D01*
X62690477Y-108854819D02*
X62690477Y-107854819D01*
X62690477Y-107854819D02*
X63023810Y-108569104D01*
X63023810Y-108569104D02*
X63357143Y-107854819D01*
X63357143Y-107854819D02*
X63357143Y-108854819D01*
X63976191Y-108854819D02*
X63880953Y-108807200D01*
X63880953Y-108807200D02*
X63833334Y-108759580D01*
X63833334Y-108759580D02*
X63785715Y-108664342D01*
X63785715Y-108664342D02*
X63785715Y-108378628D01*
X63785715Y-108378628D02*
X63833334Y-108283390D01*
X63833334Y-108283390D02*
X63880953Y-108235771D01*
X63880953Y-108235771D02*
X63976191Y-108188152D01*
X63976191Y-108188152D02*
X64119048Y-108188152D01*
X64119048Y-108188152D02*
X64214286Y-108235771D01*
X64214286Y-108235771D02*
X64261905Y-108283390D01*
X64261905Y-108283390D02*
X64309524Y-108378628D01*
X64309524Y-108378628D02*
X64309524Y-108664342D01*
X64309524Y-108664342D02*
X64261905Y-108759580D01*
X64261905Y-108759580D02*
X64214286Y-108807200D01*
X64214286Y-108807200D02*
X64119048Y-108854819D01*
X64119048Y-108854819D02*
X63976191Y-108854819D01*
X65166667Y-108854819D02*
X65166667Y-107854819D01*
X65166667Y-108807200D02*
X65071429Y-108854819D01*
X65071429Y-108854819D02*
X64880953Y-108854819D01*
X64880953Y-108854819D02*
X64785715Y-108807200D01*
X64785715Y-108807200D02*
X64738096Y-108759580D01*
X64738096Y-108759580D02*
X64690477Y-108664342D01*
X64690477Y-108664342D02*
X64690477Y-108378628D01*
X64690477Y-108378628D02*
X64738096Y-108283390D01*
X64738096Y-108283390D02*
X64785715Y-108235771D01*
X64785715Y-108235771D02*
X64880953Y-108188152D01*
X64880953Y-108188152D02*
X65071429Y-108188152D01*
X65071429Y-108188152D02*
X65166667Y-108235771D01*
X65404763Y-108950057D02*
X66166667Y-108950057D01*
X66404763Y-108854819D02*
X66404763Y-107854819D01*
X66880953Y-108188152D02*
X66880953Y-108854819D01*
X66880953Y-108283390D02*
X66928572Y-108235771D01*
X66928572Y-108235771D02*
X67023810Y-108188152D01*
X67023810Y-108188152D02*
X67166667Y-108188152D01*
X67166667Y-108188152D02*
X67261905Y-108235771D01*
X67261905Y-108235771D02*
X67309524Y-108331009D01*
X67309524Y-108331009D02*
X67309524Y-108854819D01*
X92614285Y-134607200D02*
X92757142Y-134654819D01*
X92757142Y-134654819D02*
X92995237Y-134654819D01*
X92995237Y-134654819D02*
X93090475Y-134607200D01*
X93090475Y-134607200D02*
X93138094Y-134559580D01*
X93138094Y-134559580D02*
X93185713Y-134464342D01*
X93185713Y-134464342D02*
X93185713Y-134369104D01*
X93185713Y-134369104D02*
X93138094Y-134273866D01*
X93138094Y-134273866D02*
X93090475Y-134226247D01*
X93090475Y-134226247D02*
X92995237Y-134178628D01*
X92995237Y-134178628D02*
X92804761Y-134131009D01*
X92804761Y-134131009D02*
X92709523Y-134083390D01*
X92709523Y-134083390D02*
X92661904Y-134035771D01*
X92661904Y-134035771D02*
X92614285Y-133940533D01*
X92614285Y-133940533D02*
X92614285Y-133845295D01*
X92614285Y-133845295D02*
X92661904Y-133750057D01*
X92661904Y-133750057D02*
X92709523Y-133702438D01*
X92709523Y-133702438D02*
X92804761Y-133654819D01*
X92804761Y-133654819D02*
X93042856Y-133654819D01*
X93042856Y-133654819D02*
X93185713Y-133702438D01*
X93519047Y-133988152D02*
X93757142Y-134654819D01*
X93995237Y-133988152D02*
X93757142Y-134654819D01*
X93757142Y-134654819D02*
X93661904Y-134892914D01*
X93661904Y-134892914D02*
X93614285Y-134940533D01*
X93614285Y-134940533D02*
X93519047Y-134988152D01*
X94376190Y-133988152D02*
X94376190Y-134654819D01*
X94376190Y-134083390D02*
X94423809Y-134035771D01*
X94423809Y-134035771D02*
X94519047Y-133988152D01*
X94519047Y-133988152D02*
X94661904Y-133988152D01*
X94661904Y-133988152D02*
X94757142Y-134035771D01*
X94757142Y-134035771D02*
X94804761Y-134131009D01*
X94804761Y-134131009D02*
X94804761Y-134654819D01*
X95709523Y-134607200D02*
X95614285Y-134654819D01*
X95614285Y-134654819D02*
X95423809Y-134654819D01*
X95423809Y-134654819D02*
X95328571Y-134607200D01*
X95328571Y-134607200D02*
X95280952Y-134559580D01*
X95280952Y-134559580D02*
X95233333Y-134464342D01*
X95233333Y-134464342D02*
X95233333Y-134178628D01*
X95233333Y-134178628D02*
X95280952Y-134083390D01*
X95280952Y-134083390D02*
X95328571Y-134035771D01*
X95328571Y-134035771D02*
X95423809Y-133988152D01*
X95423809Y-133988152D02*
X95614285Y-133988152D01*
X95614285Y-133988152D02*
X95709523Y-134035771D01*
X96138095Y-134654819D02*
X96138095Y-133654819D01*
X96566666Y-134654819D02*
X96566666Y-134131009D01*
X96566666Y-134131009D02*
X96519047Y-134035771D01*
X96519047Y-134035771D02*
X96423809Y-133988152D01*
X96423809Y-133988152D02*
X96280952Y-133988152D01*
X96280952Y-133988152D02*
X96185714Y-134035771D01*
X96185714Y-134035771D02*
X96138095Y-134083390D01*
X96804762Y-134750057D02*
X97566666Y-134750057D01*
X97757143Y-134607200D02*
X97900000Y-134654819D01*
X97900000Y-134654819D02*
X98138095Y-134654819D01*
X98138095Y-134654819D02*
X98233333Y-134607200D01*
X98233333Y-134607200D02*
X98280952Y-134559580D01*
X98280952Y-134559580D02*
X98328571Y-134464342D01*
X98328571Y-134464342D02*
X98328571Y-134369104D01*
X98328571Y-134369104D02*
X98280952Y-134273866D01*
X98280952Y-134273866D02*
X98233333Y-134226247D01*
X98233333Y-134226247D02*
X98138095Y-134178628D01*
X98138095Y-134178628D02*
X97947619Y-134131009D01*
X97947619Y-134131009D02*
X97852381Y-134083390D01*
X97852381Y-134083390D02*
X97804762Y-134035771D01*
X97804762Y-134035771D02*
X97757143Y-133940533D01*
X97757143Y-133940533D02*
X97757143Y-133845295D01*
X97757143Y-133845295D02*
X97804762Y-133750057D01*
X97804762Y-133750057D02*
X97852381Y-133702438D01*
X97852381Y-133702438D02*
X97947619Y-133654819D01*
X97947619Y-133654819D02*
X98185714Y-133654819D01*
X98185714Y-133654819D02*
X98328571Y-133702438D01*
X98757143Y-134654819D02*
X98757143Y-133988152D01*
X98757143Y-133654819D02*
X98709524Y-133702438D01*
X98709524Y-133702438D02*
X98757143Y-133750057D01*
X98757143Y-133750057D02*
X98804762Y-133702438D01*
X98804762Y-133702438D02*
X98757143Y-133654819D01*
X98757143Y-133654819D02*
X98757143Y-133750057D01*
X99661904Y-133988152D02*
X99661904Y-134797676D01*
X99661904Y-134797676D02*
X99614285Y-134892914D01*
X99614285Y-134892914D02*
X99566666Y-134940533D01*
X99566666Y-134940533D02*
X99471428Y-134988152D01*
X99471428Y-134988152D02*
X99328571Y-134988152D01*
X99328571Y-134988152D02*
X99233333Y-134940533D01*
X99661904Y-134607200D02*
X99566666Y-134654819D01*
X99566666Y-134654819D02*
X99376190Y-134654819D01*
X99376190Y-134654819D02*
X99280952Y-134607200D01*
X99280952Y-134607200D02*
X99233333Y-134559580D01*
X99233333Y-134559580D02*
X99185714Y-134464342D01*
X99185714Y-134464342D02*
X99185714Y-134178628D01*
X99185714Y-134178628D02*
X99233333Y-134083390D01*
X99233333Y-134083390D02*
X99280952Y-134035771D01*
X99280952Y-134035771D02*
X99376190Y-133988152D01*
X99376190Y-133988152D02*
X99566666Y-133988152D01*
X99566666Y-133988152D02*
X99661904Y-134035771D01*
X100138095Y-133988152D02*
X100138095Y-134654819D01*
X100138095Y-134083390D02*
X100185714Y-134035771D01*
X100185714Y-134035771D02*
X100280952Y-133988152D01*
X100280952Y-133988152D02*
X100423809Y-133988152D01*
X100423809Y-133988152D02*
X100519047Y-134035771D01*
X100519047Y-134035771D02*
X100566666Y-134131009D01*
X100566666Y-134131009D02*
X100566666Y-134654819D01*
X101471428Y-134654819D02*
X101471428Y-134131009D01*
X101471428Y-134131009D02*
X101423809Y-134035771D01*
X101423809Y-134035771D02*
X101328571Y-133988152D01*
X101328571Y-133988152D02*
X101138095Y-133988152D01*
X101138095Y-133988152D02*
X101042857Y-134035771D01*
X101471428Y-134607200D02*
X101376190Y-134654819D01*
X101376190Y-134654819D02*
X101138095Y-134654819D01*
X101138095Y-134654819D02*
X101042857Y-134607200D01*
X101042857Y-134607200D02*
X100995238Y-134511961D01*
X100995238Y-134511961D02*
X100995238Y-134416723D01*
X100995238Y-134416723D02*
X101042857Y-134321485D01*
X101042857Y-134321485D02*
X101138095Y-134273866D01*
X101138095Y-134273866D02*
X101376190Y-134273866D01*
X101376190Y-134273866D02*
X101471428Y-134226247D01*
X102090476Y-134654819D02*
X101995238Y-134607200D01*
X101995238Y-134607200D02*
X101947619Y-134511961D01*
X101947619Y-134511961D02*
X101947619Y-133654819D01*
X102233334Y-134750057D02*
X102995238Y-134750057D01*
X103233334Y-134654819D02*
X103233334Y-133654819D01*
X103709524Y-133988152D02*
X103709524Y-134654819D01*
X103709524Y-134083390D02*
X103757143Y-134035771D01*
X103757143Y-134035771D02*
X103852381Y-133988152D01*
X103852381Y-133988152D02*
X103995238Y-133988152D01*
X103995238Y-133988152D02*
X104090476Y-134035771D01*
X104090476Y-134035771D02*
X104138095Y-134131009D01*
X104138095Y-134131009D02*
X104138095Y-134654819D01*
X90060190Y-79353300D02*
X90203047Y-79400919D01*
X90203047Y-79400919D02*
X90441142Y-79400919D01*
X90441142Y-79400919D02*
X90536380Y-79353300D01*
X90536380Y-79353300D02*
X90583999Y-79305680D01*
X90583999Y-79305680D02*
X90631618Y-79210442D01*
X90631618Y-79210442D02*
X90631618Y-79115204D01*
X90631618Y-79115204D02*
X90583999Y-79019966D01*
X90583999Y-79019966D02*
X90536380Y-78972347D01*
X90536380Y-78972347D02*
X90441142Y-78924728D01*
X90441142Y-78924728D02*
X90250666Y-78877109D01*
X90250666Y-78877109D02*
X90155428Y-78829490D01*
X90155428Y-78829490D02*
X90107809Y-78781871D01*
X90107809Y-78781871D02*
X90060190Y-78686633D01*
X90060190Y-78686633D02*
X90060190Y-78591395D01*
X90060190Y-78591395D02*
X90107809Y-78496157D01*
X90107809Y-78496157D02*
X90155428Y-78448538D01*
X90155428Y-78448538D02*
X90250666Y-78400919D01*
X90250666Y-78400919D02*
X90488761Y-78400919D01*
X90488761Y-78400919D02*
X90631618Y-78448538D01*
X90964952Y-78734252D02*
X91203047Y-79400919D01*
X91441142Y-78734252D02*
X91203047Y-79400919D01*
X91203047Y-79400919D02*
X91107809Y-79639014D01*
X91107809Y-79639014D02*
X91060190Y-79686633D01*
X91060190Y-79686633D02*
X90964952Y-79734252D01*
X91822095Y-78734252D02*
X91822095Y-79400919D01*
X91822095Y-78829490D02*
X91869714Y-78781871D01*
X91869714Y-78781871D02*
X91964952Y-78734252D01*
X91964952Y-78734252D02*
X92107809Y-78734252D01*
X92107809Y-78734252D02*
X92203047Y-78781871D01*
X92203047Y-78781871D02*
X92250666Y-78877109D01*
X92250666Y-78877109D02*
X92250666Y-79400919D01*
X93155428Y-79353300D02*
X93060190Y-79400919D01*
X93060190Y-79400919D02*
X92869714Y-79400919D01*
X92869714Y-79400919D02*
X92774476Y-79353300D01*
X92774476Y-79353300D02*
X92726857Y-79305680D01*
X92726857Y-79305680D02*
X92679238Y-79210442D01*
X92679238Y-79210442D02*
X92679238Y-78924728D01*
X92679238Y-78924728D02*
X92726857Y-78829490D01*
X92726857Y-78829490D02*
X92774476Y-78781871D01*
X92774476Y-78781871D02*
X92869714Y-78734252D01*
X92869714Y-78734252D02*
X93060190Y-78734252D01*
X93060190Y-78734252D02*
X93155428Y-78781871D01*
X93584000Y-79400919D02*
X93584000Y-78400919D01*
X94012571Y-79400919D02*
X94012571Y-78877109D01*
X94012571Y-78877109D02*
X93964952Y-78781871D01*
X93964952Y-78781871D02*
X93869714Y-78734252D01*
X93869714Y-78734252D02*
X93726857Y-78734252D01*
X93726857Y-78734252D02*
X93631619Y-78781871D01*
X93631619Y-78781871D02*
X93584000Y-78829490D01*
X94250667Y-79496157D02*
X95012571Y-79496157D01*
X95107810Y-78400919D02*
X95679238Y-78400919D01*
X95393524Y-79400919D02*
X95393524Y-78400919D01*
X95917334Y-78734252D02*
X96155429Y-79400919D01*
X96393524Y-78734252D02*
X96155429Y-79400919D01*
X96155429Y-79400919D02*
X96060191Y-79639014D01*
X96060191Y-79639014D02*
X96012572Y-79686633D01*
X96012572Y-79686633D02*
X95917334Y-79734252D01*
X96774477Y-78734252D02*
X96774477Y-79734252D01*
X96774477Y-78781871D02*
X96869715Y-78734252D01*
X96869715Y-78734252D02*
X97060191Y-78734252D01*
X97060191Y-78734252D02*
X97155429Y-78781871D01*
X97155429Y-78781871D02*
X97203048Y-78829490D01*
X97203048Y-78829490D02*
X97250667Y-78924728D01*
X97250667Y-78924728D02*
X97250667Y-79210442D01*
X97250667Y-79210442D02*
X97203048Y-79305680D01*
X97203048Y-79305680D02*
X97155429Y-79353300D01*
X97155429Y-79353300D02*
X97060191Y-79400919D01*
X97060191Y-79400919D02*
X96869715Y-79400919D01*
X96869715Y-79400919D02*
X96774477Y-79353300D01*
X98060191Y-79353300D02*
X97964953Y-79400919D01*
X97964953Y-79400919D02*
X97774477Y-79400919D01*
X97774477Y-79400919D02*
X97679239Y-79353300D01*
X97679239Y-79353300D02*
X97631620Y-79258061D01*
X97631620Y-79258061D02*
X97631620Y-78877109D01*
X97631620Y-78877109D02*
X97679239Y-78781871D01*
X97679239Y-78781871D02*
X97774477Y-78734252D01*
X97774477Y-78734252D02*
X97964953Y-78734252D01*
X97964953Y-78734252D02*
X98060191Y-78781871D01*
X98060191Y-78781871D02*
X98107810Y-78877109D01*
X98107810Y-78877109D02*
X98107810Y-78972347D01*
X98107810Y-78972347D02*
X97631620Y-79067585D01*
X57459999Y-100994819D02*
X57793332Y-101994819D01*
X57793332Y-101994819D02*
X58126665Y-100994819D01*
X58459999Y-101994819D02*
X58459999Y-101328152D01*
X58459999Y-100994819D02*
X58412380Y-101042438D01*
X58412380Y-101042438D02*
X58459999Y-101090057D01*
X58459999Y-101090057D02*
X58507618Y-101042438D01*
X58507618Y-101042438D02*
X58459999Y-100994819D01*
X58459999Y-100994819D02*
X58459999Y-101090057D01*
X58936189Y-101994819D02*
X58936189Y-100994819D01*
X58936189Y-101375771D02*
X59031427Y-101328152D01*
X59031427Y-101328152D02*
X59221903Y-101328152D01*
X59221903Y-101328152D02*
X59317141Y-101375771D01*
X59317141Y-101375771D02*
X59364760Y-101423390D01*
X59364760Y-101423390D02*
X59412379Y-101518628D01*
X59412379Y-101518628D02*
X59412379Y-101804342D01*
X59412379Y-101804342D02*
X59364760Y-101899580D01*
X59364760Y-101899580D02*
X59317141Y-101947200D01*
X59317141Y-101947200D02*
X59221903Y-101994819D01*
X59221903Y-101994819D02*
X59031427Y-101994819D01*
X59031427Y-101994819D02*
X58936189Y-101947200D01*
X59840951Y-101994819D02*
X59840951Y-101328152D01*
X59840951Y-101518628D02*
X59888570Y-101423390D01*
X59888570Y-101423390D02*
X59936189Y-101375771D01*
X59936189Y-101375771D02*
X60031427Y-101328152D01*
X60031427Y-101328152D02*
X60126665Y-101328152D01*
X60888570Y-101994819D02*
X60888570Y-101471009D01*
X60888570Y-101471009D02*
X60840951Y-101375771D01*
X60840951Y-101375771D02*
X60745713Y-101328152D01*
X60745713Y-101328152D02*
X60555237Y-101328152D01*
X60555237Y-101328152D02*
X60459999Y-101375771D01*
X60888570Y-101947200D02*
X60793332Y-101994819D01*
X60793332Y-101994819D02*
X60555237Y-101994819D01*
X60555237Y-101994819D02*
X60459999Y-101947200D01*
X60459999Y-101947200D02*
X60412380Y-101851961D01*
X60412380Y-101851961D02*
X60412380Y-101756723D01*
X60412380Y-101756723D02*
X60459999Y-101661485D01*
X60459999Y-101661485D02*
X60555237Y-101613866D01*
X60555237Y-101613866D02*
X60793332Y-101613866D01*
X60793332Y-101613866D02*
X60888570Y-101566247D01*
X61221904Y-101328152D02*
X61602856Y-101328152D01*
X61364761Y-100994819D02*
X61364761Y-101851961D01*
X61364761Y-101851961D02*
X61412380Y-101947200D01*
X61412380Y-101947200D02*
X61507618Y-101994819D01*
X61507618Y-101994819D02*
X61602856Y-101994819D01*
X62079047Y-101994819D02*
X61983809Y-101947200D01*
X61983809Y-101947200D02*
X61936190Y-101899580D01*
X61936190Y-101899580D02*
X61888571Y-101804342D01*
X61888571Y-101804342D02*
X61888571Y-101518628D01*
X61888571Y-101518628D02*
X61936190Y-101423390D01*
X61936190Y-101423390D02*
X61983809Y-101375771D01*
X61983809Y-101375771D02*
X62079047Y-101328152D01*
X62079047Y-101328152D02*
X62221904Y-101328152D01*
X62221904Y-101328152D02*
X62317142Y-101375771D01*
X62317142Y-101375771D02*
X62364761Y-101423390D01*
X62364761Y-101423390D02*
X62412380Y-101518628D01*
X62412380Y-101518628D02*
X62412380Y-101804342D01*
X62412380Y-101804342D02*
X62364761Y-101899580D01*
X62364761Y-101899580D02*
X62317142Y-101947200D01*
X62317142Y-101947200D02*
X62221904Y-101994819D01*
X62221904Y-101994819D02*
X62079047Y-101994819D01*
X62602857Y-102090057D02*
X63364761Y-102090057D01*
X63602857Y-101994819D02*
X63602857Y-100994819D01*
X63602857Y-100994819D02*
X63840952Y-100994819D01*
X63840952Y-100994819D02*
X63983809Y-101042438D01*
X63983809Y-101042438D02*
X64079047Y-101137676D01*
X64079047Y-101137676D02*
X64126666Y-101232914D01*
X64126666Y-101232914D02*
X64174285Y-101423390D01*
X64174285Y-101423390D02*
X64174285Y-101566247D01*
X64174285Y-101566247D02*
X64126666Y-101756723D01*
X64126666Y-101756723D02*
X64079047Y-101851961D01*
X64079047Y-101851961D02*
X63983809Y-101947200D01*
X63983809Y-101947200D02*
X63840952Y-101994819D01*
X63840952Y-101994819D02*
X63602857Y-101994819D01*
X64983809Y-101947200D02*
X64888571Y-101994819D01*
X64888571Y-101994819D02*
X64698095Y-101994819D01*
X64698095Y-101994819D02*
X64602857Y-101947200D01*
X64602857Y-101947200D02*
X64555238Y-101851961D01*
X64555238Y-101851961D02*
X64555238Y-101471009D01*
X64555238Y-101471009D02*
X64602857Y-101375771D01*
X64602857Y-101375771D02*
X64698095Y-101328152D01*
X64698095Y-101328152D02*
X64888571Y-101328152D01*
X64888571Y-101328152D02*
X64983809Y-101375771D01*
X64983809Y-101375771D02*
X65031428Y-101471009D01*
X65031428Y-101471009D02*
X65031428Y-101566247D01*
X65031428Y-101566247D02*
X64555238Y-101661485D01*
X65460000Y-101328152D02*
X65460000Y-102328152D01*
X65460000Y-101375771D02*
X65555238Y-101328152D01*
X65555238Y-101328152D02*
X65745714Y-101328152D01*
X65745714Y-101328152D02*
X65840952Y-101375771D01*
X65840952Y-101375771D02*
X65888571Y-101423390D01*
X65888571Y-101423390D02*
X65936190Y-101518628D01*
X65936190Y-101518628D02*
X65936190Y-101804342D01*
X65936190Y-101804342D02*
X65888571Y-101899580D01*
X65888571Y-101899580D02*
X65840952Y-101947200D01*
X65840952Y-101947200D02*
X65745714Y-101994819D01*
X65745714Y-101994819D02*
X65555238Y-101994819D01*
X65555238Y-101994819D02*
X65460000Y-101947200D01*
X66221905Y-101328152D02*
X66602857Y-101328152D01*
X66364762Y-100994819D02*
X66364762Y-101851961D01*
X66364762Y-101851961D02*
X66412381Y-101947200D01*
X66412381Y-101947200D02*
X66507619Y-101994819D01*
X66507619Y-101994819D02*
X66602857Y-101994819D01*
X66936191Y-101994819D02*
X66936191Y-100994819D01*
X67364762Y-101994819D02*
X67364762Y-101471009D01*
X67364762Y-101471009D02*
X67317143Y-101375771D01*
X67317143Y-101375771D02*
X67221905Y-101328152D01*
X67221905Y-101328152D02*
X67079048Y-101328152D01*
X67079048Y-101328152D02*
X66983810Y-101375771D01*
X66983810Y-101375771D02*
X66936191Y-101423390D01*
X68364762Y-101994819D02*
X67793334Y-101994819D01*
X68079048Y-101994819D02*
X68079048Y-100994819D01*
X68079048Y-100994819D02*
X67983810Y-101137676D01*
X67983810Y-101137676D02*
X67888572Y-101232914D01*
X67888572Y-101232914D02*
X67793334Y-101280533D01*
X58861905Y-134454819D02*
X58861905Y-133454819D01*
X58861905Y-133454819D02*
X59242857Y-133454819D01*
X59242857Y-133454819D02*
X59338095Y-133502438D01*
X59338095Y-133502438D02*
X59385714Y-133550057D01*
X59385714Y-133550057D02*
X59433333Y-133645295D01*
X59433333Y-133645295D02*
X59433333Y-133788152D01*
X59433333Y-133788152D02*
X59385714Y-133883390D01*
X59385714Y-133883390D02*
X59338095Y-133931009D01*
X59338095Y-133931009D02*
X59242857Y-133978628D01*
X59242857Y-133978628D02*
X58861905Y-133978628D01*
X59861905Y-134454819D02*
X59861905Y-133788152D01*
X59861905Y-133454819D02*
X59814286Y-133502438D01*
X59814286Y-133502438D02*
X59861905Y-133550057D01*
X59861905Y-133550057D02*
X59909524Y-133502438D01*
X59909524Y-133502438D02*
X59861905Y-133454819D01*
X59861905Y-133454819D02*
X59861905Y-133550057D01*
X60195238Y-133788152D02*
X60576190Y-133788152D01*
X60338095Y-133454819D02*
X60338095Y-134311961D01*
X60338095Y-134311961D02*
X60385714Y-134407200D01*
X60385714Y-134407200D02*
X60480952Y-134454819D01*
X60480952Y-134454819D02*
X60576190Y-134454819D01*
X61338095Y-134407200D02*
X61242857Y-134454819D01*
X61242857Y-134454819D02*
X61052381Y-134454819D01*
X61052381Y-134454819D02*
X60957143Y-134407200D01*
X60957143Y-134407200D02*
X60909524Y-134359580D01*
X60909524Y-134359580D02*
X60861905Y-134264342D01*
X60861905Y-134264342D02*
X60861905Y-133978628D01*
X60861905Y-133978628D02*
X60909524Y-133883390D01*
X60909524Y-133883390D02*
X60957143Y-133835771D01*
X60957143Y-133835771D02*
X61052381Y-133788152D01*
X61052381Y-133788152D02*
X61242857Y-133788152D01*
X61242857Y-133788152D02*
X61338095Y-133835771D01*
X61766667Y-134454819D02*
X61766667Y-133454819D01*
X62195238Y-134454819D02*
X62195238Y-133931009D01*
X62195238Y-133931009D02*
X62147619Y-133835771D01*
X62147619Y-133835771D02*
X62052381Y-133788152D01*
X62052381Y-133788152D02*
X61909524Y-133788152D01*
X61909524Y-133788152D02*
X61814286Y-133835771D01*
X61814286Y-133835771D02*
X61766667Y-133883390D01*
X62433334Y-134550057D02*
X63195238Y-134550057D01*
X63433334Y-134454819D02*
X63433334Y-133454819D01*
X63909524Y-133788152D02*
X63909524Y-134454819D01*
X63909524Y-133883390D02*
X63957143Y-133835771D01*
X63957143Y-133835771D02*
X64052381Y-133788152D01*
X64052381Y-133788152D02*
X64195238Y-133788152D01*
X64195238Y-133788152D02*
X64290476Y-133835771D01*
X64290476Y-133835771D02*
X64338095Y-133931009D01*
X64338095Y-133931009D02*
X64338095Y-134454819D01*
X77280952Y-134654819D02*
X77280952Y-133654819D01*
X77280952Y-133654819D02*
X77614285Y-134369104D01*
X77614285Y-134369104D02*
X77947618Y-133654819D01*
X77947618Y-133654819D02*
X77947618Y-134654819D01*
X78423809Y-134654819D02*
X78423809Y-133988152D01*
X78423809Y-133654819D02*
X78376190Y-133702438D01*
X78376190Y-133702438D02*
X78423809Y-133750057D01*
X78423809Y-133750057D02*
X78471428Y-133702438D01*
X78471428Y-133702438D02*
X78423809Y-133654819D01*
X78423809Y-133654819D02*
X78423809Y-133750057D01*
X78804761Y-134654819D02*
X79328570Y-133988152D01*
X78804761Y-133988152D02*
X79328570Y-134654819D01*
X79471428Y-134750057D02*
X80233332Y-134750057D01*
X80661904Y-133654819D02*
X80852380Y-133654819D01*
X80852380Y-133654819D02*
X80947618Y-133702438D01*
X80947618Y-133702438D02*
X81042856Y-133797676D01*
X81042856Y-133797676D02*
X81090475Y-133988152D01*
X81090475Y-133988152D02*
X81090475Y-134321485D01*
X81090475Y-134321485D02*
X81042856Y-134511961D01*
X81042856Y-134511961D02*
X80947618Y-134607200D01*
X80947618Y-134607200D02*
X80852380Y-134654819D01*
X80852380Y-134654819D02*
X80661904Y-134654819D01*
X80661904Y-134654819D02*
X80566666Y-134607200D01*
X80566666Y-134607200D02*
X80471428Y-134511961D01*
X80471428Y-134511961D02*
X80423809Y-134321485D01*
X80423809Y-134321485D02*
X80423809Y-133988152D01*
X80423809Y-133988152D02*
X80471428Y-133797676D01*
X80471428Y-133797676D02*
X80566666Y-133702438D01*
X80566666Y-133702438D02*
X80661904Y-133654819D01*
X81947618Y-133988152D02*
X81947618Y-134654819D01*
X81519047Y-133988152D02*
X81519047Y-134511961D01*
X81519047Y-134511961D02*
X81566666Y-134607200D01*
X81566666Y-134607200D02*
X81661904Y-134654819D01*
X81661904Y-134654819D02*
X81804761Y-134654819D01*
X81804761Y-134654819D02*
X81899999Y-134607200D01*
X81899999Y-134607200D02*
X81947618Y-134559580D01*
X82280952Y-133988152D02*
X82661904Y-133988152D01*
X82423809Y-133654819D02*
X82423809Y-134511961D01*
X82423809Y-134511961D02*
X82471428Y-134607200D01*
X82471428Y-134607200D02*
X82566666Y-134654819D01*
X82566666Y-134654819D02*
X82661904Y-134654819D01*
X78314285Y-98554819D02*
X77838095Y-98554819D01*
X77838095Y-98554819D02*
X77838095Y-97554819D01*
X78980952Y-98031009D02*
X78647619Y-98031009D01*
X78647619Y-98554819D02*
X78647619Y-97554819D01*
X78647619Y-97554819D02*
X79123809Y-97554819D01*
X79695238Y-97554819D02*
X79885714Y-97554819D01*
X79885714Y-97554819D02*
X79980952Y-97602438D01*
X79980952Y-97602438D02*
X80076190Y-97697676D01*
X80076190Y-97697676D02*
X80123809Y-97888152D01*
X80123809Y-97888152D02*
X80123809Y-98221485D01*
X80123809Y-98221485D02*
X80076190Y-98411961D01*
X80076190Y-98411961D02*
X79980952Y-98507200D01*
X79980952Y-98507200D02*
X79885714Y-98554819D01*
X79885714Y-98554819D02*
X79695238Y-98554819D01*
X79695238Y-98554819D02*
X79600000Y-98507200D01*
X79600000Y-98507200D02*
X79504762Y-98411961D01*
X79504762Y-98411961D02*
X79457143Y-98221485D01*
X79457143Y-98221485D02*
X79457143Y-97888152D01*
X79457143Y-97888152D02*
X79504762Y-97697676D01*
X79504762Y-97697676D02*
X79600000Y-97602438D01*
X79600000Y-97602438D02*
X79695238Y-97554819D01*
X80314286Y-98650057D02*
X81076190Y-98650057D01*
X81314286Y-98554819D02*
X81314286Y-97554819D01*
X81790476Y-98554819D02*
X81790476Y-97554819D01*
X81790476Y-97554819D02*
X82361904Y-98554819D01*
X82361904Y-98554819D02*
X82361904Y-97554819D01*
X93460000Y-101994819D02*
X93460000Y-100994819D01*
X93460000Y-100994819D02*
X93840952Y-100994819D01*
X93840952Y-100994819D02*
X93936190Y-101042438D01*
X93936190Y-101042438D02*
X93983809Y-101090057D01*
X93983809Y-101090057D02*
X94031428Y-101185295D01*
X94031428Y-101185295D02*
X94031428Y-101328152D01*
X94031428Y-101328152D02*
X93983809Y-101423390D01*
X93983809Y-101423390D02*
X93936190Y-101471009D01*
X93936190Y-101471009D02*
X93840952Y-101518628D01*
X93840952Y-101518628D02*
X93460000Y-101518628D01*
X94364762Y-100994819D02*
X94602857Y-101994819D01*
X94602857Y-101994819D02*
X94793333Y-101280533D01*
X94793333Y-101280533D02*
X94983809Y-101994819D01*
X94983809Y-101994819D02*
X95221905Y-100994819D01*
X95602857Y-101994819D02*
X95602857Y-100994819D01*
X95602857Y-100994819D02*
X95936190Y-101709104D01*
X95936190Y-101709104D02*
X96269523Y-100994819D01*
X96269523Y-100994819D02*
X96269523Y-101994819D01*
X96507619Y-102090057D02*
X97269523Y-102090057D01*
X97507619Y-101994819D02*
X97507619Y-100994819D01*
X97507619Y-100994819D02*
X97888571Y-100994819D01*
X97888571Y-100994819D02*
X97983809Y-101042438D01*
X97983809Y-101042438D02*
X98031428Y-101090057D01*
X98031428Y-101090057D02*
X98079047Y-101185295D01*
X98079047Y-101185295D02*
X98079047Y-101328152D01*
X98079047Y-101328152D02*
X98031428Y-101423390D01*
X98031428Y-101423390D02*
X97983809Y-101471009D01*
X97983809Y-101471009D02*
X97888571Y-101518628D01*
X97888571Y-101518628D02*
X97507619Y-101518628D01*
X98650476Y-101994819D02*
X98555238Y-101947200D01*
X98555238Y-101947200D02*
X98507619Y-101899580D01*
X98507619Y-101899580D02*
X98460000Y-101804342D01*
X98460000Y-101804342D02*
X98460000Y-101518628D01*
X98460000Y-101518628D02*
X98507619Y-101423390D01*
X98507619Y-101423390D02*
X98555238Y-101375771D01*
X98555238Y-101375771D02*
X98650476Y-101328152D01*
X98650476Y-101328152D02*
X98793333Y-101328152D01*
X98793333Y-101328152D02*
X98888571Y-101375771D01*
X98888571Y-101375771D02*
X98936190Y-101423390D01*
X98936190Y-101423390D02*
X98983809Y-101518628D01*
X98983809Y-101518628D02*
X98983809Y-101804342D01*
X98983809Y-101804342D02*
X98936190Y-101899580D01*
X98936190Y-101899580D02*
X98888571Y-101947200D01*
X98888571Y-101947200D02*
X98793333Y-101994819D01*
X98793333Y-101994819D02*
X98650476Y-101994819D01*
X99269524Y-101328152D02*
X99650476Y-101328152D01*
X99412381Y-100994819D02*
X99412381Y-101851961D01*
X99412381Y-101851961D02*
X99460000Y-101947200D01*
X99460000Y-101947200D02*
X99555238Y-101994819D01*
X99555238Y-101994819D02*
X99650476Y-101994819D01*
X100507619Y-101994819D02*
X99936191Y-101994819D01*
X100221905Y-101994819D02*
X100221905Y-100994819D01*
X100221905Y-100994819D02*
X100126667Y-101137676D01*
X100126667Y-101137676D02*
X100031429Y-101232914D01*
X100031429Y-101232914D02*
X99936191Y-101280533D01*
X77285714Y-130574819D02*
X77285714Y-129574819D01*
X77285714Y-129574819D02*
X77666666Y-129574819D01*
X77666666Y-129574819D02*
X77761904Y-129622438D01*
X77761904Y-129622438D02*
X77809523Y-129670057D01*
X77809523Y-129670057D02*
X77857142Y-129765295D01*
X77857142Y-129765295D02*
X77857142Y-129908152D01*
X77857142Y-129908152D02*
X77809523Y-130003390D01*
X77809523Y-130003390D02*
X77761904Y-130051009D01*
X77761904Y-130051009D02*
X77666666Y-130098628D01*
X77666666Y-130098628D02*
X77285714Y-130098628D01*
X78190476Y-129574819D02*
X78428571Y-130574819D01*
X78428571Y-130574819D02*
X78619047Y-129860533D01*
X78619047Y-129860533D02*
X78809523Y-130574819D01*
X78809523Y-130574819D02*
X79047619Y-129574819D01*
X79428571Y-130574819D02*
X79428571Y-129574819D01*
X79428571Y-129574819D02*
X79761904Y-130289104D01*
X79761904Y-130289104D02*
X80095237Y-129574819D01*
X80095237Y-129574819D02*
X80095237Y-130574819D01*
X80333333Y-130670057D02*
X81095237Y-130670057D01*
X81904761Y-130479580D02*
X81857142Y-130527200D01*
X81857142Y-130527200D02*
X81714285Y-130574819D01*
X81714285Y-130574819D02*
X81619047Y-130574819D01*
X81619047Y-130574819D02*
X81476190Y-130527200D01*
X81476190Y-130527200D02*
X81380952Y-130431961D01*
X81380952Y-130431961D02*
X81333333Y-130336723D01*
X81333333Y-130336723D02*
X81285714Y-130146247D01*
X81285714Y-130146247D02*
X81285714Y-130003390D01*
X81285714Y-130003390D02*
X81333333Y-129812914D01*
X81333333Y-129812914D02*
X81380952Y-129717676D01*
X81380952Y-129717676D02*
X81476190Y-129622438D01*
X81476190Y-129622438D02*
X81619047Y-129574819D01*
X81619047Y-129574819D02*
X81714285Y-129574819D01*
X81714285Y-129574819D02*
X81857142Y-129622438D01*
X81857142Y-129622438D02*
X81904761Y-129670057D01*
X82190476Y-129574819D02*
X82523809Y-130574819D01*
X82523809Y-130574819D02*
X82857142Y-129574819D01*
D12*
%TO.C,J7*%
X88600000Y-113350000D02*
X88600000Y-114350000D01*
X88600000Y-114350000D02*
X89100000Y-113850000D01*
X88850000Y-110180000D02*
X88850000Y-126820000D01*
X89100000Y-113850000D02*
X88600000Y-113350000D01*
X105200000Y-110180000D02*
X88850000Y-110180000D01*
X105200000Y-110180000D02*
X105200000Y-126820000D01*
X105200000Y-126820000D02*
X88850000Y-126820000D01*
%TO.C,Fine_Tune1*%
X89039000Y-49440000D02*
X98960000Y-49440000D01*
X89039000Y-53305000D02*
X89039000Y-49440000D01*
X89039000Y-61560000D02*
X89039000Y-57694000D01*
X89039000Y-61560000D02*
X90675000Y-61560000D01*
X92325000Y-61560000D02*
X93175000Y-61560000D01*
X94825000Y-61560000D02*
X95675000Y-61560000D01*
X97325000Y-61560000D02*
X98960000Y-61560000D01*
X98960000Y-53305000D02*
X98960000Y-49440000D01*
X98960000Y-61560000D02*
X98960000Y-57694000D01*
X96761999Y-53827000D02*
G75*
G03*
X91237569Y-53828018I-2761999J-1173000D01*
G01*
X91702000Y-56928000D02*
G75*
G03*
X96297753Y-56928295I2298000J1928000D01*
G01*
%TO.C,J9*%
X54600000Y-113350000D02*
X54600000Y-114350000D01*
X54600000Y-114350000D02*
X55100000Y-113850000D01*
X54850000Y-110180000D02*
X54850000Y-126820000D01*
X55100000Y-113850000D02*
X54600000Y-113350000D01*
X71200000Y-110180000D02*
X54850000Y-110180000D01*
X71200000Y-110180000D02*
X71200000Y-126820000D01*
X71200000Y-126820000D02*
X54850000Y-126820000D01*
%TO.C,J8*%
X90000000Y-138350000D02*
X90000000Y-139350000D01*
X90000000Y-139350000D02*
X90500000Y-138850000D01*
X90250000Y-135180000D02*
X90250000Y-151820000D01*
X90500000Y-138850000D02*
X90000000Y-138350000D01*
X106600000Y-135180000D02*
X90250000Y-135180000D01*
X106600000Y-135180000D02*
X106600000Y-151820000D01*
X106600000Y-151820000D02*
X90250000Y-151820000D01*
D10*
%TO.C,SW1*%
X96681000Y-69436600D02*
X96681000Y-77604000D01*
X91319000Y-69462000D02*
X91319000Y-71662000D01*
X91319000Y-75254000D02*
X91319000Y-77554000D01*
D12*
%TO.C,Vibrato_Depth1*%
X58039000Y-85940000D02*
X67960000Y-85940000D01*
X58039000Y-89805000D02*
X58039000Y-85940000D01*
X58039000Y-98060000D02*
X58039000Y-94194000D01*
X58039000Y-98060000D02*
X59675000Y-98060000D01*
X61325000Y-98060000D02*
X62175000Y-98060000D01*
X63825000Y-98060000D02*
X64675000Y-98060000D01*
X66325000Y-98060000D02*
X67960000Y-98060000D01*
X67960000Y-89805000D02*
X67960000Y-85940000D01*
X67960000Y-98060000D02*
X67960000Y-94194000D01*
X65761999Y-90327000D02*
G75*
G03*
X60237569Y-90328018I-2761999J-1173000D01*
G01*
X60702000Y-93428000D02*
G75*
G03*
X65297753Y-93428295I2298000J1928000D01*
G01*
%TO.C,J10*%
X53200000Y-138350000D02*
X53200000Y-139350000D01*
X53200000Y-139350000D02*
X53700000Y-138850000D01*
X53450000Y-135180000D02*
X53450000Y-151820000D01*
X53700000Y-138850000D02*
X53200000Y-138350000D01*
X69800000Y-135180000D02*
X53450000Y-135180000D01*
X69800000Y-135180000D02*
X69800000Y-151820000D01*
X69800000Y-151820000D02*
X53450000Y-151820000D01*
D13*
%TO.C,SW3*%
X60285000Y-61350000D02*
X60285000Y-48650000D01*
X61877500Y-61350000D02*
X60285000Y-61350000D01*
X65292500Y-61350000D02*
X66707500Y-61350000D01*
X71715000Y-61350000D02*
X70122500Y-61350000D01*
X60285000Y-48650000D02*
X61877500Y-48650000D01*
X65292500Y-48650000D02*
X66707500Y-48650000D01*
X71715000Y-48650000D02*
X71715000Y-61350000D01*
X71715000Y-48650000D02*
X70122500Y-48650000D01*
D14*
X63700000Y-62000000D02*
G75*
G03*
X63700000Y-62000000I-100000J0D01*
G01*
D13*
%TO.C,SW2*%
X60285000Y-79850000D02*
X60285000Y-67150000D01*
X61877500Y-79850000D02*
X60285000Y-79850000D01*
X65292500Y-79850000D02*
X66707500Y-79850000D01*
X71715000Y-79850000D02*
X70122500Y-79850000D01*
X60285000Y-67150000D02*
X61877500Y-67150000D01*
X65292500Y-67150000D02*
X66707500Y-67150000D01*
X71715000Y-67150000D02*
X71715000Y-79850000D01*
X71715000Y-67150000D02*
X70122500Y-67150000D01*
D14*
X63700000Y-80500000D02*
G75*
G03*
X63700000Y-80500000I-100000J0D01*
G01*
D12*
%TO.C,J11*%
X71600000Y-138350000D02*
X71600000Y-139350000D01*
X71600000Y-139350000D02*
X72100000Y-138850000D01*
X71850000Y-135180000D02*
X71850000Y-151820000D01*
X72100000Y-138850000D02*
X71600000Y-138350000D01*
X88200000Y-135180000D02*
X71850000Y-135180000D01*
X88200000Y-135180000D02*
X88200000Y-151820000D01*
X88200000Y-151820000D02*
X71850000Y-151820000D01*
D10*
%TO.C,J6*%
X84500000Y-112500000D02*
X84500000Y-102000000D01*
X84500000Y-112500000D02*
X75500000Y-112500000D01*
X84500000Y-102000000D02*
X75500000Y-102000000D01*
X84445000Y-102690000D02*
X81905000Y-102690000D01*
X81905000Y-108405000D02*
X78095000Y-108405000D01*
X81905000Y-102690000D02*
X81905000Y-102055000D01*
X81905000Y-102055000D02*
X78095000Y-102055000D01*
X78095000Y-104595000D02*
X81905000Y-104595000D01*
X78095000Y-102690000D02*
X75555000Y-102690000D01*
X78095000Y-102055000D02*
X78095000Y-102690000D01*
X75500000Y-112500000D02*
X75500000Y-102000000D01*
X81905000Y-108405000D02*
G75*
G03*
X81905000Y-104595000I-1904999J1905000D01*
G01*
X78095001Y-104595001D02*
G75*
G03*
X78095001Y-108404999I1904999J-1904999D01*
G01*
X81796051Y-106500000D02*
G75*
G03*
X81796051Y-106500000I-1796051J0D01*
G01*
D12*
%TO.C,PWM_Pot1*%
X92039000Y-85940000D02*
X101960000Y-85940000D01*
X92039000Y-89805000D02*
X92039000Y-85940000D01*
X92039000Y-98060000D02*
X92039000Y-94194000D01*
X92039000Y-98060000D02*
X93675000Y-98060000D01*
X95325000Y-98060000D02*
X96175000Y-98060000D01*
X97825000Y-98060000D02*
X98675000Y-98060000D01*
X100325000Y-98060000D02*
X101960000Y-98060000D01*
X101960000Y-89805000D02*
X101960000Y-85940000D01*
X101960000Y-98060000D02*
X101960000Y-94194000D01*
X99761999Y-90327000D02*
G75*
G03*
X94237569Y-90328018I-2761999J-1173000D01*
G01*
X94702000Y-93428000D02*
G75*
G03*
X99297753Y-93428295I2298000J1928000D01*
G01*
D10*
%TO.C,J5*%
X84500000Y-128500000D02*
X84500000Y-118000000D01*
X84500000Y-128500000D02*
X75500000Y-128500000D01*
X84500000Y-118000000D02*
X75500000Y-118000000D01*
X84445000Y-118690000D02*
X81905000Y-118690000D01*
X81905000Y-124405000D02*
X78095000Y-124405000D01*
X81905000Y-118690000D02*
X81905000Y-118055000D01*
X81905000Y-118055000D02*
X78095000Y-118055000D01*
X78095000Y-120595000D02*
X81905000Y-120595000D01*
X78095000Y-118690000D02*
X75555000Y-118690000D01*
X78095000Y-118055000D02*
X78095000Y-118690000D01*
X75500000Y-128500000D02*
X75500000Y-118000000D01*
X81905000Y-124405000D02*
G75*
G03*
X81905000Y-120595000I-1904999J1905000D01*
G01*
X78095001Y-120595001D02*
G75*
G03*
X78095001Y-124404999I1904999J-1904999D01*
G01*
X81796051Y-122500000D02*
G75*
G03*
X81796051Y-122500000I-1796051J0D01*
G01*
%TD*%
M02*
