M48
; DRILL file {KiCad 7.0.7} date Mon Aug 21 15:50:54 2023
; FORMAT={-:-/ absolute / inch / decimal}
; #@! TF.CreationDate,2023-08-21T15:50:54+01:00
; #@! TF.GenerationSoftware,Kicad,Pcbnew,7.0.7
; #@! TF.FileFunction,Plated,1,2,PTH
FMAT,2
INCH
; #@! TA.AperFunction,Plated,PTH,ViaDrill
T1C0.0157
; #@! TA.AperFunction,Plated,PTH,ComponentDrill
T2C0.0197
; #@! TA.AperFunction,Plated,PTH,ComponentDrill
T3C0.0315
; #@! TA.AperFunction,Plated,PTH,ComponentDrill
T4C0.0354
; #@! TA.AperFunction,Plated,PTH,ComponentDrill
T5C0.0394
; #@! TA.AperFunction,Plated,PTH,ComponentDrill
T6C0.0430
; #@! TA.AperFunction,Plated,PTH,ComponentDrill
T7C0.0728
%
G90
G05
T1
X2.063Y-5.9803
X2.1036Y-2.3201
X2.1654Y-3.3819
X2.1693Y-3.752
X2.1942Y-5.0633
X2.2441Y-4.1142
X2.2756Y-2.5118
X2.2835Y-3.2638
X2.3819Y-3.1339
X2.4252Y-5.7126
X2.4409Y-3.3189
X2.4409Y-5.1929
X2.5197Y-4.622
X2.5472Y-4.7559
X2.5787Y-4.2047
X2.6122Y-5.0531
X2.6929Y-5.2756
X2.752Y-2.5118
X2.7874Y-5.1535
X2.815Y-2.1811
X2.8327Y-3.4685
X2.8543Y-4.4606
X2.8819Y-3.8976
X2.8976Y-5.5197
X2.9016Y-4.8583
X2.9449Y-2.9331
X3.0709Y-5.7087
X3.185Y-2.7008
X3.189Y-2.9055
X3.189Y-3.1614
X3.1929Y-5.1181
X3.2008Y-3.6043
X3.2185Y-2.0768
X3.2441Y-5.6614
X3.248Y-3.3465
X3.2717Y-3.6476
X3.3031Y-5.2638
X3.3701Y-2.1969
X3.3898Y-5.4843
X3.4134Y-4.3661
X3.4173Y-4.8661
X3.4449Y-3.4685
X3.4606Y-5.4134
X3.4803Y-5.2323
X3.4862Y-1.8819
X3.5118Y-2.4921
X3.5197Y-5.0866
X3.5433Y-4.2047
X3.5709Y-4.4724
X3.5748Y-2.9094
X3.685Y-4.0945
X3.7323Y-1.9409
X3.748Y-2.6299
X3.752Y-4.9646
X3.7638Y-4.626
X3.7953Y-3.2244
X3.811Y-2.9488
X3.8425Y-5.2441
X3.878Y-2.7598
X3.8839Y-5.7165
X3.9291Y-4.7677
X3.9449Y-3.7677
X3.9843Y-2.3031
X3.9884Y-4.1498
X4.0079Y-1.9173
X4.0079Y-3.0079
X4.0581Y-2.6198
X4.1026Y-4.0357
X4.1181Y-4.9764
X4.1181Y-5.6024
X4.1299Y-3.2697
X4.1339Y-5.189
X4.2028Y-2.3012
X4.2323Y-3.5138
X4.248Y-1.7697
X4.2677Y-5.9882
T3
X2.94Y-1.8022
X3.04Y-1.9022
X3.14Y-1.8022
T4
X2.252Y-5.4665
X2.302Y-5.3665
X2.3071Y-4.4823
X2.352Y-5.4665
X2.3571Y-4.3823
X2.402Y-5.3665
X2.4071Y-4.4823
X2.452Y-5.4665
X2.4571Y-4.3823
X2.502Y-5.3665
X2.5071Y-4.4823
X2.552Y-5.4665
X2.5571Y-4.3823
X2.602Y-5.3665
X2.6071Y-4.4823
X2.6571Y-4.3823
X2.9764Y-5.4665
X3.0264Y-5.3665
X3.0764Y-5.4665
X3.1264Y-5.3665
X3.1764Y-5.4665
X3.2264Y-5.3665
X3.2764Y-5.4665
X3.3264Y-5.3665
X3.6457Y-4.4823
X3.6957Y-4.3823
X3.7008Y-5.4665
X3.7457Y-4.4823
X3.7508Y-5.3665
X3.7957Y-4.3823
X3.8008Y-5.4665
X3.8457Y-4.4823
X3.8508Y-5.3665
X3.8957Y-4.3823
X3.9008Y-5.4665
X3.9457Y-4.4823
X3.9508Y-5.3665
X3.9957Y-4.3823
X4.0008Y-5.4665
X4.0508Y-5.3665
T5
X2.0787Y-2.4803
X2.0787Y-2.5803
X2.0787Y-2.6803
X2.0787Y-2.7803
X2.0787Y-2.8803
X2.0787Y-2.9803
X2.0787Y-3.0803
X2.0787Y-3.1803
X2.0787Y-3.2803
X2.0787Y-3.3803
X2.0787Y-4.7244
X2.0787Y-4.8244
X2.0787Y-4.9244
X2.0787Y-5.0244
X2.0787Y-5.1244
X2.0787Y-5.2244
X2.0787Y-5.3244
X2.0787Y-5.4244
X2.0787Y-5.5244
X2.0787Y-5.6244
X2.3819Y-1.8228
X2.3819Y-3.8976
X2.4803Y-3.8976
X2.5787Y-3.8976
X3.252Y-1.8701
X3.3622Y-1.8701
X3.6024Y-2.4606
X3.7008Y-2.4606
X3.7205Y-3.8976
X3.7827Y-1.7992
X3.7992Y-2.4606
X3.8189Y-3.8976
X3.8827Y-1.7992
X3.9173Y-3.8976
X3.9827Y-1.7992
X4.0827Y-1.7992
X4.2165Y-2.4803
X4.2165Y-2.5803
X4.2165Y-2.6803
X4.2165Y-2.7803
X4.2165Y-2.8803
X4.2165Y-2.9803
X4.2165Y-3.0803
X4.2165Y-3.1803
X4.2165Y-3.2803
X4.2165Y-3.3803
X4.2165Y-4.7244
X4.2165Y-4.8244
X4.2165Y-4.9244
X4.2165Y-5.0244
X4.2165Y-5.1244
X4.2165Y-5.2244
X4.2165Y-5.3244
X4.2165Y-5.4244
X4.2165Y-5.5244
X4.2165Y-5.6244
T6
X3.7008Y-2.7953
X3.7008Y-2.8953
X3.7008Y-2.9953
T7
X2.5033Y-1.9803
X2.5033Y-2.1654
X2.5033Y-2.3504
X2.5033Y-2.7087
X2.5033Y-2.8937
X2.5033Y-3.0787
X2.6935Y-1.9803
X2.6935Y-2.1654
X2.6935Y-2.3504
X2.6935Y-2.7087
X2.6935Y-2.8937
X2.6935Y-3.0787
T2
G00X3.1693Y-3.9378
M15
G01X3.1299Y-3.9378
M16
G05
G00X3.1693Y-4.0598
M15
G01X3.1299Y-4.0598
M16
G05
G00X3.1693Y-4.3866
M15
G01X3.1299Y-4.3866
M16
G05
G00X3.1693Y-4.5677
M15
G01X3.1299Y-4.5677
M16
G05
G00X3.1693Y-4.6898
M15
G01X3.1299Y-4.6898
M16
G05
G00X3.1693Y-5.0165
M15
G01X3.1299Y-5.0165
M16
G05
T0
M30
