%TF.GenerationSoftware,KiCad,Pcbnew,(6.0.11)*%
%TF.CreationDate,2023-01-29T14:59:06+00:00*%
%TF.ProjectId,Quadraphone_Controls,51756164-7261-4706-986f-6e655f436f6e,rev?*%
%TF.SameCoordinates,Original*%
%TF.FileFunction,Legend,Top*%
%TF.FilePolarity,Positive*%
%FSLAX46Y46*%
G04 Gerber Fmt 4.6, Leading zero omitted, Abs format (unit mm)*
G04 Created by KiCad (PCBNEW (6.0.11)) date 2023-01-29 14:59:06*
%MOMM*%
%LPD*%
G01*
G04 APERTURE LIST*
%ADD10C,0.150000*%
%ADD11C,0.300000*%
%ADD12C,0.120000*%
%ADD13C,0.127000*%
%ADD14C,0.200000*%
%ADD15C,3.650000*%
%ADD16R,2.500000X1.000000*%
G04 APERTURE END LIST*
D10*
X106766666Y-59652380D02*
X106766666Y-60366666D01*
X106719047Y-60509523D01*
X106623809Y-60604761D01*
X106480952Y-60652380D01*
X106385714Y-60652380D01*
X107766666Y-60652380D02*
X107195238Y-60652380D01*
X107480952Y-60652380D02*
X107480952Y-59652380D01*
X107385714Y-59795238D01*
X107290476Y-59890476D01*
X107195238Y-59938095D01*
D11*
X66928571Y-48213928D02*
X66785714Y-48142500D01*
X66642857Y-47999642D01*
X66428571Y-47785357D01*
X66285714Y-47713928D01*
X66142857Y-47713928D01*
X66214285Y-48071071D02*
X66071428Y-47999642D01*
X65928571Y-47856785D01*
X65857142Y-47571071D01*
X65857142Y-47071071D01*
X65928571Y-46785357D01*
X66071428Y-46642500D01*
X66214285Y-46571071D01*
X66499999Y-46571071D01*
X66642857Y-46642500D01*
X66785714Y-46785357D01*
X66857142Y-47071071D01*
X66857142Y-47571071D01*
X66785714Y-47856785D01*
X66642857Y-47999642D01*
X66499999Y-48071071D01*
X66214285Y-48071071D01*
X68142857Y-47071071D02*
X68142857Y-48071071D01*
X67500000Y-47071071D02*
X67500000Y-47856785D01*
X67571428Y-47999642D01*
X67714285Y-48071071D01*
X67928571Y-48071071D01*
X68071428Y-47999642D01*
X68142857Y-47928214D01*
X69500000Y-48071071D02*
X69500000Y-47285357D01*
X69428571Y-47142500D01*
X69285714Y-47071071D01*
X69000000Y-47071071D01*
X68857142Y-47142500D01*
X69500000Y-47999642D02*
X69357142Y-48071071D01*
X69000000Y-48071071D01*
X68857142Y-47999642D01*
X68785714Y-47856785D01*
X68785714Y-47713928D01*
X68857142Y-47571071D01*
X69000000Y-47499642D01*
X69357142Y-47499642D01*
X69500000Y-47428214D01*
X70857142Y-48071071D02*
X70857142Y-46571071D01*
X70857142Y-47999642D02*
X70714285Y-48071071D01*
X70428571Y-48071071D01*
X70285714Y-47999642D01*
X70214285Y-47928214D01*
X70142857Y-47785357D01*
X70142857Y-47356785D01*
X70214285Y-47213928D01*
X70285714Y-47142500D01*
X70428571Y-47071071D01*
X70714285Y-47071071D01*
X70857142Y-47142500D01*
X71571428Y-48071071D02*
X71571428Y-47071071D01*
X71571428Y-47356785D02*
X71642857Y-47213928D01*
X71714285Y-47142500D01*
X71857142Y-47071071D01*
X72000000Y-47071071D01*
X73142857Y-48071071D02*
X73142857Y-47285357D01*
X73071428Y-47142500D01*
X72928571Y-47071071D01*
X72642857Y-47071071D01*
X72500000Y-47142500D01*
X73142857Y-47999642D02*
X73000000Y-48071071D01*
X72642857Y-48071071D01*
X72500000Y-47999642D01*
X72428571Y-47856785D01*
X72428571Y-47713928D01*
X72500000Y-47571071D01*
X72642857Y-47499642D01*
X73000000Y-47499642D01*
X73142857Y-47428214D01*
X73857142Y-47071071D02*
X73857142Y-48571071D01*
X73857142Y-47142500D02*
X74000000Y-47071071D01*
X74285714Y-47071071D01*
X74428571Y-47142500D01*
X74500000Y-47213928D01*
X74571428Y-47356785D01*
X74571428Y-47785357D01*
X74500000Y-47928214D01*
X74428571Y-47999642D01*
X74285714Y-48071071D01*
X74000000Y-48071071D01*
X73857142Y-47999642D01*
X75214285Y-48071071D02*
X75214285Y-46571071D01*
X75857142Y-48071071D02*
X75857142Y-47285357D01*
X75785714Y-47142500D01*
X75642857Y-47071071D01*
X75428571Y-47071071D01*
X75285714Y-47142500D01*
X75214285Y-47213928D01*
X76785714Y-48071071D02*
X76642857Y-47999642D01*
X76571428Y-47928214D01*
X76500000Y-47785357D01*
X76500000Y-47356785D01*
X76571428Y-47213928D01*
X76642857Y-47142500D01*
X76785714Y-47071071D01*
X77000000Y-47071071D01*
X77142857Y-47142500D01*
X77214285Y-47213928D01*
X77285714Y-47356785D01*
X77285714Y-47785357D01*
X77214285Y-47928214D01*
X77142857Y-47999642D01*
X77000000Y-48071071D01*
X76785714Y-48071071D01*
X77928571Y-47071071D02*
X77928571Y-48071071D01*
X77928571Y-47213928D02*
X78000000Y-47142500D01*
X78142857Y-47071071D01*
X78357142Y-47071071D01*
X78500000Y-47142500D01*
X78571428Y-47285357D01*
X78571428Y-48071071D01*
X79857142Y-47999642D02*
X79714285Y-48071071D01*
X79428571Y-48071071D01*
X79285714Y-47999642D01*
X79214285Y-47856785D01*
X79214285Y-47285357D01*
X79285714Y-47142500D01*
X79428571Y-47071071D01*
X79714285Y-47071071D01*
X79857142Y-47142500D01*
X79928571Y-47285357D01*
X79928571Y-47428214D01*
X79214285Y-47571071D01*
X82571428Y-47928214D02*
X82500000Y-47999642D01*
X82285714Y-48071071D01*
X82142857Y-48071071D01*
X81928571Y-47999642D01*
X81785714Y-47856785D01*
X81714285Y-47713928D01*
X81642857Y-47428214D01*
X81642857Y-47213928D01*
X81714285Y-46928214D01*
X81785714Y-46785357D01*
X81928571Y-46642500D01*
X82142857Y-46571071D01*
X82285714Y-46571071D01*
X82500000Y-46642500D01*
X82571428Y-46713928D01*
X83428571Y-48071071D02*
X83285714Y-47999642D01*
X83214285Y-47928214D01*
X83142857Y-47785357D01*
X83142857Y-47356785D01*
X83214285Y-47213928D01*
X83285714Y-47142500D01*
X83428571Y-47071071D01*
X83642857Y-47071071D01*
X83785714Y-47142500D01*
X83857142Y-47213928D01*
X83928571Y-47356785D01*
X83928571Y-47785357D01*
X83857142Y-47928214D01*
X83785714Y-47999642D01*
X83642857Y-48071071D01*
X83428571Y-48071071D01*
X84571428Y-47071071D02*
X84571428Y-48071071D01*
X84571428Y-47213928D02*
X84642857Y-47142500D01*
X84785714Y-47071071D01*
X85000000Y-47071071D01*
X85142857Y-47142500D01*
X85214285Y-47285357D01*
X85214285Y-48071071D01*
X85714285Y-47071071D02*
X86285714Y-47071071D01*
X85928571Y-46571071D02*
X85928571Y-47856785D01*
X86000000Y-47999642D01*
X86142857Y-48071071D01*
X86285714Y-48071071D01*
X86785714Y-48071071D02*
X86785714Y-47071071D01*
X86785714Y-47356785D02*
X86857142Y-47213928D01*
X86928571Y-47142500D01*
X87071428Y-47071071D01*
X87214285Y-47071071D01*
X87928571Y-48071071D02*
X87785714Y-47999642D01*
X87714285Y-47928214D01*
X87642857Y-47785357D01*
X87642857Y-47356785D01*
X87714285Y-47213928D01*
X87785714Y-47142500D01*
X87928571Y-47071071D01*
X88142857Y-47071071D01*
X88285714Y-47142500D01*
X88357142Y-47213928D01*
X88428571Y-47356785D01*
X88428571Y-47785357D01*
X88357142Y-47928214D01*
X88285714Y-47999642D01*
X88142857Y-48071071D01*
X87928571Y-48071071D01*
X89285714Y-48071071D02*
X89142857Y-47999642D01*
X89071428Y-47856785D01*
X89071428Y-46571071D01*
X89785714Y-47999642D02*
X89928571Y-48071071D01*
X90214285Y-48071071D01*
X90357142Y-47999642D01*
X90428571Y-47856785D01*
X90428571Y-47785357D01*
X90357142Y-47642500D01*
X90214285Y-47571071D01*
X90000000Y-47571071D01*
X89857142Y-47499642D01*
X89785714Y-47356785D01*
X89785714Y-47285357D01*
X89857142Y-47142500D01*
X90000000Y-47071071D01*
X90214285Y-47071071D01*
X90357142Y-47142500D01*
X92071428Y-47071071D02*
X92428571Y-48071071D01*
X92785714Y-47071071D01*
X94142857Y-48071071D02*
X93285714Y-48071071D01*
X93714285Y-48071071D02*
X93714285Y-46571071D01*
X93571428Y-46785357D01*
X93428571Y-46928214D01*
X93285714Y-46999642D01*
X70428571Y-50486071D02*
X70428571Y-48986071D01*
X70928571Y-50057500D01*
X71428571Y-48986071D01*
X71428571Y-50486071D01*
X72357142Y-50486071D02*
X72214285Y-50414642D01*
X72142857Y-50343214D01*
X72071428Y-50200357D01*
X72071428Y-49771785D01*
X72142857Y-49628928D01*
X72214285Y-49557500D01*
X72357142Y-49486071D01*
X72571428Y-49486071D01*
X72714285Y-49557500D01*
X72785714Y-49628928D01*
X72857142Y-49771785D01*
X72857142Y-50200357D01*
X72785714Y-50343214D01*
X72714285Y-50414642D01*
X72571428Y-50486071D01*
X72357142Y-50486071D01*
X74142857Y-49486071D02*
X74142857Y-50486071D01*
X73500000Y-49486071D02*
X73500000Y-50271785D01*
X73571428Y-50414642D01*
X73714285Y-50486071D01*
X73928571Y-50486071D01*
X74071428Y-50414642D01*
X74142857Y-50343214D01*
X74857142Y-49486071D02*
X74857142Y-50486071D01*
X74857142Y-49628928D02*
X74928571Y-49557500D01*
X75071428Y-49486071D01*
X75285714Y-49486071D01*
X75428571Y-49557500D01*
X75500000Y-49700357D01*
X75500000Y-50486071D01*
X76000000Y-49486071D02*
X76571428Y-49486071D01*
X76214285Y-48986071D02*
X76214285Y-50271785D01*
X76285714Y-50414642D01*
X76428571Y-50486071D01*
X76571428Y-50486071D01*
X77071428Y-49486071D02*
X77071428Y-50771785D01*
X77000000Y-50914642D01*
X76857142Y-50986071D01*
X76785714Y-50986071D01*
X77071428Y-48986071D02*
X77000000Y-49057500D01*
X77071428Y-49128928D01*
X77142857Y-49057500D01*
X77071428Y-48986071D01*
X77071428Y-49128928D01*
X78000000Y-50486071D02*
X77857142Y-50414642D01*
X77785714Y-50343214D01*
X77714285Y-50200357D01*
X77714285Y-49771785D01*
X77785714Y-49628928D01*
X77857142Y-49557500D01*
X78000000Y-49486071D01*
X78214285Y-49486071D01*
X78357142Y-49557500D01*
X78428571Y-49628928D01*
X78500000Y-49771785D01*
X78500000Y-50200357D01*
X78428571Y-50343214D01*
X78357142Y-50414642D01*
X78214285Y-50486071D01*
X78000000Y-50486071D01*
X79000000Y-49486071D02*
X79357142Y-50486071D01*
X79714285Y-49486071D02*
X79357142Y-50486071D01*
X79214285Y-50843214D01*
X79142857Y-50914642D01*
X79000000Y-50986071D01*
X81428571Y-50486071D02*
X81428571Y-48986071D01*
X81928571Y-50057500D01*
X82428571Y-48986071D01*
X82428571Y-50486071D01*
X83357142Y-50486071D02*
X83214285Y-50414642D01*
X83142857Y-50343214D01*
X83071428Y-50200357D01*
X83071428Y-49771785D01*
X83142857Y-49628928D01*
X83214285Y-49557500D01*
X83357142Y-49486071D01*
X83571428Y-49486071D01*
X83714285Y-49557500D01*
X83785714Y-49628928D01*
X83857142Y-49771785D01*
X83857142Y-50200357D01*
X83785714Y-50343214D01*
X83714285Y-50414642D01*
X83571428Y-50486071D01*
X83357142Y-50486071D01*
X85142857Y-50486071D02*
X85142857Y-48986071D01*
X85142857Y-50414642D02*
X85000000Y-50486071D01*
X84714285Y-50486071D01*
X84571428Y-50414642D01*
X84500000Y-50343214D01*
X84428571Y-50200357D01*
X84428571Y-49771785D01*
X84500000Y-49628928D01*
X84571428Y-49557500D01*
X84714285Y-49486071D01*
X85000000Y-49486071D01*
X85142857Y-49557500D01*
X86500000Y-49486071D02*
X86500000Y-50486071D01*
X85857142Y-49486071D02*
X85857142Y-50271785D01*
X85928571Y-50414642D01*
X86071428Y-50486071D01*
X86285714Y-50486071D01*
X86428571Y-50414642D01*
X86500000Y-50343214D01*
X87428571Y-50486071D02*
X87285714Y-50414642D01*
X87214285Y-50271785D01*
X87214285Y-48986071D01*
X88642857Y-50486071D02*
X88642857Y-49700357D01*
X88571428Y-49557500D01*
X88428571Y-49486071D01*
X88142857Y-49486071D01*
X88000000Y-49557500D01*
X88642857Y-50414642D02*
X88500000Y-50486071D01*
X88142857Y-50486071D01*
X88000000Y-50414642D01*
X87928571Y-50271785D01*
X87928571Y-50128928D01*
X88000000Y-49986071D01*
X88142857Y-49914642D01*
X88500000Y-49914642D01*
X88642857Y-49843214D01*
X89357142Y-50486071D02*
X89357142Y-49486071D01*
X89357142Y-49771785D02*
X89428571Y-49628928D01*
X89500000Y-49557500D01*
X89642857Y-49486071D01*
X89785714Y-49486071D01*
D10*
X52466666Y-116652380D02*
X52466666Y-117366666D01*
X52419047Y-117509523D01*
X52323809Y-117604761D01*
X52180952Y-117652380D01*
X52085714Y-117652380D01*
X53371428Y-116985714D02*
X53371428Y-117652380D01*
X53133333Y-116604761D02*
X52895238Y-117319047D01*
X53514285Y-117319047D01*
X106766666Y-116652380D02*
X106766666Y-117366666D01*
X106719047Y-117509523D01*
X106623809Y-117604761D01*
X106480952Y-117652380D01*
X106385714Y-117652380D01*
X107147619Y-116652380D02*
X107766666Y-116652380D01*
X107433333Y-117033333D01*
X107576190Y-117033333D01*
X107671428Y-117080952D01*
X107719047Y-117128571D01*
X107766666Y-117223809D01*
X107766666Y-117461904D01*
X107719047Y-117557142D01*
X107671428Y-117604761D01*
X107576190Y-117652380D01*
X107290476Y-117652380D01*
X107195238Y-117604761D01*
X107147619Y-117557142D01*
X52466666Y-59652380D02*
X52466666Y-60366666D01*
X52419047Y-60509523D01*
X52323809Y-60604761D01*
X52180952Y-60652380D01*
X52085714Y-60652380D01*
X52895238Y-59747619D02*
X52942857Y-59700000D01*
X53038095Y-59652380D01*
X53276190Y-59652380D01*
X53371428Y-59700000D01*
X53419047Y-59747619D01*
X53466666Y-59842857D01*
X53466666Y-59938095D01*
X53419047Y-60080952D01*
X52847619Y-60652380D01*
X53466666Y-60652380D01*
%TO.C,J7*%
X93214285Y-111352380D02*
X93214285Y-110352380D01*
X93595238Y-110352380D01*
X93690476Y-110400000D01*
X93738095Y-110447619D01*
X93785714Y-110542857D01*
X93785714Y-110685714D01*
X93738095Y-110780952D01*
X93690476Y-110828571D01*
X93595238Y-110876190D01*
X93214285Y-110876190D01*
X94119047Y-110352380D02*
X94357142Y-111352380D01*
X94547619Y-110638095D01*
X94738095Y-111352380D01*
X94976190Y-110352380D01*
X95357142Y-111352380D02*
X95357142Y-110352380D01*
X95690476Y-111066666D01*
X96023809Y-110352380D01*
X96023809Y-111352380D01*
X96261904Y-111447619D02*
X97023809Y-111447619D01*
X97833333Y-111257142D02*
X97785714Y-111304761D01*
X97642857Y-111352380D01*
X97547619Y-111352380D01*
X97404761Y-111304761D01*
X97309523Y-111209523D01*
X97261904Y-111114285D01*
X97214285Y-110923809D01*
X97214285Y-110780952D01*
X97261904Y-110590476D01*
X97309523Y-110495238D01*
X97404761Y-110400000D01*
X97547619Y-110352380D01*
X97642857Y-110352380D01*
X97785714Y-110400000D01*
X97833333Y-110447619D01*
X98119047Y-110352380D02*
X98452380Y-111352380D01*
X98785714Y-110352380D01*
X98880952Y-111447619D02*
X99642857Y-111447619D01*
X99880952Y-111352380D02*
X99880952Y-110352380D01*
X100357142Y-110685714D02*
X100357142Y-111352380D01*
X100357142Y-110780952D02*
X100404761Y-110733333D01*
X100500000Y-110685714D01*
X100642857Y-110685714D01*
X100738095Y-110733333D01*
X100785714Y-110828571D01*
X100785714Y-111352380D01*
%TO.C,Fine_Tune1*%
X90412380Y-67468571D02*
X90079047Y-67468571D01*
X90079047Y-67992380D02*
X90079047Y-66992380D01*
X90555238Y-66992380D01*
X90936190Y-67992380D02*
X90936190Y-67325714D01*
X90936190Y-66992380D02*
X90888571Y-67040000D01*
X90936190Y-67087619D01*
X90983809Y-67040000D01*
X90936190Y-66992380D01*
X90936190Y-67087619D01*
X91412380Y-67325714D02*
X91412380Y-67992380D01*
X91412380Y-67420952D02*
X91460000Y-67373333D01*
X91555238Y-67325714D01*
X91698095Y-67325714D01*
X91793333Y-67373333D01*
X91840952Y-67468571D01*
X91840952Y-67992380D01*
X92698095Y-67944761D02*
X92602857Y-67992380D01*
X92412380Y-67992380D01*
X92317142Y-67944761D01*
X92269523Y-67849523D01*
X92269523Y-67468571D01*
X92317142Y-67373333D01*
X92412380Y-67325714D01*
X92602857Y-67325714D01*
X92698095Y-67373333D01*
X92745714Y-67468571D01*
X92745714Y-67563809D01*
X92269523Y-67659047D01*
X92936190Y-68087619D02*
X93698095Y-68087619D01*
X93793333Y-66992380D02*
X94364761Y-66992380D01*
X94079047Y-67992380D02*
X94079047Y-66992380D01*
X95126666Y-67325714D02*
X95126666Y-67992380D01*
X94698095Y-67325714D02*
X94698095Y-67849523D01*
X94745714Y-67944761D01*
X94840952Y-67992380D01*
X94983809Y-67992380D01*
X95079047Y-67944761D01*
X95126666Y-67897142D01*
X95602857Y-67325714D02*
X95602857Y-67992380D01*
X95602857Y-67420952D02*
X95650476Y-67373333D01*
X95745714Y-67325714D01*
X95888571Y-67325714D01*
X95983809Y-67373333D01*
X96031428Y-67468571D01*
X96031428Y-67992380D01*
X96888571Y-67944761D02*
X96793333Y-67992380D01*
X96602857Y-67992380D01*
X96507619Y-67944761D01*
X96460000Y-67849523D01*
X96460000Y-67468571D01*
X96507619Y-67373333D01*
X96602857Y-67325714D01*
X96793333Y-67325714D01*
X96888571Y-67373333D01*
X96936190Y-67468571D01*
X96936190Y-67563809D01*
X96460000Y-67659047D01*
X97888571Y-67992380D02*
X97317142Y-67992380D01*
X97602857Y-67992380D02*
X97602857Y-66992380D01*
X97507619Y-67135238D01*
X97412380Y-67230476D01*
X97317142Y-67278095D01*
%TO.C,J9*%
X59023809Y-110828571D02*
X58690476Y-110828571D01*
X58690476Y-111352380D02*
X58690476Y-110352380D01*
X59166666Y-110352380D01*
X59547619Y-111352380D02*
X59547619Y-110685714D01*
X59547619Y-110876190D02*
X59595238Y-110780952D01*
X59642857Y-110733333D01*
X59738095Y-110685714D01*
X59833333Y-110685714D01*
X60547619Y-111304761D02*
X60452380Y-111352380D01*
X60261904Y-111352380D01*
X60166666Y-111304761D01*
X60119047Y-111209523D01*
X60119047Y-110828571D01*
X60166666Y-110733333D01*
X60261904Y-110685714D01*
X60452380Y-110685714D01*
X60547619Y-110733333D01*
X60595238Y-110828571D01*
X60595238Y-110923809D01*
X60119047Y-111019047D01*
X61452380Y-110685714D02*
X61452380Y-111685714D01*
X61452380Y-111304761D02*
X61357142Y-111352380D01*
X61166666Y-111352380D01*
X61071428Y-111304761D01*
X61023809Y-111257142D01*
X60976190Y-111161904D01*
X60976190Y-110876190D01*
X61023809Y-110780952D01*
X61071428Y-110733333D01*
X61166666Y-110685714D01*
X61357142Y-110685714D01*
X61452380Y-110733333D01*
X61690476Y-111447619D02*
X62452380Y-111447619D01*
X62690476Y-111352380D02*
X62690476Y-110352380D01*
X63023809Y-111066666D01*
X63357142Y-110352380D01*
X63357142Y-111352380D01*
X63976190Y-111352380D02*
X63880952Y-111304761D01*
X63833333Y-111257142D01*
X63785714Y-111161904D01*
X63785714Y-110876190D01*
X63833333Y-110780952D01*
X63880952Y-110733333D01*
X63976190Y-110685714D01*
X64119047Y-110685714D01*
X64214285Y-110733333D01*
X64261904Y-110780952D01*
X64309523Y-110876190D01*
X64309523Y-111161904D01*
X64261904Y-111257142D01*
X64214285Y-111304761D01*
X64119047Y-111352380D01*
X63976190Y-111352380D01*
X65166666Y-111352380D02*
X65166666Y-110352380D01*
X65166666Y-111304761D02*
X65071428Y-111352380D01*
X64880952Y-111352380D01*
X64785714Y-111304761D01*
X64738095Y-111257142D01*
X64690476Y-111161904D01*
X64690476Y-110876190D01*
X64738095Y-110780952D01*
X64785714Y-110733333D01*
X64880952Y-110685714D01*
X65071428Y-110685714D01*
X65166666Y-110733333D01*
X65404761Y-111447619D02*
X66166666Y-111447619D01*
X66404761Y-111352380D02*
X66404761Y-110352380D01*
X66880952Y-110685714D02*
X66880952Y-111352380D01*
X66880952Y-110780952D02*
X66928571Y-110733333D01*
X67023809Y-110685714D01*
X67166666Y-110685714D01*
X67261904Y-110733333D01*
X67309523Y-110828571D01*
X67309523Y-111352380D01*
%TO.C,Octave_Tune1*%
X61317142Y-66992380D02*
X61507619Y-66992380D01*
X61602857Y-67040000D01*
X61698095Y-67135238D01*
X61745714Y-67325714D01*
X61745714Y-67659047D01*
X61698095Y-67849523D01*
X61602857Y-67944761D01*
X61507619Y-67992380D01*
X61317142Y-67992380D01*
X61221904Y-67944761D01*
X61126666Y-67849523D01*
X61079047Y-67659047D01*
X61079047Y-67325714D01*
X61126666Y-67135238D01*
X61221904Y-67040000D01*
X61317142Y-66992380D01*
X62602857Y-67944761D02*
X62507619Y-67992380D01*
X62317142Y-67992380D01*
X62221904Y-67944761D01*
X62174285Y-67897142D01*
X62126666Y-67801904D01*
X62126666Y-67516190D01*
X62174285Y-67420952D01*
X62221904Y-67373333D01*
X62317142Y-67325714D01*
X62507619Y-67325714D01*
X62602857Y-67373333D01*
X62888571Y-67325714D02*
X63269523Y-67325714D01*
X63031428Y-66992380D02*
X63031428Y-67849523D01*
X63079047Y-67944761D01*
X63174285Y-67992380D01*
X63269523Y-67992380D01*
X64031428Y-67992380D02*
X64031428Y-67468571D01*
X63983809Y-67373333D01*
X63888571Y-67325714D01*
X63698095Y-67325714D01*
X63602857Y-67373333D01*
X64031428Y-67944761D02*
X63936190Y-67992380D01*
X63698095Y-67992380D01*
X63602857Y-67944761D01*
X63555238Y-67849523D01*
X63555238Y-67754285D01*
X63602857Y-67659047D01*
X63698095Y-67611428D01*
X63936190Y-67611428D01*
X64031428Y-67563809D01*
X64412380Y-67325714D02*
X64650476Y-67992380D01*
X64888571Y-67325714D01*
X65650476Y-67944761D02*
X65555238Y-67992380D01*
X65364761Y-67992380D01*
X65269523Y-67944761D01*
X65221904Y-67849523D01*
X65221904Y-67468571D01*
X65269523Y-67373333D01*
X65364761Y-67325714D01*
X65555238Y-67325714D01*
X65650476Y-67373333D01*
X65698095Y-67468571D01*
X65698095Y-67563809D01*
X65221904Y-67659047D01*
X65888571Y-68087619D02*
X66650476Y-68087619D01*
X66745714Y-66992380D02*
X67317142Y-66992380D01*
X67031428Y-67992380D02*
X67031428Y-66992380D01*
X68079047Y-67325714D02*
X68079047Y-67992380D01*
X67650476Y-67325714D02*
X67650476Y-67849523D01*
X67698095Y-67944761D01*
X67793333Y-67992380D01*
X67936190Y-67992380D01*
X68031428Y-67944761D01*
X68079047Y-67897142D01*
X68555238Y-67325714D02*
X68555238Y-67992380D01*
X68555238Y-67420952D02*
X68602857Y-67373333D01*
X68698095Y-67325714D01*
X68840952Y-67325714D01*
X68936190Y-67373333D01*
X68983809Y-67468571D01*
X68983809Y-67992380D01*
X69840952Y-67944761D02*
X69745714Y-67992380D01*
X69555238Y-67992380D01*
X69460000Y-67944761D01*
X69412380Y-67849523D01*
X69412380Y-67468571D01*
X69460000Y-67373333D01*
X69555238Y-67325714D01*
X69745714Y-67325714D01*
X69840952Y-67373333D01*
X69888571Y-67468571D01*
X69888571Y-67563809D01*
X69412380Y-67659047D01*
X70840952Y-67992380D02*
X70269523Y-67992380D01*
X70555238Y-67992380D02*
X70555238Y-66992380D01*
X70460000Y-67135238D01*
X70364761Y-67230476D01*
X70269523Y-67278095D01*
%TO.C,J8*%
X92614285Y-137104761D02*
X92757142Y-137152380D01*
X92995238Y-137152380D01*
X93090476Y-137104761D01*
X93138095Y-137057142D01*
X93185714Y-136961904D01*
X93185714Y-136866666D01*
X93138095Y-136771428D01*
X93090476Y-136723809D01*
X92995238Y-136676190D01*
X92804761Y-136628571D01*
X92709523Y-136580952D01*
X92661904Y-136533333D01*
X92614285Y-136438095D01*
X92614285Y-136342857D01*
X92661904Y-136247619D01*
X92709523Y-136200000D01*
X92804761Y-136152380D01*
X93042857Y-136152380D01*
X93185714Y-136200000D01*
X93519047Y-136485714D02*
X93757142Y-137152380D01*
X93995238Y-136485714D02*
X93757142Y-137152380D01*
X93661904Y-137390476D01*
X93614285Y-137438095D01*
X93519047Y-137485714D01*
X94376190Y-136485714D02*
X94376190Y-137152380D01*
X94376190Y-136580952D02*
X94423809Y-136533333D01*
X94519047Y-136485714D01*
X94661904Y-136485714D01*
X94757142Y-136533333D01*
X94804761Y-136628571D01*
X94804761Y-137152380D01*
X95709523Y-137104761D02*
X95614285Y-137152380D01*
X95423809Y-137152380D01*
X95328571Y-137104761D01*
X95280952Y-137057142D01*
X95233333Y-136961904D01*
X95233333Y-136676190D01*
X95280952Y-136580952D01*
X95328571Y-136533333D01*
X95423809Y-136485714D01*
X95614285Y-136485714D01*
X95709523Y-136533333D01*
X96138095Y-137152380D02*
X96138095Y-136152380D01*
X96566666Y-137152380D02*
X96566666Y-136628571D01*
X96519047Y-136533333D01*
X96423809Y-136485714D01*
X96280952Y-136485714D01*
X96185714Y-136533333D01*
X96138095Y-136580952D01*
X96804761Y-137247619D02*
X97566666Y-137247619D01*
X97757142Y-137104761D02*
X97900000Y-137152380D01*
X98138095Y-137152380D01*
X98233333Y-137104761D01*
X98280952Y-137057142D01*
X98328571Y-136961904D01*
X98328571Y-136866666D01*
X98280952Y-136771428D01*
X98233333Y-136723809D01*
X98138095Y-136676190D01*
X97947619Y-136628571D01*
X97852380Y-136580952D01*
X97804761Y-136533333D01*
X97757142Y-136438095D01*
X97757142Y-136342857D01*
X97804761Y-136247619D01*
X97852380Y-136200000D01*
X97947619Y-136152380D01*
X98185714Y-136152380D01*
X98328571Y-136200000D01*
X98757142Y-137152380D02*
X98757142Y-136485714D01*
X98757142Y-136152380D02*
X98709523Y-136200000D01*
X98757142Y-136247619D01*
X98804761Y-136200000D01*
X98757142Y-136152380D01*
X98757142Y-136247619D01*
X99661904Y-136485714D02*
X99661904Y-137295238D01*
X99614285Y-137390476D01*
X99566666Y-137438095D01*
X99471428Y-137485714D01*
X99328571Y-137485714D01*
X99233333Y-137438095D01*
X99661904Y-137104761D02*
X99566666Y-137152380D01*
X99376190Y-137152380D01*
X99280952Y-137104761D01*
X99233333Y-137057142D01*
X99185714Y-136961904D01*
X99185714Y-136676190D01*
X99233333Y-136580952D01*
X99280952Y-136533333D01*
X99376190Y-136485714D01*
X99566666Y-136485714D01*
X99661904Y-136533333D01*
X100138095Y-136485714D02*
X100138095Y-137152380D01*
X100138095Y-136580952D02*
X100185714Y-136533333D01*
X100280952Y-136485714D01*
X100423809Y-136485714D01*
X100519047Y-136533333D01*
X100566666Y-136628571D01*
X100566666Y-137152380D01*
X101471428Y-137152380D02*
X101471428Y-136628571D01*
X101423809Y-136533333D01*
X101328571Y-136485714D01*
X101138095Y-136485714D01*
X101042857Y-136533333D01*
X101471428Y-137104761D02*
X101376190Y-137152380D01*
X101138095Y-137152380D01*
X101042857Y-137104761D01*
X100995238Y-137009523D01*
X100995238Y-136914285D01*
X101042857Y-136819047D01*
X101138095Y-136771428D01*
X101376190Y-136771428D01*
X101471428Y-136723809D01*
X102090476Y-137152380D02*
X101995238Y-137104761D01*
X101947619Y-137009523D01*
X101947619Y-136152380D01*
X102233333Y-137247619D02*
X102995238Y-137247619D01*
X103233333Y-137152380D02*
X103233333Y-136152380D01*
X103709523Y-136485714D02*
X103709523Y-137152380D01*
X103709523Y-136580952D02*
X103757142Y-136533333D01*
X103852380Y-136485714D01*
X103995238Y-136485714D01*
X104090476Y-136533333D01*
X104138095Y-136628571D01*
X104138095Y-137152380D01*
%TO.C,SW1*%
X90060190Y-81804761D02*
X90203047Y-81852380D01*
X90441142Y-81852380D01*
X90536380Y-81804761D01*
X90584000Y-81757142D01*
X90631619Y-81661904D01*
X90631619Y-81566666D01*
X90584000Y-81471428D01*
X90536380Y-81423809D01*
X90441142Y-81376190D01*
X90250666Y-81328571D01*
X90155428Y-81280952D01*
X90107809Y-81233333D01*
X90060190Y-81138095D01*
X90060190Y-81042857D01*
X90107809Y-80947619D01*
X90155428Y-80900000D01*
X90250666Y-80852380D01*
X90488761Y-80852380D01*
X90631619Y-80900000D01*
X90964952Y-81185714D02*
X91203047Y-81852380D01*
X91441142Y-81185714D02*
X91203047Y-81852380D01*
X91107809Y-82090476D01*
X91060190Y-82138095D01*
X90964952Y-82185714D01*
X91822095Y-81185714D02*
X91822095Y-81852380D01*
X91822095Y-81280952D02*
X91869714Y-81233333D01*
X91964952Y-81185714D01*
X92107809Y-81185714D01*
X92203047Y-81233333D01*
X92250666Y-81328571D01*
X92250666Y-81852380D01*
X93155428Y-81804761D02*
X93060190Y-81852380D01*
X92869714Y-81852380D01*
X92774476Y-81804761D01*
X92726857Y-81757142D01*
X92679238Y-81661904D01*
X92679238Y-81376190D01*
X92726857Y-81280952D01*
X92774476Y-81233333D01*
X92869714Y-81185714D01*
X93060190Y-81185714D01*
X93155428Y-81233333D01*
X93584000Y-81852380D02*
X93584000Y-80852380D01*
X94012571Y-81852380D02*
X94012571Y-81328571D01*
X93964952Y-81233333D01*
X93869714Y-81185714D01*
X93726857Y-81185714D01*
X93631619Y-81233333D01*
X93584000Y-81280952D01*
X94250666Y-81947619D02*
X95012571Y-81947619D01*
X95107809Y-80852380D02*
X95679238Y-80852380D01*
X95393523Y-81852380D02*
X95393523Y-80852380D01*
X95917333Y-81185714D02*
X96155428Y-81852380D01*
X96393523Y-81185714D02*
X96155428Y-81852380D01*
X96060190Y-82090476D01*
X96012571Y-82138095D01*
X95917333Y-82185714D01*
X96774476Y-81185714D02*
X96774476Y-82185714D01*
X96774476Y-81233333D02*
X96869714Y-81185714D01*
X97060190Y-81185714D01*
X97155428Y-81233333D01*
X97203047Y-81280952D01*
X97250666Y-81376190D01*
X97250666Y-81661904D01*
X97203047Y-81757142D01*
X97155428Y-81804761D01*
X97060190Y-81852380D01*
X96869714Y-81852380D01*
X96774476Y-81804761D01*
X98060190Y-81804761D02*
X97964952Y-81852380D01*
X97774476Y-81852380D01*
X97679238Y-81804761D01*
X97631619Y-81709523D01*
X97631619Y-81328571D01*
X97679238Y-81233333D01*
X97774476Y-81185714D01*
X97964952Y-81185714D01*
X98060190Y-81233333D01*
X98107809Y-81328571D01*
X98107809Y-81423809D01*
X97631619Y-81519047D01*
%TO.C,Vibrato_Depth1*%
X57460000Y-103492380D02*
X57793333Y-104492380D01*
X58126666Y-103492380D01*
X58460000Y-104492380D02*
X58460000Y-103825714D01*
X58460000Y-103492380D02*
X58412380Y-103540000D01*
X58460000Y-103587619D01*
X58507619Y-103540000D01*
X58460000Y-103492380D01*
X58460000Y-103587619D01*
X58936190Y-104492380D02*
X58936190Y-103492380D01*
X58936190Y-103873333D02*
X59031428Y-103825714D01*
X59221904Y-103825714D01*
X59317142Y-103873333D01*
X59364761Y-103920952D01*
X59412380Y-104016190D01*
X59412380Y-104301904D01*
X59364761Y-104397142D01*
X59317142Y-104444761D01*
X59221904Y-104492380D01*
X59031428Y-104492380D01*
X58936190Y-104444761D01*
X59840952Y-104492380D02*
X59840952Y-103825714D01*
X59840952Y-104016190D02*
X59888571Y-103920952D01*
X59936190Y-103873333D01*
X60031428Y-103825714D01*
X60126666Y-103825714D01*
X60888571Y-104492380D02*
X60888571Y-103968571D01*
X60840952Y-103873333D01*
X60745714Y-103825714D01*
X60555238Y-103825714D01*
X60460000Y-103873333D01*
X60888571Y-104444761D02*
X60793333Y-104492380D01*
X60555238Y-104492380D01*
X60460000Y-104444761D01*
X60412380Y-104349523D01*
X60412380Y-104254285D01*
X60460000Y-104159047D01*
X60555238Y-104111428D01*
X60793333Y-104111428D01*
X60888571Y-104063809D01*
X61221904Y-103825714D02*
X61602857Y-103825714D01*
X61364761Y-103492380D02*
X61364761Y-104349523D01*
X61412380Y-104444761D01*
X61507619Y-104492380D01*
X61602857Y-104492380D01*
X62079047Y-104492380D02*
X61983809Y-104444761D01*
X61936190Y-104397142D01*
X61888571Y-104301904D01*
X61888571Y-104016190D01*
X61936190Y-103920952D01*
X61983809Y-103873333D01*
X62079047Y-103825714D01*
X62221904Y-103825714D01*
X62317142Y-103873333D01*
X62364761Y-103920952D01*
X62412380Y-104016190D01*
X62412380Y-104301904D01*
X62364761Y-104397142D01*
X62317142Y-104444761D01*
X62221904Y-104492380D01*
X62079047Y-104492380D01*
X62602857Y-104587619D02*
X63364761Y-104587619D01*
X63602857Y-104492380D02*
X63602857Y-103492380D01*
X63840952Y-103492380D01*
X63983809Y-103540000D01*
X64079047Y-103635238D01*
X64126666Y-103730476D01*
X64174285Y-103920952D01*
X64174285Y-104063809D01*
X64126666Y-104254285D01*
X64079047Y-104349523D01*
X63983809Y-104444761D01*
X63840952Y-104492380D01*
X63602857Y-104492380D01*
X64983809Y-104444761D02*
X64888571Y-104492380D01*
X64698095Y-104492380D01*
X64602857Y-104444761D01*
X64555238Y-104349523D01*
X64555238Y-103968571D01*
X64602857Y-103873333D01*
X64698095Y-103825714D01*
X64888571Y-103825714D01*
X64983809Y-103873333D01*
X65031428Y-103968571D01*
X65031428Y-104063809D01*
X64555238Y-104159047D01*
X65460000Y-103825714D02*
X65460000Y-104825714D01*
X65460000Y-103873333D02*
X65555238Y-103825714D01*
X65745714Y-103825714D01*
X65840952Y-103873333D01*
X65888571Y-103920952D01*
X65936190Y-104016190D01*
X65936190Y-104301904D01*
X65888571Y-104397142D01*
X65840952Y-104444761D01*
X65745714Y-104492380D01*
X65555238Y-104492380D01*
X65460000Y-104444761D01*
X66221904Y-103825714D02*
X66602857Y-103825714D01*
X66364761Y-103492380D02*
X66364761Y-104349523D01*
X66412380Y-104444761D01*
X66507619Y-104492380D01*
X66602857Y-104492380D01*
X66936190Y-104492380D02*
X66936190Y-103492380D01*
X67364761Y-104492380D02*
X67364761Y-103968571D01*
X67317142Y-103873333D01*
X67221904Y-103825714D01*
X67079047Y-103825714D01*
X66983809Y-103873333D01*
X66936190Y-103920952D01*
X68364761Y-104492380D02*
X67793333Y-104492380D01*
X68079047Y-104492380D02*
X68079047Y-103492380D01*
X67983809Y-103635238D01*
X67888571Y-103730476D01*
X67793333Y-103778095D01*
%TO.C,J10*%
X58861904Y-136952380D02*
X58861904Y-135952380D01*
X59242857Y-135952380D01*
X59338095Y-136000000D01*
X59385714Y-136047619D01*
X59433333Y-136142857D01*
X59433333Y-136285714D01*
X59385714Y-136380952D01*
X59338095Y-136428571D01*
X59242857Y-136476190D01*
X58861904Y-136476190D01*
X59861904Y-136952380D02*
X59861904Y-136285714D01*
X59861904Y-135952380D02*
X59814285Y-136000000D01*
X59861904Y-136047619D01*
X59909523Y-136000000D01*
X59861904Y-135952380D01*
X59861904Y-136047619D01*
X60195238Y-136285714D02*
X60576190Y-136285714D01*
X60338095Y-135952380D02*
X60338095Y-136809523D01*
X60385714Y-136904761D01*
X60480952Y-136952380D01*
X60576190Y-136952380D01*
X61338095Y-136904761D02*
X61242857Y-136952380D01*
X61052380Y-136952380D01*
X60957142Y-136904761D01*
X60909523Y-136857142D01*
X60861904Y-136761904D01*
X60861904Y-136476190D01*
X60909523Y-136380952D01*
X60957142Y-136333333D01*
X61052380Y-136285714D01*
X61242857Y-136285714D01*
X61338095Y-136333333D01*
X61766666Y-136952380D02*
X61766666Y-135952380D01*
X62195238Y-136952380D02*
X62195238Y-136428571D01*
X62147619Y-136333333D01*
X62052380Y-136285714D01*
X61909523Y-136285714D01*
X61814285Y-136333333D01*
X61766666Y-136380952D01*
X62433333Y-137047619D02*
X63195238Y-137047619D01*
X63433333Y-136952380D02*
X63433333Y-135952380D01*
X63909523Y-136285714D02*
X63909523Y-136952380D01*
X63909523Y-136380952D02*
X63957142Y-136333333D01*
X64052380Y-136285714D01*
X64195238Y-136285714D01*
X64290476Y-136333333D01*
X64338095Y-136428571D01*
X64338095Y-136952380D01*
%TO.C,SW2*%
X62152380Y-83952380D02*
X62342857Y-83952380D01*
X62438095Y-84000000D01*
X62533333Y-84095238D01*
X62580952Y-84285714D01*
X62580952Y-84619047D01*
X62533333Y-84809523D01*
X62438095Y-84904761D01*
X62342857Y-84952380D01*
X62152380Y-84952380D01*
X62057142Y-84904761D01*
X61961904Y-84809523D01*
X61914285Y-84619047D01*
X61914285Y-84285714D01*
X61961904Y-84095238D01*
X62057142Y-84000000D01*
X62152380Y-83952380D01*
X63438095Y-84285714D02*
X63438095Y-84952380D01*
X63009523Y-84285714D02*
X63009523Y-84809523D01*
X63057142Y-84904761D01*
X63152380Y-84952380D01*
X63295238Y-84952380D01*
X63390476Y-84904761D01*
X63438095Y-84857142D01*
X63771428Y-84285714D02*
X64152380Y-84285714D01*
X63914285Y-83952380D02*
X63914285Y-84809523D01*
X63961904Y-84904761D01*
X64057142Y-84952380D01*
X64152380Y-84952380D01*
X64485714Y-84285714D02*
X64485714Y-85285714D01*
X64485714Y-84333333D02*
X64580952Y-84285714D01*
X64771428Y-84285714D01*
X64866666Y-84333333D01*
X64914285Y-84380952D01*
X64961904Y-84476190D01*
X64961904Y-84761904D01*
X64914285Y-84857142D01*
X64866666Y-84904761D01*
X64771428Y-84952380D01*
X64580952Y-84952380D01*
X64485714Y-84904761D01*
X65819047Y-84285714D02*
X65819047Y-84952380D01*
X65390476Y-84285714D02*
X65390476Y-84809523D01*
X65438095Y-84904761D01*
X65533333Y-84952380D01*
X65676190Y-84952380D01*
X65771428Y-84904761D01*
X65819047Y-84857142D01*
X66152380Y-84285714D02*
X66533333Y-84285714D01*
X66295238Y-83952380D02*
X66295238Y-84809523D01*
X66342857Y-84904761D01*
X66438095Y-84952380D01*
X66533333Y-84952380D01*
X66628571Y-85047619D02*
X67390476Y-85047619D01*
X67485714Y-83952380D02*
X68057142Y-83952380D01*
X67771428Y-84952380D02*
X67771428Y-83952380D01*
X68295238Y-84285714D02*
X68533333Y-84952380D01*
X68771428Y-84285714D02*
X68533333Y-84952380D01*
X68438095Y-85190476D01*
X68390476Y-85238095D01*
X68295238Y-85285714D01*
X69152380Y-84285714D02*
X69152380Y-85285714D01*
X69152380Y-84333333D02*
X69247619Y-84285714D01*
X69438095Y-84285714D01*
X69533333Y-84333333D01*
X69580952Y-84380952D01*
X69628571Y-84476190D01*
X69628571Y-84761904D01*
X69580952Y-84857142D01*
X69533333Y-84904761D01*
X69438095Y-84952380D01*
X69247619Y-84952380D01*
X69152380Y-84904761D01*
X70438095Y-84904761D02*
X70342857Y-84952380D01*
X70152380Y-84952380D01*
X70057142Y-84904761D01*
X70009523Y-84809523D01*
X70009523Y-84428571D01*
X70057142Y-84333333D01*
X70152380Y-84285714D01*
X70342857Y-84285714D01*
X70438095Y-84333333D01*
X70485714Y-84428571D01*
X70485714Y-84523809D01*
X70009523Y-84619047D01*
%TO.C,J11*%
X77280952Y-137152380D02*
X77280952Y-136152380D01*
X77614285Y-136866666D01*
X77947619Y-136152380D01*
X77947619Y-137152380D01*
X78423809Y-137152380D02*
X78423809Y-136485714D01*
X78423809Y-136152380D02*
X78376190Y-136200000D01*
X78423809Y-136247619D01*
X78471428Y-136200000D01*
X78423809Y-136152380D01*
X78423809Y-136247619D01*
X78804761Y-137152380D02*
X79328571Y-136485714D01*
X78804761Y-136485714D02*
X79328571Y-137152380D01*
X79471428Y-137247619D02*
X80233333Y-137247619D01*
X80661904Y-136152380D02*
X80852380Y-136152380D01*
X80947619Y-136200000D01*
X81042857Y-136295238D01*
X81090476Y-136485714D01*
X81090476Y-136819047D01*
X81042857Y-137009523D01*
X80947619Y-137104761D01*
X80852380Y-137152380D01*
X80661904Y-137152380D01*
X80566666Y-137104761D01*
X80471428Y-137009523D01*
X80423809Y-136819047D01*
X80423809Y-136485714D01*
X80471428Y-136295238D01*
X80566666Y-136200000D01*
X80661904Y-136152380D01*
X81947619Y-136485714D02*
X81947619Y-137152380D01*
X81519047Y-136485714D02*
X81519047Y-137009523D01*
X81566666Y-137104761D01*
X81661904Y-137152380D01*
X81804761Y-137152380D01*
X81900000Y-137104761D01*
X81947619Y-137057142D01*
X82280952Y-136485714D02*
X82661904Y-136485714D01*
X82423809Y-136152380D02*
X82423809Y-137009523D01*
X82471428Y-137104761D01*
X82566666Y-137152380D01*
X82661904Y-137152380D01*
%TO.C,J6*%
X78314285Y-101052380D02*
X77838095Y-101052380D01*
X77838095Y-100052380D01*
X78980952Y-100528571D02*
X78647619Y-100528571D01*
X78647619Y-101052380D02*
X78647619Y-100052380D01*
X79123809Y-100052380D01*
X79695238Y-100052380D02*
X79885714Y-100052380D01*
X79980952Y-100100000D01*
X80076190Y-100195238D01*
X80123809Y-100385714D01*
X80123809Y-100719047D01*
X80076190Y-100909523D01*
X79980952Y-101004761D01*
X79885714Y-101052380D01*
X79695238Y-101052380D01*
X79600000Y-101004761D01*
X79504761Y-100909523D01*
X79457142Y-100719047D01*
X79457142Y-100385714D01*
X79504761Y-100195238D01*
X79600000Y-100100000D01*
X79695238Y-100052380D01*
X80314285Y-101147619D02*
X81076190Y-101147619D01*
X81314285Y-101052380D02*
X81314285Y-100052380D01*
X81790476Y-101052380D02*
X81790476Y-100052380D01*
X82361904Y-101052380D01*
X82361904Y-100052380D01*
%TO.C,PWM_Pot1*%
X93460000Y-104492380D02*
X93460000Y-103492380D01*
X93840952Y-103492380D01*
X93936190Y-103540000D01*
X93983809Y-103587619D01*
X94031428Y-103682857D01*
X94031428Y-103825714D01*
X93983809Y-103920952D01*
X93936190Y-103968571D01*
X93840952Y-104016190D01*
X93460000Y-104016190D01*
X94364761Y-103492380D02*
X94602857Y-104492380D01*
X94793333Y-103778095D01*
X94983809Y-104492380D01*
X95221904Y-103492380D01*
X95602857Y-104492380D02*
X95602857Y-103492380D01*
X95936190Y-104206666D01*
X96269523Y-103492380D01*
X96269523Y-104492380D01*
X96507619Y-104587619D02*
X97269523Y-104587619D01*
X97507619Y-104492380D02*
X97507619Y-103492380D01*
X97888571Y-103492380D01*
X97983809Y-103540000D01*
X98031428Y-103587619D01*
X98079047Y-103682857D01*
X98079047Y-103825714D01*
X98031428Y-103920952D01*
X97983809Y-103968571D01*
X97888571Y-104016190D01*
X97507619Y-104016190D01*
X98650476Y-104492380D02*
X98555238Y-104444761D01*
X98507619Y-104397142D01*
X98460000Y-104301904D01*
X98460000Y-104016190D01*
X98507619Y-103920952D01*
X98555238Y-103873333D01*
X98650476Y-103825714D01*
X98793333Y-103825714D01*
X98888571Y-103873333D01*
X98936190Y-103920952D01*
X98983809Y-104016190D01*
X98983809Y-104301904D01*
X98936190Y-104397142D01*
X98888571Y-104444761D01*
X98793333Y-104492380D01*
X98650476Y-104492380D01*
X99269523Y-103825714D02*
X99650476Y-103825714D01*
X99412380Y-103492380D02*
X99412380Y-104349523D01*
X99460000Y-104444761D01*
X99555238Y-104492380D01*
X99650476Y-104492380D01*
X100507619Y-104492380D02*
X99936190Y-104492380D01*
X100221904Y-104492380D02*
X100221904Y-103492380D01*
X100126666Y-103635238D01*
X100031428Y-103730476D01*
X99936190Y-103778095D01*
%TO.C,J5*%
X77285714Y-133072380D02*
X77285714Y-132072380D01*
X77666666Y-132072380D01*
X77761904Y-132120000D01*
X77809523Y-132167619D01*
X77857142Y-132262857D01*
X77857142Y-132405714D01*
X77809523Y-132500952D01*
X77761904Y-132548571D01*
X77666666Y-132596190D01*
X77285714Y-132596190D01*
X78190476Y-132072380D02*
X78428571Y-133072380D01*
X78619047Y-132358095D01*
X78809523Y-133072380D01*
X79047619Y-132072380D01*
X79428571Y-133072380D02*
X79428571Y-132072380D01*
X79761904Y-132786666D01*
X80095238Y-132072380D01*
X80095238Y-133072380D01*
X80333333Y-133167619D02*
X81095238Y-133167619D01*
X81904761Y-132977142D02*
X81857142Y-133024761D01*
X81714285Y-133072380D01*
X81619047Y-133072380D01*
X81476190Y-133024761D01*
X81380952Y-132929523D01*
X81333333Y-132834285D01*
X81285714Y-132643809D01*
X81285714Y-132500952D01*
X81333333Y-132310476D01*
X81380952Y-132215238D01*
X81476190Y-132120000D01*
X81619047Y-132072380D01*
X81714285Y-132072380D01*
X81857142Y-132120000D01*
X81904761Y-132167619D01*
X82190476Y-132072380D02*
X82523809Y-133072380D01*
X82857142Y-132072380D01*
D12*
%TO.C,J7*%
X105200000Y-112680000D02*
X88850000Y-112680000D01*
X89100000Y-116350000D02*
X88600000Y-115850000D01*
X88600000Y-116850000D02*
X89100000Y-116350000D01*
X105200000Y-129320000D02*
X88850000Y-129320000D01*
X88850000Y-112680000D02*
X88850000Y-129320000D01*
X105200000Y-112680000D02*
X105200000Y-129320000D01*
X88600000Y-115850000D02*
X88600000Y-116850000D01*
%TO.C,Fine_Tune1*%
X89039000Y-64060000D02*
X90675000Y-64060000D01*
X97325000Y-64060000D02*
X98960000Y-64060000D01*
X98960000Y-64060000D02*
X98960000Y-60194000D01*
X89039000Y-51940000D02*
X98960000Y-51940000D01*
X89039000Y-55805000D02*
X89039000Y-51940000D01*
X92325000Y-64060000D02*
X93175000Y-64060000D01*
X98960000Y-55805000D02*
X98960000Y-51940000D01*
X94825000Y-64060000D02*
X95675000Y-64060000D01*
X89039000Y-64060000D02*
X89039000Y-60194000D01*
X91702000Y-59428000D02*
G75*
G03*
X96297753Y-59428295I2298000J1928000D01*
G01*
X96762000Y-56327000D02*
G75*
G03*
X91237568Y-56328018I-2762000J-1173000D01*
G01*
%TO.C,J9*%
X54600000Y-115850000D02*
X54600000Y-116850000D01*
X71200000Y-112680000D02*
X71200000Y-129320000D01*
X54850000Y-112680000D02*
X54850000Y-129320000D01*
X71200000Y-112680000D02*
X54850000Y-112680000D01*
X55100000Y-116350000D02*
X54600000Y-115850000D01*
X71200000Y-129320000D02*
X54850000Y-129320000D01*
X54600000Y-116850000D02*
X55100000Y-116350000D01*
%TO.C,Octave_Tune1*%
X70960000Y-64060000D02*
X70960000Y-60194000D01*
X69325000Y-64060000D02*
X70960000Y-64060000D01*
X64325000Y-64060000D02*
X65175000Y-64060000D01*
X61039000Y-55805000D02*
X61039000Y-51940000D01*
X61039000Y-64060000D02*
X61039000Y-60194000D01*
X61039000Y-64060000D02*
X62675000Y-64060000D01*
X61039000Y-51940000D02*
X70960000Y-51940000D01*
X70960000Y-55805000D02*
X70960000Y-51940000D01*
X66825000Y-64060000D02*
X67675000Y-64060000D01*
X68762000Y-56327000D02*
G75*
G03*
X63237568Y-56328018I-2762000J-1173000D01*
G01*
X63702000Y-59428000D02*
G75*
G03*
X68297753Y-59428295I2298000J1928000D01*
G01*
%TO.C,J8*%
X90500000Y-141350000D02*
X90000000Y-140850000D01*
X106600000Y-154320000D02*
X90250000Y-154320000D01*
X106600000Y-137680000D02*
X90250000Y-137680000D01*
X90000000Y-141850000D02*
X90500000Y-141350000D01*
X90250000Y-137680000D02*
X90250000Y-154320000D01*
X90000000Y-140850000D02*
X90000000Y-141850000D01*
X106600000Y-137680000D02*
X106600000Y-154320000D01*
D10*
%TO.C,SW1*%
X96681000Y-71890500D02*
X96681000Y-80057900D01*
X91319000Y-71915900D02*
X91319000Y-74115900D01*
X91319000Y-77707900D02*
X91319000Y-80007900D01*
D12*
%TO.C,Vibrato_Depth1*%
X63825000Y-100560000D02*
X64675000Y-100560000D01*
X58039000Y-100560000D02*
X59675000Y-100560000D01*
X58039000Y-88440000D02*
X67960000Y-88440000D01*
X61325000Y-100560000D02*
X62175000Y-100560000D01*
X67960000Y-92305000D02*
X67960000Y-88440000D01*
X66325000Y-100560000D02*
X67960000Y-100560000D01*
X58039000Y-92305000D02*
X58039000Y-88440000D01*
X58039000Y-100560000D02*
X58039000Y-96694000D01*
X67960000Y-100560000D02*
X67960000Y-96694000D01*
X65762000Y-92827000D02*
G75*
G03*
X60237568Y-92828018I-2762000J-1173000D01*
G01*
X60702000Y-95928000D02*
G75*
G03*
X65297753Y-95928295I2298000J1928000D01*
G01*
%TO.C,J10*%
X53200000Y-141850000D02*
X53700000Y-141350000D01*
X53700000Y-141350000D02*
X53200000Y-140850000D01*
X69800000Y-154320000D02*
X53450000Y-154320000D01*
X69800000Y-137680000D02*
X53450000Y-137680000D01*
X53450000Y-137680000D02*
X53450000Y-154320000D01*
X69800000Y-137680000D02*
X69800000Y-154320000D01*
X53200000Y-140850000D02*
X53200000Y-141850000D01*
D13*
%TO.C,SW2*%
X65292500Y-69650000D02*
X66707500Y-69650000D01*
X60285000Y-82350000D02*
X60285000Y-69650000D01*
X65292500Y-82350000D02*
X66707500Y-82350000D01*
X60285000Y-69650000D02*
X61877500Y-69650000D01*
X61877500Y-82350000D02*
X60285000Y-82350000D01*
X71715000Y-82350000D02*
X70122500Y-82350000D01*
X71715000Y-69650000D02*
X71715000Y-82350000D01*
X71715000Y-69650000D02*
X70122500Y-69650000D01*
D14*
X68765000Y-83100000D02*
G75*
G03*
X68765000Y-83100000I-100000J0D01*
G01*
D12*
%TO.C,J11*%
X71850000Y-137680000D02*
X71850000Y-154320000D01*
X88200000Y-137680000D02*
X71850000Y-137680000D01*
X88200000Y-154320000D02*
X71850000Y-154320000D01*
X71600000Y-141850000D02*
X72100000Y-141350000D01*
X72100000Y-141350000D02*
X71600000Y-140850000D01*
X71600000Y-140850000D02*
X71600000Y-141850000D01*
X88200000Y-137680000D02*
X88200000Y-154320000D01*
D10*
%TO.C,J6*%
X75500000Y-115000000D02*
X75500000Y-104500000D01*
X84500000Y-104500000D02*
X75500000Y-104500000D01*
X78095000Y-104555000D02*
X78095000Y-105190000D01*
X84500000Y-115000000D02*
X75500000Y-115000000D01*
X84500000Y-115000000D02*
X84500000Y-104500000D01*
X78095000Y-105190000D02*
X75555000Y-105190000D01*
X81905000Y-105190000D02*
X81905000Y-104555000D01*
X84445000Y-105190000D02*
X81905000Y-105190000D01*
X78095000Y-107095000D02*
X81905000Y-107095000D01*
X81905000Y-110905000D02*
X78095000Y-110905000D01*
X81905000Y-104555000D02*
X78095000Y-104555000D01*
X81905000Y-110905000D02*
G75*
G03*
X81905000Y-107095000I-1904999J1905000D01*
G01*
X78095000Y-107095000D02*
G75*
G03*
X78095000Y-110905000I1905000J-1905000D01*
G01*
X81796051Y-109000000D02*
G75*
G03*
X81796051Y-109000000I-1796051J0D01*
G01*
D12*
%TO.C,PWM_Pot1*%
X95325000Y-100560000D02*
X96175000Y-100560000D01*
X92039000Y-100560000D02*
X93675000Y-100560000D01*
X92039000Y-100560000D02*
X92039000Y-96694000D01*
X92039000Y-92305000D02*
X92039000Y-88440000D01*
X101960000Y-100560000D02*
X101960000Y-96694000D01*
X100325000Y-100560000D02*
X101960000Y-100560000D01*
X97825000Y-100560000D02*
X98675000Y-100560000D01*
X92039000Y-88440000D02*
X101960000Y-88440000D01*
X101960000Y-92305000D02*
X101960000Y-88440000D01*
X99762000Y-92827000D02*
G75*
G03*
X94237568Y-92828018I-2762000J-1173000D01*
G01*
X94702000Y-95928000D02*
G75*
G03*
X99297753Y-95928295I2298000J1928000D01*
G01*
D10*
%TO.C,J5*%
X81905000Y-121190000D02*
X81905000Y-120555000D01*
X84500000Y-120500000D02*
X75500000Y-120500000D01*
X81905000Y-120555000D02*
X78095000Y-120555000D01*
X81905000Y-126905000D02*
X78095000Y-126905000D01*
X78095000Y-121190000D02*
X75555000Y-121190000D01*
X78095000Y-120555000D02*
X78095000Y-121190000D01*
X78095000Y-123095000D02*
X81905000Y-123095000D01*
X84445000Y-121190000D02*
X81905000Y-121190000D01*
X84500000Y-131000000D02*
X75500000Y-131000000D01*
X75500000Y-131000000D02*
X75500000Y-120500000D01*
X84500000Y-131000000D02*
X84500000Y-120500000D01*
X78095000Y-123095000D02*
G75*
G03*
X78095000Y-126905000I1905000J-1905000D01*
G01*
X81905000Y-126905000D02*
G75*
G03*
X81905000Y-123095000I-1904999J1905000D01*
G01*
X81796051Y-125000000D02*
G75*
G03*
X81796051Y-125000000I-1796051J0D01*
G01*
%TD*%
D15*
%TO.C,J7*%
X102760000Y-122700000D03*
X91330000Y-122700000D03*
%TD*%
%TO.C,J9*%
X57330000Y-122700000D03*
X68760000Y-122700000D03*
%TD*%
%TO.C,J8*%
X92730000Y-147700000D03*
X104160000Y-147700000D03*
%TD*%
%TO.C,J10*%
X67360000Y-147700000D03*
X55930000Y-147700000D03*
%TD*%
%TO.C,J11*%
X85760000Y-147700000D03*
X74330000Y-147700000D03*
%TD*%
D16*
%TO.C,J6*%
X80000000Y-102520000D03*
X80000000Y-105620000D03*
X80000000Y-113920000D03*
%TD*%
%TO.C,J5*%
X80000000Y-118520000D03*
X80000000Y-121620000D03*
X80000000Y-129920000D03*
%TD*%
M02*
