M48
; DRILL file {KiCad (6.0.11)} date Wed Mar  1 21:17:11 2023
; FORMAT={-:-/ absolute / inch / decimal}
; #@! TF.CreationDate,2023-03-01T21:17:11+00:00
; #@! TF.GenerationSoftware,Kicad,Pcbnew,(6.0.11)
; #@! TF.FileFunction,Plated,1,2,PTH
FMAT,2
INCH
; #@! TA.AperFunction,Plated,PTH,ViaDrill
T1C0.0157
; #@! TA.AperFunction,Plated,PTH,ComponentDrill
T2C0.0197
; #@! TA.AperFunction,Plated,PTH,ComponentDrill
T3C0.0354
; #@! TA.AperFunction,Plated,PTH,ComponentDrill
T4C0.0394
; #@! TA.AperFunction,Plated,PTH,ComponentDrill
T5C0.0430
; #@! TA.AperFunction,Plated,PTH,ComponentDrill
T6C0.0728
%
G90
G05
T1
X2.1969Y-5.065
X2.2126Y-2.3937
X2.2441Y-4.1142
X2.4094Y-5.2264
X2.4252Y-5.7126
X2.5118Y-5.0472
X2.5157Y-4.9055
X2.5354Y-4.0197
X2.5472Y-4.752
X2.5492Y-5.2953
X2.6122Y-5.0531
X2.7874Y-5.1535
X2.7953Y-2.4606
X2.811Y-1.7677
X2.8327Y-3.4685
X2.9016Y-4.8583
X2.9449Y-2.9331
X3.0Y-2.2638
X3.0492Y-2.4372
X3.0709Y-5.7087
X3.122Y-3.4213
X3.2008Y-3.6043
X3.2175Y-3.3199
X3.2185Y-2.0768
X3.2717Y-2.1654
X3.2717Y-3.6476
X3.2756Y-5.6024
X3.3228Y-5.1614
X3.3701Y-2.1969
X3.4134Y-4.3661
X3.4449Y-3.4685
X3.4469Y-5.4311
X3.4862Y-1.8819
X3.5197Y-2.6299
X3.5433Y-4.2047
X3.5709Y-4.4724
X3.6024Y-5.1496
X3.6693Y-4.9567
X3.7638Y-4.626
X3.8346Y-4.8976
X3.876Y-2.4783
X3.8839Y-5.7165
X3.9449Y-3.7677
X3.9783Y-5.1063
X3.9843Y-2.3031
X3.9843Y-4.1457
X4.0079Y-3.0079
X4.0581Y-2.6198
X4.1024Y-4.0354
X4.124Y-5.0551
X4.1299Y-3.2697
X4.2028Y-2.3012
X4.2323Y-3.5138
X4.248Y-1.7697
T3
X2.252Y-5.4665
X2.302Y-5.3665
X2.3071Y-4.4823
X2.352Y-5.4665
X2.3571Y-4.3823
X2.402Y-5.3665
X2.4071Y-4.4823
X2.452Y-5.4665
X2.4571Y-4.3823
X2.502Y-5.3665
X2.5071Y-4.4823
X2.552Y-5.4665
X2.5571Y-4.3823
X2.602Y-5.3665
X2.6071Y-4.4823
X2.6571Y-4.3823
X2.9764Y-5.4665
X3.0264Y-5.3665
X3.0764Y-5.4665
X3.1264Y-5.3665
X3.1764Y-5.4665
X3.2264Y-5.3665
X3.2764Y-5.4665
X3.3264Y-5.3665
X3.6457Y-4.4823
X3.6957Y-4.3823
X3.7008Y-5.4665
X3.7457Y-4.4823
X3.7508Y-5.3665
X3.7957Y-4.3823
X3.8008Y-5.4665
X3.8457Y-4.4823
X3.8508Y-5.3665
X3.8957Y-4.3823
X3.9008Y-5.4665
X3.9457Y-4.4823
X3.9508Y-5.3665
X3.9957Y-4.3823
X4.0008Y-5.4665
X4.0508Y-5.3665
T4
X2.0787Y-2.4803
X2.0787Y-2.5803
X2.0787Y-2.6803
X2.0787Y-2.7803
X2.0787Y-2.8803
X2.0787Y-2.9803
X2.0787Y-3.0803
X2.0787Y-3.1803
X2.0787Y-3.2803
X2.0787Y-3.3803
X2.0787Y-4.7244
X2.0787Y-4.8244
X2.0787Y-4.9244
X2.0787Y-5.0244
X2.0787Y-5.1244
X2.0787Y-5.2244
X2.0787Y-5.3244
X2.0787Y-5.4244
X2.0787Y-5.5244
X2.0787Y-5.6244
X2.3819Y-1.8228
X2.3819Y-3.8976
X2.4803Y-3.8976
X2.5Y-2.4606
X2.5787Y-3.8976
X2.5984Y-2.4606
X2.6969Y-2.4606
X2.9992Y-1.7795
X2.9992Y-1.8795
X3.0992Y-1.7795
X3.0992Y-1.8795
X3.1992Y-1.7795
X3.1992Y-1.8795
X3.2992Y-1.7795
X3.2992Y-1.8795
X3.6024Y-2.4606
X3.7008Y-2.4606
X3.7205Y-3.8976
X3.7827Y-1.7835
X3.7992Y-2.4606
X3.8189Y-3.8976
X3.8827Y-1.7835
X3.9173Y-3.8976
X3.9827Y-1.7835
X4.0827Y-1.7835
X4.2165Y-2.4803
X4.2165Y-2.5803
X4.2165Y-2.6803
X4.2165Y-2.7803
X4.2165Y-2.8803
X4.2165Y-2.9803
X4.2165Y-3.0803
X4.2165Y-3.1803
X4.2165Y-3.2803
X4.2165Y-3.3803
X4.2165Y-4.7244
X4.2165Y-4.8244
X4.2165Y-4.9244
X4.2165Y-5.0244
X4.2165Y-5.1244
X4.2165Y-5.2244
X4.2165Y-5.3244
X4.2165Y-5.4244
X4.2165Y-5.5244
X4.2165Y-5.6244
T5
X3.7008Y-2.7953
X3.7008Y-2.8953
X3.7008Y-2.9953
T6
X2.5033Y-2.7087
X2.5033Y-2.8937
X2.5033Y-3.0787
X2.6935Y-2.7087
X2.6935Y-2.8937
X2.6935Y-3.0787
T2
G00X3.1693Y-3.9378
M15
G01X3.1299Y-3.9378
M16
G05
G00X3.1693Y-4.0598
M15
G01X3.1299Y-4.0598
M16
G05
G00X3.1693Y-4.3866
M15
G01X3.1299Y-4.3866
M16
G05
G00X3.1693Y-4.5677
M15
G01X3.1299Y-4.5677
M16
G05
G00X3.1693Y-4.6898
M15
G01X3.1299Y-4.6898
M16
G05
G00X3.1693Y-5.0165
M15
G01X3.1299Y-5.0165
M16
G05
T0
M30
