%TF.GenerationSoftware,KiCad,Pcbnew,(6.0.11)*%
%TF.CreationDate,2023-01-29T14:59:06+00:00*%
%TF.ProjectId,Quadraphone_Controls,51756164-7261-4706-986f-6e655f436f6e,rev?*%
%TF.SameCoordinates,Original*%
%TF.FileFunction,Soldermask,Bot*%
%TF.FilePolarity,Negative*%
%FSLAX46Y46*%
G04 Gerber Fmt 4.6, Leading zero omitted, Abs format (unit mm)*
G04 Created by KiCad (PCBNEW (6.0.11)) date 2023-01-29 14:59:06*
%MOMM*%
%LPD*%
G01*
G04 APERTURE LIST*
%ADD10C,3.650000*%
%ADD11R,1.500000X1.500000*%
%ADD12C,1.500000*%
%ADD13C,4.000000*%
%ADD14C,1.800000*%
%ADD15R,2.500000X1.500000*%
%ADD16O,2.500000X1.500000*%
%ADD17R,2.775000X2.775000*%
%ADD18C,2.775000*%
%ADD19C,2.500000*%
%ADD20R,2.500000X1.000000*%
%ADD21R,1.700000X1.700000*%
%ADD22O,1.700000X1.700000*%
G04 APERTURE END LIST*
D10*
%TO.C,J7*%
X102760000Y-122700000D03*
X91330000Y-122700000D03*
D11*
X92600000Y-116350000D03*
D12*
X93870000Y-113810000D03*
X95140000Y-116350000D03*
X96410000Y-113810000D03*
X97680000Y-116350000D03*
X98950000Y-113810000D03*
X100220000Y-116350000D03*
X101490000Y-113810000D03*
%TD*%
D13*
%TO.C,Fine_Tune1*%
X89600000Y-58000000D03*
X98400000Y-58000000D03*
D14*
X96500000Y-65000000D03*
X94000000Y-65000000D03*
X91500000Y-65000000D03*
%TD*%
D10*
%TO.C,J9*%
X57330000Y-122700000D03*
X68760000Y-122700000D03*
D11*
X58600000Y-116350000D03*
D12*
X59870000Y-113810000D03*
X61140000Y-116350000D03*
X62410000Y-113810000D03*
X63680000Y-116350000D03*
X64950000Y-113810000D03*
X66220000Y-116350000D03*
X67490000Y-113810000D03*
%TD*%
D13*
%TO.C,Octave_Tune1*%
X61600000Y-58000000D03*
X70400000Y-58000000D03*
D14*
X68500000Y-65000000D03*
X66000000Y-65000000D03*
X63500000Y-65000000D03*
%TD*%
D10*
%TO.C,J8*%
X92730000Y-147700000D03*
X104160000Y-147700000D03*
D11*
X94000000Y-141350000D03*
D12*
X95270000Y-138810000D03*
X96540000Y-141350000D03*
X97810000Y-138810000D03*
X99080000Y-141350000D03*
X100350000Y-138810000D03*
X101620000Y-141350000D03*
X102890000Y-138810000D03*
%TD*%
D15*
%TO.C,SW1*%
X94000000Y-73453900D03*
D16*
X94000000Y-75993900D03*
X94000000Y-78533900D03*
%TD*%
D13*
%TO.C,Vibrato_Depth1*%
X58600000Y-94500000D03*
X67400000Y-94500000D03*
D14*
X65500000Y-101500000D03*
X63000000Y-101500000D03*
X60500000Y-101500000D03*
%TD*%
D10*
%TO.C,J10*%
X67360000Y-147700000D03*
X55930000Y-147700000D03*
D11*
X57200000Y-141350000D03*
D12*
X58470000Y-138810000D03*
X59740000Y-141350000D03*
X61010000Y-138810000D03*
X62280000Y-141350000D03*
X63550000Y-138810000D03*
X64820000Y-141350000D03*
X66090000Y-138810000D03*
%TD*%
D17*
%TO.C,SW2*%
X68415000Y-80700000D03*
D18*
X68415000Y-76000000D03*
X68415000Y-71300000D03*
X63585000Y-80700000D03*
X63585000Y-76000000D03*
X63585000Y-71300000D03*
%TD*%
D10*
%TO.C,J11*%
X85760000Y-147700000D03*
X74330000Y-147700000D03*
D11*
X75600000Y-141350000D03*
D12*
X76870000Y-138810000D03*
X78140000Y-141350000D03*
X79410000Y-138810000D03*
X80680000Y-141350000D03*
X81950000Y-138810000D03*
X83220000Y-141350000D03*
X84490000Y-138810000D03*
%TD*%
D19*
%TO.C,J6*%
X80000000Y-109000000D03*
D20*
X80000000Y-102520000D03*
X80000000Y-105620000D03*
X80000000Y-113920000D03*
%TD*%
D13*
%TO.C,PWM_Pot1*%
X101400000Y-94500000D03*
X92600000Y-94500000D03*
D14*
X99500000Y-101500000D03*
X97000000Y-101500000D03*
X94500000Y-101500000D03*
%TD*%
D19*
%TO.C,J5*%
X80000000Y-125000000D03*
D20*
X80000000Y-118520000D03*
X80000000Y-121620000D03*
X80000000Y-129920000D03*
%TD*%
D21*
%TO.C,J3*%
X107100000Y-120000000D03*
D22*
X107100000Y-122540000D03*
X107100000Y-125080000D03*
X107100000Y-127620000D03*
X107100000Y-130160000D03*
X107100000Y-132700000D03*
X107100000Y-135240000D03*
X107100000Y-137780000D03*
X107100000Y-140320000D03*
X107100000Y-142860000D03*
%TD*%
D21*
%TO.C,J4*%
X52800000Y-120000000D03*
D22*
X52800000Y-122540000D03*
X52800000Y-125080000D03*
X52800000Y-127620000D03*
X52800000Y-130160000D03*
X52800000Y-132700000D03*
X52800000Y-135240000D03*
X52800000Y-137780000D03*
X52800000Y-140320000D03*
X52800000Y-142860000D03*
%TD*%
D21*
%TO.C,J1*%
X107100000Y-63000000D03*
D22*
X107100000Y-65540000D03*
X107100000Y-68080000D03*
X107100000Y-70620000D03*
X107100000Y-73160000D03*
X107100000Y-75700000D03*
X107100000Y-78240000D03*
X107100000Y-80780000D03*
X107100000Y-83320000D03*
X107100000Y-85860000D03*
%TD*%
D21*
%TO.C,J2*%
X52800000Y-63000000D03*
D22*
X52800000Y-65540000D03*
X52800000Y-68080000D03*
X52800000Y-70620000D03*
X52800000Y-73160000D03*
X52800000Y-75700000D03*
X52800000Y-78240000D03*
X52800000Y-80780000D03*
X52800000Y-83320000D03*
X52800000Y-85860000D03*
%TD*%
M02*
