%TF.GenerationSoftware,KiCad,Pcbnew,(6.0.11)*%
%TF.CreationDate,2023-03-01T21:17:09+00:00*%
%TF.ProjectId,Quadraphone_Controls,51756164-7261-4706-986f-6e655f436f6e,rev?*%
%TF.SameCoordinates,Original*%
%TF.FileFunction,Soldermask,Bot*%
%TF.FilePolarity,Negative*%
%FSLAX46Y46*%
G04 Gerber Fmt 4.6, Leading zero omitted, Abs format (unit mm)*
G04 Created by KiCad (PCBNEW (6.0.11)) date 2023-03-01 21:17:09*
%MOMM*%
%LPD*%
G01*
G04 APERTURE LIST*
%ADD10R,1.700000X1.700000*%
%ADD11O,1.700000X1.700000*%
%ADD12C,3.650000*%
%ADD13R,1.500000X1.500000*%
%ADD14C,1.500000*%
%ADD15C,4.000000*%
%ADD16C,1.800000*%
%ADD17R,2.500000X1.500000*%
%ADD18O,2.500000X1.500000*%
%ADD19C,2.775000*%
%ADD20R,2.775000X2.775000*%
%ADD21C,2.500000*%
%ADD22R,2.500000X1.000000*%
G04 APERTURE END LIST*
D10*
%TO.C,J12*%
X83800000Y-45200000D03*
D11*
X81260000Y-45200000D03*
X78720000Y-45200000D03*
X76180000Y-45200000D03*
X83800000Y-47740000D03*
X81260000Y-47740000D03*
X78720000Y-47740000D03*
X76180000Y-47740000D03*
%TD*%
D12*
%TO.C,J7*%
X102760000Y-120200000D03*
X91330000Y-120200000D03*
D13*
X92600000Y-113850000D03*
D14*
X93870000Y-111310000D03*
X95140000Y-113850000D03*
X96410000Y-111310000D03*
X97680000Y-113850000D03*
X98950000Y-111310000D03*
X100220000Y-113850000D03*
X101490000Y-111310000D03*
%TD*%
D15*
%TO.C,Fine_Tune1*%
X89600000Y-55500000D03*
X98400000Y-55500000D03*
D16*
X96500000Y-62500000D03*
X94000000Y-62500000D03*
X91500000Y-62500000D03*
%TD*%
D12*
%TO.C,J9*%
X57330000Y-120200000D03*
X68760000Y-120200000D03*
D13*
X58600000Y-113850000D03*
D14*
X59870000Y-111310000D03*
X61140000Y-113850000D03*
X62410000Y-111310000D03*
X63680000Y-113850000D03*
X64950000Y-111310000D03*
X66220000Y-113850000D03*
X67490000Y-111310000D03*
%TD*%
D15*
%TO.C,Octave_Tune1*%
X61600000Y-55500000D03*
X70400000Y-55500000D03*
D16*
X68500000Y-62500000D03*
X66000000Y-62500000D03*
X63500000Y-62500000D03*
%TD*%
D12*
%TO.C,J8*%
X92730000Y-145200000D03*
X104160000Y-145200000D03*
D13*
X94000000Y-138850000D03*
D14*
X95270000Y-136310000D03*
X96540000Y-138850000D03*
X97810000Y-136310000D03*
X99080000Y-138850000D03*
X100350000Y-136310000D03*
X101620000Y-138850000D03*
X102890000Y-136310000D03*
%TD*%
D17*
%TO.C,SW1*%
X94000000Y-71000000D03*
D18*
X94000000Y-73540000D03*
X94000000Y-76080000D03*
%TD*%
D15*
%TO.C,Vibrato_Depth1*%
X58600000Y-92000000D03*
X67400000Y-92000000D03*
D16*
X65500000Y-99000000D03*
X63000000Y-99000000D03*
X60500000Y-99000000D03*
%TD*%
D12*
%TO.C,J10*%
X67360000Y-145200000D03*
X55930000Y-145200000D03*
D13*
X57200000Y-138850000D03*
D14*
X58470000Y-136310000D03*
X59740000Y-138850000D03*
X61010000Y-136310000D03*
X62280000Y-138850000D03*
X63550000Y-136310000D03*
X64820000Y-138850000D03*
X66090000Y-136310000D03*
%TD*%
D19*
%TO.C,SW2*%
X68415000Y-68800000D03*
X68415000Y-73500000D03*
X68415000Y-78200000D03*
X63585000Y-68800000D03*
X63585000Y-73500000D03*
D20*
X63585000Y-78200000D03*
%TD*%
D12*
%TO.C,J11*%
X85760000Y-145200000D03*
X74330000Y-145200000D03*
D13*
X75600000Y-138850000D03*
D14*
X76870000Y-136310000D03*
X78140000Y-138850000D03*
X79410000Y-136310000D03*
X80680000Y-138850000D03*
X81950000Y-136310000D03*
X83220000Y-138850000D03*
X84490000Y-136310000D03*
%TD*%
D21*
%TO.C,J6*%
X80000000Y-106500000D03*
D22*
X80000000Y-100020000D03*
X80000000Y-103120000D03*
X80000000Y-111420000D03*
%TD*%
D15*
%TO.C,PWM_Pot1*%
X101400000Y-92000000D03*
X92600000Y-92000000D03*
D16*
X99500000Y-99000000D03*
X97000000Y-99000000D03*
X94500000Y-99000000D03*
%TD*%
D21*
%TO.C,J5*%
X80000000Y-122500000D03*
D22*
X80000000Y-116020000D03*
X80000000Y-119120000D03*
X80000000Y-127420000D03*
%TD*%
D11*
%TO.C,J13*%
X96080000Y-45300000D03*
X98620000Y-45300000D03*
X101160000Y-45300000D03*
D10*
X103700000Y-45300000D03*
%TD*%
%TO.C,J3*%
X107100000Y-120000000D03*
D11*
X107100000Y-122540000D03*
X107100000Y-125080000D03*
X107100000Y-127620000D03*
X107100000Y-130160000D03*
X107100000Y-132700000D03*
X107100000Y-135240000D03*
X107100000Y-137780000D03*
X107100000Y-140320000D03*
X107100000Y-142860000D03*
%TD*%
D10*
%TO.C,J14*%
X60500000Y-46300000D03*
%TD*%
%TO.C,J4*%
X52800000Y-120000000D03*
D11*
X52800000Y-122540000D03*
X52800000Y-125080000D03*
X52800000Y-127620000D03*
X52800000Y-130160000D03*
X52800000Y-132700000D03*
X52800000Y-135240000D03*
X52800000Y-137780000D03*
X52800000Y-140320000D03*
X52800000Y-142860000D03*
%TD*%
D10*
%TO.C,J1*%
X107100000Y-63000000D03*
D11*
X107100000Y-65540000D03*
X107100000Y-68080000D03*
X107100000Y-70620000D03*
X107100000Y-73160000D03*
X107100000Y-75700000D03*
X107100000Y-78240000D03*
X107100000Y-80780000D03*
X107100000Y-83320000D03*
X107100000Y-85860000D03*
%TD*%
D10*
%TO.C,J2*%
X52800000Y-63000000D03*
D11*
X52800000Y-65540000D03*
X52800000Y-68080000D03*
X52800000Y-70620000D03*
X52800000Y-73160000D03*
X52800000Y-75700000D03*
X52800000Y-78240000D03*
X52800000Y-80780000D03*
X52800000Y-83320000D03*
X52800000Y-85860000D03*
%TD*%
M02*
