M48
; DRILL file {KiCad (6.0.11)} date Sun Jan 29 14:59:09 2023
; FORMAT={-:-/ absolute / inch / decimal}
; #@! TF.CreationDate,2023-01-29T14:59:09+00:00
; #@! TF.GenerationSoftware,Kicad,Pcbnew,(6.0.11)
; #@! TF.FileFunction,Plated,1,2,PTH
FMAT,2
INCH
; #@! TA.AperFunction,Plated,PTH,ViaDrill
T1C0.0157
; #@! TA.AperFunction,Plated,PTH,ComponentDrill
T2C0.0197
; #@! TA.AperFunction,Plated,PTH,ComponentDrill
T3C0.0354
; #@! TA.AperFunction,Plated,PTH,ComponentDrill
T4C0.0394
; #@! TA.AperFunction,Plated,PTH,ComponentDrill
T5C0.0430
; #@! TA.AperFunction,Plated,PTH,ComponentDrill
T6C0.0728
%
G90
G05
T1
X2.127Y-4.5917
X2.1654Y-5.1181
X2.2874Y-5.1654
X2.8622Y-3.5236
X2.9528Y-4.5984
X3.563Y-5.2992
T3
X2.252Y-5.565
X2.302Y-5.465
X2.3071Y-4.5807
X2.352Y-5.565
X2.3571Y-4.4807
X2.402Y-5.465
X2.4071Y-4.5807
X2.452Y-5.565
X2.4571Y-4.4807
X2.502Y-5.465
X2.5071Y-4.5807
X2.552Y-5.565
X2.5571Y-4.4807
X2.602Y-5.465
X2.6071Y-4.5807
X2.6571Y-4.4807
X2.9764Y-5.565
X3.0264Y-5.465
X3.0764Y-5.565
X3.1264Y-5.465
X3.1764Y-5.565
X3.2264Y-5.465
X3.2764Y-5.565
X3.3264Y-5.465
X3.6457Y-4.5807
X3.6957Y-4.4807
X3.7008Y-5.565
X3.7457Y-4.5807
X3.7508Y-5.465
X3.7957Y-4.4807
X3.8008Y-5.565
X3.8457Y-4.5807
X3.8508Y-5.465
X3.8957Y-4.4807
X3.9008Y-5.565
X3.9457Y-4.5807
X3.9508Y-5.465
X3.9957Y-4.4807
X4.0008Y-5.565
X4.0508Y-5.465
T4
X2.0787Y-2.4803
X2.0787Y-2.5803
X2.0787Y-2.6803
X2.0787Y-2.7803
X2.0787Y-2.8803
X2.0787Y-2.9803
X2.0787Y-3.0803
X2.0787Y-3.1803
X2.0787Y-3.2803
X2.0787Y-3.3803
X2.0787Y-4.7244
X2.0787Y-4.8244
X2.0787Y-4.9244
X2.0787Y-5.0244
X2.0787Y-5.1244
X2.0787Y-5.2244
X2.0787Y-5.3244
X2.0787Y-5.4244
X2.0787Y-5.5244
X2.0787Y-5.6244
X2.3819Y-3.9961
X2.4803Y-3.9961
X2.5Y-2.5591
X2.5787Y-3.9961
X2.5984Y-2.5591
X2.6969Y-2.5591
X3.6024Y-2.5591
X3.7008Y-2.5591
X3.7205Y-3.9961
X3.7992Y-2.5591
X3.8189Y-3.9961
X3.9173Y-3.9961
X4.2165Y-2.4803
X4.2165Y-2.5803
X4.2165Y-2.6803
X4.2165Y-2.7803
X4.2165Y-2.8803
X4.2165Y-2.9803
X4.2165Y-3.0803
X4.2165Y-3.1803
X4.2165Y-3.2803
X4.2165Y-3.3803
X4.2165Y-4.7244
X4.2165Y-4.8244
X4.2165Y-4.9244
X4.2165Y-5.0244
X4.2165Y-5.1244
X4.2165Y-5.2244
X4.2165Y-5.3244
X4.2165Y-5.4244
X4.2165Y-5.5244
X4.2165Y-5.6244
T5
X3.7008Y-2.8919
X3.7008Y-2.9919
X3.7008Y-3.0919
T6
X2.5033Y-2.8071
X2.5033Y-2.9921
X2.5033Y-3.1772
X2.6935Y-2.8071
X2.6935Y-2.9921
X2.6935Y-3.1772
T2
G00X3.1693Y-4.0362
M15
G01X3.1299Y-4.0362
M16
G05
G00X3.1693Y-4.1583
M15
G01X3.1299Y-4.1583
M16
G05
G00X3.1693Y-4.485
M15
G01X3.1299Y-4.485
M16
G05
G00X3.1693Y-4.6661
M15
G01X3.1299Y-4.6661
M16
G05
G00X3.1693Y-4.7882
M15
G01X3.1299Y-4.7882
M16
G05
G00X3.1693Y-5.115
M15
G01X3.1299Y-5.115
M16
G05
T0
M30
