%TF.GenerationSoftware,KiCad,Pcbnew,(6.0.11)*%
%TF.CreationDate,2023-04-28T10:51:55+01:00*%
%TF.ProjectId,Quadraphone_Controls_v2,51756164-7261-4706-986f-6e655f436f6e,rev?*%
%TF.SameCoordinates,Original*%
%TF.FileFunction,Legend,Bot*%
%TF.FilePolarity,Positive*%
%FSLAX46Y46*%
G04 Gerber Fmt 4.6, Leading zero omitted, Abs format (unit mm)*
G04 Created by KiCad (PCBNEW (6.0.11)) date 2023-04-28 10:51:55*
%MOMM*%
%LPD*%
G01*
G04 APERTURE LIST*
%ADD10C,0.150000*%
%ADD11C,0.300000*%
%ADD12C,0.120000*%
%ADD13C,3.650000*%
G04 APERTURE END LIST*
D10*
X94575000Y-45250000D02*
X92825000Y-45250000D01*
D11*
X71650000Y-47700000D02*
X74600000Y-47700000D01*
D10*
X87900000Y-45200000D02*
X85350000Y-45200000D01*
D11*
X91800000Y-44428571D02*
X91514285Y-44428571D01*
X91371428Y-44500000D01*
X91228571Y-44642857D01*
X91157142Y-44928571D01*
X91157142Y-45428571D01*
X91228571Y-45714285D01*
X91371428Y-45857142D01*
X91514285Y-45928571D01*
X91800000Y-45928571D01*
X91942857Y-45857142D01*
X92085714Y-45714285D01*
X92157142Y-45428571D01*
X92157142Y-44928571D01*
X92085714Y-44642857D01*
X91942857Y-44500000D01*
X91800000Y-44428571D01*
X90514285Y-44428571D02*
X90514285Y-45642857D01*
X90442857Y-45785714D01*
X90371428Y-45857142D01*
X90228571Y-45928571D01*
X89942857Y-45928571D01*
X89800000Y-45857142D01*
X89728571Y-45785714D01*
X89657142Y-45642857D01*
X89657142Y-44428571D01*
X89157142Y-44428571D02*
X88300000Y-44428571D01*
X88728571Y-45928571D02*
X88728571Y-44428571D01*
X73364285Y-45078571D02*
X73364285Y-46078571D01*
X73721428Y-44507142D02*
X74078571Y-45578571D01*
X73150000Y-45578571D01*
X86221428Y-48528571D02*
X87078571Y-48528571D01*
X86650000Y-48528571D02*
X86650000Y-47028571D01*
X86792857Y-47242857D01*
X86935714Y-47385714D01*
X87078571Y-47457142D01*
X57292857Y-45600000D02*
X57435714Y-45528571D01*
X57650000Y-45528571D01*
X57864285Y-45600000D01*
X58007142Y-45742857D01*
X58078571Y-45885714D01*
X58150000Y-46171428D01*
X58150000Y-46385714D01*
X58078571Y-46671428D01*
X58007142Y-46814285D01*
X57864285Y-46957142D01*
X57650000Y-47028571D01*
X57507142Y-47028571D01*
X57292857Y-46957142D01*
X57221428Y-46885714D01*
X57221428Y-46385714D01*
X57507142Y-46385714D01*
X56578571Y-47028571D02*
X56578571Y-45528571D01*
X55721428Y-47028571D01*
X55721428Y-45528571D01*
X55007142Y-47028571D02*
X55007142Y-45528571D01*
X54650000Y-45528571D01*
X54435714Y-45600000D01*
X54292857Y-45742857D01*
X54221428Y-45885714D01*
X54150000Y-46171428D01*
X54150000Y-46385714D01*
X54221428Y-46671428D01*
X54292857Y-46814285D01*
X54435714Y-46957142D01*
X54650000Y-47028571D01*
X55007142Y-47028571D01*
X71292857Y-46478571D02*
X70792857Y-47978571D01*
X70292857Y-46478571D01*
X68721428Y-46407142D02*
X70007142Y-48335714D01*
X67935714Y-46478571D02*
X67650000Y-46478571D01*
X67507142Y-46550000D01*
X67364285Y-46692857D01*
X67292857Y-46978571D01*
X67292857Y-47478571D01*
X67364285Y-47764285D01*
X67507142Y-47907142D01*
X67650000Y-47978571D01*
X67935714Y-47978571D01*
X68078571Y-47907142D01*
X68221428Y-47764285D01*
X68292857Y-47478571D01*
X68292857Y-46978571D01*
X68221428Y-46692857D01*
X68078571Y-46550000D01*
X67935714Y-46478571D01*
X65792857Y-47835714D02*
X65864285Y-47907142D01*
X66078571Y-47978571D01*
X66221428Y-47978571D01*
X66435714Y-47907142D01*
X66578571Y-47764285D01*
X66650000Y-47621428D01*
X66721428Y-47335714D01*
X66721428Y-47121428D01*
X66650000Y-46835714D01*
X66578571Y-46692857D01*
X66435714Y-46550000D01*
X66221428Y-46478571D01*
X66078571Y-46478571D01*
X65864285Y-46550000D01*
X65792857Y-46621428D01*
X65364285Y-46478571D02*
X64507142Y-46478571D01*
X64935714Y-47978571D02*
X64935714Y-46478571D01*
X105871428Y-45978571D02*
X106728571Y-45978571D01*
X106300000Y-45978571D02*
X106300000Y-44478571D01*
X106442857Y-44692857D01*
X106585714Y-44835714D01*
X106728571Y-44907142D01*
D10*
%TO.C,R4*%
X59266666Y-52252380D02*
X59600000Y-51776190D01*
X59838095Y-52252380D02*
X59838095Y-51252380D01*
X59457142Y-51252380D01*
X59361904Y-51300000D01*
X59314285Y-51347619D01*
X59266666Y-51442857D01*
X59266666Y-51585714D01*
X59314285Y-51680952D01*
X59361904Y-51728571D01*
X59457142Y-51776190D01*
X59838095Y-51776190D01*
X58409523Y-51585714D02*
X58409523Y-52252380D01*
X58647619Y-51204761D02*
X58885714Y-51919047D01*
X58266666Y-51919047D01*
%TO.C,R3*%
X59266666Y-54452380D02*
X59600000Y-53976190D01*
X59838095Y-54452380D02*
X59838095Y-53452380D01*
X59457142Y-53452380D01*
X59361904Y-53500000D01*
X59314285Y-53547619D01*
X59266666Y-53642857D01*
X59266666Y-53785714D01*
X59314285Y-53880952D01*
X59361904Y-53928571D01*
X59457142Y-53976190D01*
X59838095Y-53976190D01*
X58933333Y-53452380D02*
X58314285Y-53452380D01*
X58647619Y-53833333D01*
X58504761Y-53833333D01*
X58409523Y-53880952D01*
X58361904Y-53928571D01*
X58314285Y-54023809D01*
X58314285Y-54261904D01*
X58361904Y-54357142D01*
X58409523Y-54404761D01*
X58504761Y-54452380D01*
X58790476Y-54452380D01*
X58885714Y-54404761D01*
X58933333Y-54357142D01*
%TO.C,R2*%
X59266666Y-56652380D02*
X59600000Y-56176190D01*
X59838095Y-56652380D02*
X59838095Y-55652380D01*
X59457142Y-55652380D01*
X59361904Y-55700000D01*
X59314285Y-55747619D01*
X59266666Y-55842857D01*
X59266666Y-55985714D01*
X59314285Y-56080952D01*
X59361904Y-56128571D01*
X59457142Y-56176190D01*
X59838095Y-56176190D01*
X58885714Y-55747619D02*
X58838095Y-55700000D01*
X58742857Y-55652380D01*
X58504761Y-55652380D01*
X58409523Y-55700000D01*
X58361904Y-55747619D01*
X58314285Y-55842857D01*
X58314285Y-55938095D01*
X58361904Y-56080952D01*
X58933333Y-56652380D01*
X58314285Y-56652380D01*
%TO.C,R1*%
X59166666Y-58852380D02*
X59500000Y-58376190D01*
X59738095Y-58852380D02*
X59738095Y-57852380D01*
X59357142Y-57852380D01*
X59261904Y-57900000D01*
X59214285Y-57947619D01*
X59166666Y-58042857D01*
X59166666Y-58185714D01*
X59214285Y-58280952D01*
X59261904Y-58328571D01*
X59357142Y-58376190D01*
X59738095Y-58376190D01*
X58214285Y-58852380D02*
X58785714Y-58852380D01*
X58500000Y-58852380D02*
X58500000Y-57852380D01*
X58595238Y-57995238D01*
X58690476Y-58090476D01*
X58785714Y-58138095D01*
%TO.C,J3*%
X107433333Y-116682380D02*
X107433333Y-117396666D01*
X107480952Y-117539523D01*
X107576190Y-117634761D01*
X107719047Y-117682380D01*
X107814285Y-117682380D01*
X107052380Y-116682380D02*
X106433333Y-116682380D01*
X106766666Y-117063333D01*
X106623809Y-117063333D01*
X106528571Y-117110952D01*
X106480952Y-117158571D01*
X106433333Y-117253809D01*
X106433333Y-117491904D01*
X106480952Y-117587142D01*
X106528571Y-117634761D01*
X106623809Y-117682380D01*
X106909523Y-117682380D01*
X107004761Y-117634761D01*
X107052380Y-117587142D01*
%TO.C,J4*%
X53133333Y-116682380D02*
X53133333Y-117396666D01*
X53180952Y-117539523D01*
X53276190Y-117634761D01*
X53419047Y-117682380D01*
X53514285Y-117682380D01*
X52228571Y-117015714D02*
X52228571Y-117682380D01*
X52466666Y-116634761D02*
X52704761Y-117349047D01*
X52085714Y-117349047D01*
%TO.C,J1*%
X107433333Y-59682380D02*
X107433333Y-60396666D01*
X107480952Y-60539523D01*
X107576190Y-60634761D01*
X107719047Y-60682380D01*
X107814285Y-60682380D01*
X106433333Y-60682380D02*
X107004761Y-60682380D01*
X106719047Y-60682380D02*
X106719047Y-59682380D01*
X106814285Y-59825238D01*
X106909523Y-59920476D01*
X107004761Y-59968095D01*
%TO.C,J2*%
X53133333Y-59682380D02*
X53133333Y-60396666D01*
X53180952Y-60539523D01*
X53276190Y-60634761D01*
X53419047Y-60682380D01*
X53514285Y-60682380D01*
X52704761Y-59777619D02*
X52657142Y-59730000D01*
X52561904Y-59682380D01*
X52323809Y-59682380D01*
X52228571Y-59730000D01*
X52180952Y-59777619D01*
X52133333Y-59872857D01*
X52133333Y-59968095D01*
X52180952Y-60110952D01*
X52752380Y-60682380D01*
X52133333Y-60682380D01*
D12*
%TO.C,R4*%
X56527064Y-51065000D02*
X56072936Y-51065000D01*
X56527064Y-52535000D02*
X56072936Y-52535000D01*
%TO.C,R3*%
X56527064Y-53265000D02*
X56072936Y-53265000D01*
X56527064Y-54735000D02*
X56072936Y-54735000D01*
%TO.C,R2*%
X56527064Y-56935000D02*
X56072936Y-56935000D01*
X56527064Y-55465000D02*
X56072936Y-55465000D01*
%TO.C,R1*%
X56527064Y-57665000D02*
X56072936Y-57665000D01*
X56527064Y-59135000D02*
X56072936Y-59135000D01*
%TO.C,J13*%
X102430000Y-43970000D02*
X94750000Y-43970000D01*
X94750000Y-46630000D02*
X94750000Y-43970000D01*
X105030000Y-46630000D02*
X105030000Y-45300000D01*
X103700000Y-46630000D02*
X105030000Y-46630000D01*
X102430000Y-46630000D02*
X94750000Y-46630000D01*
X102430000Y-46630000D02*
X102430000Y-43970000D01*
%TO.C,J3*%
X105770000Y-118670000D02*
X105770000Y-120000000D01*
X107100000Y-118670000D02*
X105770000Y-118670000D01*
X108430000Y-121270000D02*
X108430000Y-144190000D01*
X105770000Y-121270000D02*
X105770000Y-144190000D01*
X108430000Y-144190000D02*
X105770000Y-144190000D01*
X108430000Y-121270000D02*
X105770000Y-121270000D01*
%TO.C,J14*%
X61830000Y-47630000D02*
X59170000Y-47630000D01*
X59170000Y-47570000D02*
X59170000Y-47630000D01*
X61830000Y-44970000D02*
X60500000Y-44970000D01*
X61830000Y-47570000D02*
X61830000Y-47630000D01*
X61830000Y-46300000D02*
X61830000Y-44970000D01*
X61830000Y-47570000D02*
X59170000Y-47570000D01*
%TO.C,J4*%
X54130000Y-121270000D02*
X54130000Y-144190000D01*
X51470000Y-118670000D02*
X51470000Y-120000000D01*
X54130000Y-144190000D02*
X51470000Y-144190000D01*
X51470000Y-121270000D02*
X51470000Y-144190000D01*
X52800000Y-118670000D02*
X51470000Y-118670000D01*
X54130000Y-121270000D02*
X51470000Y-121270000D01*
%TO.C,D1*%
X81414214Y-100000000D02*
G75*
G03*
X81414214Y-100000000I-1414214J0D01*
G01*
%TO.C,J1*%
X108430000Y-87190000D02*
X105770000Y-87190000D01*
X105770000Y-64270000D02*
X105770000Y-87190000D01*
X108430000Y-64270000D02*
X108430000Y-87190000D01*
X108430000Y-64270000D02*
X105770000Y-64270000D01*
X107100000Y-61670000D02*
X105770000Y-61670000D01*
X105770000Y-61670000D02*
X105770000Y-63000000D01*
%TO.C,J12*%
X82530000Y-49080000D02*
X82530000Y-46480000D01*
X82530000Y-49080000D02*
X74850000Y-49080000D01*
X74850000Y-49080000D02*
X74850000Y-43880000D01*
X85130000Y-43880000D02*
X74850000Y-43880000D01*
X83800000Y-49080000D02*
X85130000Y-49080000D01*
X82530000Y-46480000D02*
X85130000Y-46480000D01*
X85130000Y-49080000D02*
X85130000Y-47750000D01*
X85130000Y-46480000D02*
X85130000Y-43880000D01*
%TO.C,J2*%
X54130000Y-64270000D02*
X54130000Y-87190000D01*
X52800000Y-61670000D02*
X51470000Y-61670000D01*
X51470000Y-64270000D02*
X51470000Y-87190000D01*
X54130000Y-64270000D02*
X51470000Y-64270000D01*
X51470000Y-61670000D02*
X51470000Y-63000000D01*
X54130000Y-87190000D02*
X51470000Y-87190000D01*
%TD*%
D13*
%TO.C,J7*%
X102760000Y-120200000D03*
X91330000Y-120200000D03*
%TD*%
%TO.C,J9*%
X57330000Y-120200000D03*
X68760000Y-120200000D03*
%TD*%
%TO.C,J8*%
X92730000Y-145200000D03*
X104160000Y-145200000D03*
%TD*%
%TO.C,J10*%
X67360000Y-145200000D03*
X55930000Y-145200000D03*
%TD*%
%TO.C,J11*%
X85760000Y-145200000D03*
X74330000Y-145200000D03*
%TD*%
M02*
