%TF.GenerationSoftware,KiCad,Pcbnew,7.0.7*%
%TF.CreationDate,2023-08-21T15:35:54+01:00*%
%TF.ProjectId,Quadraphone_Components,51756164-7261-4706-986f-6e655f436f6d,rev?*%
%TF.SameCoordinates,Original*%
%TF.FileFunction,Legend,Bot*%
%TF.FilePolarity,Positive*%
%FSLAX46Y46*%
G04 Gerber Fmt 4.6, Leading zero omitted, Abs format (unit mm)*
G04 Created by KiCad (PCBNEW 7.0.7) date 2023-08-21 15:35:54*
%MOMM*%
%LPD*%
G01*
G04 APERTURE LIST*
%ADD10C,0.120000*%
G04 APERTURE END LIST*
D10*
%TO.C,J4*%
X108430000Y-143990000D02*
X105770000Y-143990000D01*
X108430000Y-121070000D02*
X108430000Y-143990000D01*
X108430000Y-121070000D02*
X105770000Y-121070000D01*
X108430000Y-119800000D02*
X108430000Y-118470000D01*
X108430000Y-118470000D02*
X107100000Y-118470000D01*
X105770000Y-121070000D02*
X105770000Y-143990000D01*
%TO.C,J3*%
X54130000Y-144190000D02*
X51470000Y-144190000D01*
X54130000Y-121270000D02*
X54130000Y-144190000D01*
X54130000Y-121270000D02*
X51470000Y-121270000D01*
X54130000Y-120000000D02*
X54130000Y-118670000D01*
X54130000Y-118670000D02*
X52800000Y-118670000D01*
X51470000Y-121270000D02*
X51470000Y-144190000D01*
%TO.C,J2*%
X108430000Y-87190000D02*
X105770000Y-87190000D01*
X108430000Y-64270000D02*
X108430000Y-87190000D01*
X108430000Y-64270000D02*
X105770000Y-64270000D01*
X108430000Y-63000000D02*
X108430000Y-61670000D01*
X108430000Y-61670000D02*
X107100000Y-61670000D01*
X105770000Y-64270000D02*
X105770000Y-87190000D01*
%TO.C,J1*%
X54130000Y-87190000D02*
X51470000Y-87190000D01*
X54130000Y-64270000D02*
X54130000Y-87190000D01*
X54130000Y-64270000D02*
X51470000Y-64270000D01*
X54130000Y-63000000D02*
X54130000Y-61670000D01*
X54130000Y-61670000D02*
X52800000Y-61670000D01*
X51470000Y-64270000D02*
X51470000Y-87190000D01*
%TD*%
M02*
