%TF.GenerationSoftware,KiCad,Pcbnew,(6.0.11)*%
%TF.CreationDate,2023-01-29T15:03:24+00:00*%
%TF.ProjectId,Quadraphone_Panel,51756164-7261-4706-986f-6e655f50616e,rev?*%
%TF.SameCoordinates,Original*%
%TF.FileFunction,Soldermask,Top*%
%TF.FilePolarity,Negative*%
%FSLAX46Y46*%
G04 Gerber Fmt 4.6, Leading zero omitted, Abs format (unit mm)*
G04 Created by KiCad (PCBNEW (6.0.11)) date 2023-01-29 15:03:24*
%MOMM*%
%LPD*%
G01*
G04 APERTURE LIST*
%ADD10C,3.000000*%
%ADD11C,2.000000*%
%ADD12C,1.000000*%
%ADD13C,0.150000*%
%ADD14C,0.400000*%
%ADD15C,5.000000*%
%ADD16C,7.000000*%
%ADD17O,5.000000X3.200000*%
%ADD18C,6.000000*%
G04 APERTURE END LIST*
D10*
X80000000Y-124900000D02*
X89000000Y-124900000D01*
D11*
X63800000Y-93500000D02*
X80000000Y-93500000D01*
D12*
X62400000Y-94900000D02*
X78300000Y-94900000D01*
D13*
G36*
X80000000Y-158000000D02*
G01*
X76000000Y-154000000D01*
X84000000Y-154000000D01*
X80000000Y-158000000D01*
G37*
X80000000Y-158000000D02*
X76000000Y-154000000D01*
X84000000Y-154000000D01*
X80000000Y-158000000D01*
D14*
X67238095Y-163004761D02*
X67238095Y-161004761D01*
X67904761Y-162433333D01*
X68571428Y-161004761D01*
X68571428Y-163004761D01*
X69809523Y-163004761D02*
X69619047Y-162909523D01*
X69523809Y-162814285D01*
X69428571Y-162623809D01*
X69428571Y-162052380D01*
X69523809Y-161861904D01*
X69619047Y-161766666D01*
X69809523Y-161671428D01*
X70095238Y-161671428D01*
X70285714Y-161766666D01*
X70380952Y-161861904D01*
X70476190Y-162052380D01*
X70476190Y-162623809D01*
X70380952Y-162814285D01*
X70285714Y-162909523D01*
X70095238Y-163004761D01*
X69809523Y-163004761D01*
X72190476Y-161671428D02*
X72190476Y-163004761D01*
X71333333Y-161671428D02*
X71333333Y-162719047D01*
X71428571Y-162909523D01*
X71619047Y-163004761D01*
X71904761Y-163004761D01*
X72095238Y-162909523D01*
X72190476Y-162814285D01*
X73142857Y-161671428D02*
X73142857Y-163004761D01*
X73142857Y-161861904D02*
X73238095Y-161766666D01*
X73428571Y-161671428D01*
X73714285Y-161671428D01*
X73904761Y-161766666D01*
X74000000Y-161957142D01*
X74000000Y-163004761D01*
X74666666Y-161671428D02*
X75428571Y-161671428D01*
X74952380Y-161004761D02*
X74952380Y-162719047D01*
X75047619Y-162909523D01*
X75238095Y-163004761D01*
X75428571Y-163004761D01*
X76095238Y-161671428D02*
X76095238Y-163385714D01*
X76000000Y-163576190D01*
X75809523Y-163671428D01*
X75714285Y-163671428D01*
X76095238Y-161004761D02*
X76000000Y-161100000D01*
X76095238Y-161195238D01*
X76190476Y-161100000D01*
X76095238Y-161004761D01*
X76095238Y-161195238D01*
X77333333Y-163004761D02*
X77142857Y-162909523D01*
X77047619Y-162814285D01*
X76952380Y-162623809D01*
X76952380Y-162052380D01*
X77047619Y-161861904D01*
X77142857Y-161766666D01*
X77333333Y-161671428D01*
X77619047Y-161671428D01*
X77809523Y-161766666D01*
X77904761Y-161861904D01*
X78000000Y-162052380D01*
X78000000Y-162623809D01*
X77904761Y-162814285D01*
X77809523Y-162909523D01*
X77619047Y-163004761D01*
X77333333Y-163004761D01*
X78666666Y-161671428D02*
X79142857Y-163004761D01*
X79619047Y-161671428D02*
X79142857Y-163004761D01*
X78952380Y-163480952D01*
X78857142Y-163576190D01*
X78666666Y-163671428D01*
X81904761Y-163004761D02*
X81904761Y-161004761D01*
X82571428Y-162433333D01*
X83238095Y-161004761D01*
X83238095Y-163004761D01*
X84476190Y-163004761D02*
X84285714Y-162909523D01*
X84190476Y-162814285D01*
X84095238Y-162623809D01*
X84095238Y-162052380D01*
X84190476Y-161861904D01*
X84285714Y-161766666D01*
X84476190Y-161671428D01*
X84761904Y-161671428D01*
X84952380Y-161766666D01*
X85047619Y-161861904D01*
X85142857Y-162052380D01*
X85142857Y-162623809D01*
X85047619Y-162814285D01*
X84952380Y-162909523D01*
X84761904Y-163004761D01*
X84476190Y-163004761D01*
X86857142Y-163004761D02*
X86857142Y-161004761D01*
X86857142Y-162909523D02*
X86666666Y-163004761D01*
X86285714Y-163004761D01*
X86095238Y-162909523D01*
X86000000Y-162814285D01*
X85904761Y-162623809D01*
X85904761Y-162052380D01*
X86000000Y-161861904D01*
X86095238Y-161766666D01*
X86285714Y-161671428D01*
X86666666Y-161671428D01*
X86857142Y-161766666D01*
X88666666Y-161671428D02*
X88666666Y-163004761D01*
X87809523Y-161671428D02*
X87809523Y-162719047D01*
X87904761Y-162909523D01*
X88095238Y-163004761D01*
X88380952Y-163004761D01*
X88571428Y-162909523D01*
X88666666Y-162814285D01*
X89904761Y-163004761D02*
X89714285Y-162909523D01*
X89619047Y-162719047D01*
X89619047Y-161004761D01*
X91523809Y-163004761D02*
X91523809Y-161957142D01*
X91428571Y-161766666D01*
X91238095Y-161671428D01*
X90857142Y-161671428D01*
X90666666Y-161766666D01*
X91523809Y-162909523D02*
X91333333Y-163004761D01*
X90857142Y-163004761D01*
X90666666Y-162909523D01*
X90571428Y-162719047D01*
X90571428Y-162528571D01*
X90666666Y-162338095D01*
X90857142Y-162242857D01*
X91333333Y-162242857D01*
X91523809Y-162147619D01*
X92476190Y-163004761D02*
X92476190Y-161671428D01*
X92476190Y-162052380D02*
X92571428Y-161861904D01*
X92666666Y-161766666D01*
X92857142Y-161671428D01*
X93047619Y-161671428D01*
%TO.C,kibuzzard-63D122C1*%
G36*
X89996855Y-49339308D02*
G01*
X89817444Y-49312695D01*
X89641505Y-49268624D01*
X89470733Y-49207521D01*
X89306772Y-49129974D01*
X89151202Y-49036728D01*
X89005521Y-48928684D01*
X88871131Y-48806880D01*
X88749327Y-48672490D01*
X88736907Y-48655743D01*
X91104053Y-48655743D01*
X91569141Y-48655743D01*
X92837280Y-48655743D01*
X93062073Y-48655743D01*
X93286865Y-48655743D01*
X93646533Y-48655743D01*
X94094568Y-48655743D01*
X94094568Y-47472870D01*
X94212778Y-47351947D01*
X94378272Y-47311639D01*
X94584461Y-47375977D01*
X94646472Y-47582941D01*
X94646472Y-48655743D01*
X95094507Y-48655743D01*
X95094507Y-47857343D01*
X95373560Y-47857343D01*
X95399312Y-48091781D01*
X95476568Y-48292803D01*
X95605329Y-48460406D01*
X95775086Y-48586152D01*
X95975332Y-48661600D01*
X96206067Y-48686749D01*
X96406055Y-48666789D01*
X96587439Y-48606909D01*
X96741693Y-48511372D01*
X96860291Y-48384442D01*
X96640149Y-48137946D01*
X96466129Y-48278635D01*
X96235523Y-48325531D01*
X96082625Y-48300726D01*
X95958795Y-48226312D01*
X95871398Y-48110815D01*
X95827796Y-47962762D01*
X96895947Y-47962762D01*
X96895947Y-47779828D01*
X96873985Y-47534365D01*
X96808098Y-47329209D01*
X96698285Y-47164362D01*
X96550232Y-47043783D01*
X96369623Y-46971436D01*
X96156458Y-46947321D01*
X95939610Y-46974257D01*
X95747956Y-47055066D01*
X95589244Y-47185678D01*
X95471228Y-47362024D01*
X95397977Y-47574608D01*
X95373560Y-47813934D01*
X95373560Y-47857343D01*
X95094507Y-47857343D01*
X95094507Y-47572089D01*
X95059625Y-47299237D01*
X94961182Y-47103900D01*
X94796851Y-46986465D01*
X94564307Y-46947321D01*
X94376377Y-46972297D01*
X94215663Y-47047228D01*
X94082166Y-47172113D01*
X94068213Y-46978326D01*
X93646533Y-46978326D01*
X93646533Y-48655743D01*
X93286865Y-48655743D01*
X93286865Y-46978326D01*
X93062073Y-46978326D01*
X93062073Y-48655743D01*
X93062073Y-46978326D01*
X92837280Y-46978326D01*
X92837280Y-48655743D01*
X91569141Y-48655743D01*
X91569141Y-47733319D01*
X92462110Y-47733319D01*
X92462110Y-47358148D01*
X91569141Y-47358148D01*
X91569141Y-46775238D01*
X92573731Y-46775238D01*
X92573731Y-46544244D01*
X92810925Y-46544244D01*
X92879914Y-46711676D01*
X93062073Y-46776788D01*
X93244232Y-46711676D01*
X93313220Y-46544244D01*
X93245008Y-46378363D01*
X93062073Y-46313251D01*
X92878363Y-46378363D01*
X92810925Y-46544244D01*
X92573731Y-46544244D01*
X92573731Y-46398517D01*
X91104053Y-46398517D01*
X91104053Y-48655743D01*
X88736907Y-48655743D01*
X88641283Y-48526809D01*
X88548038Y-48371239D01*
X88470490Y-48207278D01*
X88409387Y-48036506D01*
X88365316Y-47860567D01*
X88338703Y-47681156D01*
X88329804Y-47500000D01*
X88338703Y-47318844D01*
X88365316Y-47139433D01*
X88409387Y-46963494D01*
X88470490Y-46792722D01*
X88548038Y-46628761D01*
X88641283Y-46473191D01*
X88749327Y-46327510D01*
X88871131Y-46193120D01*
X89005521Y-46071316D01*
X89151202Y-45963272D01*
X89306772Y-45870026D01*
X89470733Y-45792479D01*
X89641505Y-45731376D01*
X89817444Y-45687305D01*
X89996855Y-45660692D01*
X90178011Y-45651792D01*
X97821989Y-45651792D01*
X98003145Y-45660692D01*
X98182556Y-45687305D01*
X98358495Y-45731376D01*
X98529267Y-45792479D01*
X98693228Y-45870027D01*
X98848798Y-45963272D01*
X98994479Y-46071316D01*
X99128869Y-46193120D01*
X99250673Y-46327510D01*
X99358717Y-46473191D01*
X99451962Y-46628761D01*
X99529510Y-46792722D01*
X99590613Y-46963494D01*
X99634684Y-47139433D01*
X99661297Y-47318844D01*
X99670196Y-47500000D01*
X99661297Y-47681156D01*
X99634684Y-47860567D01*
X99590613Y-48036506D01*
X99529510Y-48207278D01*
X99451962Y-48371239D01*
X99358717Y-48526809D01*
X99250673Y-48672490D01*
X99128869Y-48806880D01*
X98994479Y-48928684D01*
X98848798Y-49036728D01*
X98693228Y-49129973D01*
X98529267Y-49207521D01*
X98358495Y-49268624D01*
X98182556Y-49312695D01*
X98003145Y-49339308D01*
X97821989Y-49348208D01*
X90178011Y-49348208D01*
X89996855Y-49339308D01*
G37*
G36*
X96375049Y-47391479D02*
G01*
X96455664Y-47621698D01*
X96455664Y-47657355D01*
X95832446Y-47657355D01*
X95870622Y-47509302D01*
X95938642Y-47400006D01*
X96154907Y-47310089D01*
X96375049Y-47391479D01*
G37*
%TO.C,kibuzzard-63D0FD70*%
G36*
X99819727Y-70882202D02*
G01*
X99851274Y-70669532D01*
X99903514Y-70460978D01*
X99975944Y-70258549D01*
X100067867Y-70064194D01*
X100178398Y-69879785D01*
X100306471Y-69707097D01*
X100450855Y-69547795D01*
X100610157Y-69403412D01*
X100782844Y-69275338D01*
X100967253Y-69164807D01*
X101161609Y-69072884D01*
X101364038Y-69000454D01*
X101572592Y-68948214D01*
X101785262Y-68916667D01*
X102000000Y-68906118D01*
X102214738Y-68916667D01*
X102427408Y-68948214D01*
X102635962Y-69000454D01*
X102838391Y-69072884D01*
X103032747Y-69164807D01*
X103217156Y-69275338D01*
X103389843Y-69403412D01*
X103549145Y-69547795D01*
X103693529Y-69707097D01*
X103821602Y-69879785D01*
X103932133Y-70064194D01*
X104024056Y-70258549D01*
X104096486Y-70460978D01*
X104148726Y-70669532D01*
X104180273Y-70882202D01*
X104190822Y-71096940D01*
X104190822Y-80903060D01*
X104180273Y-81117798D01*
X104148726Y-81330468D01*
X104096486Y-81539022D01*
X104024056Y-81741451D01*
X103932133Y-81935806D01*
X103821602Y-82120216D01*
X103693528Y-82292903D01*
X103549145Y-82452205D01*
X103389843Y-82596588D01*
X103217156Y-82724662D01*
X103032746Y-82835193D01*
X102838391Y-82927116D01*
X102635962Y-82999546D01*
X102427408Y-83051786D01*
X102214738Y-83083333D01*
X102000000Y-83093882D01*
X101785262Y-83083333D01*
X101572592Y-83051786D01*
X101364038Y-82999546D01*
X101161609Y-82927116D01*
X100967254Y-82835193D01*
X100782844Y-82724662D01*
X100610157Y-82596588D01*
X100450855Y-82452205D01*
X100306472Y-82292903D01*
X100178398Y-82120216D01*
X100067867Y-81935806D01*
X99975944Y-81741451D01*
X99903514Y-81539022D01*
X99851274Y-81330468D01*
X99819727Y-81117798D01*
X99809178Y-80903060D01*
X99809178Y-80241602D01*
X101148114Y-80241602D01*
X102222467Y-80241602D01*
X102450732Y-80216983D01*
X102628272Y-80149328D01*
X102755086Y-80038637D01*
X102831174Y-79884910D01*
X102856537Y-79688147D01*
X102832766Y-79518476D01*
X102761452Y-79369131D01*
X102642596Y-79240113D01*
X103529364Y-79240113D01*
X103529364Y-78792078D01*
X101148114Y-78792078D01*
X101148114Y-79240113D01*
X102340289Y-79240113D01*
X102454236Y-79355609D01*
X102492218Y-79525366D01*
X102423230Y-79731555D01*
X102210065Y-79793567D01*
X101148114Y-79793567D01*
X101148114Y-80241602D01*
X99809178Y-80241602D01*
X99809178Y-77852600D01*
X101117108Y-77852600D01*
X101136681Y-78036504D01*
X101195398Y-78203742D01*
X101289578Y-78345787D01*
X101415540Y-78454114D01*
X101564561Y-78523102D01*
X101727924Y-78547132D01*
X101727924Y-78127002D01*
X101546539Y-78046387D01*
X101478326Y-77844849D01*
X101506619Y-77704160D01*
X101591498Y-77604553D01*
X101741101Y-77545255D01*
X101963568Y-77525488D01*
X102010077Y-77525488D01*
X102230412Y-77545449D01*
X102379822Y-77605329D01*
X102465282Y-77704354D01*
X102493768Y-77841748D01*
X102412378Y-78046387D01*
X102200763Y-78127002D01*
X102200763Y-78547132D01*
X102386023Y-78524308D01*
X102544928Y-78459971D01*
X102677478Y-78354120D01*
X102776955Y-78213646D01*
X102836641Y-78045440D01*
X102856537Y-77849500D01*
X102830871Y-77626774D01*
X102753873Y-77438155D01*
X102625543Y-77283643D01*
X102454150Y-77169093D01*
X102247961Y-77100364D01*
X102006976Y-77077454D01*
X101977521Y-77077454D01*
X101728182Y-77100536D01*
X101517601Y-77169782D01*
X101345776Y-77285193D01*
X101218738Y-77440567D01*
X101142516Y-77629703D01*
X101117108Y-77852600D01*
X99809178Y-77852600D01*
X99809178Y-76807703D01*
X101148114Y-76807703D01*
X102231769Y-76807703D01*
X102504620Y-76772821D01*
X102699957Y-76674378D01*
X102817392Y-76510047D01*
X102856537Y-76277503D01*
X102831560Y-76089573D01*
X102756629Y-75928859D01*
X102631744Y-75795362D01*
X102825531Y-75781409D01*
X102825531Y-75359729D01*
X101148114Y-75359729D01*
X101148114Y-75807764D01*
X102330988Y-75807764D01*
X102451910Y-75925974D01*
X102492218Y-76091467D01*
X102427881Y-76297656D01*
X102220917Y-76359668D01*
X101148114Y-76359668D01*
X101148114Y-76807703D01*
X99809178Y-76807703D01*
X99809178Y-73984619D01*
X100470636Y-73984619D01*
X100507154Y-74193392D01*
X100616708Y-74358757D01*
X100799298Y-74480713D01*
X100887665Y-74517920D01*
X102825531Y-75192298D01*
X102825531Y-74711707D01*
X101782184Y-74401648D01*
X102825531Y-74090039D01*
X102825531Y-73607898D01*
X101143463Y-74195459D01*
X101005487Y-74142749D01*
X100876813Y-74044306D01*
X100838055Y-73854395D01*
X100839606Y-73786182D01*
X100500092Y-73786182D01*
X100470636Y-73984619D01*
X99809178Y-73984619D01*
X99809178Y-72671521D01*
X101117108Y-72671521D01*
X101135626Y-72904582D01*
X101191178Y-73103536D01*
X101283765Y-73268384D01*
X101408908Y-73391546D01*
X101562128Y-73465443D01*
X101743427Y-73490076D01*
X101985272Y-73444730D01*
X102183710Y-73308692D01*
X102295159Y-73163825D01*
X102393861Y-72971072D01*
X102479816Y-72730432D01*
X102547253Y-72541103D01*
X102619342Y-72404096D01*
X102803827Y-72293250D01*
X102993738Y-72387818D01*
X103047804Y-72501377D01*
X103065826Y-72652918D01*
X103044316Y-72809885D01*
X102979785Y-72927320D01*
X102876497Y-73000571D01*
X102738715Y-73024988D01*
X102738715Y-73490076D01*
X102930951Y-73463915D01*
X103101483Y-73385431D01*
X103243141Y-73259664D01*
X103348755Y-73091651D01*
X103414449Y-72889337D01*
X103436346Y-72660669D01*
X103416193Y-72432195D01*
X103355731Y-72227362D01*
X103259419Y-72056830D01*
X103131714Y-71931256D01*
X102978429Y-71853935D01*
X102805377Y-71828162D01*
X102586786Y-71870881D01*
X102400234Y-71999039D01*
X102245721Y-72212634D01*
X102169176Y-72378903D01*
X102091467Y-72595557D01*
X102015115Y-72800196D01*
X101942639Y-72930420D01*
X101740326Y-73023438D01*
X101551965Y-72930420D01*
X101501387Y-72819187D01*
X101484528Y-72671521D01*
X101507879Y-72476184D01*
X101577933Y-72336658D01*
X101694689Y-72252942D01*
X101858148Y-72225037D01*
X101858148Y-71758399D01*
X101652734Y-71786498D01*
X101473676Y-71870795D01*
X101325429Y-72008577D01*
X101212451Y-72197132D01*
X101140944Y-72422699D01*
X101117108Y-72671521D01*
X99809178Y-72671521D01*
X99809178Y-71096940D01*
X99819727Y-70882202D01*
G37*
%TO.C,kibuzzard-63D25E01*%
G36*
X88955400Y-71812308D02*
G01*
X88778622Y-71786086D01*
X88605266Y-71742662D01*
X88437001Y-71682456D01*
X88275447Y-71606047D01*
X88122160Y-71514170D01*
X87978617Y-71407712D01*
X87846201Y-71287696D01*
X87726185Y-71155279D01*
X87619726Y-71011736D01*
X87527850Y-70858450D01*
X87451441Y-70696896D01*
X87391234Y-70528631D01*
X87363668Y-70418579D01*
X89134161Y-70418579D01*
X89162260Y-70623993D01*
X89246557Y-70803052D01*
X89384340Y-70951299D01*
X89572894Y-71064276D01*
X89798462Y-71135783D01*
X90047284Y-71159619D01*
X90280345Y-71141102D01*
X90479299Y-71085550D01*
X90644147Y-70992963D01*
X90767309Y-70867820D01*
X90841206Y-70714599D01*
X90865839Y-70533301D01*
X90820492Y-70291455D01*
X90684454Y-70093018D01*
X90539588Y-69981569D01*
X90346835Y-69882867D01*
X90106195Y-69796912D01*
X89916865Y-69729474D01*
X89779858Y-69657385D01*
X89669012Y-69472900D01*
X89763580Y-69282990D01*
X89877139Y-69228923D01*
X90028680Y-69210901D01*
X90185647Y-69232411D01*
X90303082Y-69296942D01*
X90376333Y-69400230D01*
X90400751Y-69538013D01*
X90865839Y-69538013D01*
X90839677Y-69345776D01*
X90761194Y-69175244D01*
X90635426Y-69033586D01*
X90467413Y-68927972D01*
X90265100Y-68862279D01*
X90036432Y-68840381D01*
X89807957Y-68860535D01*
X89603125Y-68920996D01*
X89432593Y-69017308D01*
X89307019Y-69145013D01*
X89229698Y-69298299D01*
X89203924Y-69471350D01*
X89246644Y-69689941D01*
X89374801Y-69876493D01*
X89588397Y-70031006D01*
X89754666Y-70107552D01*
X89971319Y-70185260D01*
X90175958Y-70261612D01*
X90306183Y-70334088D01*
X90399200Y-70536401D01*
X90306183Y-70724762D01*
X90194949Y-70775340D01*
X90047284Y-70792200D01*
X89851947Y-70768848D01*
X89712421Y-70698795D01*
X89628705Y-70582038D01*
X89600799Y-70418579D01*
X89134161Y-70418579D01*
X87363668Y-70418579D01*
X87347811Y-70355275D01*
X87321588Y-70178497D01*
X87312819Y-70000000D01*
X87321588Y-69821503D01*
X87347811Y-69644725D01*
X87391234Y-69471369D01*
X87451441Y-69303104D01*
X87527850Y-69141550D01*
X87619726Y-68988264D01*
X87726185Y-68844721D01*
X87846201Y-68712304D01*
X87978617Y-68592288D01*
X88122160Y-68485830D01*
X88275447Y-68393953D01*
X88437001Y-68317544D01*
X88605266Y-68257338D01*
X88778622Y-68213914D01*
X88955400Y-68187692D01*
X89133897Y-68178923D01*
X90866103Y-68178923D01*
X91044600Y-68187692D01*
X91221378Y-68213914D01*
X91394734Y-68257338D01*
X91562999Y-68317544D01*
X91724553Y-68393953D01*
X91877840Y-68485829D01*
X92021382Y-68592288D01*
X92153799Y-68712304D01*
X92273815Y-68844721D01*
X92380274Y-68988264D01*
X92472150Y-69141550D01*
X92548559Y-69303104D01*
X92608766Y-69471369D01*
X92652189Y-69644725D01*
X92678412Y-69821503D01*
X92687181Y-70000000D01*
X92678412Y-70178497D01*
X92652189Y-70355275D01*
X92608766Y-70528631D01*
X92548559Y-70696896D01*
X92472150Y-70858450D01*
X92380274Y-71011736D01*
X92273815Y-71155279D01*
X92153799Y-71287696D01*
X92021382Y-71407712D01*
X91877840Y-71514171D01*
X91724553Y-71606047D01*
X91562999Y-71682456D01*
X91394734Y-71742662D01*
X91221378Y-71786086D01*
X91044600Y-71812308D01*
X90866103Y-71821077D01*
X89133897Y-71821077D01*
X88955400Y-71812308D01*
G37*
%TO.C,kibuzzard-63D139E5*%
G36*
X60395261Y-110103307D02*
G01*
X60238870Y-110080108D01*
X60085505Y-110041693D01*
X59936645Y-109988429D01*
X59793722Y-109920832D01*
X59658113Y-109839551D01*
X59531124Y-109745370D01*
X59413978Y-109639195D01*
X59307803Y-109522048D01*
X59303134Y-109515752D01*
X61148485Y-109515752D01*
X61567064Y-109515752D01*
X62713971Y-109515752D01*
X63132550Y-109515752D01*
X63132550Y-108960437D01*
X63090692Y-108003286D01*
X63637636Y-109515752D01*
X63925060Y-109515752D01*
X64473399Y-108001891D01*
X64431541Y-108960437D01*
X64431541Y-109515752D01*
X64851515Y-109515752D01*
X64851515Y-107484248D01*
X64301781Y-107484248D01*
X63782743Y-108957646D01*
X63260914Y-107484248D01*
X62713971Y-107484248D01*
X62713971Y-109515752D01*
X61567064Y-109515752D01*
X61567064Y-108685570D01*
X62370736Y-108685570D01*
X62370736Y-108347916D01*
X61567064Y-108347916D01*
X61567064Y-107823297D01*
X62471195Y-107823297D01*
X62471195Y-107484248D01*
X61148485Y-107484248D01*
X61148485Y-109515752D01*
X59303134Y-109515752D01*
X59213622Y-109395059D01*
X59132341Y-109259451D01*
X59064743Y-109116528D01*
X59011480Y-108967667D01*
X58973064Y-108814303D01*
X58949866Y-108657912D01*
X58942108Y-108500000D01*
X58949866Y-108342088D01*
X58973064Y-108185697D01*
X59011480Y-108032333D01*
X59064743Y-107883472D01*
X59132341Y-107740549D01*
X59213622Y-107604941D01*
X59307803Y-107477952D01*
X59413978Y-107360805D01*
X59531124Y-107254630D01*
X59658113Y-107160449D01*
X59793722Y-107079168D01*
X59936645Y-107011571D01*
X60085505Y-106958307D01*
X60238870Y-106919892D01*
X60395261Y-106896693D01*
X60553173Y-106888936D01*
X65446828Y-106888936D01*
X65604739Y-106896693D01*
X65761131Y-106919892D01*
X65914495Y-106958308D01*
X66063355Y-107011571D01*
X66206278Y-107079168D01*
X66341887Y-107160449D01*
X66468876Y-107254630D01*
X66586022Y-107360805D01*
X66692197Y-107477952D01*
X66786378Y-107604941D01*
X66867659Y-107740550D01*
X66935257Y-107883472D01*
X66988520Y-108032333D01*
X67026936Y-108185697D01*
X67050134Y-108342088D01*
X67057892Y-108500000D01*
X67050134Y-108657912D01*
X67026936Y-108814303D01*
X66988520Y-108967667D01*
X66935257Y-109116528D01*
X66867659Y-109259450D01*
X66786378Y-109395059D01*
X66692197Y-109522048D01*
X66586022Y-109639195D01*
X66468876Y-109745370D01*
X66341887Y-109839551D01*
X66206278Y-109920832D01*
X66063355Y-109988429D01*
X65914495Y-110041692D01*
X65761131Y-110080108D01*
X65604739Y-110103307D01*
X65446828Y-110111064D01*
X60553173Y-110111064D01*
X60395261Y-110103307D01*
G37*
%TO.C,kibuzzard-63D12295*%
G36*
X70412134Y-47364349D02*
G01*
X70492749Y-47594568D01*
X70492749Y-47630225D01*
X69869531Y-47630225D01*
X69907707Y-47482172D01*
X69975726Y-47372876D01*
X70191992Y-47282959D01*
X70412134Y-47364349D01*
G37*
G36*
X65886828Y-48154224D02*
G01*
X65762805Y-48272821D01*
X65579870Y-48317004D01*
X65418640Y-48262744D01*
X65359729Y-48124768D01*
X65361279Y-48098413D01*
X65410716Y-47969222D01*
X65530089Y-47891707D01*
X65719397Y-47865869D01*
X65886828Y-47865869D01*
X65886828Y-48154224D01*
G37*
G36*
X60227013Y-49312308D02*
G01*
X60050235Y-49286086D01*
X59876878Y-49242662D01*
X59708613Y-49182456D01*
X59547059Y-49106047D01*
X59393773Y-49014170D01*
X59250230Y-48907712D01*
X59117813Y-48787696D01*
X58997798Y-48655279D01*
X58891339Y-48511736D01*
X58799463Y-48358450D01*
X58723053Y-48196896D01*
X58662847Y-48028631D01*
X58619424Y-47855275D01*
X58593201Y-47678497D01*
X58587631Y-47565112D01*
X61066968Y-47565112D01*
X61082519Y-47806522D01*
X61129173Y-48020705D01*
X61206930Y-48207660D01*
X61315790Y-48367389D01*
X61451779Y-48495240D01*
X61610927Y-48586562D01*
X61793231Y-48641355D01*
X61998694Y-48659619D01*
X62246138Y-48636365D01*
X62459303Y-48566602D01*
X62638190Y-48450330D01*
X62775907Y-48293578D01*
X62865566Y-48102375D01*
X62907165Y-47876721D01*
X62442078Y-47876721D01*
X62403902Y-48055974D01*
X62320380Y-48181354D01*
X62186861Y-48255186D01*
X61998694Y-48279797D01*
X61791923Y-48237552D01*
X61649103Y-48110815D01*
X61587522Y-47976284D01*
X61550573Y-47798001D01*
X61550382Y-47794556D01*
X63113354Y-47794556D01*
X63137384Y-48042603D01*
X63209473Y-48253442D01*
X63329620Y-48427075D01*
X63490076Y-48556266D01*
X63683087Y-48633781D01*
X63908655Y-48659619D01*
X64134136Y-48633695D01*
X64326889Y-48555922D01*
X64486914Y-48426300D01*
X64606631Y-48253787D01*
X64640194Y-48157324D01*
X64911694Y-48157324D01*
X64952196Y-48355762D01*
X65073700Y-48516992D01*
X65256828Y-48623962D01*
X65482202Y-48659619D01*
X65718234Y-48614273D01*
X65905432Y-48478235D01*
X65950391Y-48628613D01*
X66403076Y-48628613D01*
X66680578Y-48628613D01*
X67128613Y-48628613D01*
X67128613Y-48095313D01*
X67753381Y-48095313D01*
X67776636Y-48242009D01*
X67846399Y-48378241D01*
X67957051Y-48495288D01*
X68102972Y-48584430D01*
X68278349Y-48640822D01*
X68477368Y-48659619D01*
X68672360Y-48643858D01*
X68841859Y-48596574D01*
X68985864Y-48517767D01*
X69133530Y-48354018D01*
X69182751Y-48146472D01*
X69143305Y-47953719D01*
X69046112Y-47830212D01*
X69410644Y-47830212D01*
X69436396Y-48064651D01*
X69513653Y-48265672D01*
X69642413Y-48433276D01*
X69812170Y-48559022D01*
X70012416Y-48634470D01*
X70243152Y-48659619D01*
X70443140Y-48639659D01*
X70624524Y-48579779D01*
X70778778Y-48484242D01*
X70897375Y-48357312D01*
X70677234Y-48110815D01*
X70503213Y-48251505D01*
X70272607Y-48298401D01*
X70119710Y-48273596D01*
X69995880Y-48199182D01*
X69908482Y-48083685D01*
X69864880Y-47935632D01*
X70933032Y-47935632D01*
X70933032Y-47752698D01*
X70911070Y-47507235D01*
X70845182Y-47302079D01*
X70735370Y-47137231D01*
X70587317Y-47016653D01*
X70406708Y-46944306D01*
X70193542Y-46920190D01*
X69976695Y-46947127D01*
X69785040Y-47027936D01*
X69626329Y-47158548D01*
X69508313Y-47334894D01*
X69435062Y-47547478D01*
X69410644Y-47786804D01*
X69410644Y-47830212D01*
X69046112Y-47830212D01*
X69024966Y-47803341D01*
X68827734Y-47695337D01*
X68699835Y-47655611D01*
X68545581Y-47620148D01*
X68307611Y-47541083D01*
X68237073Y-47420935D01*
X68299084Y-47290710D01*
X68474267Y-47239551D01*
X68668054Y-47302338D01*
X68730066Y-47461243D01*
X69178100Y-47461243D01*
X69130235Y-47243427D01*
X68986639Y-47070569D01*
X68844787Y-46987025D01*
X68674514Y-46936899D01*
X68475818Y-46920190D01*
X68289007Y-46936813D01*
X68127519Y-46986681D01*
X67991351Y-47069794D01*
X67852406Y-47237807D01*
X67806091Y-47442639D01*
X67843492Y-47618016D01*
X67955694Y-47761224D01*
X68142699Y-47872264D01*
X68404504Y-47951135D01*
X68559727Y-47990862D01*
X68665729Y-48035626D01*
X68747119Y-48165076D01*
X68681232Y-48292975D01*
X68486670Y-48341809D01*
X68266528Y-48278247D01*
X68178161Y-48095313D01*
X67753381Y-48095313D01*
X67128613Y-48095313D01*
X67128613Y-47531006D01*
X67251474Y-47401944D01*
X67461926Y-47358923D01*
X67623157Y-47371326D01*
X67629358Y-46940344D01*
X67489831Y-46920190D01*
X67277054Y-46977939D01*
X67116211Y-47151184D01*
X67103808Y-46951196D01*
X66680578Y-46951196D01*
X66680578Y-48628613D01*
X66403076Y-48628613D01*
X66403076Y-48602258D01*
X66353854Y-48450717D01*
X66336413Y-48241040D01*
X66336413Y-47513953D01*
X66290874Y-47263387D01*
X66154254Y-47075995D01*
X66018603Y-46989437D01*
X65854531Y-46937502D01*
X65662036Y-46920190D01*
X65467474Y-46937825D01*
X65293066Y-46990729D01*
X65147339Y-47074638D01*
X65038818Y-47185291D01*
X64971380Y-47314740D01*
X64948901Y-47455042D01*
X65396936Y-47455042D01*
X65461273Y-47306213D01*
X65638782Y-47251953D01*
X65827142Y-47321716D01*
X65886828Y-47507751D01*
X65886828Y-47603870D01*
X65680640Y-47603870D01*
X65451110Y-47620578D01*
X65260682Y-47668637D01*
X65109357Y-47748047D01*
X64961110Y-47921680D01*
X64911694Y-48157324D01*
X64640194Y-48157324D01*
X64678461Y-48047340D01*
X64702405Y-47806958D01*
X64699304Y-47692236D01*
X64661666Y-47471061D01*
X64581826Y-47282959D01*
X64459784Y-47127930D01*
X64302774Y-47012519D01*
X64118030Y-46943273D01*
X63905554Y-46920190D01*
X63681343Y-46946933D01*
X63486200Y-47027161D01*
X63326713Y-47156223D01*
X63209473Y-47329468D01*
X63137384Y-47538370D01*
X63113354Y-47774402D01*
X63113354Y-47794556D01*
X61550382Y-47794556D01*
X61538257Y-47575964D01*
X61538257Y-47405432D01*
X61552812Y-47192267D01*
X61592345Y-47019926D01*
X61656854Y-46888409D01*
X61801613Y-46763417D01*
X62004895Y-46721753D01*
X62191511Y-46746364D01*
X62323480Y-46820197D01*
X62406227Y-46948677D01*
X62445178Y-47137231D01*
X62910266Y-47137231D01*
X62863068Y-46903826D01*
X62771084Y-46707973D01*
X62634314Y-46549670D01*
X62458269Y-46433398D01*
X62248463Y-46363635D01*
X62004895Y-46340381D01*
X61824458Y-46355109D01*
X61659352Y-46399292D01*
X61509576Y-46472931D01*
X61321022Y-46634355D01*
X61181689Y-46853528D01*
X61117955Y-47027505D01*
X61079715Y-47218708D01*
X61066968Y-47427136D01*
X61066968Y-47565112D01*
X58587631Y-47565112D01*
X58584432Y-47500000D01*
X58593201Y-47321503D01*
X58619424Y-47144725D01*
X58662847Y-46971369D01*
X58723053Y-46803104D01*
X58799463Y-46641550D01*
X58891339Y-46488264D01*
X58997798Y-46344721D01*
X59117813Y-46212304D01*
X59250230Y-46092288D01*
X59393773Y-45985830D01*
X59547059Y-45893953D01*
X59708613Y-45817544D01*
X59876878Y-45757338D01*
X60050235Y-45713914D01*
X60227013Y-45687692D01*
X60405509Y-45678923D01*
X71594490Y-45678923D01*
X71772987Y-45687692D01*
X71949765Y-45713914D01*
X72123121Y-45757338D01*
X72291387Y-45817544D01*
X72452940Y-45893953D01*
X72606227Y-45985829D01*
X72749770Y-46092288D01*
X72882187Y-46212304D01*
X73002202Y-46344721D01*
X73108661Y-46488264D01*
X73200537Y-46641550D01*
X73276947Y-46803104D01*
X73337153Y-46971369D01*
X73380576Y-47144725D01*
X73406799Y-47321503D01*
X73415568Y-47500000D01*
X73406799Y-47678497D01*
X73380576Y-47855275D01*
X73337153Y-48028631D01*
X73276947Y-48196896D01*
X73200537Y-48358450D01*
X73108661Y-48511736D01*
X73002202Y-48655279D01*
X72882187Y-48787696D01*
X72749770Y-48907712D01*
X72606227Y-49014171D01*
X72452940Y-49106047D01*
X72291387Y-49182456D01*
X72123121Y-49242662D01*
X71949765Y-49286086D01*
X71772987Y-49312308D01*
X71594490Y-49321077D01*
X60405509Y-49321077D01*
X60227013Y-49312308D01*
G37*
G36*
X64052832Y-47315128D02*
G01*
X64162903Y-47411633D01*
X64231503Y-47566663D01*
X64254370Y-47774402D01*
X64231503Y-48011403D01*
X64162903Y-48173602D01*
X64053607Y-48267201D01*
X63908655Y-48298401D01*
X63760602Y-48266814D01*
X63651306Y-48172052D01*
X63583868Y-48017604D01*
X63561389Y-47806958D01*
X63583868Y-47573833D01*
X63651306Y-47410858D01*
X63759827Y-47314934D01*
X63905554Y-47282959D01*
X64052832Y-47315128D01*
G37*
%TO.C,kibuzzard-63D2A377*%
G36*
X56921310Y-136203976D02*
G01*
X56755099Y-136179321D01*
X56592106Y-136138493D01*
X56433899Y-136081886D01*
X56282002Y-136010044D01*
X56137878Y-135923660D01*
X56002916Y-135823565D01*
X55878414Y-135710723D01*
X55793385Y-135616909D01*
X59524802Y-135616909D01*
X59824784Y-135616909D01*
X60208885Y-134483954D01*
X60730310Y-134483954D01*
X60743178Y-134671772D01*
X60779920Y-134844553D01*
X60840536Y-135002295D01*
X60923012Y-135140969D01*
X61025331Y-135256543D01*
X61147494Y-135349018D01*
X61285625Y-135416456D01*
X61435849Y-135456918D01*
X61598164Y-135470406D01*
X61761953Y-135456763D01*
X61912874Y-135415836D01*
X62050927Y-135347623D01*
X62172393Y-135254295D01*
X62273549Y-135138023D01*
X62354397Y-134998807D01*
X62413308Y-134839902D01*
X62442311Y-134696035D01*
X62675308Y-134696035D01*
X62696082Y-134920439D01*
X62758404Y-135109963D01*
X62862273Y-135264604D01*
X63002110Y-135378939D01*
X63172332Y-135447539D01*
X63372940Y-135470406D01*
X63538453Y-135452791D01*
X63688967Y-135399945D01*
X63816808Y-135315183D01*
X63914302Y-135201818D01*
X63976391Y-135067698D01*
X63998018Y-134920672D01*
X63619901Y-134920672D01*
X63547348Y-135083918D01*
X63365963Y-135145309D01*
X63239343Y-135119846D01*
X63149697Y-135043455D01*
X63096329Y-134908812D01*
X63078539Y-134708592D01*
X63078539Y-134666734D01*
X63096503Y-134468432D01*
X63150395Y-134333964D01*
X63239518Y-134257050D01*
X63363173Y-134231412D01*
X63547348Y-134304663D01*
X63619901Y-134495117D01*
X63998018Y-134495117D01*
X63977476Y-134328383D01*
X63937085Y-134228621D01*
X64087315Y-134228621D01*
X64307766Y-134228621D01*
X64307766Y-135042060D01*
X64337939Y-135229461D01*
X64420085Y-135363319D01*
X64554205Y-135443634D01*
X64740298Y-135470406D01*
X64864128Y-135461337D01*
X64984469Y-135434129D01*
X64984469Y-135128566D01*
X64865872Y-135138333D01*
X64743089Y-135102056D01*
X64710998Y-134982064D01*
X64710998Y-134228621D01*
X64969121Y-134228621D01*
X64969121Y-133976078D01*
X65076557Y-133976078D01*
X65514669Y-134100257D01*
X65213292Y-134479769D01*
X65435139Y-134630457D01*
X65686287Y-134236993D01*
X65940225Y-134644410D01*
X66162072Y-134486745D01*
X65869066Y-134115605D01*
X66315551Y-133991426D01*
X66233230Y-133736093D01*
X65810465Y-133907711D01*
X65838371Y-133410997D01*
X65564899Y-133410997D01*
X65592804Y-133897944D01*
X65158877Y-133723536D01*
X65076557Y-133976078D01*
X64969121Y-133976078D01*
X64969121Y-133932825D01*
X64710998Y-133932825D01*
X64710998Y-133561685D01*
X64307766Y-133561685D01*
X64307766Y-133932825D01*
X64087315Y-133932825D01*
X64087315Y-134228621D01*
X63937085Y-134228621D01*
X63919573Y-134185368D01*
X63824307Y-134066073D01*
X63697881Y-133976544D01*
X63546495Y-133922826D01*
X63370149Y-133904920D01*
X63169696Y-133928019D01*
X62999939Y-133997318D01*
X62860878Y-134112814D01*
X62757783Y-134267068D01*
X62695927Y-134452639D01*
X62675308Y-134669525D01*
X62675308Y-134696035D01*
X62442311Y-134696035D01*
X62448655Y-134664564D01*
X62460437Y-134472792D01*
X62460437Y-134382100D01*
X62448422Y-134190872D01*
X62412378Y-134015301D01*
X62352304Y-133855388D01*
X62270294Y-133715087D01*
X62168440Y-133598350D01*
X62046742Y-133505177D01*
X61908843Y-133437352D01*
X61758387Y-133396656D01*
X61595374Y-133383091D01*
X61432360Y-133396656D01*
X61281904Y-133437352D01*
X61144006Y-133505177D01*
X61022308Y-133598350D01*
X60920454Y-133715087D01*
X60838443Y-133855388D01*
X60778369Y-134015456D01*
X60742325Y-134191492D01*
X60730310Y-134383495D01*
X60730310Y-134483954D01*
X60208885Y-134483954D01*
X60572645Y-133410997D01*
X60272664Y-133410997D01*
X59524802Y-135616909D01*
X55793385Y-135616909D01*
X55765572Y-135586222D01*
X55665477Y-135451259D01*
X55579093Y-135307135D01*
X55507251Y-135155239D01*
X55450644Y-134997032D01*
X55409816Y-134834038D01*
X55385161Y-134667827D01*
X55376916Y-134500000D01*
X55385161Y-134332173D01*
X55409816Y-134165962D01*
X55450644Y-134002968D01*
X55507251Y-133844761D01*
X55579093Y-133692865D01*
X55665477Y-133548741D01*
X55765572Y-133413778D01*
X55768093Y-133410997D01*
X57684450Y-133410997D01*
X58389058Y-135442501D01*
X58825775Y-135442501D01*
X59533174Y-133410997D01*
X59067156Y-133410997D01*
X58606719Y-134938810D01*
X58149072Y-133410997D01*
X57684450Y-133410997D01*
X55768093Y-133410997D01*
X55878414Y-133289277D01*
X56002916Y-133176435D01*
X56137878Y-133076340D01*
X56282002Y-132989956D01*
X56433899Y-132918114D01*
X56592106Y-132861507D01*
X56755099Y-132820679D01*
X56921310Y-132796024D01*
X57089137Y-132787779D01*
X66910863Y-132787779D01*
X67078690Y-132796024D01*
X67244901Y-132820679D01*
X67407895Y-132861507D01*
X67566102Y-132918114D01*
X67717999Y-132989956D01*
X67862122Y-133076340D01*
X67997085Y-133176435D01*
X68121586Y-133289277D01*
X68234428Y-133413779D01*
X68334523Y-133548741D01*
X68420907Y-133692865D01*
X68492749Y-133844761D01*
X68549356Y-134002969D01*
X68590184Y-134165962D01*
X68614839Y-134332173D01*
X68623084Y-134500000D01*
X68614839Y-134667827D01*
X68590184Y-134834038D01*
X68549356Y-134997031D01*
X68492749Y-135155239D01*
X68420907Y-135307135D01*
X68334523Y-135451259D01*
X68234428Y-135586221D01*
X68121586Y-135710723D01*
X67997085Y-135823565D01*
X67862122Y-135923660D01*
X67717999Y-136010044D01*
X67566102Y-136081886D01*
X67407895Y-136138493D01*
X67244901Y-136179321D01*
X67078690Y-136203976D01*
X66910863Y-136212221D01*
X57089137Y-136212221D01*
X56921310Y-136203976D01*
G37*
G36*
X61783037Y-133770626D02*
G01*
X61921865Y-133895153D01*
X61985427Y-134022897D01*
X62023565Y-134184748D01*
X62036277Y-134380705D01*
X62036277Y-134479769D01*
X62022945Y-134674098D01*
X61984807Y-134834786D01*
X61921865Y-134961832D01*
X61784432Y-135085836D01*
X61598164Y-135127171D01*
X61408408Y-135084267D01*
X61268882Y-134955554D01*
X61205320Y-134825639D01*
X61167183Y-134664719D01*
X61154470Y-134472792D01*
X61154470Y-134373729D01*
X61167958Y-134179554D01*
X61206560Y-134019332D01*
X61270277Y-133893060D01*
X61408757Y-133770103D01*
X61595374Y-133729117D01*
X61783037Y-133770626D01*
G37*
%TO.C,kibuzzard-63D127EA*%
G36*
X83024622Y-57348846D02*
G01*
X83105237Y-57579065D01*
X83105237Y-57614722D01*
X82482019Y-57614722D01*
X82520195Y-57466669D01*
X82588214Y-57357373D01*
X82804480Y-57267456D01*
X83024622Y-57348846D01*
G37*
G36*
X65694170Y-59296880D02*
G01*
X65518897Y-59270881D01*
X65347016Y-59227827D01*
X65180183Y-59168133D01*
X65020005Y-59092375D01*
X64868023Y-59001280D01*
X64725702Y-58895728D01*
X64594413Y-58776734D01*
X64475419Y-58645444D01*
X64369866Y-58503123D01*
X64278772Y-58351142D01*
X64203013Y-58190963D01*
X64143320Y-58024131D01*
X64100266Y-57852250D01*
X64074267Y-57676977D01*
X64065572Y-57500000D01*
X64074267Y-57323023D01*
X64100266Y-57147750D01*
X64143320Y-56975869D01*
X64203013Y-56809037D01*
X64239163Y-56732605D01*
X76454480Y-56732605D01*
X77136609Y-56732605D01*
X77136609Y-58613110D01*
X77601697Y-58613110D01*
X77601697Y-58034851D01*
X78517920Y-58034851D01*
X78555708Y-58298013D01*
X78662872Y-58489087D01*
X78836699Y-58605359D01*
X79074475Y-58644116D01*
X79255687Y-58621723D01*
X79408649Y-58554544D01*
X79533362Y-58442578D01*
X79545764Y-58613110D01*
X79967444Y-58613110D01*
X80296106Y-58613110D01*
X80744141Y-58613110D01*
X80744141Y-57430237D01*
X80862351Y-57309314D01*
X81027844Y-57269006D01*
X81234033Y-57333344D01*
X81296045Y-57540308D01*
X81296045Y-58613110D01*
X81744080Y-58613110D01*
X81744080Y-57814709D01*
X82023132Y-57814709D01*
X82048885Y-58049148D01*
X82126141Y-58250170D01*
X82254901Y-58417773D01*
X82424658Y-58543519D01*
X82624905Y-58618967D01*
X82855640Y-58644116D01*
X83055628Y-58624156D01*
X83237012Y-58564276D01*
X83391266Y-58468739D01*
X83509863Y-58341809D01*
X83289722Y-58095313D01*
X83115701Y-58236002D01*
X82885095Y-58282898D01*
X82732198Y-58258093D01*
X82608368Y-58183679D01*
X82520970Y-58068182D01*
X82477368Y-57920129D01*
X83545520Y-57920129D01*
X83545520Y-57737195D01*
X83523558Y-57491732D01*
X83457670Y-57286576D01*
X83347858Y-57121729D01*
X83199805Y-57001150D01*
X83019196Y-56928803D01*
X82806030Y-56904687D01*
X82589183Y-56931624D01*
X82397528Y-57012433D01*
X82238817Y-57143045D01*
X82120801Y-57319391D01*
X82047550Y-57531975D01*
X82023132Y-57771301D01*
X82023132Y-57814709D01*
X81744080Y-57814709D01*
X81744080Y-57529456D01*
X81709198Y-57256604D01*
X81610755Y-57061267D01*
X81446423Y-56943832D01*
X81213880Y-56904687D01*
X81025950Y-56929664D01*
X80865236Y-57004595D01*
X80731738Y-57129480D01*
X80717786Y-56935693D01*
X80296106Y-56935693D01*
X80296106Y-58613110D01*
X79967444Y-58613110D01*
X79967444Y-56935693D01*
X79517859Y-56935693D01*
X79517859Y-58123218D01*
X79396936Y-58241815D01*
X79204700Y-58281348D01*
X79025641Y-58215848D01*
X78965955Y-58019348D01*
X78965955Y-56935693D01*
X78517920Y-56935693D01*
X78517920Y-58034851D01*
X77601697Y-58034851D01*
X77601697Y-56732605D01*
X78293128Y-56732605D01*
X78293128Y-56355884D01*
X76454480Y-56355884D01*
X76454480Y-56732605D01*
X64239163Y-56732605D01*
X64278772Y-56648858D01*
X64369866Y-56496877D01*
X64475419Y-56354556D01*
X64594413Y-56223266D01*
X64725702Y-56104272D01*
X64868023Y-55998720D01*
X65020005Y-55907625D01*
X65180183Y-55831867D01*
X65347016Y-55772173D01*
X65518897Y-55729119D01*
X65694170Y-55703120D01*
X65871147Y-55694425D01*
X94128853Y-55694425D01*
X94305831Y-55703120D01*
X94481104Y-55729119D01*
X94652984Y-55772173D01*
X94819817Y-55831867D01*
X94979995Y-55907625D01*
X95131977Y-55998720D01*
X95274298Y-56104272D01*
X95405587Y-56223266D01*
X95524581Y-56354556D01*
X95630134Y-56496877D01*
X95721228Y-56648858D01*
X95796987Y-56809037D01*
X95856680Y-56975869D01*
X95899734Y-57147750D01*
X95925733Y-57323023D01*
X95934428Y-57500000D01*
X95925733Y-57676977D01*
X95899734Y-57852250D01*
X95856680Y-58024131D01*
X95796987Y-58190963D01*
X95721228Y-58351142D01*
X95630134Y-58503123D01*
X95524581Y-58645444D01*
X95405587Y-58776734D01*
X95274298Y-58895728D01*
X95131977Y-59001280D01*
X94979995Y-59092375D01*
X94819817Y-59168133D01*
X94652984Y-59227827D01*
X94481104Y-59270881D01*
X94305831Y-59296880D01*
X94128853Y-59305575D01*
X65871147Y-59305575D01*
X65694170Y-59296880D01*
G37*
%TO.C,kibuzzard-63D2A3C5*%
G36*
X75589882Y-134500000D02*
G01*
X76682528Y-132861030D01*
X83317472Y-132861030D01*
X84410118Y-134500000D01*
X83317472Y-136138970D01*
X76682528Y-136138970D01*
X75628019Y-134557206D01*
X77277841Y-134557206D01*
X77290708Y-134745024D01*
X77327450Y-134917804D01*
X77388066Y-135075546D01*
X77470542Y-135214220D01*
X77572861Y-135329794D01*
X77695024Y-135422269D01*
X77833156Y-135489707D01*
X77983379Y-135530170D01*
X78145695Y-135543657D01*
X78309483Y-135530015D01*
X78460404Y-135489087D01*
X78598458Y-135420874D01*
X78719923Y-135327546D01*
X78821080Y-135211274D01*
X78901927Y-135072058D01*
X78960839Y-134913153D01*
X78976059Y-134837654D01*
X79292601Y-134837654D01*
X79318181Y-135041517D01*
X79389340Y-135214065D01*
X79506077Y-135355297D01*
X79661881Y-135459941D01*
X79850242Y-135522728D01*
X80071158Y-135543657D01*
X80295098Y-135522108D01*
X80485087Y-135457461D01*
X80641124Y-135349716D01*
X80757008Y-135204918D01*
X80826539Y-135029115D01*
X80849716Y-134822306D01*
X80849716Y-133823297D01*
X81067377Y-133823297D01*
X81681293Y-133823297D01*
X81681293Y-135515752D01*
X82099872Y-135515752D01*
X82099872Y-133823297D01*
X82722159Y-133823297D01*
X82722159Y-133484248D01*
X81067377Y-133484248D01*
X81067377Y-133823297D01*
X80849716Y-133823297D01*
X80849716Y-133484248D01*
X80429741Y-133484248D01*
X80429741Y-134836259D01*
X80405237Y-134998632D01*
X80337305Y-135114614D01*
X80225946Y-135184202D01*
X80071158Y-135207399D01*
X79920644Y-135184551D01*
X79806756Y-135116009D01*
X79735074Y-134997586D01*
X79711180Y-134825096D01*
X79711180Y-133484248D01*
X79292601Y-133484248D01*
X79292601Y-134837654D01*
X78976059Y-134837654D01*
X78996185Y-134737815D01*
X79007968Y-134546044D01*
X79007968Y-134455352D01*
X78995953Y-134264123D01*
X78959908Y-134088552D01*
X78899835Y-133928640D01*
X78817824Y-133788338D01*
X78715970Y-133671601D01*
X78594272Y-133578428D01*
X78456373Y-133510603D01*
X78305917Y-133469908D01*
X78142904Y-133456343D01*
X77979891Y-133469908D01*
X77829435Y-133510603D01*
X77691536Y-133578428D01*
X77569838Y-133671601D01*
X77467984Y-133788338D01*
X77385974Y-133928640D01*
X77325900Y-134088707D01*
X77289855Y-134264743D01*
X77277841Y-134456747D01*
X77277841Y-134557206D01*
X75628019Y-134557206D01*
X75589882Y-134500000D01*
G37*
G36*
X78330567Y-133843877D02*
G01*
X78469396Y-133968405D01*
X78532958Y-134096149D01*
X78571095Y-134257999D01*
X78583807Y-134453956D01*
X78583807Y-134553020D01*
X78570475Y-134747349D01*
X78532338Y-134908037D01*
X78469396Y-135035084D01*
X78331962Y-135159088D01*
X78145695Y-135200422D01*
X77955939Y-135157518D01*
X77816412Y-135028805D01*
X77752850Y-134898890D01*
X77714713Y-134737970D01*
X77702001Y-134546044D01*
X77702001Y-134446980D01*
X77715488Y-134252806D01*
X77754091Y-134092583D01*
X77817808Y-133966312D01*
X77956288Y-133843354D01*
X78142904Y-133802368D01*
X78330567Y-133843877D01*
G37*
%TO.C,G\u002A\u002A\u002A*%
G36*
X71090851Y-41095692D02*
G01*
X71126683Y-40944147D01*
X71216167Y-40558095D01*
X71301902Y-40171383D01*
X71375217Y-39824228D01*
X71427440Y-39556852D01*
X71434933Y-39514501D01*
X71517429Y-39034944D01*
X72677488Y-39034944D01*
X72754782Y-39415282D01*
X72799378Y-39626513D01*
X72862650Y-39915385D01*
X72938584Y-40255592D01*
X73021171Y-40620827D01*
X73104400Y-40984784D01*
X73182258Y-41321156D01*
X73248736Y-41603635D01*
X73297822Y-41805916D01*
X73321566Y-41895751D01*
X73326284Y-41952958D01*
X73281053Y-41987572D01*
X73161829Y-42005115D01*
X72944571Y-42011106D01*
X72817424Y-42011506D01*
X72548319Y-42008374D01*
X72383254Y-41994598D01*
X72294041Y-41963605D01*
X72252490Y-41908826D01*
X72242563Y-41877498D01*
X72215020Y-41796183D01*
X72167185Y-41780007D01*
X72062122Y-41829821D01*
X71969732Y-41883787D01*
X71819653Y-41956420D01*
X71724511Y-41972559D01*
X71710927Y-41961030D01*
X71657506Y-41860121D01*
X71602866Y-41778937D01*
X71537473Y-41705522D01*
X71499426Y-41738783D01*
X71471700Y-41835703D01*
X71424975Y-41950755D01*
X71333501Y-42000890D01*
X71164253Y-42011506D01*
X70999013Y-41998439D01*
X70907439Y-41965816D01*
X70900930Y-41952871D01*
X70915516Y-41870799D01*
X70955655Y-41684393D01*
X71012535Y-41432861D01*
X71629653Y-41432861D01*
X71669769Y-41473987D01*
X71800274Y-41456058D01*
X71833760Y-41448936D01*
X71991811Y-41410038D01*
X72081808Y-41378500D01*
X72085714Y-41375722D01*
X72085285Y-41301610D01*
X72047425Y-41155848D01*
X71988961Y-40987437D01*
X71926721Y-40845378D01*
X71881312Y-40780512D01*
X71823318Y-40811039D01*
X71753777Y-40942323D01*
X71685677Y-41145123D01*
X71647046Y-41307835D01*
X71629653Y-41432861D01*
X71012535Y-41432861D01*
X71015911Y-41417931D01*
X71090851Y-41095692D01*
G37*
G36*
X65446049Y-40457079D02*
G01*
X65449372Y-40156981D01*
X65467416Y-39947219D01*
X65508402Y-39785998D01*
X65580551Y-39631522D01*
X65623088Y-39556958D01*
X65818129Y-39284227D01*
X66044462Y-39104720D01*
X66345453Y-38987226D01*
X66451774Y-38960554D01*
X66849368Y-38932157D01*
X67221249Y-39024631D01*
X67544395Y-39226582D01*
X67795786Y-39526616D01*
X67866181Y-39660593D01*
X67960244Y-39983780D01*
X67995548Y-40374780D01*
X67973184Y-40783425D01*
X67894244Y-41159550D01*
X67829886Y-41328459D01*
X67708127Y-41542716D01*
X67569261Y-41719919D01*
X67491110Y-41788246D01*
X67311669Y-41905820D01*
X67566859Y-42120065D01*
X67706081Y-42246170D01*
X67784198Y-42335357D01*
X67790526Y-42359693D01*
X67720102Y-42410628D01*
X67586356Y-42504071D01*
X67553950Y-42526460D01*
X67348898Y-42667843D01*
X67165020Y-42475915D01*
X67046139Y-42315998D01*
X67017758Y-42190523D01*
X67020730Y-42180820D01*
X67022382Y-42119803D01*
X66949856Y-42088352D01*
X66777526Y-42077796D01*
X66715130Y-42077405D01*
X66365065Y-42036649D01*
X66075158Y-41905603D01*
X65824755Y-41670267D01*
X65593387Y-41316975D01*
X65518562Y-41154111D01*
X65473639Y-40974300D01*
X65456240Y-40786118D01*
X66380964Y-40786118D01*
X66414980Y-41045642D01*
X66505333Y-41256805D01*
X66634487Y-41388282D01*
X66733742Y-41416194D01*
X66859997Y-41364557D01*
X66974752Y-41245614D01*
X67049535Y-41057254D01*
X67082303Y-40819297D01*
X67071354Y-40586447D01*
X67014985Y-40413406D01*
X67001250Y-40394458D01*
X66874212Y-40317029D01*
X66733742Y-40291715D01*
X66541889Y-40337294D01*
X66426754Y-40479928D01*
X66382025Y-40728459D01*
X66380964Y-40786118D01*
X65456240Y-40786118D01*
X65451732Y-40737358D01*
X65446049Y-40457079D01*
G37*
G36*
X73505742Y-40411253D02*
G01*
X73487020Y-40030668D01*
X73468024Y-39703592D01*
X73450360Y-39458244D01*
X73438414Y-39340819D01*
X73398832Y-39052030D01*
X73839180Y-39004873D01*
X74390304Y-38990436D01*
X74886977Y-39066306D01*
X75314239Y-39227043D01*
X75657130Y-39467209D01*
X75881568Y-39747353D01*
X75979804Y-40003128D01*
X76036014Y-40331736D01*
X76045145Y-40678987D01*
X76002144Y-40990694D01*
X75998731Y-41003651D01*
X75848470Y-41334409D01*
X75602230Y-41631976D01*
X75296076Y-41855103D01*
X75223238Y-41890559D01*
X74993841Y-41960028D01*
X74681388Y-42013376D01*
X74334632Y-42045763D01*
X74002326Y-42052346D01*
X73771936Y-42034676D01*
X73567161Y-42004646D01*
X73535576Y-41163331D01*
X74677378Y-41163331D01*
X74679044Y-41341827D01*
X74695581Y-41434395D01*
X74732342Y-41464185D01*
X74794684Y-41454345D01*
X74817518Y-41447621D01*
X74987554Y-41364345D01*
X75091944Y-41284398D01*
X75176820Y-41145173D01*
X75237701Y-40942197D01*
X75247598Y-40877121D01*
X75232340Y-40599976D01*
X75123078Y-40399236D01*
X74929490Y-40290212D01*
X74869680Y-40279158D01*
X74792398Y-40273943D01*
X74743066Y-40297660D01*
X74714217Y-40374465D01*
X74698382Y-40528511D01*
X74688094Y-40783953D01*
X74685227Y-40875758D01*
X74677378Y-41163331D01*
X73535576Y-41163331D01*
X73522579Y-40817127D01*
X73505742Y-40411253D01*
G37*
G36*
X79028351Y-41095692D02*
G01*
X79064183Y-40944147D01*
X79153667Y-40558095D01*
X79239402Y-40171383D01*
X79312717Y-39824228D01*
X79364940Y-39556852D01*
X79372433Y-39514501D01*
X79454929Y-39034944D01*
X80614988Y-39034944D01*
X80692282Y-39415282D01*
X80736878Y-39626513D01*
X80800150Y-39915385D01*
X80876084Y-40255592D01*
X80958671Y-40620827D01*
X81041900Y-40984784D01*
X81119758Y-41321156D01*
X81186236Y-41603635D01*
X81235322Y-41805916D01*
X81259066Y-41895751D01*
X81263784Y-41952958D01*
X81218553Y-41987572D01*
X81099329Y-42005115D01*
X80882071Y-42011106D01*
X80754924Y-42011506D01*
X80485819Y-42008374D01*
X80320754Y-41994598D01*
X80231541Y-41963605D01*
X80189990Y-41908826D01*
X80180063Y-41877498D01*
X80152520Y-41796183D01*
X80104685Y-41780007D01*
X79999622Y-41829821D01*
X79907232Y-41883787D01*
X79757153Y-41956420D01*
X79662011Y-41972559D01*
X79648427Y-41961030D01*
X79595006Y-41860121D01*
X79540366Y-41778937D01*
X79474973Y-41705522D01*
X79436926Y-41738783D01*
X79409200Y-41835703D01*
X79362475Y-41950755D01*
X79271001Y-42000890D01*
X79101753Y-42011506D01*
X78936513Y-41998439D01*
X78844939Y-41965816D01*
X78838429Y-41952871D01*
X78853016Y-41870799D01*
X78893155Y-41684393D01*
X78950035Y-41432861D01*
X79567153Y-41432861D01*
X79607269Y-41473987D01*
X79737774Y-41456058D01*
X79771260Y-41448936D01*
X79929311Y-41410038D01*
X80019308Y-41378500D01*
X80023214Y-41375722D01*
X80022785Y-41301610D01*
X79984925Y-41155848D01*
X79926461Y-40987437D01*
X79864221Y-40845378D01*
X79818812Y-40780512D01*
X79760818Y-40811039D01*
X79691277Y-40942323D01*
X79623177Y-41145123D01*
X79584546Y-41307835D01*
X79567153Y-41432861D01*
X78950035Y-41432861D01*
X78953411Y-41417931D01*
X79028351Y-41095692D01*
G37*
G36*
X76264600Y-40112739D02*
G01*
X76250661Y-39731975D01*
X76240876Y-39416674D01*
X76235809Y-39186043D01*
X76236024Y-39059284D01*
X76238124Y-39041033D01*
X76307903Y-39030236D01*
X76483280Y-39020929D01*
X76737561Y-39014122D01*
X77035378Y-39010860D01*
X77394934Y-39013212D01*
X77655210Y-39026435D01*
X77849041Y-39054614D01*
X78009264Y-39101832D01*
X78110825Y-39144614D01*
X78414425Y-39314018D01*
X78608935Y-39507278D01*
X78717279Y-39756825D01*
X78760549Y-40063835D01*
X78769119Y-40315359D01*
X78748026Y-40489398D01*
X78685922Y-40639485D01*
X78613781Y-40756230D01*
X78502251Y-40910858D01*
X78415929Y-41005984D01*
X78391007Y-41020332D01*
X78298071Y-41052835D01*
X78248624Y-41080661D01*
X78213862Y-41133134D01*
X78245439Y-41223981D01*
X78354039Y-41375580D01*
X78438902Y-41479171D01*
X78578372Y-41652891D01*
X78671438Y-41782766D01*
X78698033Y-41840781D01*
X78697978Y-41840832D01*
X78629904Y-41880408D01*
X78479681Y-41959470D01*
X78332152Y-42034517D01*
X78129577Y-42128561D01*
X78007983Y-42160070D01*
X77935406Y-42135388D01*
X77917443Y-42116816D01*
X77846924Y-42013035D01*
X77740169Y-41835687D01*
X77647706Y-41672436D01*
X77451764Y-41316975D01*
X77450565Y-41664241D01*
X77449367Y-42011506D01*
X76345598Y-42011506D01*
X76288610Y-40690039D01*
X77449475Y-40690039D01*
X77464085Y-40843744D01*
X77488907Y-40904518D01*
X77582583Y-40917326D01*
X77727422Y-40866680D01*
X77829706Y-40802514D01*
X77907303Y-40670256D01*
X77891883Y-40503544D01*
X77791809Y-40352911D01*
X77749932Y-40320611D01*
X77612036Y-40257192D01*
X77518422Y-40256844D01*
X77479123Y-40342161D01*
X77455314Y-40504702D01*
X77449475Y-40690039D01*
X76288610Y-40690039D01*
X76282129Y-40539761D01*
X76264600Y-40112739D01*
G37*
G36*
X81425353Y-40112300D02*
G01*
X81412004Y-39730675D01*
X81403201Y-39414193D01*
X81399442Y-39182164D01*
X81401221Y-39053895D01*
X81404112Y-39034944D01*
X81476390Y-39021698D01*
X81653233Y-39010979D01*
X81906921Y-39003987D01*
X82167861Y-39001871D01*
X82498665Y-39004286D01*
X82732125Y-39015585D01*
X82903162Y-39041849D01*
X83046693Y-39089157D01*
X83197639Y-39163590D01*
X83244628Y-39189366D01*
X83563661Y-39418004D01*
X83762642Y-39691496D01*
X83850820Y-40026726D01*
X83852218Y-40298464D01*
X83764637Y-40688498D01*
X83571523Y-41008841D01*
X83286179Y-41244790D01*
X82921911Y-41381645D01*
X82862021Y-41392601D01*
X82690308Y-41436032D01*
X82617660Y-41507757D01*
X82607839Y-41573476D01*
X82597117Y-41782359D01*
X82551256Y-41911718D01*
X82444792Y-41980426D01*
X82252263Y-42007357D01*
X82016887Y-42011506D01*
X81506607Y-42011506D01*
X81460392Y-40946291D01*
X82608742Y-40946291D01*
X82807578Y-40876976D01*
X82986818Y-40759288D01*
X83048829Y-40638669D01*
X83049886Y-40430657D01*
X82941929Y-40290193D01*
X82783971Y-40237712D01*
X82683916Y-40232885D01*
X82631742Y-40269637D01*
X82611875Y-40378523D01*
X82608742Y-40581536D01*
X82608742Y-40946291D01*
X81460392Y-40946291D01*
X81442754Y-40539761D01*
X81425353Y-40112300D01*
G37*
G36*
X94332399Y-39514501D02*
G01*
X94316783Y-39837099D01*
X94296248Y-40049515D01*
X94258351Y-40173645D01*
X94190653Y-40231384D01*
X94080711Y-40244629D01*
X93922600Y-40235721D01*
X93725866Y-40226492D01*
X93627174Y-40244141D01*
X93592803Y-40303709D01*
X93588950Y-40384549D01*
X93598502Y-40485469D01*
X93649516Y-40536388D01*
X93775533Y-40554299D01*
X93927948Y-40556298D01*
X94266945Y-40556298D01*
X94225604Y-40763004D01*
X94196533Y-40925184D01*
X94184265Y-41027043D01*
X94184263Y-41027587D01*
X94125127Y-41062108D01*
X93975510Y-41082812D01*
X93886607Y-41085465D01*
X93703622Y-41091051D01*
X93616960Y-41124275D01*
X93590683Y-41209833D01*
X93588950Y-41290024D01*
X93588950Y-41494583D01*
X94316532Y-41449267D01*
X94274783Y-41680777D01*
X94239404Y-41849048D01*
X94207879Y-41955560D01*
X94204745Y-41961897D01*
X94131646Y-41980546D01*
X93952126Y-41995995D01*
X93692043Y-42006777D01*
X93377257Y-42011428D01*
X93329506Y-42011506D01*
X92482557Y-42011506D01*
X92434127Y-40611398D01*
X92418163Y-40190432D01*
X92401143Y-39811706D01*
X92384223Y-39496105D01*
X92368555Y-39264511D01*
X92355294Y-39137810D01*
X92351861Y-39123117D01*
X92362081Y-39088658D01*
X92434144Y-39064085D01*
X92584238Y-39047946D01*
X92828551Y-39038792D01*
X93183271Y-39035172D01*
X93335989Y-39034944D01*
X94353952Y-39034944D01*
X94332399Y-39514501D01*
G37*
G36*
X91853569Y-39034903D02*
G01*
X92201781Y-39034944D01*
X92158915Y-39977522D01*
X92139579Y-40375760D01*
X92117775Y-40781717D01*
X92096050Y-41150262D01*
X92076952Y-41436266D01*
X92075286Y-41458575D01*
X92034523Y-41997050D01*
X91387100Y-41508184D01*
X91133140Y-41320138D01*
X90915077Y-41165617D01*
X90755547Y-41060179D01*
X90677180Y-41019386D01*
X90676033Y-41019319D01*
X90645521Y-41080095D01*
X90623023Y-41241059D01*
X90612650Y-41470165D01*
X90612388Y-41515412D01*
X90612388Y-42011506D01*
X90030844Y-42011506D01*
X89991998Y-41498876D01*
X89973328Y-41224178D01*
X89951993Y-40865756D01*
X89930750Y-40472068D01*
X89913930Y-40126350D01*
X89896724Y-39793438D01*
X89877891Y-39501598D01*
X89859574Y-39279965D01*
X89843914Y-39157673D01*
X89842215Y-39150699D01*
X89839556Y-39090497D01*
X89890601Y-39055560D01*
X90020688Y-39039259D01*
X90255156Y-39034968D01*
X90284756Y-39034944D01*
X90759789Y-39034944D01*
X91156358Y-39378497D01*
X91552927Y-39722051D01*
X91505357Y-39034861D01*
X91853569Y-39034903D01*
G37*
G36*
X69412648Y-40142871D02*
G01*
X69415778Y-40611275D01*
X69428036Y-40963601D01*
X69453728Y-41215974D01*
X69497158Y-41384518D01*
X69562631Y-41485358D01*
X69654451Y-41534620D01*
X69776923Y-41548429D01*
X69787879Y-41548485D01*
X69993091Y-41548485D01*
X69945248Y-40291715D01*
X69897405Y-39034944D01*
X70851320Y-39034944D01*
X70809979Y-39241649D01*
X70796648Y-39373398D01*
X70785105Y-39611791D01*
X70776097Y-39931184D01*
X70770370Y-40305933D01*
X70768638Y-40661458D01*
X70769024Y-41117186D01*
X70762849Y-41457961D01*
X70739116Y-41701047D01*
X70686827Y-41863707D01*
X70594983Y-41963207D01*
X70452586Y-42016809D01*
X70248637Y-42041778D01*
X69972140Y-42055378D01*
X69877937Y-42059607D01*
X69576648Y-42069526D01*
X69365901Y-42061456D01*
X69204511Y-42029612D01*
X69051295Y-41968212D01*
X68982700Y-41933888D01*
X68802961Y-41824544D01*
X68657415Y-41691271D01*
X68540830Y-41518203D01*
X68447977Y-41289475D01*
X68373627Y-40989221D01*
X68312550Y-40601577D01*
X68259515Y-40110677D01*
X68217879Y-39613720D01*
X68173303Y-39034944D01*
X68792976Y-39034928D01*
X69412648Y-39034912D01*
X69412648Y-40142871D01*
G37*
G36*
X87079059Y-40156981D02*
G01*
X87097104Y-39947219D01*
X87138090Y-39785998D01*
X87210239Y-39631522D01*
X87252776Y-39556958D01*
X87447816Y-39284227D01*
X87674149Y-39104720D01*
X87975140Y-38987226D01*
X88081461Y-38960554D01*
X88479056Y-38932157D01*
X88850936Y-39024631D01*
X89174083Y-39226582D01*
X89425474Y-39526616D01*
X89495868Y-39660593D01*
X89582361Y-39957561D01*
X89620421Y-40326235D01*
X89610475Y-40715381D01*
X89552949Y-41073765D01*
X89482350Y-41283902D01*
X89272168Y-41650054D01*
X89020623Y-41897210D01*
X88712455Y-42036065D01*
X88350178Y-42077405D01*
X88000670Y-42035899D01*
X87769287Y-41936740D01*
X87589378Y-41814670D01*
X87453894Y-41682237D01*
X87326689Y-41498430D01*
X87223075Y-41316975D01*
X87148250Y-41154111D01*
X87103326Y-40974300D01*
X87081419Y-40737358D01*
X87080938Y-40713644D01*
X88009683Y-40713644D01*
X88021875Y-40946175D01*
X88083730Y-41164098D01*
X88188495Y-41331714D01*
X88329418Y-41413323D01*
X88363430Y-41416194D01*
X88489684Y-41364557D01*
X88604439Y-41245614D01*
X88694829Y-41024442D01*
X88719693Y-40771150D01*
X88681122Y-40534024D01*
X88581206Y-40361350D01*
X88565563Y-40347553D01*
X88440873Y-40259498D01*
X88363430Y-40225569D01*
X88279606Y-40263348D01*
X88161296Y-40347553D01*
X88053905Y-40502204D01*
X88009683Y-40713644D01*
X87080938Y-40713644D01*
X87075737Y-40457079D01*
X87079059Y-40156981D01*
G37*
G36*
X85352630Y-39349136D02*
G01*
X85335916Y-39562165D01*
X85315907Y-39854561D01*
X85296151Y-40173578D01*
X85290322Y-40275178D01*
X85256018Y-40887027D01*
X85793043Y-40887027D01*
X85746036Y-39960985D01*
X85699029Y-39034944D01*
X86343775Y-39034944D01*
X86646286Y-39038347D01*
X86836266Y-39050506D01*
X86933345Y-39074339D01*
X86957155Y-39112769D01*
X86953698Y-39125690D01*
X86940591Y-39217974D01*
X86925070Y-39420108D01*
X86908421Y-39709701D01*
X86891931Y-40064363D01*
X86876885Y-40461704D01*
X86876769Y-40465143D01*
X86861872Y-40867747D01*
X86845898Y-41232622D01*
X86830080Y-41536035D01*
X86815653Y-41754252D01*
X86804035Y-41862678D01*
X86776630Y-41941512D01*
X86714518Y-41986241D01*
X86586707Y-42006384D01*
X86362201Y-42011457D01*
X86319363Y-42011506D01*
X86055316Y-42002630D01*
X85896509Y-41959964D01*
X85816252Y-41859454D01*
X85787851Y-41677044D01*
X85784645Y-41529622D01*
X85773082Y-41403908D01*
X85719369Y-41385164D01*
X85645785Y-41419226D01*
X85550909Y-41466792D01*
X85492412Y-41460569D01*
X85433429Y-41378434D01*
X85365170Y-41250829D01*
X85310919Y-41153557D01*
X85279305Y-41127945D01*
X85263954Y-41190592D01*
X85258493Y-41358095D01*
X85257224Y-41531949D01*
X85254575Y-42011506D01*
X84149926Y-42011506D01*
X84104929Y-40837418D01*
X84087799Y-40431134D01*
X84068786Y-40047658D01*
X84049547Y-39716177D01*
X84031743Y-39465879D01*
X84020347Y-39349136D01*
X83980761Y-39034944D01*
X85380634Y-39034944D01*
X85352630Y-39349136D01*
G37*
%TO.C,kibuzzard-63D13A10*%
G36*
X93893982Y-136462246D02*
G01*
X93702579Y-136433854D01*
X93514880Y-136386838D01*
X93332694Y-136321650D01*
X93157774Y-136238920D01*
X92991806Y-136139442D01*
X92836388Y-136024176D01*
X92693015Y-135894231D01*
X92563071Y-135750859D01*
X92447804Y-135595440D01*
X92348327Y-135429472D01*
X92265596Y-135254552D01*
X92200409Y-135072366D01*
X92153393Y-134884667D01*
X92125001Y-134693264D01*
X92121778Y-134627667D01*
X94682559Y-134627667D01*
X94707848Y-134812539D01*
X94783715Y-134973692D01*
X94907719Y-135107114D01*
X95077418Y-135208794D01*
X95280429Y-135273150D01*
X95504369Y-135294603D01*
X95714124Y-135277937D01*
X95893183Y-135227940D01*
X96041546Y-135144612D01*
X96152392Y-135031983D01*
X96218899Y-134894084D01*
X96241068Y-134730916D01*
X96200257Y-134513255D01*
X96077822Y-134334661D01*
X95947443Y-134234357D01*
X95773965Y-134145526D01*
X95557389Y-134068166D01*
X95386993Y-134007472D01*
X95263686Y-133942592D01*
X95163925Y-133776556D01*
X95249036Y-133605636D01*
X95351239Y-133556976D01*
X95487626Y-133540756D01*
X95628896Y-133560116D01*
X95734588Y-133618193D01*
X95800514Y-133711153D01*
X95822489Y-133835157D01*
X96241068Y-133835157D01*
X96230435Y-133757022D01*
X96347108Y-133757022D01*
X96875913Y-135270883D01*
X96828474Y-135395062D01*
X96739875Y-135510869D01*
X96568955Y-135545750D01*
X96507564Y-135544355D01*
X96507564Y-135849918D01*
X96686157Y-135876428D01*
X96874053Y-135843561D01*
X97022881Y-135744963D01*
X97132642Y-135580632D01*
X97166128Y-135501102D01*
X97247701Y-135266697D01*
X97923756Y-135266697D01*
X98326987Y-135266697D01*
X98326987Y-134202111D01*
X98433376Y-134093281D01*
X98582321Y-134057004D01*
X98767891Y-134114907D01*
X98823701Y-134301175D01*
X98823701Y-135266697D01*
X99226933Y-135266697D01*
X99226933Y-134520231D01*
X99469708Y-134520231D01*
X99490482Y-134744636D01*
X99552804Y-134934160D01*
X99656674Y-135088801D01*
X99796510Y-135203135D01*
X99966732Y-135271736D01*
X100167340Y-135294603D01*
X100332853Y-135276987D01*
X100362161Y-135266697D01*
X101012870Y-135266697D01*
X101416101Y-135266697D01*
X101416101Y-134193740D01*
X101520048Y-134091188D01*
X101672830Y-134057004D01*
X101858400Y-134119093D01*
X101914210Y-134310942D01*
X101914210Y-135266697D01*
X102317442Y-135266697D01*
X102317442Y-134299780D01*
X102295285Y-134094341D01*
X102234395Y-133934555D01*
X102134774Y-133820423D01*
X101996419Y-133751943D01*
X101819332Y-133729117D01*
X101666629Y-133750511D01*
X101532218Y-133814693D01*
X101416101Y-133921663D01*
X101416101Y-133123572D01*
X101012870Y-133123572D01*
X101012870Y-135266697D01*
X100362161Y-135266697D01*
X100483367Y-135224142D01*
X100611209Y-135139380D01*
X100708703Y-135026014D01*
X100770792Y-134891895D01*
X100792418Y-134744869D01*
X100414302Y-134744869D01*
X100341748Y-134908115D01*
X100160364Y-134969506D01*
X100033744Y-134944043D01*
X99944098Y-134867652D01*
X99890729Y-134733009D01*
X99872940Y-134532789D01*
X99872940Y-134490931D01*
X99890904Y-134292629D01*
X99944796Y-134158160D01*
X100033918Y-134081246D01*
X100157573Y-134055609D01*
X100341748Y-134128860D01*
X100414302Y-134319313D01*
X100792418Y-134319313D01*
X100771877Y-134152579D01*
X100713974Y-134009565D01*
X100618708Y-133890270D01*
X100492282Y-133800740D01*
X100340896Y-133747023D01*
X100164550Y-133729117D01*
X99964097Y-133752216D01*
X99794340Y-133821514D01*
X99655279Y-133937011D01*
X99552184Y-134091265D01*
X99490327Y-134276835D01*
X99469708Y-134493721D01*
X99469708Y-134520231D01*
X99226933Y-134520231D01*
X99226933Y-134291408D01*
X99195539Y-134045842D01*
X99106940Y-133870038D01*
X98959042Y-133764347D01*
X98749752Y-133729117D01*
X98580615Y-133751596D01*
X98435973Y-133819034D01*
X98315825Y-133931430D01*
X98303268Y-133757022D01*
X97923756Y-133757022D01*
X97923756Y-135266697D01*
X97247701Y-135266697D01*
X97773068Y-133757022D01*
X97340536Y-133757022D01*
X97061483Y-134696035D01*
X96781035Y-133757022D01*
X96347108Y-133757022D01*
X96230435Y-133757022D01*
X96217523Y-133662144D01*
X96146888Y-133508665D01*
X96033697Y-133381173D01*
X95882486Y-133286121D01*
X95700404Y-133226996D01*
X95494602Y-133207288D01*
X95288975Y-133225427D01*
X95104626Y-133279842D01*
X94951147Y-133366523D01*
X94838131Y-133481458D01*
X94768542Y-133619414D01*
X94745346Y-133775161D01*
X94783793Y-133971893D01*
X94899135Y-134139789D01*
X95091371Y-134278851D01*
X95241013Y-134347742D01*
X95436001Y-134417679D01*
X95620176Y-134486396D01*
X95737378Y-134551625D01*
X95821094Y-134733707D01*
X95737378Y-134903231D01*
X95637268Y-134948752D01*
X95504369Y-134963925D01*
X95328566Y-134942909D01*
X95202992Y-134879861D01*
X95127648Y-134774780D01*
X95102533Y-134627667D01*
X94682559Y-134627667D01*
X92121778Y-134627667D01*
X92115506Y-134500000D01*
X92125001Y-134306736D01*
X92153393Y-134115333D01*
X92200409Y-133927634D01*
X92265596Y-133745448D01*
X92348327Y-133570528D01*
X92447804Y-133404560D01*
X92563071Y-133249141D01*
X92693015Y-133105769D01*
X92836388Y-132975824D01*
X92991806Y-132860558D01*
X93157774Y-132761080D01*
X93332694Y-132678350D01*
X93514880Y-132613162D01*
X93702579Y-132566146D01*
X93893982Y-132537754D01*
X94087246Y-132528260D01*
X102912754Y-132528260D01*
X103106018Y-132537754D01*
X103297421Y-132566146D01*
X103485120Y-132613162D01*
X103667306Y-132678350D01*
X103842226Y-132761081D01*
X104008194Y-132860558D01*
X104163613Y-132975824D01*
X104306985Y-133105769D01*
X104436930Y-133249141D01*
X104552196Y-133404560D01*
X104651673Y-133570528D01*
X104734404Y-133745448D01*
X104799591Y-133927634D01*
X104846607Y-134115333D01*
X104874999Y-134306736D01*
X104884494Y-134500000D01*
X104874999Y-134693264D01*
X104846607Y-134884667D01*
X104799591Y-135072366D01*
X104734404Y-135254552D01*
X104651673Y-135429472D01*
X104552196Y-135595440D01*
X104436930Y-135750859D01*
X104306985Y-135894231D01*
X104163613Y-136024176D01*
X104008194Y-136139442D01*
X103842226Y-136238919D01*
X103667306Y-136321650D01*
X103485120Y-136386838D01*
X103297421Y-136433854D01*
X103106018Y-136462246D01*
X102912754Y-136471740D01*
X94087246Y-136471740D01*
X93893982Y-136462246D01*
G37*
%TO.C,kibuzzard-63D25EC7*%
G36*
X79547935Y-101578049D02*
G01*
X81057610Y-101578049D01*
X81057610Y-101375736D01*
X81680828Y-101375736D01*
X81680828Y-105993594D01*
X81672734Y-106158344D01*
X81648531Y-106321507D01*
X81608452Y-106481512D01*
X81552882Y-106636819D01*
X81482358Y-106785930D01*
X81397557Y-106927412D01*
X81299297Y-107059899D01*
X81188525Y-107182118D01*
X81066306Y-107292891D01*
X80933818Y-107391151D01*
X80792337Y-107475951D01*
X80643225Y-107546476D01*
X80487918Y-107602045D01*
X80327913Y-107642125D01*
X80164750Y-107666328D01*
X80000000Y-107674421D01*
X79835250Y-107666328D01*
X79672087Y-107642125D01*
X79512082Y-107602045D01*
X79356775Y-107546476D01*
X79207663Y-107475951D01*
X79066182Y-107391151D01*
X78933694Y-107292891D01*
X78811475Y-107182118D01*
X78700703Y-107059899D01*
X78602443Y-106927412D01*
X78517642Y-106785930D01*
X78447118Y-106636819D01*
X78391548Y-106481512D01*
X78351469Y-106321507D01*
X78327266Y-106158344D01*
X78319172Y-105993594D01*
X78319172Y-101763620D01*
X79026106Y-101763620D01*
X79026106Y-102229638D01*
X80553920Y-102690075D01*
X79026106Y-103147721D01*
X79026106Y-103612344D01*
X81057610Y-102907736D01*
X81057610Y-102471018D01*
X79026106Y-101763620D01*
X78319172Y-101763620D01*
X78319172Y-101375736D01*
X78949366Y-101375736D01*
X79007968Y-101541075D01*
X79157261Y-101601769D01*
X79307949Y-101539680D01*
X79366550Y-101375736D01*
X79307949Y-101211793D01*
X79157261Y-101149703D01*
X79007968Y-101211095D01*
X78949366Y-101375736D01*
X78319172Y-101375736D01*
X78319172Y-100841350D01*
X78914485Y-100841350D01*
X81057610Y-100841350D01*
X81057610Y-100478582D01*
X80897155Y-100460443D01*
X81001799Y-100351768D01*
X81064586Y-100221078D01*
X81085515Y-100068374D01*
X81062958Y-99896912D01*
X80995288Y-99752734D01*
X80882504Y-99635842D01*
X80729413Y-99549801D01*
X80540820Y-99498176D01*
X80316725Y-99480968D01*
X80294401Y-99480968D01*
X80067205Y-99498409D01*
X79876752Y-99550731D01*
X79723040Y-99637935D01*
X79610256Y-99755835D01*
X79542586Y-99900245D01*
X79520029Y-100071165D01*
X79560841Y-100276617D01*
X79683275Y-100438119D01*
X78914485Y-100438119D01*
X78914485Y-100841350D01*
X78319172Y-100841350D01*
X78319172Y-98504284D01*
X79520029Y-98504284D01*
X79572003Y-98695784D01*
X79727924Y-98840542D01*
X79547935Y-98851704D01*
X79547935Y-99232611D01*
X81057610Y-99232611D01*
X81057610Y-98829380D01*
X80069763Y-98829380D01*
X79953607Y-98718805D01*
X79914889Y-98529398D01*
X79926051Y-98384291D01*
X79538168Y-98378710D01*
X79520029Y-98504284D01*
X78319172Y-98504284D01*
X78319172Y-97575038D01*
X79520029Y-97575038D01*
X79535900Y-97750144D01*
X79583514Y-97907111D01*
X79659032Y-98038266D01*
X79758619Y-98135934D01*
X79875124Y-98196628D01*
X80001395Y-98216859D01*
X80001395Y-97813628D01*
X79867450Y-97755725D01*
X79818616Y-97595967D01*
X79881403Y-97426442D01*
X80048834Y-97372725D01*
X80135341Y-97372725D01*
X80135341Y-97558295D01*
X80150378Y-97764871D01*
X80193632Y-97936256D01*
X80265100Y-98072449D01*
X80421370Y-98205872D01*
X80633450Y-98250346D01*
X80812043Y-98213894D01*
X80957151Y-98104541D01*
X81053424Y-97939725D01*
X81085515Y-97736889D01*
X81044704Y-97524460D01*
X80922269Y-97355982D01*
X81057610Y-97315519D01*
X81057610Y-96908102D01*
X81033890Y-96908102D01*
X80897503Y-96952402D01*
X80708794Y-96968098D01*
X80054415Y-96968098D01*
X79828906Y-97009084D01*
X79660253Y-97132042D01*
X79582351Y-97254127D01*
X79535610Y-97401793D01*
X79520029Y-97575038D01*
X78319172Y-97575038D01*
X78319172Y-96578820D01*
X79176794Y-96578820D01*
X79547935Y-96578820D01*
X79547935Y-96799271D01*
X79843730Y-96799271D01*
X79843730Y-96578820D01*
X80657169Y-96578820D01*
X80844571Y-96548647D01*
X80978429Y-96466501D01*
X81058744Y-96332381D01*
X81085515Y-96146288D01*
X81076446Y-96022458D01*
X81049238Y-95902117D01*
X80743676Y-95902117D01*
X80753442Y-96020714D01*
X80717166Y-96143497D01*
X80597173Y-96175589D01*
X79843730Y-96175589D01*
X79843730Y-95917465D01*
X79547935Y-95917465D01*
X79547935Y-96175589D01*
X79176794Y-96175589D01*
X79176794Y-96578820D01*
X78319172Y-96578820D01*
X78319172Y-95042634D01*
X79520029Y-95042634D01*
X79544098Y-95244424D01*
X79616302Y-95420053D01*
X79732458Y-95563591D01*
X79888379Y-95669108D01*
X80076391Y-95733988D01*
X80288820Y-95755614D01*
X80306958Y-95755614D01*
X80530200Y-95733988D01*
X80719956Y-95669108D01*
X80876226Y-95560975D01*
X80992498Y-95416565D01*
X81062261Y-95242855D01*
X81085515Y-95039844D01*
X81062183Y-94836911D01*
X80992187Y-94663433D01*
X80875528Y-94519411D01*
X80720266Y-94411665D01*
X80534464Y-94347018D01*
X80318120Y-94325469D01*
X80214871Y-94328259D01*
X80015813Y-94362133D01*
X79846521Y-94433989D01*
X79706995Y-94543828D01*
X79603125Y-94685137D01*
X79540803Y-94851406D01*
X79520029Y-95042634D01*
X78319172Y-95042634D01*
X78319172Y-94206406D01*
X78327266Y-94041656D01*
X78351469Y-93878493D01*
X78391548Y-93718488D01*
X78447118Y-93563181D01*
X78517642Y-93414070D01*
X78602443Y-93272589D01*
X78700703Y-93140101D01*
X78811475Y-93017882D01*
X78933694Y-92907109D01*
X79066182Y-92808849D01*
X79207663Y-92724049D01*
X79356775Y-92653524D01*
X79512081Y-92597955D01*
X79672087Y-92557875D01*
X79835250Y-92533672D01*
X80000000Y-92525579D01*
X80164750Y-92533672D01*
X80327913Y-92557875D01*
X80487919Y-92597955D01*
X80643225Y-92653524D01*
X80792337Y-92724049D01*
X80933818Y-92808849D01*
X81066306Y-92907109D01*
X81188525Y-93017882D01*
X81299297Y-93140101D01*
X81397557Y-93272589D01*
X81482358Y-93414070D01*
X81552882Y-93563181D01*
X81608452Y-93718488D01*
X81648531Y-93878493D01*
X81672734Y-94041656D01*
X81680828Y-94206406D01*
X81680828Y-101375736D01*
X79547935Y-101375736D01*
X81057610Y-101375736D01*
X81057610Y-101173423D01*
X79547935Y-101173423D01*
X79547935Y-101375736D01*
X79547935Y-101578049D01*
G37*
G36*
X80502121Y-94749280D02*
G01*
X80648100Y-94811021D01*
X80732339Y-94909387D01*
X80760419Y-95039844D01*
X80731990Y-95173092D01*
X80646705Y-95271458D01*
X80507702Y-95332152D01*
X80318120Y-95352383D01*
X80108307Y-95332152D01*
X79961630Y-95271458D01*
X79875298Y-95173789D01*
X79846521Y-95042634D01*
X79875473Y-94910084D01*
X79962328Y-94811021D01*
X80101854Y-94749280D01*
X80288820Y-94728700D01*
X80502121Y-94749280D01*
G37*
G36*
X80737397Y-97484346D02*
G01*
X80777162Y-97648987D01*
X80728328Y-97794094D01*
X80604149Y-97847114D01*
X80580430Y-97845719D01*
X80464158Y-97801226D01*
X80394395Y-97693790D01*
X80371140Y-97523413D01*
X80371140Y-97372725D01*
X80630659Y-97372725D01*
X80737397Y-97484346D01*
G37*
G36*
X80451717Y-99891524D02*
G01*
X80567872Y-99913500D01*
X80712282Y-100008378D01*
X80760419Y-100170228D01*
X80720654Y-100334172D01*
X80601359Y-100438119D01*
X80005581Y-100438119D01*
X79887332Y-100335567D01*
X79847916Y-100173019D01*
X79874252Y-100047096D01*
X79953259Y-99956753D01*
X80089471Y-99902338D01*
X80287424Y-99884199D01*
X80451717Y-99891524D01*
G37*
%TO.C,kibuzzard-63D1286A*%
G36*
X88905729Y-83781452D02*
G01*
X88731961Y-83755676D01*
X88561557Y-83712992D01*
X88396156Y-83653811D01*
X88237353Y-83578702D01*
X88086676Y-83488390D01*
X87945578Y-83383744D01*
X87815415Y-83265772D01*
X87697443Y-83135609D01*
X87692254Y-83128613D01*
X89081452Y-83128613D01*
X89546539Y-83128613D01*
X89546539Y-82161230D01*
X90453461Y-82161230D01*
X90453461Y-83128613D01*
X90918549Y-83128613D01*
X90918549Y-80871387D01*
X90453461Y-80871387D01*
X90453461Y-81786060D01*
X89546539Y-81786060D01*
X89546539Y-80871387D01*
X89081452Y-80871387D01*
X89081452Y-83128613D01*
X87692254Y-83128613D01*
X87592797Y-82994511D01*
X87502485Y-82843834D01*
X87427376Y-82685031D01*
X87368195Y-82519630D01*
X87325511Y-82349226D01*
X87299735Y-82175458D01*
X87291115Y-82000000D01*
X87299735Y-81824542D01*
X87325511Y-81650774D01*
X87368195Y-81480370D01*
X87427376Y-81314969D01*
X87502485Y-81156166D01*
X87592797Y-81005489D01*
X87697443Y-80864391D01*
X87815415Y-80734228D01*
X87945578Y-80616256D01*
X88086676Y-80511610D01*
X88237353Y-80421298D01*
X88396156Y-80346189D01*
X88561557Y-80287008D01*
X88731961Y-80244324D01*
X88905729Y-80218548D01*
X89081187Y-80209928D01*
X90918813Y-80209928D01*
X91094271Y-80218548D01*
X91268039Y-80244324D01*
X91438444Y-80287008D01*
X91603844Y-80346190D01*
X91762647Y-80421298D01*
X91913324Y-80511610D01*
X92054423Y-80616256D01*
X92184585Y-80734228D01*
X92302557Y-80864391D01*
X92407203Y-81005490D01*
X92497515Y-81156166D01*
X92572624Y-81314969D01*
X92631805Y-81480370D01*
X92674489Y-81650774D01*
X92700265Y-81824542D01*
X92708885Y-82000000D01*
X92700265Y-82175458D01*
X92674489Y-82349226D01*
X92631805Y-82519630D01*
X92572624Y-82685031D01*
X92497515Y-82843834D01*
X92407203Y-82994510D01*
X92302557Y-83135609D01*
X92184585Y-83265772D01*
X92054423Y-83383744D01*
X91913324Y-83488390D01*
X91762647Y-83578702D01*
X91603844Y-83653810D01*
X91438444Y-83712992D01*
X91268039Y-83755676D01*
X91094271Y-83781452D01*
X90918813Y-83790072D01*
X89081187Y-83790072D01*
X88905729Y-83781452D01*
G37*
%TO.C,kibuzzard-63D122DE*%
G36*
X60060190Y-81092793D02*
G01*
X60030380Y-81293750D01*
X59981018Y-81490817D01*
X59912576Y-81682097D01*
X59825716Y-81865748D01*
X59721273Y-82040000D01*
X59600254Y-82203176D01*
X59463823Y-82353705D01*
X59313294Y-82490136D01*
X59150118Y-82611156D01*
X58975866Y-82715598D01*
X58792215Y-82802459D01*
X58600935Y-82870900D01*
X58403868Y-82920263D01*
X58202911Y-82950072D01*
X58000000Y-82960040D01*
X57797089Y-82950072D01*
X57596132Y-82920263D01*
X57399065Y-82870900D01*
X57207785Y-82802459D01*
X57024134Y-82715598D01*
X56849882Y-82611156D01*
X56686706Y-82490136D01*
X56536177Y-82353705D01*
X56399746Y-82203176D01*
X56278727Y-82040000D01*
X56174284Y-81865748D01*
X56087424Y-81682097D01*
X56018982Y-81490817D01*
X55969620Y-81293750D01*
X55939810Y-81092793D01*
X55929842Y-80889882D01*
X55929842Y-77158844D01*
X56855884Y-77158844D01*
X56855884Y-77622381D01*
X58461987Y-77926239D01*
X56855884Y-78296759D01*
X56855884Y-78690533D01*
X58458887Y-79062604D01*
X56855884Y-79368011D01*
X56855884Y-79831549D01*
X59113110Y-79330804D01*
X59113110Y-78862616D01*
X57603125Y-78495196D01*
X59113110Y-78127777D01*
X59113110Y-77659588D01*
X56855884Y-77158844D01*
X55929842Y-77158844D01*
X55929842Y-76253473D01*
X57404687Y-76253473D01*
X57422322Y-76448034D01*
X57475226Y-76622442D01*
X57559135Y-76768170D01*
X57669788Y-76876690D01*
X57799237Y-76944128D01*
X57939539Y-76966607D01*
X57939539Y-76518573D01*
X57790710Y-76454236D01*
X57736450Y-76276727D01*
X57806213Y-76088367D01*
X57992249Y-76028680D01*
X58088367Y-76028680D01*
X58088367Y-76234869D01*
X58105075Y-76464399D01*
X58153134Y-76654826D01*
X58232544Y-76806152D01*
X58406177Y-76954399D01*
X58641821Y-77003815D01*
X58840259Y-76963313D01*
X59001489Y-76841809D01*
X59108459Y-76658681D01*
X59144116Y-76433307D01*
X59098770Y-76197275D01*
X58962732Y-76010077D01*
X59113110Y-75965118D01*
X59113110Y-75512433D01*
X59086755Y-75512433D01*
X58935214Y-75561654D01*
X58725537Y-75579095D01*
X57998450Y-75579095D01*
X57747884Y-75624635D01*
X57560492Y-75761255D01*
X57473934Y-75896905D01*
X57421999Y-76060978D01*
X57404687Y-76253473D01*
X55929842Y-76253473D01*
X55929842Y-73827264D01*
X57435693Y-73827264D01*
X57435693Y-74295453D01*
X58565857Y-74607062D01*
X57435693Y-74918670D01*
X57435693Y-75386859D01*
X59113110Y-74821002D01*
X59113110Y-74393121D01*
X57435693Y-73827264D01*
X55929842Y-73827264D01*
X55929842Y-72907940D01*
X57404687Y-72907940D01*
X57431624Y-73124788D01*
X57512433Y-73316443D01*
X57643045Y-73475154D01*
X57819391Y-73593170D01*
X58031975Y-73666421D01*
X58271301Y-73690838D01*
X58314709Y-73690838D01*
X58549148Y-73665086D01*
X58750170Y-73587830D01*
X58917773Y-73459070D01*
X59043519Y-73289313D01*
X59118967Y-73089066D01*
X59144116Y-72858331D01*
X59124156Y-72658343D01*
X59064276Y-72476959D01*
X58968739Y-72322705D01*
X58841809Y-72204107D01*
X58595313Y-72424249D01*
X58736002Y-72598269D01*
X58782898Y-72828876D01*
X58758093Y-72981773D01*
X58683679Y-73105603D01*
X58568182Y-73193001D01*
X58420129Y-73236603D01*
X58420129Y-72168451D01*
X58237195Y-72168451D01*
X57991732Y-72190413D01*
X57786576Y-72256301D01*
X57621729Y-72366113D01*
X57501150Y-72514166D01*
X57428803Y-72694775D01*
X57404687Y-72907940D01*
X55929842Y-72907940D01*
X55929842Y-71110117D01*
X55939811Y-70907206D01*
X55969620Y-70706250D01*
X56018983Y-70509182D01*
X56087424Y-70317902D01*
X56174284Y-70134252D01*
X56278727Y-69959999D01*
X56399746Y-69796823D01*
X56536177Y-69646295D01*
X56686706Y-69509864D01*
X56849882Y-69388844D01*
X57024134Y-69284401D01*
X57207785Y-69197541D01*
X57399065Y-69129100D01*
X57596132Y-69079737D01*
X57797089Y-69049928D01*
X58000000Y-69039960D01*
X58202911Y-69049928D01*
X58403868Y-69079737D01*
X58600935Y-69129100D01*
X58792215Y-69197541D01*
X58975866Y-69284401D01*
X59150118Y-69388844D01*
X59313294Y-69509864D01*
X59463823Y-69646295D01*
X59600254Y-69796823D01*
X59721273Y-69959999D01*
X59825716Y-70134252D01*
X59912576Y-70317902D01*
X59981017Y-70509182D01*
X60030380Y-70706250D01*
X60060189Y-70907206D01*
X60070158Y-71110117D01*
X60070158Y-80889882D01*
X60060190Y-81092793D01*
G37*
G36*
X58757318Y-76152704D02*
G01*
X58801501Y-76335638D01*
X58747241Y-76496869D01*
X58609265Y-76555780D01*
X58582910Y-76554230D01*
X58453719Y-76504792D01*
X58376204Y-76385420D01*
X58350366Y-76196112D01*
X58350366Y-76028680D01*
X58638721Y-76028680D01*
X58757318Y-76152704D01*
G37*
G36*
X58114722Y-73231952D02*
G01*
X57966669Y-73193776D01*
X57857373Y-73125757D01*
X57767456Y-72909491D01*
X57848846Y-72689349D01*
X58079065Y-72608734D01*
X58114722Y-72608734D01*
X58114722Y-73231952D01*
G37*
%TO.C,kibuzzard-63D12809*%
G36*
X95218548Y-94887262D02*
G01*
X95244324Y-94713494D01*
X95287008Y-94543090D01*
X95346189Y-94377689D01*
X95421298Y-94218886D01*
X95511610Y-94068209D01*
X95616256Y-93927110D01*
X95734228Y-93796948D01*
X95864391Y-93678976D01*
X96005489Y-93574330D01*
X96156166Y-93484018D01*
X96314969Y-93408909D01*
X96480370Y-93349728D01*
X96650774Y-93307044D01*
X96824542Y-93281268D01*
X97000000Y-93272648D01*
X97175458Y-93281268D01*
X97349226Y-93307044D01*
X97519630Y-93349728D01*
X97685031Y-93408909D01*
X97843834Y-93484018D01*
X97994511Y-93574330D01*
X98135609Y-93678976D01*
X98265772Y-93796948D01*
X98383744Y-93927110D01*
X98488390Y-94068209D01*
X98578702Y-94218886D01*
X98653811Y-94377689D01*
X98712992Y-94543090D01*
X98755676Y-94713494D01*
X98781452Y-94887262D01*
X98790072Y-95062720D01*
X98790072Y-118137280D01*
X98781452Y-118312738D01*
X98755676Y-118486506D01*
X98712992Y-118656911D01*
X98653810Y-118822311D01*
X98578702Y-118981114D01*
X98488390Y-119131791D01*
X98383744Y-119272890D01*
X98265772Y-119403052D01*
X98135609Y-119521024D01*
X97994510Y-119625670D01*
X97843834Y-119715982D01*
X97685031Y-119791091D01*
X97519630Y-119850272D01*
X97349226Y-119892956D01*
X97175458Y-119918732D01*
X97000000Y-119927352D01*
X96824542Y-119918732D01*
X96650774Y-119892956D01*
X96480370Y-119850272D01*
X96314969Y-119791091D01*
X96156166Y-119715982D01*
X96005490Y-119625670D01*
X95864391Y-119521024D01*
X95734228Y-119403052D01*
X95616256Y-119272890D01*
X95511610Y-119131791D01*
X95421298Y-118981114D01*
X95346190Y-118822311D01*
X95287008Y-118656911D01*
X95244324Y-118486506D01*
X95218548Y-118312738D01*
X95209928Y-118137280D01*
X95209928Y-110199780D01*
X95871387Y-110199780D01*
X98128613Y-110199780D01*
X98128613Y-109588965D01*
X96491504Y-109012256D01*
X98128613Y-108432446D01*
X98128613Y-107824732D01*
X95871387Y-107824732D01*
X95871387Y-108289819D01*
X96488403Y-108289819D01*
X97551904Y-108243311D01*
X95871387Y-108851026D01*
X95871387Y-109170386D01*
X97553455Y-109779651D01*
X96488403Y-109733142D01*
X95871387Y-109733142D01*
X95871387Y-110199780D01*
X95209928Y-110199780D01*
X95209928Y-107072840D01*
X95871387Y-107072840D01*
X98128613Y-107573584D01*
X98128613Y-107110047D01*
X96522510Y-106806189D01*
X98128613Y-106435669D01*
X98128613Y-106041895D01*
X96525610Y-105669824D01*
X98128613Y-105364417D01*
X98128613Y-104900879D01*
X95871387Y-105401624D01*
X95871387Y-105869812D01*
X97381372Y-106237232D01*
X95871387Y-106604651D01*
X95871387Y-107072840D01*
X95209928Y-107072840D01*
X95209928Y-103465308D01*
X95871387Y-103465308D01*
X96666687Y-103465308D01*
X96666687Y-103873035D01*
X96687960Y-104121340D01*
X96751781Y-104330888D01*
X96858148Y-104501679D01*
X97001378Y-104627855D01*
X97175786Y-104703561D01*
X97381372Y-104728797D01*
X97588142Y-104702829D01*
X97771271Y-104624927D01*
X97923006Y-104498772D01*
X98035596Y-104328046D01*
X98105359Y-104119725D01*
X98128613Y-103880786D01*
X98128613Y-103000220D01*
X95871387Y-103000220D01*
X95871387Y-103465308D01*
X95209928Y-103465308D01*
X95209928Y-95062720D01*
X95218548Y-94887262D01*
G37*
G36*
X97751892Y-103891638D02*
G01*
X97723987Y-104045117D01*
X97646472Y-104161389D01*
X97528262Y-104234641D01*
X97378271Y-104259058D01*
X97235645Y-104234834D01*
X97130225Y-104162164D01*
X97065112Y-104043373D01*
X97043408Y-103880786D01*
X97043408Y-103465308D01*
X97751892Y-103465308D01*
X97751892Y-103891638D01*
G37*
%TD*%
D15*
%TO.C,Ref\u002A\u002A*%
X94000000Y-76000000D03*
%TD*%
D16*
%TO.C,Ref\u002A\u002A*%
X66000000Y-57500000D03*
%TD*%
D17*
%TO.C,Ref\u002A\u002A*%
X102900000Y-39700000D03*
%TD*%
D16*
%TO.C,Ref\u002A\u002A*%
X94000000Y-57500000D03*
%TD*%
%TO.C,Ref\u002A\u002A*%
X97000000Y-94000000D03*
%TD*%
D15*
%TO.C,Ref\u002A\u002A*%
X66000000Y-76000000D03*
%TD*%
D17*
%TO.C,Ref\u002A\u002A*%
X102900000Y-162200000D03*
%TD*%
D18*
%TO.C,Ref\u002A\u002A*%
X80000000Y-125000000D03*
%TD*%
D16*
%TO.C,Ref\u002A\u002A*%
X63000000Y-94000000D03*
%TD*%
D17*
%TO.C,Ref\u002A\u002A*%
X57100000Y-162200000D03*
%TD*%
D18*
%TO.C,Ref\u002A\u002A*%
X80000000Y-109000000D03*
%TD*%
D17*
%TO.C,Ref\u002A\u002A*%
X57100000Y-39700000D03*
%TD*%
G36*
X73157629Y-80212153D02*
G01*
X73193271Y-80217623D01*
X73295302Y-80248724D01*
X73327936Y-80264066D01*
X73424613Y-80327828D01*
X73438951Y-80338837D01*
X76110760Y-82713778D01*
X76122605Y-82725822D01*
X76193187Y-82807941D01*
X76211542Y-82836214D01*
X76254178Y-82926390D01*
X76264380Y-82958516D01*
X76281584Y-83056771D01*
X76282904Y-83090454D01*
X76273442Y-83189752D01*
X76265785Y-83222577D01*
X76230337Y-83315814D01*
X76214251Y-83345437D01*
X76155351Y-83425941D01*
X76131987Y-83450238D01*
X76053855Y-83512243D01*
X76024885Y-83529477D01*
X75933110Y-83568548D01*
X75900609Y-83577485D01*
X75793287Y-83591971D01*
X75776433Y-83593103D01*
X73108258Y-83593103D01*
X73091812Y-83592025D01*
X72987037Y-83578231D01*
X72955265Y-83569718D01*
X72865326Y-83532464D01*
X72836840Y-83516017D01*
X72759607Y-83456754D01*
X72736349Y-83433496D01*
X72677086Y-83356263D01*
X72660639Y-83327777D01*
X72623385Y-83237838D01*
X72614872Y-83206066D01*
X72601078Y-83101291D01*
X72600000Y-83084845D01*
X72600000Y-80715585D01*
X72601297Y-80697555D01*
X72617870Y-80582932D01*
X72628083Y-80548349D01*
X72672621Y-80451431D01*
X72692214Y-80421155D01*
X72762383Y-80340821D01*
X72789746Y-80317337D01*
X72879792Y-80260169D01*
X72912687Y-80245397D01*
X73015238Y-80216075D01*
X73050973Y-80211225D01*
X73157629Y-80212153D01*
G37*
G36*
X75608188Y-68401078D02*
G01*
X75712963Y-68414872D01*
X75744735Y-68423385D01*
X75834674Y-68460639D01*
X75863160Y-68477086D01*
X75940393Y-68536349D01*
X75963651Y-68559607D01*
X76022914Y-68636840D01*
X76039361Y-68665326D01*
X76076615Y-68755265D01*
X76085128Y-68787037D01*
X76098922Y-68891812D01*
X76100000Y-68908258D01*
X76100000Y-71491742D01*
X76098922Y-71508188D01*
X76085128Y-71612963D01*
X76076615Y-71644735D01*
X76039361Y-71734674D01*
X76022914Y-71763160D01*
X75963651Y-71840393D01*
X75940393Y-71863651D01*
X75863160Y-71922914D01*
X75834674Y-71939361D01*
X75744735Y-71976615D01*
X75712963Y-71985128D01*
X75608188Y-71998922D01*
X75591742Y-72000000D01*
X73008258Y-72000000D01*
X72991812Y-71998922D01*
X72887037Y-71985128D01*
X72855265Y-71976615D01*
X72765326Y-71939361D01*
X72736840Y-71922914D01*
X72659607Y-71863651D01*
X72636349Y-71840393D01*
X72577086Y-71763160D01*
X72560639Y-71734674D01*
X72523385Y-71644735D01*
X72514872Y-71612963D01*
X72501078Y-71508188D01*
X72500000Y-71491742D01*
X72500000Y-68908258D01*
X72501078Y-68891812D01*
X72514872Y-68787037D01*
X72523385Y-68755265D01*
X72560639Y-68665326D01*
X72577086Y-68636840D01*
X72636349Y-68559607D01*
X72659607Y-68536349D01*
X72736840Y-68477086D01*
X72765326Y-68460639D01*
X72855265Y-68423385D01*
X72887037Y-68414872D01*
X72991812Y-68401078D01*
X73008258Y-68400000D01*
X75591742Y-68400000D01*
X75608188Y-68401078D01*
G37*
G36*
X76212964Y-74721979D02*
G01*
X76244735Y-74730492D01*
X76334673Y-74767745D01*
X76363159Y-74784192D01*
X76447007Y-74848531D01*
X76459398Y-74859398D01*
X78239873Y-76639873D01*
X78251982Y-76653910D01*
X78322719Y-76749288D01*
X78340150Y-76781898D01*
X78376990Y-76884859D01*
X78384203Y-76921124D01*
X78389569Y-77030339D01*
X78385945Y-77067138D01*
X78359374Y-77173212D01*
X78345224Y-77207373D01*
X78289006Y-77301167D01*
X78265548Y-77329750D01*
X78184528Y-77403182D01*
X78153784Y-77423724D01*
X78054930Y-77470479D01*
X78019546Y-77481213D01*
X77902088Y-77498636D01*
X77883600Y-77500000D01*
X74316400Y-77500000D01*
X74297912Y-77498636D01*
X74180454Y-77481213D01*
X74145070Y-77470479D01*
X74046216Y-77423724D01*
X74015472Y-77403182D01*
X73934452Y-77329750D01*
X73910994Y-77301167D01*
X73854776Y-77207373D01*
X73840626Y-77173212D01*
X73814055Y-77067138D01*
X73810431Y-77030339D01*
X73815797Y-76921124D01*
X73823010Y-76884859D01*
X73859850Y-76781898D01*
X73877281Y-76749288D01*
X73948018Y-76653910D01*
X73960127Y-76639873D01*
X75740602Y-74859398D01*
X75752993Y-74848531D01*
X75836841Y-74784192D01*
X75865327Y-74767745D01*
X75955265Y-74730492D01*
X75987036Y-74721979D01*
X76083553Y-74709272D01*
X76116447Y-74709272D01*
X76212964Y-74721979D01*
G37*
M02*
