%TF.GenerationSoftware,KiCad,Pcbnew,(6.0.11)*%
%TF.CreationDate,2023-01-29T15:03:24+00:00*%
%TF.ProjectId,Quadraphone_Panel,51756164-7261-4706-986f-6e655f50616e,rev?*%
%TF.SameCoordinates,Original*%
%TF.FileFunction,Profile,NP*%
%FSLAX46Y46*%
G04 Gerber Fmt 4.6, Leading zero omitted, Abs format (unit mm)*
G04 Created by KiCad (PCBNEW (6.0.11)) date 2023-01-29 15:03:24*
%MOMM*%
%LPD*%
G01*
G04 APERTURE LIST*
%TA.AperFunction,Profile*%
%ADD10C,0.100000*%
%TD*%
%TA.AperFunction,Profile*%
%ADD11C,0.120000*%
%TD*%
G04 APERTURE END LIST*
D10*
X49600000Y-165200000D02*
X110400000Y-165200000D01*
X49600000Y-36700000D02*
X49600000Y-165200000D01*
X110400000Y-36700000D02*
X110400000Y-165200000D01*
X49600000Y-36700000D02*
X110400000Y-36700000D01*
D11*
%TO.C,Output*%
X87880000Y-154320000D02*
X72120000Y-154320000D01*
X88190000Y-137980000D02*
X88190000Y-154020000D01*
X87880000Y-137680000D02*
X72120000Y-137680000D01*
X71840000Y-137980000D02*
X71840000Y-154020000D01*
X87880001Y-154319990D02*
G75*
G03*
X88190000Y-154020000I17299J292290D01*
G01*
X88189942Y-137980001D02*
G75*
G03*
X87880000Y-137680000I-306742J-6799D01*
G01*
X71839999Y-154020000D02*
G75*
G03*
X72120000Y-154320000I291316J-8772D01*
G01*
X72120000Y-137679999D02*
G75*
G03*
X71840000Y-137980000I12375J-292217D01*
G01*
%TO.C,PWM_In*%
X105190000Y-112980000D02*
X105190000Y-129020000D01*
X88840000Y-112980000D02*
X88840000Y-129020000D01*
X104880000Y-129320000D02*
X89120000Y-129320000D01*
X104880000Y-112680000D02*
X89120000Y-112680000D01*
X88839999Y-129020000D02*
G75*
G03*
X89120000Y-129320000I291316J-8772D01*
G01*
X89120000Y-112679999D02*
G75*
G03*
X88840000Y-112980000I12375J-292217D01*
G01*
X104880001Y-129319990D02*
G75*
G03*
X105190000Y-129020000I17299J292290D01*
G01*
X105189942Y-112980001D02*
G75*
G03*
X104880000Y-112680000I-306742J-6799D01*
G01*
%TO.C,Synch_In*%
X106590000Y-137980000D02*
X106590000Y-154020000D01*
X106280000Y-137680000D02*
X90520000Y-137680000D01*
X106280000Y-154320000D02*
X90520000Y-154320000D01*
X90240000Y-137980000D02*
X90240000Y-154020000D01*
X90239999Y-154020000D02*
G75*
G03*
X90520000Y-154320000I291316J-8772D01*
G01*
X90520000Y-137679999D02*
G75*
G03*
X90240000Y-137980000I12375J-292217D01*
G01*
X106280001Y-154319990D02*
G75*
G03*
X106590000Y-154020000I17299J292290D01*
G01*
X106589942Y-137980001D02*
G75*
G03*
X106280000Y-137680000I-306742J-6799D01*
G01*
%TO.C,FM_In*%
X54840000Y-112980000D02*
X54840000Y-129020000D01*
X70880000Y-129320000D02*
X55120000Y-129320000D01*
X71190000Y-112980000D02*
X71190000Y-129020000D01*
X70880000Y-112680000D02*
X55120000Y-112680000D01*
X54839999Y-129020000D02*
G75*
G03*
X55120000Y-129320000I291316J-8772D01*
G01*
X71189942Y-112980001D02*
G75*
G03*
X70880000Y-112680000I-306742J-6799D01*
G01*
X55120000Y-112679999D02*
G75*
G03*
X54840000Y-112980000I12375J-292217D01*
G01*
X70880001Y-129319990D02*
G75*
G03*
X71190000Y-129020000I17299J292290D01*
G01*
%TO.C,V_per_Oct_In*%
X69480000Y-137680000D02*
X53720000Y-137680000D01*
X69790000Y-137980000D02*
X69790000Y-154020000D01*
X69480000Y-154320000D02*
X53720000Y-154320000D01*
X53440000Y-137980000D02*
X53440000Y-154020000D01*
X53439999Y-154020000D02*
G75*
G03*
X53720000Y-154320000I291316J-8772D01*
G01*
X69789942Y-137980001D02*
G75*
G03*
X69480000Y-137680000I-306742J-6799D01*
G01*
X69480001Y-154319990D02*
G75*
G03*
X69790000Y-154020000I17299J292290D01*
G01*
X53720000Y-137679999D02*
G75*
G03*
X53440000Y-137980000I12375J-292217D01*
G01*
%TD*%
M02*
