%TF.GenerationSoftware,KiCad,Pcbnew,(6.0.11)*%
%TF.CreationDate,2023-01-29T14:48:06+00:00*%
%TF.ProjectId,Quadraphone,51756164-7261-4706-986f-6e652e6b6963,rev?*%
%TF.SameCoordinates,Original*%
%TF.FileFunction,Legend,Bot*%
%TF.FilePolarity,Positive*%
%FSLAX46Y46*%
G04 Gerber Fmt 4.6, Leading zero omitted, Abs format (unit mm)*
G04 Created by KiCad (PCBNEW (6.0.11)) date 2023-01-29 14:48:06*
%MOMM*%
%LPD*%
G01*
G04 APERTURE LIST*
%ADD10C,0.150000*%
%ADD11C,0.120000*%
%ADD12C,0.100000*%
%ADD13C,1.152000*%
%ADD14C,2.000000*%
%ADD15C,1.440000*%
%ADD16R,1.700000X1.700000*%
%ADD17C,1.700000*%
%ADD18O,1.700000X1.700000*%
%ADD19C,0.800000*%
%ADD20C,0.900000*%
%ADD21C,1.000000*%
G04 APERTURE END LIST*
D10*
X90857142Y-62742619D02*
X90952380Y-62695000D01*
X91047619Y-62599761D01*
X91190476Y-62456904D01*
X91285714Y-62409285D01*
X91380952Y-62409285D01*
X91333333Y-62647380D02*
X91428571Y-62599761D01*
X91523809Y-62504523D01*
X91571428Y-62314047D01*
X91571428Y-61980714D01*
X91523809Y-61790238D01*
X91428571Y-61695000D01*
X91333333Y-61647380D01*
X91142857Y-61647380D01*
X91047619Y-61695000D01*
X90952380Y-61790238D01*
X90904761Y-61980714D01*
X90904761Y-62314047D01*
X90952380Y-62504523D01*
X91047619Y-62599761D01*
X91142857Y-62647380D01*
X91333333Y-62647380D01*
X90047619Y-61980714D02*
X90047619Y-62647380D01*
X90476190Y-61980714D02*
X90476190Y-62504523D01*
X90428571Y-62599761D01*
X90333333Y-62647380D01*
X90190476Y-62647380D01*
X90095238Y-62599761D01*
X90047619Y-62552142D01*
X89142857Y-62647380D02*
X89142857Y-62123571D01*
X89190476Y-62028333D01*
X89285714Y-61980714D01*
X89476190Y-61980714D01*
X89571428Y-62028333D01*
X89142857Y-62599761D02*
X89238095Y-62647380D01*
X89476190Y-62647380D01*
X89571428Y-62599761D01*
X89619047Y-62504523D01*
X89619047Y-62409285D01*
X89571428Y-62314047D01*
X89476190Y-62266428D01*
X89238095Y-62266428D01*
X89142857Y-62218809D01*
X88238095Y-62647380D02*
X88238095Y-61647380D01*
X88238095Y-62599761D02*
X88333333Y-62647380D01*
X88523809Y-62647380D01*
X88619047Y-62599761D01*
X88666666Y-62552142D01*
X88714285Y-62456904D01*
X88714285Y-62171190D01*
X88666666Y-62075952D01*
X88619047Y-62028333D01*
X88523809Y-61980714D01*
X88333333Y-61980714D01*
X88238095Y-62028333D01*
X87761904Y-62647380D02*
X87761904Y-61980714D01*
X87761904Y-62171190D02*
X87714285Y-62075952D01*
X87666666Y-62028333D01*
X87571428Y-61980714D01*
X87476190Y-61980714D01*
X86714285Y-62647380D02*
X86714285Y-62123571D01*
X86761904Y-62028333D01*
X86857142Y-61980714D01*
X87047619Y-61980714D01*
X87142857Y-62028333D01*
X86714285Y-62599761D02*
X86809523Y-62647380D01*
X87047619Y-62647380D01*
X87142857Y-62599761D01*
X87190476Y-62504523D01*
X87190476Y-62409285D01*
X87142857Y-62314047D01*
X87047619Y-62266428D01*
X86809523Y-62266428D01*
X86714285Y-62218809D01*
X86238095Y-61980714D02*
X86238095Y-62980714D01*
X86238095Y-62028333D02*
X86142857Y-61980714D01*
X85952380Y-61980714D01*
X85857142Y-62028333D01*
X85809523Y-62075952D01*
X85761904Y-62171190D01*
X85761904Y-62456904D01*
X85809523Y-62552142D01*
X85857142Y-62599761D01*
X85952380Y-62647380D01*
X86142857Y-62647380D01*
X86238095Y-62599761D01*
X85333333Y-62647380D02*
X85333333Y-61647380D01*
X84904761Y-62647380D02*
X84904761Y-62123571D01*
X84952380Y-62028333D01*
X85047619Y-61980714D01*
X85190476Y-61980714D01*
X85285714Y-62028333D01*
X85333333Y-62075952D01*
X84285714Y-62647380D02*
X84380952Y-62599761D01*
X84428571Y-62552142D01*
X84476190Y-62456904D01*
X84476190Y-62171190D01*
X84428571Y-62075952D01*
X84380952Y-62028333D01*
X84285714Y-61980714D01*
X84142857Y-61980714D01*
X84047619Y-62028333D01*
X84000000Y-62075952D01*
X83952380Y-62171190D01*
X83952380Y-62456904D01*
X84000000Y-62552142D01*
X84047619Y-62599761D01*
X84142857Y-62647380D01*
X84285714Y-62647380D01*
X83523809Y-61980714D02*
X83523809Y-62647380D01*
X83523809Y-62075952D02*
X83476190Y-62028333D01*
X83380952Y-61980714D01*
X83238095Y-61980714D01*
X83142857Y-62028333D01*
X83095238Y-62123571D01*
X83095238Y-62647380D01*
X82238095Y-62599761D02*
X82333333Y-62647380D01*
X82523809Y-62647380D01*
X82619047Y-62599761D01*
X82666666Y-62504523D01*
X82666666Y-62123571D01*
X82619047Y-62028333D01*
X82523809Y-61980714D01*
X82333333Y-61980714D01*
X82238095Y-62028333D01*
X82190476Y-62123571D01*
X82190476Y-62218809D01*
X82666666Y-62314047D01*
X80428571Y-62552142D02*
X80476190Y-62599761D01*
X80619047Y-62647380D01*
X80714285Y-62647380D01*
X80857142Y-62599761D01*
X80952380Y-62504523D01*
X81000000Y-62409285D01*
X81047619Y-62218809D01*
X81047619Y-62075952D01*
X81000000Y-61885476D01*
X80952380Y-61790238D01*
X80857142Y-61695000D01*
X80714285Y-61647380D01*
X80619047Y-61647380D01*
X80476190Y-61695000D01*
X80428571Y-61742619D01*
X79857142Y-62647380D02*
X79952380Y-62599761D01*
X80000000Y-62552142D01*
X80047619Y-62456904D01*
X80047619Y-62171190D01*
X80000000Y-62075952D01*
X79952380Y-62028333D01*
X79857142Y-61980714D01*
X79714285Y-61980714D01*
X79619047Y-62028333D01*
X79571428Y-62075952D01*
X79523809Y-62171190D01*
X79523809Y-62456904D01*
X79571428Y-62552142D01*
X79619047Y-62599761D01*
X79714285Y-62647380D01*
X79857142Y-62647380D01*
X79095238Y-62647380D02*
X79095238Y-61980714D01*
X79095238Y-62075952D02*
X79047619Y-62028333D01*
X78952380Y-61980714D01*
X78809523Y-61980714D01*
X78714285Y-62028333D01*
X78666666Y-62123571D01*
X78666666Y-62647380D01*
X78666666Y-62123571D02*
X78619047Y-62028333D01*
X78523809Y-61980714D01*
X78380952Y-61980714D01*
X78285714Y-62028333D01*
X78238095Y-62123571D01*
X78238095Y-62647380D01*
X77761904Y-61980714D02*
X77761904Y-62980714D01*
X77761904Y-62028333D02*
X77666666Y-61980714D01*
X77476190Y-61980714D01*
X77380952Y-62028333D01*
X77333333Y-62075952D01*
X77285714Y-62171190D01*
X77285714Y-62456904D01*
X77333333Y-62552142D01*
X77380952Y-62599761D01*
X77476190Y-62647380D01*
X77666666Y-62647380D01*
X77761904Y-62599761D01*
X76714285Y-62647380D02*
X76809523Y-62599761D01*
X76857142Y-62552142D01*
X76904761Y-62456904D01*
X76904761Y-62171190D01*
X76857142Y-62075952D01*
X76809523Y-62028333D01*
X76714285Y-61980714D01*
X76571428Y-61980714D01*
X76476190Y-62028333D01*
X76428571Y-62075952D01*
X76380952Y-62171190D01*
X76380952Y-62456904D01*
X76428571Y-62552142D01*
X76476190Y-62599761D01*
X76571428Y-62647380D01*
X76714285Y-62647380D01*
X75952380Y-61980714D02*
X75952380Y-62647380D01*
X75952380Y-62075952D02*
X75904761Y-62028333D01*
X75809523Y-61980714D01*
X75666666Y-61980714D01*
X75571428Y-62028333D01*
X75523809Y-62123571D01*
X75523809Y-62647380D01*
X74666666Y-62599761D02*
X74761904Y-62647380D01*
X74952380Y-62647380D01*
X75047619Y-62599761D01*
X75095238Y-62504523D01*
X75095238Y-62123571D01*
X75047619Y-62028333D01*
X74952380Y-61980714D01*
X74761904Y-61980714D01*
X74666666Y-62028333D01*
X74619047Y-62123571D01*
X74619047Y-62218809D01*
X75095238Y-62314047D01*
X74190476Y-61980714D02*
X74190476Y-62647380D01*
X74190476Y-62075952D02*
X74142857Y-62028333D01*
X74047619Y-61980714D01*
X73904761Y-61980714D01*
X73809523Y-62028333D01*
X73761904Y-62123571D01*
X73761904Y-62647380D01*
X73428571Y-61980714D02*
X73047619Y-61980714D01*
X73285714Y-61647380D02*
X73285714Y-62504523D01*
X73238095Y-62599761D01*
X73142857Y-62647380D01*
X73047619Y-62647380D01*
X72761904Y-62599761D02*
X72666666Y-62647380D01*
X72476190Y-62647380D01*
X72380952Y-62599761D01*
X72333333Y-62504523D01*
X72333333Y-62456904D01*
X72380952Y-62361666D01*
X72476190Y-62314047D01*
X72619047Y-62314047D01*
X72714285Y-62266428D01*
X72761904Y-62171190D01*
X72761904Y-62123571D01*
X72714285Y-62028333D01*
X72619047Y-61980714D01*
X72476190Y-61980714D01*
X72380952Y-62028333D01*
X71238095Y-61980714D02*
X71000000Y-62647380D01*
X70761904Y-61980714D01*
X69857142Y-62647380D02*
X70428571Y-62647380D01*
X70142857Y-62647380D02*
X70142857Y-61647380D01*
X70238095Y-61790238D01*
X70333333Y-61885476D01*
X70428571Y-61933095D01*
X69428571Y-62552142D02*
X69380952Y-62599761D01*
X69428571Y-62647380D01*
X69476190Y-62599761D01*
X69428571Y-62552142D01*
X69428571Y-62647380D01*
X68761904Y-61647380D02*
X68666666Y-61647380D01*
X68571428Y-61695000D01*
X68523809Y-61742619D01*
X68476190Y-61837857D01*
X68428571Y-62028333D01*
X68428571Y-62266428D01*
X68476190Y-62456904D01*
X68523809Y-62552142D01*
X68571428Y-62599761D01*
X68666666Y-62647380D01*
X68761904Y-62647380D01*
X68857142Y-62599761D01*
X68904761Y-62552142D01*
X68952380Y-62456904D01*
X69000000Y-62266428D01*
X69000000Y-62028333D01*
X68952380Y-61837857D01*
X68904761Y-61742619D01*
X68857142Y-61695000D01*
X68761904Y-61647380D01*
X86380952Y-64257380D02*
X86380952Y-63257380D01*
X86047619Y-63971666D01*
X85714285Y-63257380D01*
X85714285Y-64257380D01*
X85095238Y-64257380D02*
X85190476Y-64209761D01*
X85238095Y-64162142D01*
X85285714Y-64066904D01*
X85285714Y-63781190D01*
X85238095Y-63685952D01*
X85190476Y-63638333D01*
X85095238Y-63590714D01*
X84952380Y-63590714D01*
X84857142Y-63638333D01*
X84809523Y-63685952D01*
X84761904Y-63781190D01*
X84761904Y-64066904D01*
X84809523Y-64162142D01*
X84857142Y-64209761D01*
X84952380Y-64257380D01*
X85095238Y-64257380D01*
X83904761Y-63590714D02*
X83904761Y-64257380D01*
X84333333Y-63590714D02*
X84333333Y-64114523D01*
X84285714Y-64209761D01*
X84190476Y-64257380D01*
X84047619Y-64257380D01*
X83952380Y-64209761D01*
X83904761Y-64162142D01*
X83428571Y-63590714D02*
X83428571Y-64257380D01*
X83428571Y-63685952D02*
X83380952Y-63638333D01*
X83285714Y-63590714D01*
X83142857Y-63590714D01*
X83047619Y-63638333D01*
X83000000Y-63733571D01*
X83000000Y-64257380D01*
X82666666Y-63590714D02*
X82285714Y-63590714D01*
X82523809Y-63257380D02*
X82523809Y-64114523D01*
X82476190Y-64209761D01*
X82380952Y-64257380D01*
X82285714Y-64257380D01*
X81952380Y-63590714D02*
X81952380Y-64447857D01*
X82000000Y-64543095D01*
X82095238Y-64590714D01*
X82142857Y-64590714D01*
X81952380Y-63257380D02*
X82000000Y-63305000D01*
X81952380Y-63352619D01*
X81904761Y-63305000D01*
X81952380Y-63257380D01*
X81952380Y-63352619D01*
X81333333Y-64257380D02*
X81428571Y-64209761D01*
X81476190Y-64162142D01*
X81523809Y-64066904D01*
X81523809Y-63781190D01*
X81476190Y-63685952D01*
X81428571Y-63638333D01*
X81333333Y-63590714D01*
X81190476Y-63590714D01*
X81095238Y-63638333D01*
X81047619Y-63685952D01*
X81000000Y-63781190D01*
X81000000Y-64066904D01*
X81047619Y-64162142D01*
X81095238Y-64209761D01*
X81190476Y-64257380D01*
X81333333Y-64257380D01*
X80666666Y-63590714D02*
X80428571Y-64257380D01*
X80190476Y-63590714D02*
X80428571Y-64257380D01*
X80523809Y-64495476D01*
X80571428Y-64543095D01*
X80666666Y-64590714D01*
X79047619Y-64257380D02*
X79047619Y-63257380D01*
X78714285Y-63971666D01*
X78380952Y-63257380D01*
X78380952Y-64257380D01*
X77761904Y-64257380D02*
X77857142Y-64209761D01*
X77904761Y-64162142D01*
X77952380Y-64066904D01*
X77952380Y-63781190D01*
X77904761Y-63685952D01*
X77857142Y-63638333D01*
X77761904Y-63590714D01*
X77619047Y-63590714D01*
X77523809Y-63638333D01*
X77476190Y-63685952D01*
X77428571Y-63781190D01*
X77428571Y-64066904D01*
X77476190Y-64162142D01*
X77523809Y-64209761D01*
X77619047Y-64257380D01*
X77761904Y-64257380D01*
X76571428Y-64257380D02*
X76571428Y-63257380D01*
X76571428Y-64209761D02*
X76666666Y-64257380D01*
X76857142Y-64257380D01*
X76952380Y-64209761D01*
X77000000Y-64162142D01*
X77047619Y-64066904D01*
X77047619Y-63781190D01*
X77000000Y-63685952D01*
X76952380Y-63638333D01*
X76857142Y-63590714D01*
X76666666Y-63590714D01*
X76571428Y-63638333D01*
X75666666Y-63590714D02*
X75666666Y-64257380D01*
X76095238Y-63590714D02*
X76095238Y-64114523D01*
X76047619Y-64209761D01*
X75952380Y-64257380D01*
X75809523Y-64257380D01*
X75714285Y-64209761D01*
X75666666Y-64162142D01*
X75047619Y-64257380D02*
X75142857Y-64209761D01*
X75190476Y-64114523D01*
X75190476Y-63257380D01*
X74238095Y-64257380D02*
X74238095Y-63733571D01*
X74285714Y-63638333D01*
X74380952Y-63590714D01*
X74571428Y-63590714D01*
X74666666Y-63638333D01*
X74238095Y-64209761D02*
X74333333Y-64257380D01*
X74571428Y-64257380D01*
X74666666Y-64209761D01*
X74714285Y-64114523D01*
X74714285Y-64019285D01*
X74666666Y-63924047D01*
X74571428Y-63876428D01*
X74333333Y-63876428D01*
X74238095Y-63828809D01*
X73761904Y-64257380D02*
X73761904Y-63590714D01*
X73761904Y-63781190D02*
X73714285Y-63685952D01*
X73666666Y-63638333D01*
X73571428Y-63590714D01*
X73476190Y-63590714D01*
D11*
%TO.C,J4*%
X108430000Y-118470000D02*
X107100000Y-118470000D01*
X108430000Y-121070000D02*
X105770000Y-121070000D01*
X108430000Y-121070000D02*
X108430000Y-143990000D01*
X108430000Y-119800000D02*
X108430000Y-118470000D01*
X108430000Y-143990000D02*
X105770000Y-143990000D01*
X105770000Y-121070000D02*
X105770000Y-143990000D01*
%TO.C,J3*%
X54130000Y-121270000D02*
X51470000Y-121270000D01*
X54130000Y-120000000D02*
X54130000Y-118670000D01*
X54130000Y-144190000D02*
X51470000Y-144190000D01*
X54130000Y-121270000D02*
X54130000Y-144190000D01*
X51470000Y-121270000D02*
X51470000Y-144190000D01*
X54130000Y-118670000D02*
X52800000Y-118670000D01*
%TO.C,J2*%
X108430000Y-87190000D02*
X105770000Y-87190000D01*
X105770000Y-64270000D02*
X105770000Y-87190000D01*
X108430000Y-64270000D02*
X105770000Y-64270000D01*
X108430000Y-63000000D02*
X108430000Y-61670000D01*
X108430000Y-61670000D02*
X107100000Y-61670000D01*
X108430000Y-64270000D02*
X108430000Y-87190000D01*
%TO.C,J1*%
X51470000Y-64270000D02*
X51470000Y-87190000D01*
X54130000Y-64270000D02*
X54130000Y-87190000D01*
X54130000Y-64270000D02*
X51470000Y-64270000D01*
X54130000Y-63000000D02*
X54130000Y-61670000D01*
X54130000Y-61670000D02*
X52800000Y-61670000D01*
X54130000Y-87190000D02*
X51470000Y-87190000D01*
%TD*%
%LPC*%
%TO.C,FID1*%
G36*
X60200000Y-108900000D02*
G01*
X52200000Y-108900000D01*
X52200000Y-106900000D01*
X60200000Y-106900000D01*
X60200000Y-108900000D01*
G37*
D12*
X60200000Y-108900000D02*
X52200000Y-108900000D01*
X52200000Y-106900000D01*
X60200000Y-106900000D01*
X60200000Y-108900000D01*
%TD*%
D13*
%TO.C,REF\u002A\u002A*%
X108400000Y-148400000D03*
%TD*%
%TO.C,REF\u002A\u002A*%
X51600000Y-51600000D03*
%TD*%
D14*
%TO.C,TP6*%
X52800000Y-58400000D03*
%TD*%
D15*
%TO.C,HF_Track_Trim3*%
X68500000Y-146100000D03*
X71040000Y-143560000D03*
X73580000Y-146100000D03*
%TD*%
%TO.C,HF_Track_Trim1*%
X68500000Y-97200000D03*
X71040000Y-94660000D03*
X73580000Y-97200000D03*
%TD*%
%TO.C,Base_Freq_Trim4*%
X86400000Y-146100000D03*
X88940000Y-143560000D03*
X91480000Y-146100000D03*
%TD*%
%TO.C,Expo_Trim2*%
X102800000Y-76200000D03*
X100260000Y-73660000D03*
X102800000Y-71120000D03*
%TD*%
D14*
%TO.C,TP7*%
X52900000Y-103700000D03*
%TD*%
D15*
%TO.C,Base_Freq_Trim1*%
X59500000Y-97200000D03*
X62040000Y-94660000D03*
X64580000Y-97200000D03*
%TD*%
%TO.C,Expo_Trim3*%
X75900000Y-125100000D03*
X73360000Y-122560000D03*
X75900000Y-120020000D03*
%TD*%
D14*
%TO.C,TP5*%
X107600000Y-108500000D03*
%TD*%
D15*
%TO.C,Expo_Trim4*%
X102800000Y-125100000D03*
X100260000Y-122560000D03*
X102800000Y-120020000D03*
%TD*%
D14*
%TO.C,TP8*%
X107600000Y-103700000D03*
%TD*%
%TO.C,TP2*%
X107600000Y-94700000D03*
%TD*%
%TO.C,TP4*%
X80000000Y-143600000D03*
%TD*%
D15*
%TO.C,Base_Freq_Trim2*%
X86400000Y-97200000D03*
X88940000Y-94660000D03*
X91480000Y-97200000D03*
%TD*%
%TO.C,Expo_Trim1*%
X75900000Y-76200000D03*
X73360000Y-73660000D03*
X75900000Y-71120000D03*
%TD*%
%TO.C,Base_Freq_Trim3*%
X59500000Y-146100000D03*
X62040000Y-143560000D03*
X64580000Y-146100000D03*
%TD*%
D14*
%TO.C,TP3*%
X107600000Y-99200000D03*
%TD*%
D15*
%TO.C,HF_Track_Trim2*%
X95400000Y-97200000D03*
X97940000Y-94660000D03*
X100480000Y-97200000D03*
%TD*%
%TO.C,HF_Track_Trim4*%
X95400000Y-146100000D03*
X97940000Y-143560000D03*
X100480000Y-146100000D03*
%TD*%
D16*
%TO.C,J5*%
X74200000Y-56700000D03*
D17*
X74200000Y-54160000D03*
X76740000Y-56700000D03*
X76740000Y-54160000D03*
X79280000Y-56700000D03*
X79280000Y-54160000D03*
X81820000Y-56700000D03*
X81820000Y-54160000D03*
X84360000Y-56700000D03*
X84360000Y-54160000D03*
%TD*%
D14*
%TO.C,TP1*%
X52900000Y-99300000D03*
%TD*%
D16*
%TO.C,J4*%
X107100000Y-119800000D03*
D18*
X107100000Y-122340000D03*
X107100000Y-124880000D03*
X107100000Y-127420000D03*
X107100000Y-129960000D03*
X107100000Y-132500000D03*
X107100000Y-135040000D03*
X107100000Y-137580000D03*
X107100000Y-140120000D03*
X107100000Y-142660000D03*
%TD*%
D16*
%TO.C,J3*%
X52800000Y-120000000D03*
D18*
X52800000Y-122540000D03*
X52800000Y-125080000D03*
X52800000Y-127620000D03*
X52800000Y-130160000D03*
X52800000Y-132700000D03*
X52800000Y-135240000D03*
X52800000Y-137780000D03*
X52800000Y-140320000D03*
X52800000Y-142860000D03*
%TD*%
D16*
%TO.C,J2*%
X107100000Y-63000000D03*
D18*
X107100000Y-65540000D03*
X107100000Y-68080000D03*
X107100000Y-70620000D03*
X107100000Y-73160000D03*
X107100000Y-75700000D03*
X107100000Y-78240000D03*
X107100000Y-80780000D03*
X107100000Y-83320000D03*
X107100000Y-85860000D03*
%TD*%
D16*
%TO.C,J1*%
X52800000Y-63000000D03*
D18*
X52800000Y-65540000D03*
X52800000Y-68080000D03*
X52800000Y-70620000D03*
X52800000Y-73160000D03*
X52800000Y-75700000D03*
X52800000Y-78240000D03*
X52800000Y-80780000D03*
X52800000Y-83320000D03*
X52800000Y-85860000D03*
%TD*%
D19*
X51100000Y-56000000D03*
X59300000Y-56600000D03*
X68100000Y-126100000D03*
X95100000Y-52900000D03*
X101200000Y-106000000D03*
X92000000Y-113400000D03*
X97100000Y-65400000D03*
X94000000Y-73200000D03*
X80700000Y-124800000D03*
X83700000Y-112600000D03*
X75200000Y-66800000D03*
X75800000Y-115900000D03*
X67400000Y-72100000D03*
X74800000Y-89900000D03*
X57500000Y-57500000D03*
X84300000Y-124800000D03*
X98500000Y-127100000D03*
X65400000Y-64100000D03*
X101200000Y-112800000D03*
X103600000Y-52200000D03*
X66000000Y-99800000D03*
X74100000Y-106700000D03*
X97000000Y-114300000D03*
X79900000Y-136000000D03*
X97000000Y-138200000D03*
X54800000Y-69600000D03*
X70100000Y-89500000D03*
X98300000Y-121000000D03*
X65100000Y-113000000D03*
X54900000Y-124200000D03*
X75100000Y-137800000D03*
X92420023Y-64220023D03*
X97100000Y-89500000D03*
X97100000Y-102300000D03*
X78800000Y-128900000D03*
X57500000Y-117700000D03*
X70200000Y-65400000D03*
X93400000Y-51000000D03*
X98500000Y-77800000D03*
X61100000Y-58700000D03*
X70100000Y-78700000D03*
X70100000Y-138100000D03*
X100300000Y-61800000D03*
X91700000Y-52900000D03*
X101200000Y-88900000D03*
X90200000Y-118300000D03*
X93100000Y-108700000D03*
X108000000Y-52900000D03*
X102600000Y-64300000D03*
X63700000Y-106800000D03*
X57500000Y-75900000D03*
X101600000Y-137800000D03*
X71300000Y-120400000D03*
X103000000Y-105800000D03*
X74900000Y-63700000D03*
X101700000Y-141000000D03*
X72900000Y-109400000D03*
D20*
X67000000Y-83100000D03*
X101800000Y-83000000D03*
X94200000Y-101000000D03*
X70100000Y-131700000D03*
X97300000Y-131200000D03*
D19*
X67800000Y-101000000D03*
D20*
X74200000Y-133000000D03*
D21*
X65600000Y-118200000D03*
X88500000Y-69200000D03*
X61700000Y-68700000D03*
D19*
X62100000Y-118200000D03*
D21*
X88600000Y-117500000D03*
X61600000Y-76800000D03*
X86300000Y-108400000D03*
X70100000Y-80200000D03*
X70100000Y-129100000D03*
X97512500Y-109300000D03*
X89000000Y-126700000D03*
X95500000Y-79100000D03*
X95600000Y-128300000D03*
X88700000Y-77200000D03*
X106268750Y-58600000D03*
X92400000Y-104000000D03*
X61400000Y-125700000D03*
X61900000Y-87800000D03*
X97300000Y-111900000D03*
X62000000Y-136800000D03*
X70600000Y-111600000D03*
X88900000Y-87800000D03*
X86500000Y-61500000D03*
X88900000Y-136900000D03*
D19*
X78300000Y-103100000D03*
X74200000Y-85200000D03*
X78575500Y-85300000D03*
X101400000Y-135437738D03*
X75100000Y-135324500D03*
X101400000Y-85600000D03*
X55300000Y-90300000D03*
X57500000Y-83300000D03*
X78000000Y-83100000D03*
X88800000Y-82800000D03*
D20*
X84400000Y-70200000D03*
X74300000Y-65300000D03*
X74010756Y-114789244D03*
X101300000Y-114200000D03*
X101200000Y-65200000D03*
X57499312Y-120899312D03*
X84600000Y-120400000D03*
D19*
X76700000Y-112724500D03*
X79075500Y-116179791D03*
X61100000Y-109900000D03*
X63300000Y-126200000D03*
X88800000Y-124300000D03*
X91300000Y-75400000D03*
X78300000Y-121500000D03*
X64652451Y-75227852D03*
X77900000Y-74100000D03*
X64200000Y-110800000D03*
X64600000Y-125000000D03*
X91300000Y-107100000D03*
X79300000Y-70100000D03*
X94700000Y-121700000D03*
X70900000Y-71900000D03*
X70185350Y-121575500D03*
X97800000Y-72300000D03*
X79300000Y-105098062D03*
X97200000Y-122300000D03*
X67400000Y-122300000D03*
X77900000Y-106700000D03*
X97125652Y-73687174D03*
X70600000Y-73400000D03*
X80100000Y-72200000D03*
X61900000Y-74700000D03*
X88800000Y-123200000D03*
X88921767Y-74824500D03*
X80875500Y-118243082D03*
X82300000Y-75900000D03*
X64481868Y-123614805D03*
X57800000Y-77675500D03*
X84500000Y-126600000D03*
X54800000Y-119700000D03*
X84500000Y-77000000D03*
X57500000Y-86300000D03*
X57600000Y-134600000D03*
X84600000Y-86242898D03*
X82700000Y-133900000D03*
X84600000Y-88900000D03*
X59500000Y-88200000D03*
X56600000Y-148500000D03*
X52500000Y-88900000D03*
X71200000Y-126900000D03*
X82200000Y-120200000D03*
X71300000Y-124200000D03*
X61900000Y-115800000D03*
X100108761Y-125021904D03*
X84500000Y-133000000D03*
X84500000Y-136200000D03*
X84500000Y-128600000D03*
X88800000Y-115500000D03*
X82374001Y-79100000D03*
X68000000Y-79000000D03*
X87700000Y-106700000D03*
X104400000Y-112000000D03*
X84600000Y-84000000D03*
X84600000Y-87500000D03*
X84500000Y-79400000D03*
X96300000Y-69200000D03*
X84524500Y-74900000D03*
X55700000Y-122700000D03*
X57800000Y-73800000D03*
X84600000Y-123200000D03*
X82374001Y-87500000D03*
X74800000Y-87400000D03*
X77500000Y-119100000D03*
X81400000Y-119200000D03*
X54200000Y-90300000D03*
X55300000Y-82400000D03*
X76724500Y-81560742D03*
X84600000Y-81600000D03*
X68424500Y-107500000D03*
X72900000Y-107800000D03*
X98900000Y-103000000D03*
M02*
