%TF.GenerationSoftware,KiCad,Pcbnew,(6.0.8)*%
%TF.CreationDate,2023-01-26T15:40:28+00:00*%
%TF.ProjectId,Quadraphone,51756164-7261-4706-986f-6e652e6b6963,rev?*%
%TF.SameCoordinates,Original*%
%TF.FileFunction,Legend,Bot*%
%TF.FilePolarity,Positive*%
%FSLAX46Y46*%
G04 Gerber Fmt 4.6, Leading zero omitted, Abs format (unit mm)*
G04 Created by KiCad (PCBNEW (6.0.8)) date 2023-01-26 15:40:28*
%MOMM*%
%LPD*%
G01*
G04 APERTURE LIST*
%ADD10C,0.150000*%
%ADD11C,0.120000*%
%ADD12C,0.100000*%
%ADD13C,2.000000*%
%ADD14C,1.440000*%
%ADD15R,1.700000X1.700000*%
%ADD16C,1.700000*%
%ADD17O,1.700000X1.700000*%
%ADD18C,0.900000*%
%ADD19C,0.800000*%
%ADD20C,1.000000*%
G04 APERTURE END LIST*
D10*
%TO.C,J4*%
X107433333Y-116922380D02*
X107433333Y-117636666D01*
X107480952Y-117779523D01*
X107576190Y-117874761D01*
X107719047Y-117922380D01*
X107814285Y-117922380D01*
X106528571Y-117255714D02*
X106528571Y-117922380D01*
X106766666Y-116874761D02*
X107004761Y-117589047D01*
X106385714Y-117589047D01*
%TO.C,J3*%
X53133333Y-117122380D02*
X53133333Y-117836666D01*
X53180952Y-117979523D01*
X53276190Y-118074761D01*
X53419047Y-118122380D01*
X53514285Y-118122380D01*
X52752380Y-117122380D02*
X52133333Y-117122380D01*
X52466666Y-117503333D01*
X52323809Y-117503333D01*
X52228571Y-117550952D01*
X52180952Y-117598571D01*
X52133333Y-117693809D01*
X52133333Y-117931904D01*
X52180952Y-118027142D01*
X52228571Y-118074761D01*
X52323809Y-118122380D01*
X52609523Y-118122380D01*
X52704761Y-118074761D01*
X52752380Y-118027142D01*
%TO.C,J2*%
X107764583Y-59852380D02*
X107764583Y-60566666D01*
X107812202Y-60709523D01*
X107907440Y-60804761D01*
X108050297Y-60852380D01*
X108145535Y-60852380D01*
X107336011Y-59947619D02*
X107288392Y-59900000D01*
X107193154Y-59852380D01*
X106955059Y-59852380D01*
X106859821Y-59900000D01*
X106812202Y-59947619D01*
X106764583Y-60042857D01*
X106764583Y-60138095D01*
X106812202Y-60280952D01*
X107383630Y-60852380D01*
X106764583Y-60852380D01*
%TO.C,J1*%
X53133333Y-87452380D02*
X53133333Y-88166666D01*
X53180952Y-88309523D01*
X53276190Y-88404761D01*
X53419047Y-88452380D01*
X53514285Y-88452380D01*
X52133333Y-88452380D02*
X52704761Y-88452380D01*
X52419047Y-88452380D02*
X52419047Y-87452380D01*
X52514285Y-87595238D01*
X52609523Y-87690476D01*
X52704761Y-87738095D01*
D11*
%TO.C,J4*%
X108430000Y-118470000D02*
X107100000Y-118470000D01*
X108430000Y-121070000D02*
X105770000Y-121070000D01*
X108430000Y-121070000D02*
X108430000Y-143990000D01*
X108430000Y-119800000D02*
X108430000Y-118470000D01*
X108430000Y-143990000D02*
X105770000Y-143990000D01*
X105770000Y-121070000D02*
X105770000Y-143990000D01*
%TO.C,J3*%
X54130000Y-121270000D02*
X51470000Y-121270000D01*
X54130000Y-120000000D02*
X54130000Y-118670000D01*
X54130000Y-144190000D02*
X51470000Y-144190000D01*
X54130000Y-121270000D02*
X54130000Y-144190000D01*
X51470000Y-121270000D02*
X51470000Y-144190000D01*
X54130000Y-118670000D02*
X52800000Y-118670000D01*
%TO.C,J2*%
X108430000Y-87190000D02*
X105770000Y-87190000D01*
X105770000Y-64270000D02*
X105770000Y-87190000D01*
X108430000Y-64270000D02*
X105770000Y-64270000D01*
X108430000Y-63000000D02*
X108430000Y-61670000D01*
X108430000Y-61670000D02*
X107100000Y-61670000D01*
X108430000Y-64270000D02*
X108430000Y-87190000D01*
%TO.C,J1*%
X51470000Y-64270000D02*
X51470000Y-87190000D01*
X54130000Y-64270000D02*
X54130000Y-87190000D01*
X54130000Y-64270000D02*
X51470000Y-64270000D01*
X54130000Y-63000000D02*
X54130000Y-61670000D01*
X54130000Y-61670000D02*
X52800000Y-61670000D01*
X54130000Y-87190000D02*
X51470000Y-87190000D01*
%TD*%
%LPC*%
%TO.C,FID1*%
G36*
X60200000Y-108900000D02*
G01*
X52200000Y-108900000D01*
X52200000Y-106900000D01*
X60200000Y-106900000D01*
X60200000Y-108900000D01*
G37*
D12*
X60200000Y-108900000D02*
X52200000Y-108900000D01*
X52200000Y-106900000D01*
X60200000Y-106900000D01*
X60200000Y-108900000D01*
%TD*%
D13*
%TO.C,TP6*%
X52800000Y-58400000D03*
%TD*%
D14*
%TO.C,HF_Track_Trim3*%
X68500000Y-146100000D03*
X71040000Y-143560000D03*
X73580000Y-146100000D03*
%TD*%
%TO.C,HF_Track_Trim1*%
X68500000Y-97200000D03*
X71040000Y-94660000D03*
X73580000Y-97200000D03*
%TD*%
%TO.C,Base_Freq_Trim4*%
X86400000Y-146100000D03*
X88940000Y-143560000D03*
X91480000Y-146100000D03*
%TD*%
%TO.C,Expo_Trim2*%
X102800000Y-76200000D03*
X100260000Y-73660000D03*
X102800000Y-71120000D03*
%TD*%
D13*
%TO.C,TP7*%
X52900000Y-103700000D03*
%TD*%
D14*
%TO.C,Base_Freq_Trim1*%
X59500000Y-97200000D03*
X62040000Y-94660000D03*
X64580000Y-97200000D03*
%TD*%
%TO.C,Expo_Trim3*%
X75900000Y-125100000D03*
X73360000Y-122560000D03*
X75900000Y-120020000D03*
%TD*%
D13*
%TO.C,TP5*%
X107600000Y-103600000D03*
%TD*%
D14*
%TO.C,Expo_Trim4*%
X102800000Y-125100000D03*
X100260000Y-122560000D03*
X102800000Y-120020000D03*
%TD*%
D13*
%TO.C,TP2*%
X107600000Y-95000000D03*
%TD*%
%TO.C,TP4*%
X80000000Y-143600000D03*
%TD*%
D14*
%TO.C,Base_Freq_Trim2*%
X86400000Y-97200000D03*
X88940000Y-94660000D03*
X91480000Y-97200000D03*
%TD*%
%TO.C,Expo_Trim1*%
X75900000Y-76200000D03*
X73360000Y-73660000D03*
X75900000Y-71120000D03*
%TD*%
%TO.C,Base_Freq_Trim3*%
X59500000Y-146100000D03*
X62040000Y-143560000D03*
X64580000Y-146100000D03*
%TD*%
D13*
%TO.C,TP3*%
X107600000Y-99200000D03*
%TD*%
D14*
%TO.C,HF_Track_Trim2*%
X95400000Y-97200000D03*
X97940000Y-94660000D03*
X100480000Y-97200000D03*
%TD*%
%TO.C,HF_Track_Trim4*%
X95400000Y-146100000D03*
X97940000Y-143560000D03*
X100480000Y-146100000D03*
%TD*%
D15*
%TO.C,J5*%
X74200000Y-56700000D03*
D16*
X74200000Y-54160000D03*
X76740000Y-56700000D03*
X76740000Y-54160000D03*
X79280000Y-56700000D03*
X79280000Y-54160000D03*
X81820000Y-56700000D03*
X81820000Y-54160000D03*
X84360000Y-56700000D03*
X84360000Y-54160000D03*
%TD*%
D13*
%TO.C,TP1*%
X52900000Y-99300000D03*
%TD*%
D15*
%TO.C,J4*%
X107100000Y-119800000D03*
D17*
X107100000Y-122340000D03*
X107100000Y-124880000D03*
X107100000Y-127420000D03*
X107100000Y-129960000D03*
X107100000Y-132500000D03*
X107100000Y-135040000D03*
X107100000Y-137580000D03*
X107100000Y-140120000D03*
X107100000Y-142660000D03*
%TD*%
D15*
%TO.C,J3*%
X52800000Y-120000000D03*
D17*
X52800000Y-122540000D03*
X52800000Y-125080000D03*
X52800000Y-127620000D03*
X52800000Y-130160000D03*
X52800000Y-132700000D03*
X52800000Y-135240000D03*
X52800000Y-137780000D03*
X52800000Y-140320000D03*
X52800000Y-142860000D03*
%TD*%
D15*
%TO.C,J2*%
X107100000Y-63000000D03*
D17*
X107100000Y-65540000D03*
X107100000Y-68080000D03*
X107100000Y-70620000D03*
X107100000Y-73160000D03*
X107100000Y-75700000D03*
X107100000Y-78240000D03*
X107100000Y-80780000D03*
X107100000Y-83320000D03*
X107100000Y-85860000D03*
%TD*%
D15*
%TO.C,J1*%
X52800000Y-63000000D03*
D17*
X52800000Y-65540000D03*
X52800000Y-68080000D03*
X52800000Y-70620000D03*
X52800000Y-73160000D03*
X52800000Y-75700000D03*
X52800000Y-78240000D03*
X52800000Y-80780000D03*
X52800000Y-83320000D03*
X52800000Y-85860000D03*
%TD*%
D18*
X67000000Y-83100000D03*
X101800000Y-83000000D03*
X94200000Y-101000000D03*
X70100000Y-131700000D03*
X97300000Y-131200000D03*
D19*
X67800000Y-101000000D03*
D18*
X74200000Y-133000000D03*
D20*
X65600000Y-118200000D03*
X88600000Y-68800000D03*
X61700000Y-68700000D03*
D19*
X62100000Y-118200000D03*
D20*
X88600000Y-117500000D03*
X61600000Y-76800000D03*
X86300000Y-108400000D03*
X70100000Y-80200000D03*
X70100000Y-129100000D03*
X97512500Y-109300000D03*
X89000000Y-126700000D03*
X95500000Y-79100000D03*
X95600000Y-128300000D03*
X88700000Y-77200000D03*
X106268750Y-58600000D03*
X92400000Y-104000000D03*
X61400000Y-125700000D03*
X61900000Y-87800000D03*
X97300000Y-111900000D03*
X62000000Y-136800000D03*
X70600000Y-111600000D03*
X88900000Y-87800000D03*
X86500000Y-61500000D03*
X88900000Y-136900000D03*
D19*
X78300000Y-103100000D03*
X74200000Y-85200000D03*
X78575500Y-85300000D03*
X101400000Y-135437738D03*
X75100000Y-135324500D03*
X101400000Y-85600000D03*
X55300000Y-90300000D03*
X57500000Y-83300000D03*
X78000000Y-83100000D03*
X88800000Y-82800000D03*
D18*
X84400000Y-70200000D03*
X74300000Y-65300000D03*
X74010756Y-114789244D03*
X101300000Y-114200000D03*
X101200000Y-65200000D03*
X57499312Y-120899312D03*
X84600000Y-120400000D03*
D19*
X75584276Y-112724500D03*
X79075500Y-116179791D03*
X61100000Y-109900000D03*
X63300000Y-126200000D03*
X88800000Y-124300000D03*
X91300000Y-75400000D03*
X78300000Y-121500000D03*
X64652451Y-75227852D03*
X77900000Y-74100000D03*
X64200000Y-110800000D03*
X64600000Y-125000000D03*
X91300000Y-107100000D03*
X79300000Y-70100000D03*
X94700000Y-121700000D03*
X70900000Y-71900000D03*
X70185350Y-121575500D03*
X97800000Y-72300000D03*
X79300000Y-105098062D03*
X97200000Y-122300000D03*
X67400000Y-122300000D03*
X77900000Y-106700000D03*
X97125652Y-73687174D03*
X70600000Y-73400000D03*
X80100000Y-72200000D03*
X61900000Y-74700000D03*
X88800000Y-123200000D03*
X88921767Y-74824500D03*
X80875500Y-118243082D03*
X82300000Y-75900000D03*
X64481868Y-123614805D03*
X57800000Y-77700000D03*
X84500000Y-126600000D03*
X54800000Y-119700000D03*
X84500000Y-77000000D03*
X57500000Y-86300000D03*
X57600000Y-134600000D03*
X84600000Y-86242898D03*
X82700000Y-133900000D03*
X84600000Y-88900000D03*
X59500000Y-88200000D03*
X56600000Y-148500000D03*
X52500000Y-88900000D03*
X71200000Y-126900000D03*
X82200000Y-120200000D03*
X71300000Y-124200000D03*
X61900000Y-115800000D03*
X100108761Y-125021904D03*
X84500000Y-133000000D03*
X84500000Y-136200000D03*
X84500000Y-128600000D03*
X88800000Y-115500000D03*
X82374001Y-79100000D03*
X69000000Y-78700000D03*
X87700000Y-106700000D03*
X104400000Y-112000000D03*
X84600000Y-84000000D03*
X84600000Y-87500000D03*
X84500000Y-79400000D03*
X96300000Y-69200000D03*
X84524500Y-74900000D03*
X55700000Y-122700000D03*
X57800000Y-73800000D03*
X84600000Y-123200000D03*
X82374001Y-87500000D03*
X74800000Y-87400000D03*
X77500000Y-119100000D03*
X81400000Y-119200000D03*
X54200000Y-90300000D03*
X55300000Y-82400000D03*
X76724500Y-81560742D03*
X84600000Y-81600000D03*
X68424500Y-107500000D03*
X74000000Y-108500000D03*
M02*
