%TF.GenerationSoftware,KiCad,Pcbnew,7.0.7*%
%TF.CreationDate,2023-08-17T15:14:34+01:00*%
%TF.ProjectId,Quadraphone_Components,51756164-7261-4706-986f-6e655f436f6d,rev?*%
%TF.SameCoordinates,Original*%
%TF.FileFunction,Legend,Bot*%
%TF.FilePolarity,Positive*%
%FSLAX46Y46*%
G04 Gerber Fmt 4.6, Leading zero omitted, Abs format (unit mm)*
G04 Created by KiCad (PCBNEW 7.0.7) date 2023-08-17 15:14:34*
%MOMM*%
%LPD*%
G01*
G04 APERTURE LIST*
%ADD10C,0.120000*%
%ADD11C,0.100000*%
%ADD12C,2.000000*%
%ADD13C,1.440000*%
%ADD14R,1.700000X1.700000*%
%ADD15C,1.700000*%
%ADD16O,1.700000X1.700000*%
G04 APERTURE END LIST*
D10*
%TO.C,J4*%
X108430000Y-143990000D02*
X105770000Y-143990000D01*
X108430000Y-121070000D02*
X108430000Y-143990000D01*
X108430000Y-121070000D02*
X105770000Y-121070000D01*
X108430000Y-119800000D02*
X108430000Y-118470000D01*
X108430000Y-118470000D02*
X107100000Y-118470000D01*
X105770000Y-121070000D02*
X105770000Y-143990000D01*
%TO.C,J3*%
X54130000Y-144190000D02*
X51470000Y-144190000D01*
X54130000Y-121270000D02*
X54130000Y-144190000D01*
X54130000Y-121270000D02*
X51470000Y-121270000D01*
X54130000Y-120000000D02*
X54130000Y-118670000D01*
X54130000Y-118670000D02*
X52800000Y-118670000D01*
X51470000Y-121270000D02*
X51470000Y-144190000D01*
%TO.C,J2*%
X108430000Y-87190000D02*
X105770000Y-87190000D01*
X108430000Y-64270000D02*
X108430000Y-87190000D01*
X108430000Y-64270000D02*
X105770000Y-64270000D01*
X108430000Y-63000000D02*
X108430000Y-61670000D01*
X108430000Y-61670000D02*
X107100000Y-61670000D01*
X105770000Y-64270000D02*
X105770000Y-87190000D01*
%TO.C,J1*%
X54130000Y-87190000D02*
X51470000Y-87190000D01*
X54130000Y-64270000D02*
X54130000Y-87190000D01*
X54130000Y-64270000D02*
X51470000Y-64270000D01*
X54130000Y-63000000D02*
X54130000Y-61670000D01*
X54130000Y-61670000D02*
X52800000Y-61670000D01*
X51470000Y-64270000D02*
X51470000Y-87190000D01*
%TD*%
%LPC*%
%TO.C,FID1*%
D11*
X109600000Y-149400000D02*
X101600000Y-149400000D01*
X101600000Y-147400000D01*
X109600000Y-147400000D01*
X109600000Y-149400000D01*
G36*
X109600000Y-149400000D02*
G01*
X101600000Y-149400000D01*
X101600000Y-147400000D01*
X109600000Y-147400000D01*
X109600000Y-149400000D01*
G37*
%TD*%
D12*
%TO.C,TP6*%
X52800000Y-58400000D03*
%TD*%
D13*
%TO.C,HF_Track_Trim3*%
X68500000Y-146100000D03*
X71040000Y-143560000D03*
X73580000Y-146100000D03*
%TD*%
%TO.C,HF_Track_Trim1*%
X68500000Y-97200000D03*
X71040000Y-94660000D03*
X73580000Y-97200000D03*
%TD*%
%TO.C,Base_Freq_Trim4*%
X86400000Y-146100000D03*
X88940000Y-143560000D03*
X91480000Y-146100000D03*
%TD*%
%TO.C,Expo_Trim2*%
X102700000Y-75600000D03*
X100160000Y-73060000D03*
X102700000Y-70520000D03*
%TD*%
D12*
%TO.C,TP7*%
X52900000Y-103700000D03*
%TD*%
D13*
%TO.C,Base_Freq_Trim1*%
X59500000Y-97200000D03*
X62040000Y-94660000D03*
X64580000Y-97200000D03*
%TD*%
%TO.C,Expo_Trim3*%
X75900000Y-124425000D03*
X73360000Y-121885000D03*
X75900000Y-119345000D03*
%TD*%
D12*
%TO.C,TP5*%
X107600000Y-108500000D03*
%TD*%
D13*
%TO.C,Expo_Trim4*%
X102800000Y-124425000D03*
X100260000Y-121885000D03*
X102800000Y-119345000D03*
%TD*%
D12*
%TO.C,TP8*%
X107600000Y-103700000D03*
%TD*%
%TO.C,TP2*%
X107600000Y-94700000D03*
%TD*%
%TO.C,TP4*%
X80000000Y-143600000D03*
%TD*%
D13*
%TO.C,Base_Freq_Trim2*%
X86400000Y-97200000D03*
X88940000Y-94660000D03*
X91480000Y-97200000D03*
%TD*%
%TO.C,Expo_Trim1*%
X75900000Y-75600000D03*
X73360000Y-73060000D03*
X75900000Y-70520000D03*
%TD*%
%TO.C,Base_Freq_Trim3*%
X59500000Y-146100000D03*
X62040000Y-143560000D03*
X64580000Y-146100000D03*
%TD*%
D12*
%TO.C,TP3*%
X107600000Y-99200000D03*
%TD*%
D13*
%TO.C,HF_Track_Trim2*%
X95400000Y-97200000D03*
X97940000Y-94660000D03*
X100480000Y-97200000D03*
%TD*%
%TO.C,HF_Track_Trim4*%
X95400000Y-146100000D03*
X97940000Y-143560000D03*
X100480000Y-146100000D03*
%TD*%
D14*
%TO.C,J5*%
X74200000Y-56700000D03*
D15*
X74200000Y-54160000D03*
X76740000Y-56700000D03*
X76740000Y-54160000D03*
X79280000Y-56700000D03*
X79280000Y-54160000D03*
X81820000Y-56700000D03*
X81820000Y-54160000D03*
X84360000Y-56700000D03*
X84360000Y-54160000D03*
%TD*%
D12*
%TO.C,TP1*%
X52900000Y-99300000D03*
%TD*%
D14*
%TO.C,J4*%
X107100000Y-119800000D03*
D16*
X107100000Y-122340000D03*
X107100000Y-124880000D03*
X107100000Y-127420000D03*
X107100000Y-129960000D03*
X107100000Y-132500000D03*
X107100000Y-135040000D03*
X107100000Y-137580000D03*
X107100000Y-140120000D03*
X107100000Y-142660000D03*
%TD*%
D14*
%TO.C,J3*%
X52800000Y-120000000D03*
D16*
X52800000Y-122540000D03*
X52800000Y-125080000D03*
X52800000Y-127620000D03*
X52800000Y-130160000D03*
X52800000Y-132700000D03*
X52800000Y-135240000D03*
X52800000Y-137780000D03*
X52800000Y-140320000D03*
X52800000Y-142860000D03*
%TD*%
D14*
%TO.C,J2*%
X107100000Y-63000000D03*
D16*
X107100000Y-65540000D03*
X107100000Y-68080000D03*
X107100000Y-70620000D03*
X107100000Y-73160000D03*
X107100000Y-75700000D03*
X107100000Y-78240000D03*
X107100000Y-80780000D03*
X107100000Y-83320000D03*
X107100000Y-85860000D03*
%TD*%
D14*
%TO.C,J1*%
X52800000Y-63000000D03*
D16*
X52800000Y-65540000D03*
X52800000Y-68080000D03*
X52800000Y-70620000D03*
X52800000Y-73160000D03*
X52800000Y-75700000D03*
X52800000Y-78240000D03*
X52800000Y-80780000D03*
X52800000Y-83320000D03*
X52800000Y-85860000D03*
%TD*%
%LPD*%
M02*
