%TF.GenerationSoftware,KiCad,Pcbnew,7.0.6*%
%TF.CreationDate,2023-08-14T18:27:38+01:00*%
%TF.ProjectId,Quadraphone_Components,51756164-7261-4706-986f-6e655f436f6d,rev?*%
%TF.SameCoordinates,Original*%
%TF.FileFunction,Paste,Top*%
%TF.FilePolarity,Positive*%
%FSLAX46Y46*%
G04 Gerber Fmt 4.6, Leading zero omitted, Abs format (unit mm)*
G04 Created by KiCad (PCBNEW 7.0.6) date 2023-08-14 18:27:38*
%MOMM*%
%LPD*%
G01*
G04 APERTURE LIST*
G04 Aperture macros list*
%AMRoundRect*
0 Rectangle with rounded corners*
0 $1 Rounding radius*
0 $2 $3 $4 $5 $6 $7 $8 $9 X,Y pos of 4 corners*
0 Add a 4 corners polygon primitive as box body*
4,1,4,$2,$3,$4,$5,$6,$7,$8,$9,$2,$3,0*
0 Add four circle primitives for the rounded corners*
1,1,$1+$1,$2,$3*
1,1,$1+$1,$4,$5*
1,1,$1+$1,$6,$7*
1,1,$1+$1,$8,$9*
0 Add four rect primitives between the rounded corners*
20,1,$1+$1,$2,$3,$4,$5,0*
20,1,$1+$1,$4,$5,$6,$7,0*
20,1,$1+$1,$6,$7,$8,$9,0*
20,1,$1+$1,$8,$9,$2,$3,0*%
G04 Aperture macros list end*
%ADD10RoundRect,0.225000X0.225000X0.375000X-0.225000X0.375000X-0.225000X-0.375000X0.225000X-0.375000X0*%
%ADD11RoundRect,0.225000X0.375000X-0.225000X0.375000X0.225000X-0.375000X0.225000X-0.375000X-0.225000X0*%
%ADD12RoundRect,0.237500X0.300000X0.237500X-0.300000X0.237500X-0.300000X-0.237500X0.300000X-0.237500X0*%
%ADD13RoundRect,0.218750X-0.218750X-0.256250X0.218750X-0.256250X0.218750X0.256250X-0.218750X0.256250X0*%
%ADD14RoundRect,0.200000X-0.200000X-0.275000X0.200000X-0.275000X0.200000X0.275000X-0.200000X0.275000X0*%
%ADD15RoundRect,0.237500X-0.300000X-0.237500X0.300000X-0.237500X0.300000X0.237500X-0.300000X0.237500X0*%
%ADD16RoundRect,0.200000X0.200000X0.275000X-0.200000X0.275000X-0.200000X-0.275000X0.200000X-0.275000X0*%
%ADD17RoundRect,0.150000X0.825000X0.150000X-0.825000X0.150000X-0.825000X-0.150000X0.825000X-0.150000X0*%
%ADD18RoundRect,0.150000X0.587500X0.150000X-0.587500X0.150000X-0.587500X-0.150000X0.587500X-0.150000X0*%
%ADD19RoundRect,0.150000X-0.150000X0.825000X-0.150000X-0.825000X0.150000X-0.825000X0.150000X0.825000X0*%
%ADD20RoundRect,0.100000X0.637500X0.100000X-0.637500X0.100000X-0.637500X-0.100000X0.637500X-0.100000X0*%
%ADD21RoundRect,0.250000X0.550000X-1.050000X0.550000X1.050000X-0.550000X1.050000X-0.550000X-1.050000X0*%
%ADD22RoundRect,0.150000X-0.587500X-0.150000X0.587500X-0.150000X0.587500X0.150000X-0.587500X0.150000X0*%
%ADD23RoundRect,0.150000X-0.825000X-0.150000X0.825000X-0.150000X0.825000X0.150000X-0.825000X0.150000X0*%
%ADD24RoundRect,0.150000X0.150000X-0.587500X0.150000X0.587500X-0.150000X0.587500X-0.150000X-0.587500X0*%
%ADD25R,1.500000X2.000000*%
%ADD26R,3.800000X2.000000*%
G04 APERTURE END LIST*
D10*
%TO.C,D1*%
X95118750Y-59700000D03*
X91818750Y-59700000D03*
%TD*%
D11*
%TO.C,D2*%
X65500000Y-56250000D03*
X65500000Y-52950000D03*
%TD*%
D12*
%TO.C,C40*%
X87362500Y-117400000D03*
X85637500Y-117400000D03*
%TD*%
D13*
%TO.C,D3*%
X71712500Y-87300000D03*
X73287500Y-87300000D03*
%TD*%
D14*
%TO.C,R2*%
X75375000Y-106700000D03*
X77025000Y-106700000D03*
%TD*%
D12*
%TO.C,C31*%
X73362500Y-141000000D03*
X71637500Y-141000000D03*
%TD*%
%TO.C,C4*%
X73362500Y-77700000D03*
X71637500Y-77700000D03*
%TD*%
D15*
%TO.C,C16*%
X98537500Y-85700000D03*
X100262500Y-85700000D03*
%TD*%
D16*
%TO.C,R82*%
X60425000Y-131400000D03*
X58775000Y-131400000D03*
%TD*%
D14*
%TO.C,R8*%
X71675000Y-82500000D03*
X73325000Y-82500000D03*
%TD*%
D16*
%TO.C,R95*%
X60425000Y-119800000D03*
X58775000Y-119800000D03*
%TD*%
%TO.C,R43*%
X87325000Y-92100000D03*
X85675000Y-92100000D03*
%TD*%
%TO.C,R4*%
X95925000Y-107100000D03*
X94275000Y-107100000D03*
%TD*%
%TO.C,R13*%
X87325000Y-128200000D03*
X85675000Y-128200000D03*
%TD*%
D17*
%TO.C,U18*%
X95475000Y-116805000D03*
X95475000Y-115535000D03*
X95475000Y-114265000D03*
X95475000Y-112995000D03*
X90525000Y-112995000D03*
X90525000Y-114265000D03*
X90525000Y-115535000D03*
X90525000Y-116805000D03*
%TD*%
D18*
%TO.C,U14*%
X103437500Y-102450000D03*
X103437500Y-100550000D03*
X101562500Y-101500000D03*
%TD*%
D12*
%TO.C,C9*%
X77062500Y-103500000D03*
X75337500Y-103500000D03*
%TD*%
D19*
%TO.C,U5*%
X69610000Y-104025000D03*
X68340000Y-104025000D03*
X67070000Y-104025000D03*
X65800000Y-104025000D03*
X64530000Y-104025000D03*
X63260000Y-104025000D03*
X61990000Y-104025000D03*
X61990000Y-108975000D03*
X63260000Y-108975000D03*
X64530000Y-108975000D03*
X65800000Y-108975000D03*
X67070000Y-108975000D03*
X68340000Y-108975000D03*
X69610000Y-108975000D03*
%TD*%
D17*
%TO.C,U3*%
X103375000Y-108405000D03*
X103375000Y-107135000D03*
X103375000Y-105865000D03*
X103375000Y-104595000D03*
X98425000Y-104595000D03*
X98425000Y-105865000D03*
X98425000Y-107135000D03*
X98425000Y-108405000D03*
%TD*%
D14*
%TO.C,R39*%
X85675000Y-85700000D03*
X87325000Y-85700000D03*
%TD*%
%TO.C,R22*%
X58775000Y-88900000D03*
X60425000Y-88900000D03*
%TD*%
%TO.C,R64*%
X85675000Y-137800000D03*
X87325000Y-137800000D03*
%TD*%
D12*
%TO.C,C33*%
X60462500Y-75900000D03*
X58737500Y-75900000D03*
%TD*%
D16*
%TO.C,R9*%
X73325000Y-88900000D03*
X71675000Y-88900000D03*
%TD*%
D14*
%TO.C,R44*%
X98575000Y-66900000D03*
X100225000Y-66900000D03*
%TD*%
D16*
%TO.C,R11*%
X60425000Y-72500000D03*
X58775000Y-72500000D03*
%TD*%
D13*
%TO.C,D5*%
X98612500Y-136200000D03*
X100187500Y-136200000D03*
%TD*%
D20*
%TO.C,U15*%
X68962500Y-124950000D03*
X68962500Y-124300000D03*
X68962500Y-123650000D03*
X68962500Y-123000000D03*
X68962500Y-122350000D03*
X68962500Y-121700000D03*
X68962500Y-121050000D03*
X63237500Y-121050000D03*
X63237500Y-121700000D03*
X63237500Y-122350000D03*
X63237500Y-123000000D03*
X63237500Y-123650000D03*
X63237500Y-124300000D03*
X63237500Y-124950000D03*
%TD*%
D14*
%TO.C,R21*%
X58775000Y-63700000D03*
X60425000Y-63700000D03*
%TD*%
D21*
%TO.C,C11*%
X93400000Y-56500000D03*
X93400000Y-52900000D03*
%TD*%
D14*
%TO.C,R29*%
X58775000Y-65300000D03*
X60425000Y-65300000D03*
%TD*%
%TO.C,R91*%
X71675000Y-117400000D03*
X73325000Y-117400000D03*
%TD*%
D15*
%TO.C,C22*%
X98537500Y-134600000D03*
X100262500Y-134600000D03*
%TD*%
D16*
%TO.C,R77*%
X60425000Y-121400000D03*
X58775000Y-121400000D03*
%TD*%
D14*
%TO.C,R34*%
X85675000Y-87300000D03*
X87325000Y-87300000D03*
%TD*%
%TO.C,R18*%
X58775000Y-87300000D03*
X60425000Y-87300000D03*
%TD*%
%TO.C,R92*%
X58775000Y-112600000D03*
X60425000Y-112600000D03*
%TD*%
D17*
%TO.C,U13*%
X95475000Y-67905000D03*
X95475000Y-66635000D03*
X95475000Y-65365000D03*
X95475000Y-64095000D03*
X90525000Y-64095000D03*
X90525000Y-65365000D03*
X90525000Y-66635000D03*
X90525000Y-67905000D03*
%TD*%
D12*
%TO.C,C35*%
X87362500Y-75900000D03*
X85637500Y-75900000D03*
%TD*%
D15*
%TO.C,C24*%
X98537500Y-112600000D03*
X100262500Y-112600000D03*
%TD*%
D14*
%TO.C,R7*%
X94275000Y-103900000D03*
X95925000Y-103900000D03*
%TD*%
D16*
%TO.C,R35*%
X87325000Y-77700000D03*
X85675000Y-77700000D03*
%TD*%
D12*
%TO.C,C29*%
X73362500Y-139400000D03*
X71637500Y-139400000D03*
%TD*%
%TO.C,C19*%
X100262500Y-92100000D03*
X98537500Y-92100000D03*
%TD*%
D14*
%TO.C,R73*%
X98575000Y-114200000D03*
X100225000Y-114200000D03*
%TD*%
D17*
%TO.C,U16*%
X68575000Y-116805000D03*
X68575000Y-115535000D03*
X68575000Y-114265000D03*
X68575000Y-112995000D03*
X63625000Y-112995000D03*
X63625000Y-114265000D03*
X63625000Y-115535000D03*
X63625000Y-116805000D03*
%TD*%
D16*
%TO.C,R31*%
X87325000Y-72500000D03*
X85675000Y-72500000D03*
%TD*%
%TO.C,R75*%
X100225000Y-129800000D03*
X98575000Y-129800000D03*
%TD*%
%TO.C,R94*%
X60425000Y-139400000D03*
X58775000Y-139400000D03*
%TD*%
%TO.C,R76*%
X100225000Y-133000000D03*
X98575000Y-133000000D03*
%TD*%
D12*
%TO.C,C6*%
X73362500Y-90500000D03*
X71637500Y-90500000D03*
%TD*%
D16*
%TO.C,R24*%
X73325000Y-80900000D03*
X71675000Y-80900000D03*
%TD*%
D14*
%TO.C,R32*%
X85675000Y-84100000D03*
X87325000Y-84100000D03*
%TD*%
D16*
%TO.C,R63*%
X87325000Y-123000000D03*
X85675000Y-123000000D03*
%TD*%
D15*
%TO.C,C26*%
X58737500Y-129800000D03*
X60462500Y-129800000D03*
%TD*%
D12*
%TO.C,C25*%
X100262500Y-141000000D03*
X98537500Y-141000000D03*
%TD*%
D14*
%TO.C,R74*%
X85675000Y-114200000D03*
X87325000Y-114200000D03*
%TD*%
D20*
%TO.C,U11*%
X95862500Y-124950000D03*
X95862500Y-124300000D03*
X95862500Y-123650000D03*
X95862500Y-123000000D03*
X95862500Y-122350000D03*
X95862500Y-121700000D03*
X95862500Y-121050000D03*
X90137500Y-121050000D03*
X90137500Y-121700000D03*
X90137500Y-122350000D03*
X90137500Y-123000000D03*
X90137500Y-123650000D03*
X90137500Y-124300000D03*
X90137500Y-124950000D03*
%TD*%
D16*
%TO.C,R66*%
X87325000Y-141000000D03*
X85675000Y-141000000D03*
%TD*%
%TO.C,R89*%
X60425000Y-141000000D03*
X58775000Y-141000000D03*
%TD*%
D12*
%TO.C,C27*%
X73362500Y-126600000D03*
X71637500Y-126600000D03*
%TD*%
D14*
%TO.C,R68*%
X98575000Y-117400000D03*
X100225000Y-117400000D03*
%TD*%
%TO.C,R90*%
X71675000Y-115800000D03*
X73325000Y-115800000D03*
%TD*%
%TO.C,R17*%
X58775000Y-85700000D03*
X60425000Y-85700000D03*
%TD*%
D21*
%TO.C,C12*%
X61100000Y-56600000D03*
X61100000Y-53000000D03*
%TD*%
D14*
%TO.C,R87*%
X58775000Y-137800000D03*
X60425000Y-137800000D03*
%TD*%
D12*
%TO.C,C36*%
X87362500Y-68500000D03*
X85637500Y-68500000D03*
%TD*%
%TO.C,C15*%
X100262500Y-77700000D03*
X98537500Y-77700000D03*
%TD*%
D14*
%TO.C,R62*%
X85675000Y-134600000D03*
X87325000Y-134600000D03*
%TD*%
D12*
%TO.C,C21*%
X100262500Y-126600000D03*
X98537500Y-126600000D03*
%TD*%
D16*
%TO.C,R52*%
X100225000Y-80900000D03*
X98575000Y-80900000D03*
%TD*%
%TO.C,R23*%
X60425000Y-92100000D03*
X58775000Y-92100000D03*
%TD*%
D12*
%TO.C,C1*%
X95962500Y-108700000D03*
X94237500Y-108700000D03*
%TD*%
%TO.C,C8*%
X73362500Y-92100000D03*
X71637500Y-92100000D03*
%TD*%
%TO.C,C39*%
X87362500Y-124800000D03*
X85637500Y-124800000D03*
%TD*%
D16*
%TO.C,R47*%
X87325000Y-66900000D03*
X85675000Y-66900000D03*
%TD*%
D22*
%TO.C,Q1*%
X56762500Y-103850000D03*
X56762500Y-105750000D03*
X58637500Y-104800000D03*
%TD*%
D14*
%TO.C,R38*%
X98575000Y-82500000D03*
X100225000Y-82500000D03*
%TD*%
D20*
%TO.C,U7*%
X95862500Y-76050000D03*
X95862500Y-75400000D03*
X95862500Y-74750000D03*
X95862500Y-74100000D03*
X95862500Y-73450000D03*
X95862500Y-72800000D03*
X95862500Y-72150000D03*
X90137500Y-72150000D03*
X90137500Y-72800000D03*
X90137500Y-73450000D03*
X90137500Y-74100000D03*
X90137500Y-74750000D03*
X90137500Y-75400000D03*
X90137500Y-76050000D03*
%TD*%
D16*
%TO.C,R100*%
X57425000Y-53200000D03*
X55775000Y-53200000D03*
%TD*%
D14*
%TO.C,R19*%
X71675000Y-66900000D03*
X73325000Y-66900000D03*
%TD*%
D15*
%TO.C,C41*%
X71637500Y-63700000D03*
X73362500Y-63700000D03*
%TD*%
D12*
%TO.C,C34*%
X60462500Y-68500000D03*
X58737500Y-68500000D03*
%TD*%
D13*
%TO.C,D4*%
X98612500Y-87300000D03*
X100187500Y-87300000D03*
%TD*%
D14*
%TO.C,R37*%
X58775000Y-84100000D03*
X60425000Y-84100000D03*
%TD*%
D16*
%TO.C,R60*%
X87325000Y-79300000D03*
X85675000Y-79300000D03*
%TD*%
D14*
%TO.C,R67*%
X98575000Y-115800000D03*
X100225000Y-115800000D03*
%TD*%
%TO.C,R45*%
X98575000Y-68500000D03*
X100225000Y-68500000D03*
%TD*%
D15*
%TO.C,C13*%
X58737500Y-80900000D03*
X60462500Y-80900000D03*
%TD*%
%TO.C,C10*%
X55737500Y-56200000D03*
X57462500Y-56200000D03*
%TD*%
D14*
%TO.C,R56*%
X98575000Y-128200000D03*
X100225000Y-128200000D03*
%TD*%
D16*
%TO.C,R25*%
X60425000Y-79300000D03*
X58775000Y-79300000D03*
%TD*%
%TO.C,R83*%
X60425000Y-128200000D03*
X58775000Y-128200000D03*
%TD*%
%TO.C,R88*%
X73325000Y-137800000D03*
X71675000Y-137800000D03*
%TD*%
%TO.C,R12*%
X60425000Y-77700000D03*
X58775000Y-77700000D03*
%TD*%
D14*
%TO.C,R10*%
X71675000Y-79300000D03*
X73325000Y-79300000D03*
%TD*%
D15*
%TO.C,C30*%
X71637500Y-112600000D03*
X73362500Y-112600000D03*
%TD*%
D14*
%TO.C,R69*%
X85675000Y-112600000D03*
X87325000Y-112600000D03*
%TD*%
D16*
%TO.C,R81*%
X60425000Y-126600000D03*
X58775000Y-126600000D03*
%TD*%
D14*
%TO.C,R61*%
X98575000Y-131400000D03*
X100225000Y-131400000D03*
%TD*%
D13*
%TO.C,D6*%
X71712500Y-136200000D03*
X73287500Y-136200000D03*
%TD*%
D14*
%TO.C,R79*%
X71675000Y-128200000D03*
X73325000Y-128200000D03*
%TD*%
%TO.C,R46*%
X85675000Y-63700000D03*
X87325000Y-63700000D03*
%TD*%
D16*
%TO.C,R36*%
X87325000Y-82500000D03*
X85675000Y-82500000D03*
%TD*%
%TO.C,R98*%
X73325000Y-131400000D03*
X71675000Y-131400000D03*
%TD*%
D23*
%TO.C,U22*%
X63625000Y-129155000D03*
X63625000Y-130425000D03*
X63625000Y-131695000D03*
X63625000Y-132965000D03*
X63625000Y-134235000D03*
X63625000Y-135505000D03*
X63625000Y-136775000D03*
X63625000Y-138045000D03*
X68575000Y-138045000D03*
X68575000Y-136775000D03*
X68575000Y-135505000D03*
X68575000Y-134235000D03*
X68575000Y-132965000D03*
X68575000Y-131695000D03*
X68575000Y-130425000D03*
X68575000Y-129155000D03*
%TD*%
D14*
%TO.C,R33*%
X98575000Y-79300000D03*
X100225000Y-79300000D03*
%TD*%
%TO.C,R41*%
X85675000Y-88900000D03*
X87325000Y-88900000D03*
%TD*%
D16*
%TO.C,R30*%
X73325000Y-84100000D03*
X71675000Y-84100000D03*
%TD*%
D23*
%TO.C,U17*%
X90525000Y-129155000D03*
X90525000Y-130425000D03*
X90525000Y-131695000D03*
X90525000Y-132965000D03*
X90525000Y-134235000D03*
X90525000Y-135505000D03*
X90525000Y-136775000D03*
X90525000Y-138045000D03*
X95475000Y-138045000D03*
X95475000Y-136775000D03*
X95475000Y-135505000D03*
X95475000Y-134235000D03*
X95475000Y-132965000D03*
X95475000Y-131695000D03*
X95475000Y-130425000D03*
X95475000Y-129155000D03*
%TD*%
D16*
%TO.C,R102*%
X58525000Y-107700000D03*
X56875000Y-107700000D03*
%TD*%
D14*
%TO.C,R84*%
X71675000Y-133000000D03*
X73325000Y-133000000D03*
%TD*%
D15*
%TO.C,C7*%
X94237500Y-105500000D03*
X95962500Y-105500000D03*
%TD*%
D16*
%TO.C,R48*%
X87325000Y-90500000D03*
X85675000Y-90500000D03*
%TD*%
D14*
%TO.C,R20*%
X71675000Y-68500000D03*
X73325000Y-68500000D03*
%TD*%
%TO.C,R50*%
X98575000Y-65300000D03*
X100225000Y-65300000D03*
%TD*%
%TO.C,R55*%
X85675000Y-133000000D03*
X87325000Y-133000000D03*
%TD*%
D12*
%TO.C,C17*%
X100262500Y-90500000D03*
X98537500Y-90500000D03*
%TD*%
%TO.C,C32*%
X66662500Y-101500000D03*
X64937500Y-101500000D03*
%TD*%
D24*
%TO.C,U4*%
X51850000Y-56037500D03*
X53750000Y-56037500D03*
X52800000Y-54162500D03*
%TD*%
D15*
%TO.C,C18*%
X98537500Y-63700000D03*
X100262500Y-63700000D03*
%TD*%
D12*
%TO.C,C37*%
X60462500Y-124800000D03*
X58737500Y-124800000D03*
%TD*%
D15*
%TO.C,C14*%
X85637500Y-80900000D03*
X87362500Y-80900000D03*
%TD*%
D14*
%TO.C,R85*%
X58775000Y-134600000D03*
X60425000Y-134600000D03*
%TD*%
D16*
%TO.C,R16*%
X60425000Y-90500000D03*
X58775000Y-90500000D03*
%TD*%
D21*
%TO.C,C3*%
X106268750Y-56500000D03*
X106268750Y-52900000D03*
%TD*%
D14*
%TO.C,R80*%
X58775000Y-136200000D03*
X60425000Y-136200000D03*
%TD*%
D16*
%TO.C,R72*%
X87325000Y-119800000D03*
X85675000Y-119800000D03*
%TD*%
%TO.C,R71*%
X87325000Y-139400000D03*
X85675000Y-139400000D03*
%TD*%
D12*
%TO.C,C23*%
X100262500Y-139400000D03*
X98537500Y-139400000D03*
%TD*%
D14*
%TO.C,R57*%
X85675000Y-136200000D03*
X87325000Y-136200000D03*
%TD*%
D20*
%TO.C,U6*%
X68962500Y-76050000D03*
X68962500Y-75400000D03*
X68962500Y-74750000D03*
X68962500Y-74100000D03*
X68962500Y-73450000D03*
X68962500Y-72800000D03*
X68962500Y-72150000D03*
X63237500Y-72150000D03*
X63237500Y-72800000D03*
X63237500Y-73450000D03*
X63237500Y-74100000D03*
X63237500Y-74750000D03*
X63237500Y-75400000D03*
X63237500Y-76050000D03*
%TD*%
D16*
%TO.C,R86*%
X60425000Y-123000000D03*
X58775000Y-123000000D03*
%TD*%
%TO.C,R99*%
X73325000Y-129800000D03*
X71675000Y-129800000D03*
%TD*%
%TO.C,R58*%
X87325000Y-126600000D03*
X85675000Y-126600000D03*
%TD*%
D20*
%TO.C,U8*%
X89162500Y-108450000D03*
X89162500Y-107800000D03*
X89162500Y-107150000D03*
X89162500Y-106500000D03*
X89162500Y-105850000D03*
X89162500Y-105200000D03*
X89162500Y-104550000D03*
X83437500Y-104550000D03*
X83437500Y-105200000D03*
X83437500Y-105850000D03*
X83437500Y-106500000D03*
X83437500Y-107150000D03*
X83437500Y-107800000D03*
X83437500Y-108450000D03*
%TD*%
D16*
%TO.C,R59*%
X87325000Y-131400000D03*
X85675000Y-131400000D03*
%TD*%
D17*
%TO.C,U10*%
X68575000Y-67905000D03*
X68575000Y-66635000D03*
X68575000Y-65365000D03*
X68575000Y-64095000D03*
X63625000Y-64095000D03*
X63625000Y-65365000D03*
X63625000Y-66635000D03*
X63625000Y-67905000D03*
%TD*%
D14*
%TO.C,R78*%
X58775000Y-133000000D03*
X60425000Y-133000000D03*
%TD*%
D15*
%TO.C,C5*%
X71637500Y-85700000D03*
X73362500Y-85700000D03*
%TD*%
D16*
%TO.C,R70*%
X87325000Y-115800000D03*
X85675000Y-115800000D03*
%TD*%
D15*
%TO.C,C20*%
X85637500Y-129800000D03*
X87362500Y-129800000D03*
%TD*%
D16*
%TO.C,R42*%
X100225000Y-88900000D03*
X98575000Y-88900000D03*
%TD*%
%TO.C,R54*%
X87325000Y-121400000D03*
X85675000Y-121400000D03*
%TD*%
%TO.C,R53*%
X100225000Y-84100000D03*
X98575000Y-84100000D03*
%TD*%
D23*
%TO.C,U9*%
X63625000Y-80255000D03*
X63625000Y-81525000D03*
X63625000Y-82795000D03*
X63625000Y-84065000D03*
X63625000Y-85335000D03*
X63625000Y-86605000D03*
X63625000Y-87875000D03*
X63625000Y-89145000D03*
X68575000Y-89145000D03*
X68575000Y-87875000D03*
X68575000Y-86605000D03*
X68575000Y-85335000D03*
X68575000Y-84065000D03*
X68575000Y-82795000D03*
X68575000Y-81525000D03*
X68575000Y-80255000D03*
%TD*%
D16*
%TO.C,R26*%
X60425000Y-66900000D03*
X58775000Y-66900000D03*
%TD*%
D14*
%TO.C,R51*%
X85675000Y-65300000D03*
X87325000Y-65300000D03*
%TD*%
D16*
%TO.C,R65*%
X100225000Y-137800000D03*
X98575000Y-137800000D03*
%TD*%
D15*
%TO.C,C28*%
X71637500Y-134600000D03*
X73362500Y-134600000D03*
%TD*%
D25*
%TO.C,U1*%
X102100000Y-52150000D03*
X99800000Y-52150000D03*
D26*
X99800000Y-58450000D03*
D25*
X97500000Y-52150000D03*
%TD*%
D14*
%TO.C,R28*%
X71675000Y-65300000D03*
X73325000Y-65300000D03*
%TD*%
D12*
%TO.C,C38*%
X60462500Y-117400000D03*
X58737500Y-117400000D03*
%TD*%
D14*
%TO.C,R1*%
X75375000Y-105100000D03*
X77025000Y-105100000D03*
%TD*%
D16*
%TO.C,R15*%
X60425000Y-74100000D03*
X58775000Y-74100000D03*
%TD*%
%TO.C,R40*%
X87325000Y-74100000D03*
X85675000Y-74100000D03*
%TD*%
%TO.C,R93*%
X60425000Y-115800000D03*
X58775000Y-115800000D03*
%TD*%
%TO.C,R27*%
X60425000Y-70900000D03*
X58775000Y-70900000D03*
%TD*%
D14*
%TO.C,R3*%
X75375000Y-108300000D03*
X77025000Y-108300000D03*
%TD*%
%TO.C,R97*%
X58775000Y-114200000D03*
X60425000Y-114200000D03*
%TD*%
D16*
%TO.C,R49*%
X87325000Y-70900000D03*
X85675000Y-70900000D03*
%TD*%
%TO.C,R14*%
X60425000Y-82500000D03*
X58775000Y-82500000D03*
%TD*%
D23*
%TO.C,U12*%
X90525000Y-80255000D03*
X90525000Y-81525000D03*
X90525000Y-82795000D03*
X90525000Y-84065000D03*
X90525000Y-85335000D03*
X90525000Y-86605000D03*
X90525000Y-87875000D03*
X90525000Y-89145000D03*
X95475000Y-89145000D03*
X95475000Y-87875000D03*
X95475000Y-86605000D03*
X95475000Y-85335000D03*
X95475000Y-84065000D03*
X95475000Y-82795000D03*
X95475000Y-81525000D03*
X95475000Y-80255000D03*
%TD*%
D16*
%TO.C,R101*%
X58525000Y-109400000D03*
X56875000Y-109400000D03*
%TD*%
D14*
%TO.C,R96*%
X71675000Y-114200000D03*
X73325000Y-114200000D03*
%TD*%
%TO.C,R6*%
X75375000Y-109900000D03*
X77025000Y-109900000D03*
%TD*%
M02*
