M48
; DRILL file {KiCad 7.0.7} date Thu Aug 17 15:14:34 2023
; FORMAT={-:-/ absolute / inch / decimal}
; #@! TF.CreationDate,2023-08-17T15:14:34+01:00
; #@! TF.GenerationSoftware,Kicad,Pcbnew,7.0.7
; #@! TF.FileFunction,Plated,1,4,PTH
FMAT,2
INCH
; #@! TA.AperFunction,Plated,PTH,ViaDrill
T1C0.0157
; #@! TA.AperFunction,Plated,PTH,ViaDrill
T2C0.0197
; #@! TA.AperFunction,Plated,PTH,ComponentDrill
T3C0.0315
; #@! TA.AperFunction,Plated,PTH,ComponentDrill
T4C0.0394
; #@! TA.AperFunction,Plated,PTH,ComponentDrill
T5C0.0512
%
G90
G05
T1
X2.0118Y-2.2047
X2.0669Y-3.5
X2.1339Y-3.5551
X2.1575Y-2.7402
X2.1575Y-4.7126
X2.1614Y-4.8898
X2.1772Y-3.2441
X2.1772Y-3.5551
X2.1929Y-4.8307
X2.2283Y-5.8465
X2.2638Y-2.2638
X2.2638Y-2.9882
X2.2638Y-3.2795
X2.2638Y-3.3976
X2.2638Y-4.6339
X2.2677Y-5.2992
X2.2756Y-2.9055
X2.2756Y-3.0581
X2.2992Y-4.189
X2.3346Y-2.2283
X2.3425Y-3.4724
X2.4055Y-2.311
X2.4055Y-4.3268
X2.437Y-2.9409
X2.437Y-4.5591
X2.4449Y-4.6535
X2.4921Y-4.9685
X2.5079Y-4.2047
X2.5276Y-4.3622
X2.5387Y-4.8667
X2.5433Y-4.9213
X2.5454Y-2.9617
X2.563Y-4.4488
X2.5748Y-2.5236
X2.5984Y-3.9291
X2.6535Y-2.8386
X2.6535Y-4.815
X2.6772Y-3.1102
X2.6772Y-4.9567
X2.6939Y-4.2323
X2.752Y-5.0118
X2.7598Y-3.0984
X2.7598Y-5.437
X2.7632Y-4.7864
X2.7638Y-2.5748
X2.7638Y-3.5315
X2.7795Y-2.815
X2.7913Y-2.8622
X2.7913Y-4.8858
X2.8071Y-4.7402
X2.8346Y-4.8386
X2.8701Y-4.2441
X2.8701Y-4.3071
X2.9173Y-4.2008
X2.9252Y-3.4646
X2.9449Y-3.5394
X2.9488Y-2.5079
X2.9488Y-3.3583
X2.9488Y-5.1102
X2.9567Y-5.4252
X2.9606Y-2.6299
X2.9606Y-5.3622
X2.9646Y-3.4409
X2.9843Y-4.563
X3.0197Y-4.438
X3.0301Y-3.219
X3.0512Y-4.689
X3.0669Y-2.9173
X3.0669Y-4.2008
X3.0709Y-3.2717
X3.0827Y-4.0591
X3.0827Y-4.7835
X3.0935Y-3.3609
X3.1024Y-5.0748
X3.1039Y-5.3297
X3.1132Y-4.574
X3.122Y-2.8031
X3.122Y-4.1377
X3.1535Y-2.8425
X3.1772Y-4.9134
X3.1841Y-4.6552
X3.2047Y-4.6929
X3.2362Y-4.7323
X3.2402Y-2.9882
X3.2431Y-3.4449
X3.2849Y-3.3086
X3.2953Y-4.4331
X3.3189Y-4.9134
X3.3267Y-5.3907
X3.3268Y-3.0315
X3.3268Y-3.126
X3.3268Y-4.9843
X3.3268Y-5.063
X3.3268Y-5.2362
X3.3268Y-5.2992
X3.3277Y-2.9488
X3.3307Y-3.2126
X3.3307Y-3.3039
X3.3307Y-3.3954
X3.3307Y-3.4449
X3.3307Y-4.8504
X3.3324Y-3.5206
X3.4528Y-4.2008
X3.4961Y-3.2598
X3.4961Y-4.5472
X3.4961Y-4.8504
X3.4961Y-4.8937
X3.5009Y-2.9458
X3.5512Y-4.6575
X3.5945Y-2.9685
X3.5945Y-4.2165
X3.6102Y-2.0827
X3.622Y-4.4646
X3.6358Y-2.5256
X3.6614Y-4.1535
X3.6654Y-4.2795
X3.6772Y-2.0079
X3.7008Y-2.8819
X3.7283Y-4.7913
X3.7362Y-4.9606
X3.7441Y-2.0827
X3.7913Y-2.7244
X3.8189Y-4.5
X3.8189Y-5.4409
X3.8228Y-2.5748
X3.8228Y-3.5236
X3.8238Y-2.9011
X3.8268Y-4.815
X3.8307Y-3.0591
X3.8504Y-2.8465
X3.8701Y-4.7638
X3.9413Y-4.9221
X3.9449Y-4.0787
X3.9488Y-2.4331
X3.9843Y-4.4409
X3.9847Y-3.5005
X3.9882Y-3.437
X4.0Y-5.4252
X4.0039Y-5.3622
X4.0039Y-5.5512
X4.0079Y-4.1693
X4.0079Y-5.2647
X4.0276Y-3.3543
X4.0394Y-2.5315
X4.0787Y-2.0551
X4.1102Y-4.4094
X4.252Y-2.0827
T2
X2.2638Y-4.7598
X2.4173Y-4.9488
X2.4252Y-3.0236
X2.4291Y-2.7047
X2.437Y-3.4616
X2.4409Y-5.3858
X2.5827Y-4.6535
X2.6378Y-3.2717
X2.6693Y-3.9764
X2.7516Y-5.0793
X2.7598Y-3.1575
X2.7598Y-5.185
X2.7795Y-4.3937
X2.9138Y-4.5193
X2.9252Y-2.5709
X3.3228Y-2.7638
X3.3307Y-4.7402
X3.3976Y-4.2677
X3.4055Y-2.4213
X3.4843Y-2.7244
X3.4882Y-4.626
X3.4921Y-3.0394
X3.4921Y-5.4331
X3.5Y-3.4557
X3.5039Y-4.9882
X3.6378Y-4.0906
X3.7598Y-3.1142
X3.7638Y-5.0512
X3.8189Y-4.1535
X3.8302Y-3.2357
X3.8307Y-4.4055
X3.8307Y-5.1654
X3.8391Y-4.3031
X3.937Y-3.9724
X3.9843Y-2.5669
X3.9882Y-4.4961
X4.0079Y-4.1181
X4.1838Y-2.3071
T3
X2.3425Y-3.8268
X2.3425Y-5.752
X2.4425Y-3.7268
X2.4425Y-5.652
X2.5425Y-3.8268
X2.5425Y-5.752
X2.6969Y-3.8268
X2.6969Y-5.752
X2.7969Y-3.7268
X2.7969Y-5.652
X2.8882Y-2.8764
X2.8882Y-4.7986
X2.8969Y-3.8268
X2.8969Y-5.752
X2.9882Y-2.7764
X2.9882Y-2.9764
X2.9882Y-4.6986
X2.9882Y-4.8986
X3.4016Y-3.8268
X3.4016Y-5.752
X3.5016Y-3.7268
X3.5016Y-5.652
X3.6016Y-3.8268
X3.6016Y-5.752
X3.7559Y-3.8268
X3.7559Y-5.752
X3.8559Y-3.7268
X3.8559Y-5.652
X3.9433Y-2.8764
X3.9472Y-4.7986
X3.9559Y-3.8268
X3.9559Y-5.752
X4.0433Y-2.7764
X4.0433Y-2.9764
X4.0472Y-4.6986
X4.0472Y-4.8986
T4
X2.0787Y-2.4803
X2.0787Y-2.5803
X2.0787Y-2.6803
X2.0787Y-2.7803
X2.0787Y-2.8803
X2.0787Y-2.9803
X2.0787Y-3.0803
X2.0787Y-3.1803
X2.0787Y-3.2803
X2.0787Y-3.3803
X2.0787Y-4.7244
X2.0787Y-4.8244
X2.0787Y-4.9244
X2.0787Y-5.0244
X2.0787Y-5.1244
X2.0787Y-5.2244
X2.0787Y-5.3244
X2.0787Y-5.4244
X2.0787Y-5.5244
X2.0787Y-5.6244
X2.9213Y-2.1323
X2.9213Y-2.2323
X3.0213Y-2.1323
X3.0213Y-2.2323
X3.1213Y-2.1323
X3.1213Y-2.2323
X3.2213Y-2.1323
X3.2213Y-2.2323
X3.3213Y-2.1323
X3.3213Y-2.2323
X4.2165Y-2.4803
X4.2165Y-2.5803
X4.2165Y-2.6803
X4.2165Y-2.7803
X4.2165Y-2.8803
X4.2165Y-2.9803
X4.2165Y-3.0803
X4.2165Y-3.1803
X4.2165Y-3.2803
X4.2165Y-3.3803
X4.2165Y-4.7165
X4.2165Y-4.8165
X4.2165Y-4.9165
X4.2165Y-5.0165
X4.2165Y-5.1165
X4.2165Y-5.2165
X4.2165Y-5.3165
X4.2165Y-5.4165
X4.2165Y-5.5165
X4.2165Y-5.6165
T5
X2.0787Y-2.2992
X2.0827Y-3.9094
X2.0827Y-4.0827
X3.1496Y-5.6535
X4.2362Y-3.7283
X4.2362Y-3.9055
X4.2362Y-4.0827
X4.2362Y-4.2717
T0
M30
