%TF.GenerationSoftware,KiCad,Pcbnew,7.0.6*%
%TF.CreationDate,2023-08-14T18:27:38+01:00*%
%TF.ProjectId,Quadraphone_Components,51756164-7261-4706-986f-6e655f436f6d,rev?*%
%TF.SameCoordinates,Original*%
%TF.FileFunction,Legend,Bot*%
%TF.FilePolarity,Positive*%
%FSLAX46Y46*%
G04 Gerber Fmt 4.6, Leading zero omitted, Abs format (unit mm)*
G04 Created by KiCad (PCBNEW 7.0.6) date 2023-08-14 18:27:38*
%MOMM*%
%LPD*%
G01*
G04 APERTURE LIST*
%ADD10C,0.150000*%
%ADD11C,0.120000*%
%ADD12C,0.100000*%
%ADD13C,2.000000*%
%ADD14R,1.700000X1.700000*%
%ADD15C,1.700000*%
%ADD16C,1.440000*%
%ADD17O,1.700000X1.700000*%
G04 APERTURE END LIST*
D10*
X90857144Y-62745057D02*
X90952382Y-62697438D01*
X90952382Y-62697438D02*
X91047620Y-62602200D01*
X91047620Y-62602200D02*
X91190477Y-62459342D01*
X91190477Y-62459342D02*
X91285715Y-62411723D01*
X91285715Y-62411723D02*
X91380953Y-62411723D01*
X91333334Y-62649819D02*
X91428572Y-62602200D01*
X91428572Y-62602200D02*
X91523810Y-62506961D01*
X91523810Y-62506961D02*
X91571429Y-62316485D01*
X91571429Y-62316485D02*
X91571429Y-61983152D01*
X91571429Y-61983152D02*
X91523810Y-61792676D01*
X91523810Y-61792676D02*
X91428572Y-61697438D01*
X91428572Y-61697438D02*
X91333334Y-61649819D01*
X91333334Y-61649819D02*
X91142858Y-61649819D01*
X91142858Y-61649819D02*
X91047620Y-61697438D01*
X91047620Y-61697438D02*
X90952382Y-61792676D01*
X90952382Y-61792676D02*
X90904763Y-61983152D01*
X90904763Y-61983152D02*
X90904763Y-62316485D01*
X90904763Y-62316485D02*
X90952382Y-62506961D01*
X90952382Y-62506961D02*
X91047620Y-62602200D01*
X91047620Y-62602200D02*
X91142858Y-62649819D01*
X91142858Y-62649819D02*
X91333334Y-62649819D01*
X90047620Y-61983152D02*
X90047620Y-62649819D01*
X90476191Y-61983152D02*
X90476191Y-62506961D01*
X90476191Y-62506961D02*
X90428572Y-62602200D01*
X90428572Y-62602200D02*
X90333334Y-62649819D01*
X90333334Y-62649819D02*
X90190477Y-62649819D01*
X90190477Y-62649819D02*
X90095239Y-62602200D01*
X90095239Y-62602200D02*
X90047620Y-62554580D01*
X89142858Y-62649819D02*
X89142858Y-62126009D01*
X89142858Y-62126009D02*
X89190477Y-62030771D01*
X89190477Y-62030771D02*
X89285715Y-61983152D01*
X89285715Y-61983152D02*
X89476191Y-61983152D01*
X89476191Y-61983152D02*
X89571429Y-62030771D01*
X89142858Y-62602200D02*
X89238096Y-62649819D01*
X89238096Y-62649819D02*
X89476191Y-62649819D01*
X89476191Y-62649819D02*
X89571429Y-62602200D01*
X89571429Y-62602200D02*
X89619048Y-62506961D01*
X89619048Y-62506961D02*
X89619048Y-62411723D01*
X89619048Y-62411723D02*
X89571429Y-62316485D01*
X89571429Y-62316485D02*
X89476191Y-62268866D01*
X89476191Y-62268866D02*
X89238096Y-62268866D01*
X89238096Y-62268866D02*
X89142858Y-62221247D01*
X88238096Y-62649819D02*
X88238096Y-61649819D01*
X88238096Y-62602200D02*
X88333334Y-62649819D01*
X88333334Y-62649819D02*
X88523810Y-62649819D01*
X88523810Y-62649819D02*
X88619048Y-62602200D01*
X88619048Y-62602200D02*
X88666667Y-62554580D01*
X88666667Y-62554580D02*
X88714286Y-62459342D01*
X88714286Y-62459342D02*
X88714286Y-62173628D01*
X88714286Y-62173628D02*
X88666667Y-62078390D01*
X88666667Y-62078390D02*
X88619048Y-62030771D01*
X88619048Y-62030771D02*
X88523810Y-61983152D01*
X88523810Y-61983152D02*
X88333334Y-61983152D01*
X88333334Y-61983152D02*
X88238096Y-62030771D01*
X87761905Y-62649819D02*
X87761905Y-61983152D01*
X87761905Y-62173628D02*
X87714286Y-62078390D01*
X87714286Y-62078390D02*
X87666667Y-62030771D01*
X87666667Y-62030771D02*
X87571429Y-61983152D01*
X87571429Y-61983152D02*
X87476191Y-61983152D01*
X86714286Y-62649819D02*
X86714286Y-62126009D01*
X86714286Y-62126009D02*
X86761905Y-62030771D01*
X86761905Y-62030771D02*
X86857143Y-61983152D01*
X86857143Y-61983152D02*
X87047619Y-61983152D01*
X87047619Y-61983152D02*
X87142857Y-62030771D01*
X86714286Y-62602200D02*
X86809524Y-62649819D01*
X86809524Y-62649819D02*
X87047619Y-62649819D01*
X87047619Y-62649819D02*
X87142857Y-62602200D01*
X87142857Y-62602200D02*
X87190476Y-62506961D01*
X87190476Y-62506961D02*
X87190476Y-62411723D01*
X87190476Y-62411723D02*
X87142857Y-62316485D01*
X87142857Y-62316485D02*
X87047619Y-62268866D01*
X87047619Y-62268866D02*
X86809524Y-62268866D01*
X86809524Y-62268866D02*
X86714286Y-62221247D01*
X86238095Y-61983152D02*
X86238095Y-62983152D01*
X86238095Y-62030771D02*
X86142857Y-61983152D01*
X86142857Y-61983152D02*
X85952381Y-61983152D01*
X85952381Y-61983152D02*
X85857143Y-62030771D01*
X85857143Y-62030771D02*
X85809524Y-62078390D01*
X85809524Y-62078390D02*
X85761905Y-62173628D01*
X85761905Y-62173628D02*
X85761905Y-62459342D01*
X85761905Y-62459342D02*
X85809524Y-62554580D01*
X85809524Y-62554580D02*
X85857143Y-62602200D01*
X85857143Y-62602200D02*
X85952381Y-62649819D01*
X85952381Y-62649819D02*
X86142857Y-62649819D01*
X86142857Y-62649819D02*
X86238095Y-62602200D01*
X85333333Y-62649819D02*
X85333333Y-61649819D01*
X84904762Y-62649819D02*
X84904762Y-62126009D01*
X84904762Y-62126009D02*
X84952381Y-62030771D01*
X84952381Y-62030771D02*
X85047619Y-61983152D01*
X85047619Y-61983152D02*
X85190476Y-61983152D01*
X85190476Y-61983152D02*
X85285714Y-62030771D01*
X85285714Y-62030771D02*
X85333333Y-62078390D01*
X84285714Y-62649819D02*
X84380952Y-62602200D01*
X84380952Y-62602200D02*
X84428571Y-62554580D01*
X84428571Y-62554580D02*
X84476190Y-62459342D01*
X84476190Y-62459342D02*
X84476190Y-62173628D01*
X84476190Y-62173628D02*
X84428571Y-62078390D01*
X84428571Y-62078390D02*
X84380952Y-62030771D01*
X84380952Y-62030771D02*
X84285714Y-61983152D01*
X84285714Y-61983152D02*
X84142857Y-61983152D01*
X84142857Y-61983152D02*
X84047619Y-62030771D01*
X84047619Y-62030771D02*
X84000000Y-62078390D01*
X84000000Y-62078390D02*
X83952381Y-62173628D01*
X83952381Y-62173628D02*
X83952381Y-62459342D01*
X83952381Y-62459342D02*
X84000000Y-62554580D01*
X84000000Y-62554580D02*
X84047619Y-62602200D01*
X84047619Y-62602200D02*
X84142857Y-62649819D01*
X84142857Y-62649819D02*
X84285714Y-62649819D01*
X83523809Y-61983152D02*
X83523809Y-62649819D01*
X83523809Y-62078390D02*
X83476190Y-62030771D01*
X83476190Y-62030771D02*
X83380952Y-61983152D01*
X83380952Y-61983152D02*
X83238095Y-61983152D01*
X83238095Y-61983152D02*
X83142857Y-62030771D01*
X83142857Y-62030771D02*
X83095238Y-62126009D01*
X83095238Y-62126009D02*
X83095238Y-62649819D01*
X82238095Y-62602200D02*
X82333333Y-62649819D01*
X82333333Y-62649819D02*
X82523809Y-62649819D01*
X82523809Y-62649819D02*
X82619047Y-62602200D01*
X82619047Y-62602200D02*
X82666666Y-62506961D01*
X82666666Y-62506961D02*
X82666666Y-62126009D01*
X82666666Y-62126009D02*
X82619047Y-62030771D01*
X82619047Y-62030771D02*
X82523809Y-61983152D01*
X82523809Y-61983152D02*
X82333333Y-61983152D01*
X82333333Y-61983152D02*
X82238095Y-62030771D01*
X82238095Y-62030771D02*
X82190476Y-62126009D01*
X82190476Y-62126009D02*
X82190476Y-62221247D01*
X82190476Y-62221247D02*
X82666666Y-62316485D01*
X80428571Y-62554580D02*
X80476190Y-62602200D01*
X80476190Y-62602200D02*
X80619047Y-62649819D01*
X80619047Y-62649819D02*
X80714285Y-62649819D01*
X80714285Y-62649819D02*
X80857142Y-62602200D01*
X80857142Y-62602200D02*
X80952380Y-62506961D01*
X80952380Y-62506961D02*
X80999999Y-62411723D01*
X80999999Y-62411723D02*
X81047618Y-62221247D01*
X81047618Y-62221247D02*
X81047618Y-62078390D01*
X81047618Y-62078390D02*
X80999999Y-61887914D01*
X80999999Y-61887914D02*
X80952380Y-61792676D01*
X80952380Y-61792676D02*
X80857142Y-61697438D01*
X80857142Y-61697438D02*
X80714285Y-61649819D01*
X80714285Y-61649819D02*
X80619047Y-61649819D01*
X80619047Y-61649819D02*
X80476190Y-61697438D01*
X80476190Y-61697438D02*
X80428571Y-61745057D01*
X79857142Y-62649819D02*
X79952380Y-62602200D01*
X79952380Y-62602200D02*
X79999999Y-62554580D01*
X79999999Y-62554580D02*
X80047618Y-62459342D01*
X80047618Y-62459342D02*
X80047618Y-62173628D01*
X80047618Y-62173628D02*
X79999999Y-62078390D01*
X79999999Y-62078390D02*
X79952380Y-62030771D01*
X79952380Y-62030771D02*
X79857142Y-61983152D01*
X79857142Y-61983152D02*
X79714285Y-61983152D01*
X79714285Y-61983152D02*
X79619047Y-62030771D01*
X79619047Y-62030771D02*
X79571428Y-62078390D01*
X79571428Y-62078390D02*
X79523809Y-62173628D01*
X79523809Y-62173628D02*
X79523809Y-62459342D01*
X79523809Y-62459342D02*
X79571428Y-62554580D01*
X79571428Y-62554580D02*
X79619047Y-62602200D01*
X79619047Y-62602200D02*
X79714285Y-62649819D01*
X79714285Y-62649819D02*
X79857142Y-62649819D01*
X79095237Y-62649819D02*
X79095237Y-61983152D01*
X79095237Y-62078390D02*
X79047618Y-62030771D01*
X79047618Y-62030771D02*
X78952380Y-61983152D01*
X78952380Y-61983152D02*
X78809523Y-61983152D01*
X78809523Y-61983152D02*
X78714285Y-62030771D01*
X78714285Y-62030771D02*
X78666666Y-62126009D01*
X78666666Y-62126009D02*
X78666666Y-62649819D01*
X78666666Y-62126009D02*
X78619047Y-62030771D01*
X78619047Y-62030771D02*
X78523809Y-61983152D01*
X78523809Y-61983152D02*
X78380952Y-61983152D01*
X78380952Y-61983152D02*
X78285713Y-62030771D01*
X78285713Y-62030771D02*
X78238094Y-62126009D01*
X78238094Y-62126009D02*
X78238094Y-62649819D01*
X77761904Y-61983152D02*
X77761904Y-62983152D01*
X77761904Y-62030771D02*
X77666666Y-61983152D01*
X77666666Y-61983152D02*
X77476190Y-61983152D01*
X77476190Y-61983152D02*
X77380952Y-62030771D01*
X77380952Y-62030771D02*
X77333333Y-62078390D01*
X77333333Y-62078390D02*
X77285714Y-62173628D01*
X77285714Y-62173628D02*
X77285714Y-62459342D01*
X77285714Y-62459342D02*
X77333333Y-62554580D01*
X77333333Y-62554580D02*
X77380952Y-62602200D01*
X77380952Y-62602200D02*
X77476190Y-62649819D01*
X77476190Y-62649819D02*
X77666666Y-62649819D01*
X77666666Y-62649819D02*
X77761904Y-62602200D01*
X76714285Y-62649819D02*
X76809523Y-62602200D01*
X76809523Y-62602200D02*
X76857142Y-62554580D01*
X76857142Y-62554580D02*
X76904761Y-62459342D01*
X76904761Y-62459342D02*
X76904761Y-62173628D01*
X76904761Y-62173628D02*
X76857142Y-62078390D01*
X76857142Y-62078390D02*
X76809523Y-62030771D01*
X76809523Y-62030771D02*
X76714285Y-61983152D01*
X76714285Y-61983152D02*
X76571428Y-61983152D01*
X76571428Y-61983152D02*
X76476190Y-62030771D01*
X76476190Y-62030771D02*
X76428571Y-62078390D01*
X76428571Y-62078390D02*
X76380952Y-62173628D01*
X76380952Y-62173628D02*
X76380952Y-62459342D01*
X76380952Y-62459342D02*
X76428571Y-62554580D01*
X76428571Y-62554580D02*
X76476190Y-62602200D01*
X76476190Y-62602200D02*
X76571428Y-62649819D01*
X76571428Y-62649819D02*
X76714285Y-62649819D01*
X75952380Y-61983152D02*
X75952380Y-62649819D01*
X75952380Y-62078390D02*
X75904761Y-62030771D01*
X75904761Y-62030771D02*
X75809523Y-61983152D01*
X75809523Y-61983152D02*
X75666666Y-61983152D01*
X75666666Y-61983152D02*
X75571428Y-62030771D01*
X75571428Y-62030771D02*
X75523809Y-62126009D01*
X75523809Y-62126009D02*
X75523809Y-62649819D01*
X74666666Y-62602200D02*
X74761904Y-62649819D01*
X74761904Y-62649819D02*
X74952380Y-62649819D01*
X74952380Y-62649819D02*
X75047618Y-62602200D01*
X75047618Y-62602200D02*
X75095237Y-62506961D01*
X75095237Y-62506961D02*
X75095237Y-62126009D01*
X75095237Y-62126009D02*
X75047618Y-62030771D01*
X75047618Y-62030771D02*
X74952380Y-61983152D01*
X74952380Y-61983152D02*
X74761904Y-61983152D01*
X74761904Y-61983152D02*
X74666666Y-62030771D01*
X74666666Y-62030771D02*
X74619047Y-62126009D01*
X74619047Y-62126009D02*
X74619047Y-62221247D01*
X74619047Y-62221247D02*
X75095237Y-62316485D01*
X74190475Y-61983152D02*
X74190475Y-62649819D01*
X74190475Y-62078390D02*
X74142856Y-62030771D01*
X74142856Y-62030771D02*
X74047618Y-61983152D01*
X74047618Y-61983152D02*
X73904761Y-61983152D01*
X73904761Y-61983152D02*
X73809523Y-62030771D01*
X73809523Y-62030771D02*
X73761904Y-62126009D01*
X73761904Y-62126009D02*
X73761904Y-62649819D01*
X73428570Y-61983152D02*
X73047618Y-61983152D01*
X73285713Y-61649819D02*
X73285713Y-62506961D01*
X73285713Y-62506961D02*
X73238094Y-62602200D01*
X73238094Y-62602200D02*
X73142856Y-62649819D01*
X73142856Y-62649819D02*
X73047618Y-62649819D01*
X72761903Y-62602200D02*
X72666665Y-62649819D01*
X72666665Y-62649819D02*
X72476189Y-62649819D01*
X72476189Y-62649819D02*
X72380951Y-62602200D01*
X72380951Y-62602200D02*
X72333332Y-62506961D01*
X72333332Y-62506961D02*
X72333332Y-62459342D01*
X72333332Y-62459342D02*
X72380951Y-62364104D01*
X72380951Y-62364104D02*
X72476189Y-62316485D01*
X72476189Y-62316485D02*
X72619046Y-62316485D01*
X72619046Y-62316485D02*
X72714284Y-62268866D01*
X72714284Y-62268866D02*
X72761903Y-62173628D01*
X72761903Y-62173628D02*
X72761903Y-62126009D01*
X72761903Y-62126009D02*
X72714284Y-62030771D01*
X72714284Y-62030771D02*
X72619046Y-61983152D01*
X72619046Y-61983152D02*
X72476189Y-61983152D01*
X72476189Y-61983152D02*
X72380951Y-62030771D01*
X71238093Y-61983152D02*
X70999998Y-62649819D01*
X70999998Y-62649819D02*
X70761903Y-61983152D01*
X70476188Y-61649819D02*
X69857141Y-61649819D01*
X69857141Y-61649819D02*
X70190474Y-62030771D01*
X70190474Y-62030771D02*
X70047617Y-62030771D01*
X70047617Y-62030771D02*
X69952379Y-62078390D01*
X69952379Y-62078390D02*
X69904760Y-62126009D01*
X69904760Y-62126009D02*
X69857141Y-62221247D01*
X69857141Y-62221247D02*
X69857141Y-62459342D01*
X69857141Y-62459342D02*
X69904760Y-62554580D01*
X69904760Y-62554580D02*
X69952379Y-62602200D01*
X69952379Y-62602200D02*
X70047617Y-62649819D01*
X70047617Y-62649819D02*
X70333331Y-62649819D01*
X70333331Y-62649819D02*
X70428569Y-62602200D01*
X70428569Y-62602200D02*
X70476188Y-62554580D01*
X69428569Y-62554580D02*
X69380950Y-62602200D01*
X69380950Y-62602200D02*
X69428569Y-62649819D01*
X69428569Y-62649819D02*
X69476188Y-62602200D01*
X69476188Y-62602200D02*
X69428569Y-62554580D01*
X69428569Y-62554580D02*
X69428569Y-62649819D01*
X68761903Y-61649819D02*
X68666665Y-61649819D01*
X68666665Y-61649819D02*
X68571427Y-61697438D01*
X68571427Y-61697438D02*
X68523808Y-61745057D01*
X68523808Y-61745057D02*
X68476189Y-61840295D01*
X68476189Y-61840295D02*
X68428570Y-62030771D01*
X68428570Y-62030771D02*
X68428570Y-62268866D01*
X68428570Y-62268866D02*
X68476189Y-62459342D01*
X68476189Y-62459342D02*
X68523808Y-62554580D01*
X68523808Y-62554580D02*
X68571427Y-62602200D01*
X68571427Y-62602200D02*
X68666665Y-62649819D01*
X68666665Y-62649819D02*
X68761903Y-62649819D01*
X68761903Y-62649819D02*
X68857141Y-62602200D01*
X68857141Y-62602200D02*
X68904760Y-62554580D01*
X68904760Y-62554580D02*
X68952379Y-62459342D01*
X68952379Y-62459342D02*
X68999998Y-62268866D01*
X68999998Y-62268866D02*
X68999998Y-62030771D01*
X68999998Y-62030771D02*
X68952379Y-61840295D01*
X68952379Y-61840295D02*
X68904760Y-61745057D01*
X68904760Y-61745057D02*
X68857141Y-61697438D01*
X68857141Y-61697438D02*
X68761903Y-61649819D01*
X86380952Y-64259819D02*
X86380952Y-63259819D01*
X86380952Y-63259819D02*
X86047619Y-63974104D01*
X86047619Y-63974104D02*
X85714286Y-63259819D01*
X85714286Y-63259819D02*
X85714286Y-64259819D01*
X85095238Y-64259819D02*
X85190476Y-64212200D01*
X85190476Y-64212200D02*
X85238095Y-64164580D01*
X85238095Y-64164580D02*
X85285714Y-64069342D01*
X85285714Y-64069342D02*
X85285714Y-63783628D01*
X85285714Y-63783628D02*
X85238095Y-63688390D01*
X85238095Y-63688390D02*
X85190476Y-63640771D01*
X85190476Y-63640771D02*
X85095238Y-63593152D01*
X85095238Y-63593152D02*
X84952381Y-63593152D01*
X84952381Y-63593152D02*
X84857143Y-63640771D01*
X84857143Y-63640771D02*
X84809524Y-63688390D01*
X84809524Y-63688390D02*
X84761905Y-63783628D01*
X84761905Y-63783628D02*
X84761905Y-64069342D01*
X84761905Y-64069342D02*
X84809524Y-64164580D01*
X84809524Y-64164580D02*
X84857143Y-64212200D01*
X84857143Y-64212200D02*
X84952381Y-64259819D01*
X84952381Y-64259819D02*
X85095238Y-64259819D01*
X83904762Y-63593152D02*
X83904762Y-64259819D01*
X84333333Y-63593152D02*
X84333333Y-64116961D01*
X84333333Y-64116961D02*
X84285714Y-64212200D01*
X84285714Y-64212200D02*
X84190476Y-64259819D01*
X84190476Y-64259819D02*
X84047619Y-64259819D01*
X84047619Y-64259819D02*
X83952381Y-64212200D01*
X83952381Y-64212200D02*
X83904762Y-64164580D01*
X83428571Y-63593152D02*
X83428571Y-64259819D01*
X83428571Y-63688390D02*
X83380952Y-63640771D01*
X83380952Y-63640771D02*
X83285714Y-63593152D01*
X83285714Y-63593152D02*
X83142857Y-63593152D01*
X83142857Y-63593152D02*
X83047619Y-63640771D01*
X83047619Y-63640771D02*
X83000000Y-63736009D01*
X83000000Y-63736009D02*
X83000000Y-64259819D01*
X82666666Y-63593152D02*
X82285714Y-63593152D01*
X82523809Y-63259819D02*
X82523809Y-64116961D01*
X82523809Y-64116961D02*
X82476190Y-64212200D01*
X82476190Y-64212200D02*
X82380952Y-64259819D01*
X82380952Y-64259819D02*
X82285714Y-64259819D01*
X81952380Y-63593152D02*
X81952380Y-64450295D01*
X81952380Y-64450295D02*
X81999999Y-64545533D01*
X81999999Y-64545533D02*
X82095237Y-64593152D01*
X82095237Y-64593152D02*
X82142856Y-64593152D01*
X81952380Y-63259819D02*
X81999999Y-63307438D01*
X81999999Y-63307438D02*
X81952380Y-63355057D01*
X81952380Y-63355057D02*
X81904761Y-63307438D01*
X81904761Y-63307438D02*
X81952380Y-63259819D01*
X81952380Y-63259819D02*
X81952380Y-63355057D01*
X81333333Y-64259819D02*
X81428571Y-64212200D01*
X81428571Y-64212200D02*
X81476190Y-64164580D01*
X81476190Y-64164580D02*
X81523809Y-64069342D01*
X81523809Y-64069342D02*
X81523809Y-63783628D01*
X81523809Y-63783628D02*
X81476190Y-63688390D01*
X81476190Y-63688390D02*
X81428571Y-63640771D01*
X81428571Y-63640771D02*
X81333333Y-63593152D01*
X81333333Y-63593152D02*
X81190476Y-63593152D01*
X81190476Y-63593152D02*
X81095238Y-63640771D01*
X81095238Y-63640771D02*
X81047619Y-63688390D01*
X81047619Y-63688390D02*
X81000000Y-63783628D01*
X81000000Y-63783628D02*
X81000000Y-64069342D01*
X81000000Y-64069342D02*
X81047619Y-64164580D01*
X81047619Y-64164580D02*
X81095238Y-64212200D01*
X81095238Y-64212200D02*
X81190476Y-64259819D01*
X81190476Y-64259819D02*
X81333333Y-64259819D01*
X80666666Y-63593152D02*
X80428571Y-64259819D01*
X80190476Y-63593152D02*
X80428571Y-64259819D01*
X80428571Y-64259819D02*
X80523809Y-64497914D01*
X80523809Y-64497914D02*
X80571428Y-64545533D01*
X80571428Y-64545533D02*
X80666666Y-64593152D01*
X79047618Y-64259819D02*
X79047618Y-63259819D01*
X79047618Y-63259819D02*
X78714285Y-63974104D01*
X78714285Y-63974104D02*
X78380952Y-63259819D01*
X78380952Y-63259819D02*
X78380952Y-64259819D01*
X77761904Y-64259819D02*
X77857142Y-64212200D01*
X77857142Y-64212200D02*
X77904761Y-64164580D01*
X77904761Y-64164580D02*
X77952380Y-64069342D01*
X77952380Y-64069342D02*
X77952380Y-63783628D01*
X77952380Y-63783628D02*
X77904761Y-63688390D01*
X77904761Y-63688390D02*
X77857142Y-63640771D01*
X77857142Y-63640771D02*
X77761904Y-63593152D01*
X77761904Y-63593152D02*
X77619047Y-63593152D01*
X77619047Y-63593152D02*
X77523809Y-63640771D01*
X77523809Y-63640771D02*
X77476190Y-63688390D01*
X77476190Y-63688390D02*
X77428571Y-63783628D01*
X77428571Y-63783628D02*
X77428571Y-64069342D01*
X77428571Y-64069342D02*
X77476190Y-64164580D01*
X77476190Y-64164580D02*
X77523809Y-64212200D01*
X77523809Y-64212200D02*
X77619047Y-64259819D01*
X77619047Y-64259819D02*
X77761904Y-64259819D01*
X76571428Y-64259819D02*
X76571428Y-63259819D01*
X76571428Y-64212200D02*
X76666666Y-64259819D01*
X76666666Y-64259819D02*
X76857142Y-64259819D01*
X76857142Y-64259819D02*
X76952380Y-64212200D01*
X76952380Y-64212200D02*
X76999999Y-64164580D01*
X76999999Y-64164580D02*
X77047618Y-64069342D01*
X77047618Y-64069342D02*
X77047618Y-63783628D01*
X77047618Y-63783628D02*
X76999999Y-63688390D01*
X76999999Y-63688390D02*
X76952380Y-63640771D01*
X76952380Y-63640771D02*
X76857142Y-63593152D01*
X76857142Y-63593152D02*
X76666666Y-63593152D01*
X76666666Y-63593152D02*
X76571428Y-63640771D01*
X75666666Y-63593152D02*
X75666666Y-64259819D01*
X76095237Y-63593152D02*
X76095237Y-64116961D01*
X76095237Y-64116961D02*
X76047618Y-64212200D01*
X76047618Y-64212200D02*
X75952380Y-64259819D01*
X75952380Y-64259819D02*
X75809523Y-64259819D01*
X75809523Y-64259819D02*
X75714285Y-64212200D01*
X75714285Y-64212200D02*
X75666666Y-64164580D01*
X75047618Y-64259819D02*
X75142856Y-64212200D01*
X75142856Y-64212200D02*
X75190475Y-64116961D01*
X75190475Y-64116961D02*
X75190475Y-63259819D01*
X74238094Y-64259819D02*
X74238094Y-63736009D01*
X74238094Y-63736009D02*
X74285713Y-63640771D01*
X74285713Y-63640771D02*
X74380951Y-63593152D01*
X74380951Y-63593152D02*
X74571427Y-63593152D01*
X74571427Y-63593152D02*
X74666665Y-63640771D01*
X74238094Y-64212200D02*
X74333332Y-64259819D01*
X74333332Y-64259819D02*
X74571427Y-64259819D01*
X74571427Y-64259819D02*
X74666665Y-64212200D01*
X74666665Y-64212200D02*
X74714284Y-64116961D01*
X74714284Y-64116961D02*
X74714284Y-64021723D01*
X74714284Y-64021723D02*
X74666665Y-63926485D01*
X74666665Y-63926485D02*
X74571427Y-63878866D01*
X74571427Y-63878866D02*
X74333332Y-63878866D01*
X74333332Y-63878866D02*
X74238094Y-63831247D01*
X73761903Y-64259819D02*
X73761903Y-63593152D01*
X73761903Y-63783628D02*
X73714284Y-63688390D01*
X73714284Y-63688390D02*
X73666665Y-63640771D01*
X73666665Y-63640771D02*
X73571427Y-63593152D01*
X73571427Y-63593152D02*
X73476189Y-63593152D01*
D11*
%TO.C,J4*%
X108430000Y-143990000D02*
X105770000Y-143990000D01*
X108430000Y-121070000D02*
X108430000Y-143990000D01*
X108430000Y-121070000D02*
X105770000Y-121070000D01*
X108430000Y-119800000D02*
X108430000Y-118470000D01*
X108430000Y-118470000D02*
X107100000Y-118470000D01*
X105770000Y-121070000D02*
X105770000Y-143990000D01*
%TO.C,J3*%
X54130000Y-144190000D02*
X51470000Y-144190000D01*
X54130000Y-121270000D02*
X54130000Y-144190000D01*
X54130000Y-121270000D02*
X51470000Y-121270000D01*
X54130000Y-120000000D02*
X54130000Y-118670000D01*
X54130000Y-118670000D02*
X52800000Y-118670000D01*
X51470000Y-121270000D02*
X51470000Y-144190000D01*
%TO.C,J2*%
X108430000Y-87190000D02*
X105770000Y-87190000D01*
X108430000Y-64270000D02*
X108430000Y-87190000D01*
X108430000Y-64270000D02*
X105770000Y-64270000D01*
X108430000Y-63000000D02*
X108430000Y-61670000D01*
X108430000Y-61670000D02*
X107100000Y-61670000D01*
X105770000Y-64270000D02*
X105770000Y-87190000D01*
%TO.C,J1*%
X54130000Y-87190000D02*
X51470000Y-87190000D01*
X54130000Y-64270000D02*
X54130000Y-87190000D01*
X54130000Y-64270000D02*
X51470000Y-64270000D01*
X54130000Y-63000000D02*
X54130000Y-61670000D01*
X54130000Y-61670000D02*
X52800000Y-61670000D01*
X51470000Y-64270000D02*
X51470000Y-87190000D01*
%TD*%
%LPC*%
%TO.C,FID1*%
D12*
X109600000Y-149400000D02*
X101600000Y-149400000D01*
X101600000Y-147400000D01*
X109600000Y-147400000D01*
X109600000Y-149400000D01*
G36*
X109600000Y-149400000D02*
G01*
X101600000Y-149400000D01*
X101600000Y-147400000D01*
X109600000Y-147400000D01*
X109600000Y-149400000D01*
G37*
%TD*%
D13*
%TO.C,TP7*%
X52900000Y-103700000D03*
%TD*%
%TO.C,TP1*%
X52900000Y-99300000D03*
%TD*%
%TO.C,TP5*%
X107600000Y-108500000D03*
%TD*%
%TO.C,TP3*%
X107600000Y-99200000D03*
%TD*%
%TO.C,TP2*%
X107600000Y-94700000D03*
%TD*%
D14*
%TO.C,J5*%
X74200000Y-56700000D03*
D15*
X74200000Y-54160000D03*
X76740000Y-56700000D03*
X76740000Y-54160000D03*
X79280000Y-56700000D03*
X79280000Y-54160000D03*
X81820000Y-56700000D03*
X81820000Y-54160000D03*
X84360000Y-56700000D03*
X84360000Y-54160000D03*
%TD*%
D13*
%TO.C,TP6*%
X52800000Y-58400000D03*
%TD*%
D16*
%TO.C,HF_Track_Trim3*%
X68500000Y-146100000D03*
X71040000Y-143560000D03*
X73580000Y-146100000D03*
%TD*%
%TO.C,HF_Track_Trim1*%
X68500000Y-97200000D03*
X71040000Y-94660000D03*
X73580000Y-97200000D03*
%TD*%
%TO.C,Base_Freq_Trim4*%
X86400000Y-146100000D03*
X88940000Y-143560000D03*
X91480000Y-146100000D03*
%TD*%
%TO.C,Expo_Trim2*%
X102700000Y-75600000D03*
X100160000Y-73060000D03*
X102700000Y-70520000D03*
%TD*%
%TO.C,Base_Freq_Trim1*%
X59500000Y-97200000D03*
X62040000Y-94660000D03*
X64580000Y-97200000D03*
%TD*%
%TO.C,Expo_Trim3*%
X75900000Y-124425000D03*
X73360000Y-121885000D03*
X75900000Y-119345000D03*
%TD*%
%TO.C,Expo_Trim4*%
X102800000Y-124425000D03*
X100260000Y-121885000D03*
X102800000Y-119345000D03*
%TD*%
D13*
%TO.C,TP8*%
X107600000Y-103700000D03*
%TD*%
%TO.C,TP4*%
X80000000Y-143600000D03*
%TD*%
D16*
%TO.C,Base_Freq_Trim2*%
X86400000Y-97200000D03*
X88940000Y-94660000D03*
X91480000Y-97200000D03*
%TD*%
%TO.C,Expo_Trim1*%
X75900000Y-75600000D03*
X73360000Y-73060000D03*
X75900000Y-70520000D03*
%TD*%
%TO.C,Base_Freq_Trim3*%
X59500000Y-146100000D03*
X62040000Y-143560000D03*
X64580000Y-146100000D03*
%TD*%
%TO.C,HF_Track_Trim2*%
X95400000Y-97200000D03*
X97940000Y-94660000D03*
X100480000Y-97200000D03*
%TD*%
%TO.C,HF_Track_Trim4*%
X95400000Y-146100000D03*
X97940000Y-143560000D03*
X100480000Y-146100000D03*
%TD*%
D14*
%TO.C,J4*%
X107100000Y-119800000D03*
D17*
X107100000Y-122340000D03*
X107100000Y-124880000D03*
X107100000Y-127420000D03*
X107100000Y-129960000D03*
X107100000Y-132500000D03*
X107100000Y-135040000D03*
X107100000Y-137580000D03*
X107100000Y-140120000D03*
X107100000Y-142660000D03*
%TD*%
D14*
%TO.C,J3*%
X52800000Y-120000000D03*
D17*
X52800000Y-122540000D03*
X52800000Y-125080000D03*
X52800000Y-127620000D03*
X52800000Y-130160000D03*
X52800000Y-132700000D03*
X52800000Y-135240000D03*
X52800000Y-137780000D03*
X52800000Y-140320000D03*
X52800000Y-142860000D03*
%TD*%
D14*
%TO.C,J2*%
X107100000Y-63000000D03*
D17*
X107100000Y-65540000D03*
X107100000Y-68080000D03*
X107100000Y-70620000D03*
X107100000Y-73160000D03*
X107100000Y-75700000D03*
X107100000Y-78240000D03*
X107100000Y-80780000D03*
X107100000Y-83320000D03*
X107100000Y-85860000D03*
%TD*%
D14*
%TO.C,J1*%
X52800000Y-63000000D03*
D17*
X52800000Y-65540000D03*
X52800000Y-68080000D03*
X52800000Y-70620000D03*
X52800000Y-73160000D03*
X52800000Y-75700000D03*
X52800000Y-78240000D03*
X52800000Y-80780000D03*
X52800000Y-83320000D03*
X52800000Y-85860000D03*
%TD*%
%LPD*%
M02*
